<svg id="Слой_1" data-name="Слой 1" xmlns="http://www.w3.org/2000/svg" xmlns:xlink="http://www.w3.org/1999/xlink" viewBox="0 0 1159.94 760.54"><defs><style>.cls-1{fill:none;}.cls-2{fill:#363947;}.cls-3{fill:#373a48;}.cls-4{fill:#549e8a;}.cls-5{fill:url(#Безымянный_градиент_28);}.cls-6{fill:#f29171;}.cls-7{fill:#e2e9f7;}.cls-8{fill:url(#Безымянный_градиент_142);}.cls-9{fill:#fff;}.cls-10{isolation:isolate;}.cls-11{clip-path:url(#clip-path);}.cls-12{fill:#3a3551;}.cls-13{fill:url(#Безымянный_градиент_158);}.cls-14{fill:#4e4973;}.cls-15{fill:#e26c59;}.cls-16{fill:#f4cb00;}.cls-17{fill:#6bb53d;}.cls-18{fill:#8985b5;}.cls-19{fill:#e1e7ec;}.cls-20{fill:url(#Безымянный_градиент_142-2);}.cls-21{fill:url(#Безымянный_градиент_148);}.cls-22{clip-path:url(#clip-path-2);}.cls-23{fill:url(#Безымянный_градиент_172);}.cls-24{fill:#efeff0;}.cls-25{fill:#b8b7c4;}.cls-26{fill:#d9d8e4;}.cls-27{clip-path:url(#clip-path-3);}.cls-28{fill:#403954;}.cls-29{clip-path:url(#clip-path-4);}.cls-30{fill:#e8eef9;}.cls-31{fill:#47907b;}.cls-32{fill:url(#Безымянный_градиент_55);}.cls-33{fill:#945b46;}.cls-34{clip-path:url(#clip-path-5);}.cls-35{fill:#985d48;}.cls-36{clip-path:url(#clip-path-6);}.cls-37{fill:url(#Безымянный_градиент_28-3);}.cls-38{fill:url(#Безымянный_градиент_28-4);}.cls-39{fill:url(#Безымянный_градиент_28-5);}.cls-40{fill:url(#Безымянный_градиент_28-6);}.cls-41{clip-path:url(#clip-path-7);}.cls-42{clip-path:url(#clip-path-8);}.cls-43{clip-path:url(#clip-path-9);}.cls-44{fill:#f29172;}.cls-45{fill:url(#Безымянный_градиент_47);}.cls-46{clip-path:url(#clip-path-10);}.cls-47{fill:url(#Безымянный_градиент_21);}.cls-48{fill:#e27b76;}.cls-49{fill:#e06f61;}.cls-50{fill:url(#Безымянный_градиент_55-2);}.cls-51{clip-path:url(#clip-path-11);}.cls-52{fill:#a2b8b0;}.cls-53{fill:#a0b5ad;}.cls-54{fill:#9db2aa;}.cls-55{fill:#f3f4fa;}.cls-56{clip-path:url(#clip-path-12);}.cls-57{fill:#768781;}.cls-58{fill:#798a84;}.cls-59{fill:#7c8e87;}.cls-60{fill:#7f918b;}.cls-61{fill:#82958e;}.cls-62{fill:#859891;}.cls-63{fill:#889b94;}.cls-64{fill:#8b9f98;}.cls-65{fill:#8ea29b;}.cls-66{fill:#91a59e;}.cls-67{fill:#94a8a1;}.cls-68{fill:#97aca4;}.cls-69{fill:#9aafa7;}.cls-70{fill:#a5bbb3;}.cls-71{fill:#a8beb6;}.cls-72{fill:#aac1b9;}.cls-73{fill:#adc4bb;}.cls-74{fill:#b0c7be;}.cls-75{fill:#b3cac1;}.cls-76{fill:#b5cdc4;}.cls-77{fill:#b8d0c7;}.cls-78{fill:#bad3c9;}.cls-79{fill:#c4d9d0;}.cls-80{fill:#46475a;}.cls-81{clip-path:url(#clip-path-13);}.cls-82{clip-path:url(#clip-path-14);}.cls-83{fill:#cf9c98;}.cls-84{fill:url(#Безымянный_градиент_58);}.cls-85{fill:#c8d0ea;}</style><linearGradient id="Безымянный_градиент_28" x1="805.24" y1="448.37" x2="818.86" y2="434.75" gradientUnits="userSpaceOnUse"><stop offset="0" stop-color="#f29172"/><stop offset="0.45" stop-color="#f29171"/><stop offset="1" stop-color="#e06f61"/></linearGradient><linearGradient id="Безымянный_градиент_142" x1="242.03" y1="294.38" x2="684.43" y2="294.38" gradientUnits="userSpaceOnUse"><stop offset="0" stop-color="#c5ccdf"/><stop offset="0.2" stop-color="#c5cbde"/><stop offset="0.49" stop-color="#e0e2ed"/><stop offset="0.7" stop-color="#e0e4eb"/><stop offset="1" stop-color="#e0e1eb"/></linearGradient><clipPath id="clip-path"><polyline class="cls-1" points="682.16 222.69 626.1 508.6 234.92 370.27 290.98 84.37"/></clipPath><linearGradient id="Безымянный_градиент_158" x1="249.76" y1="297.42" x2="663.06" y2="297.42" gradientUnits="userSpaceOnUse"><stop offset="0" stop-color="#423d65"/><stop offset="1" stop-color="#423d65"/></linearGradient><linearGradient id="Безымянный_градиент_142-2" x1="209.61" y1="654.16" x2="487.54" y2="376.23" xlink:href="#Безымянный_градиент_142"/><linearGradient id="Безымянный_градиент_148" x1="209.42" y1="649.15" x2="485.48" y2="373.09" gradientUnits="userSpaceOnUse"><stop offset="0" stop-color="#c5ccdf"/><stop offset="0.2" stop-color="#c5cbde"/><stop offset="0.49" stop-color="#fff"/><stop offset="0.7" stop-color="#e0e4eb"/><stop offset="1" stop-color="#e0e1eb"/></linearGradient><clipPath id="clip-path-2"><polygon class="cls-1" points="72.31 517.98 234.62 364.45 622.43 502.45 460.12 655.99 72.31 517.98"/></clipPath><linearGradient id="Безымянный_градиент_172" x1="180.9" y1="483.13" x2="565.04" y2="483.13" gradientUnits="userSpaceOnUse"><stop offset="0" stop-color="#544165"/><stop offset="1" stop-color="#3a3651"/></linearGradient><clipPath id="clip-path-3"><polygon class="cls-1" points="594.17 536 594.08 532.3 613.84 513.42 613.92 517.12 594.17 536"/></clipPath><clipPath id="clip-path-4"><path class="cls-4" d="M821.86,549.19,719.58,380.5c1,1.69,3.35,2.55,6,2l102.28,168.7C825.21,551.74,822.89,550.89,821.86,549.19Z"/></clipPath><linearGradient id="Безымянный_градиент_55" x1="760.6" y1="461.54" x2="781.8" y2="449.3" gradientUnits="userSpaceOnUse"><stop offset="0" stop-color="#549e8a"/><stop offset="0.69" stop-color="#47907b"/><stop offset="1" stop-color="#549e8a"/></linearGradient><clipPath id="clip-path-5"><path class="cls-1" d="M738.91,361.87,897,520.62a3.52,3.52,0,0,1,1,2.56L739.89,364.43A3.58,3.58,0,0,0,738.91,361.87Z"/></clipPath><clipPath id="clip-path-6"><path class="cls-5" d="M742.46,358.35l158.1,158.74c-1.77-1.77-4.7-2.33-8-1.21a15.12,15.12,0,0,0-9.47,10.33L725,367.46a15.14,15.14,0,0,1,9.48-10.33C737.77,356,740.7,356.57,742.46,358.35Z"/></clipPath><linearGradient id="Безымянный_градиент_28-3" x1="804.79" y1="447.91" x2="818.31" y2="434.4" xlink:href="#Безымянный_градиент_28"/><linearGradient id="Безымянный_градиент_28-4" x1="820.53" y1="437.27" x2="820.92" y2="436.87" xlink:href="#Безымянный_градиент_28"/><linearGradient id="Безымянный_градиент_28-5" x1="820.97" y1="437.57" x2="821.33" y2="437.22" xlink:href="#Безымянный_градиент_28"/><linearGradient id="Безымянный_градиент_28-6" x1="821.27" y1="437.81" x2="821.6" y2="437.48" xlink:href="#Безымянный_градиент_28"/><clipPath id="clip-path-7"><path class="cls-6" d="M865.9,529.68,707.8,370.93a4,4,0,0,0,4.31.91L870.2,530.58A4,4,0,0,1,865.9,529.68Z"/></clipPath><clipPath id="clip-path-8"><path class="cls-7" d="M734.67,350.68,892.76,509.42c-1.76-1.77-4.69-2.33-8-1.21a15.12,15.12,0,0,0-9.48,10.33L717.19,359.79a15.09,15.09,0,0,1,9.47-10.32C730,348.34,732.9,348.9,734.67,350.68Z"/></clipPath><clipPath id="clip-path-9"><path class="cls-7" d="M858.1,522,700,363.26a4,4,0,0,0,4.31.91l158.1,158.74A4,4,0,0,1,858.1,522Z"/></clipPath><linearGradient id="Безымянный_градиент_47" x1="810.42" y1="418.74" x2="819.8" y2="409.37" gradientUnits="userSpaceOnUse"><stop offset="0" stop-color="#f29172"/><stop offset="0.64" stop-color="#ef7f64"/><stop offset="1" stop-color="#f29172"/></linearGradient><clipPath id="clip-path-10"><path class="cls-1" d="M884.52,499.91,726.42,341.17a5.91,5.91,0,0,1-1.5-2.67L883,497.25A5.83,5.83,0,0,0,884.52,499.91Z"/></clipPath><linearGradient id="Безымянный_градиент_21" x1="775.74" y1="446.54" x2="809.11" y2="413.17" gradientUnits="userSpaceOnUse"><stop offset="0" stop-color="#e06f61"/><stop offset="0.37" stop-color="#e06f61"/><stop offset="0.59" stop-color="#f29171"/><stop offset="1" stop-color="#f29172"/></linearGradient><linearGradient id="Безымянный_градиент_55-2" x1="954.31" y1="484.63" x2="966.26" y2="484.63" xlink:href="#Безымянный_градиент_55"/><clipPath id="clip-path-11"><path class="cls-1" d="M713,539.81l23.82,15.11c-13.53,7.59-35.17,7.38-48.32-.49s-12.85-20.39.68-28,35.17-7.37,48.33.49,12.84,20.4-.69,28Z"/></clipPath><clipPath id="clip-path-12"><path class="cls-1" d="M671.78,400.36c-6.09,9.11-2.93,19.86,9.6,27.35,17.16,10.26,45.38,10.54,63,.64l1.11,3.27c-18.29,10.26-47.52,10-65.3-.66-13-7.77-16.26-18.9-10-28.34Z"/></clipPath><clipPath id="clip-path-13"><path class="cls-2" d="M681.61,399.64v0Zm0,.84v0Zm0,.83v0Zm0,.81v0Zm54.55-15.72c-12.23-7.31-32.34-7.52-44.92-.46-6.39,3.59-9.61,8.36-9.62,13.15a11,11,0,0,0,.59,3.56c1.21-3.53,4.22-6.89,9-9.58,12.58-7.05,32.69-6.85,44.92.46,6,3.59,9,8.23,9,12.87l0-7.14C745.15,394.63,742.16,390,736.15,386.4Zm-54.54,12.69v0Zm0,5.38v0Z"/></clipPath><clipPath id="clip-path-14"><path class="cls-3" d="M665.39,401.72l.34-.85.16-.43.33-.85.33-.85.17-.42.33-.85.33-.85.17-.43.33-.84.33-.85.17-.43.33-.85c-3.3,8.45.62,17.68,11.83,24.38,17.62,10.54,46.61,10.83,64.75.66l2.33,10.34c-19.48,10.92-50.6,10.61-69.53-.7C666.06,420.7,661.85,410.79,665.39,401.72Z"/></clipPath><linearGradient id="Безымянный_градиент_58" x1="666.18" y1="488.72" x2="760.33" y2="488.72" gradientUnits="userSpaceOnUse"><stop offset="0" stop-color="#c08885"/><stop offset="0.69" stop-color="#cf9c98"/><stop offset="1" stop-color="#ce9c98"/></linearGradient></defs><path class="cls-8" d="M308.39,85.84c-7-2.48-13.93,1.68-15.42,9.3L242.32,353.45c-1.5,7.62,3,15.81,10,18.29L618.08,501.07a12.22,12.22,0,0,0,2.9.65l1.45,1.92,4.7-3a11.3,11.3,0,0,0,2-1.29l.09-.06h0a12.66,12.66,0,0,0,4.31-7.48l50.65-258.3c1.49-7.62-3-15.81-10-18.3Z"/><path class="cls-9" d="M307.81,89.78c-7-2.46-13.81,1.67-15.29,9.22l-50.2,255.86c-1.48,7.55,3,15.67,9.92,18.13L614.78,501.1a12.46,12.46,0,0,0,2.87.64l1.44,1.9,4.66-3a11.09,11.09,0,0,0,2-1.28l.09-.06h0a12.6,12.6,0,0,0,4.27-7.4L680.27,236c1.48-7.55-3-15.67-9.93-18.13Z"/><g class="cls-10"><g class="cls-11"><path class="cls-12" d="M667,237.34l-4,20.17L618,487.37,249.76,357.16l49-249.7m0,0,.06-.32m4.91-18.27c-7-2.49-13.93,1.68-15.43,9.3l-50.64,258.3c-1.5,7.62,3,15.81,10,18.3L613.38,504.1c7,2.48,13.93-1.68,15.42-9.3l50.65-258.31c1.5-7.62-3-15.81-10-18.29m0,0"/><path class="cls-13" d="M318.09,233.19a.87.87,0,0,1-.53-1l2.88-14.67a.61.61,0,0,1,.81-.49.87.87,0,0,1,.52,1l-2.88,14.67a.6.6,0,0,1-.8.49m-31.93-7.35a7.51,7.51,0,0,1-4.57-8.35l2.5-12.74a5.28,5.28,0,0,1,7-4.24l17.61,6.23a7.5,7.5,0,0,1,4.57,8.35l-2.5,12.74a5.26,5.26,0,0,1-7,4.24l-17.62-6.23m13.29-42.63-1.11-1.76a4.71,4.71,0,0,1,2.48-.93,7,7,0,0,1,3.09.44,6.34,6.34,0,0,1,3.27,2.38,4.49,4.49,0,0,1,.69,3.54,5.14,5.14,0,0,1-.93,2.13,7.54,7.54,0,0,1-2.3,1.83l-5.15,2.95,7.17,2.54-.37,1.88-10.05-3.55.29-1.47,6.86-3.95a6,6,0,0,0,1.77-1.38,3.4,3.4,0,0,0,.67-1.47,2.72,2.72,0,0,0-.4-2.13,4.21,4.21,0,0,0-2.08-1.44,4,4,0,0,0-3.9.39m4.21-29.52.37-1.89,5.13,1.82-3,15.17-2-.7,2.6-13.28-3.15-1.12m-4.93-46.23-49,249.7L618,487.37l45.07-229.86L294.84,127.3l3.89-19.84"/><path class="cls-14" d="M312.39,127a4.44,4.44,0,0,1-2.7-4.93,3.12,3.12,0,0,1,4.16-2.52,4.43,4.43,0,0,1,2.71,4.94,3.12,3.12,0,0,1-4.17,2.51M323.86,131a4.44,4.44,0,0,1-2.7-4.94,3.11,3.11,0,0,1,4.16-2.51,4.44,4.44,0,0,1,2.71,4.94,3.12,3.12,0,0,1-4.17,2.51m11.47,4.05a4.44,4.44,0,0,1-2.71-4.94,3.12,3.12,0,0,1,4.17-2.51,4.44,4.44,0,0,1,2.7,4.94,3.11,3.11,0,0,1-4.16,2.51m-36.54-27.95-.06.32-3.89,19.84L663.06,257.51l4-20.17m0,0"/><path class="cls-14" d="M293.38,209.24l.37-1.89,9.24,3.27-.29,1.47-4.62,3.61a6.08,6.08,0,0,1,2.87,2.48,4.8,4.8,0,0,1,.49,3.34,4.2,4.2,0,0,1-1.05,2.14,3.59,3.59,0,0,1-2.12,1,6.41,6.41,0,0,1-3-.41,10,10,0,0,1-2.78-1.51,7.69,7.69,0,0,1-2-2.15l1.25-1.39a6.67,6.67,0,0,0,1.61,1.83,7.73,7.73,0,0,0,2.29,1.29,3.64,3.64,0,0,0,2.57.14,2.07,2.07,0,0,0,1.25-1.67,2.76,2.76,0,0,0-.47-2.25A5,5,0,0,0,296.5,217l-1.11-.4.29-1.51,4.43-3.44-6.73-2.38m15.36-2.5-17.61-6.23a5.28,5.28,0,0,0-7,4.24l-2.5,12.74a7.51,7.51,0,0,0,4.57,8.35l17.62,6.23a5.26,5.26,0,0,0,7-4.24l2.5-12.74a7.5,7.5,0,0,0-4.57-8.35"/><path class="cls-15" d="M313.85,119.53a3.12,3.12,0,0,0-4.16,2.52,4.44,4.44,0,0,0,2.7,4.93,3.12,3.12,0,0,0,4.17-2.51,4.43,4.43,0,0,0-2.71-4.94"/><path class="cls-16" d="M325.32,123.59a3.11,3.11,0,0,0-4.16,2.51,4.44,4.44,0,0,0,2.7,4.94,3.12,3.12,0,0,0,4.17-2.51,4.44,4.44,0,0,0-2.71-4.94"/><path class="cls-17" d="M336.79,127.64a3.12,3.12,0,0,0-4.17,2.51,4.44,4.44,0,0,0,2.71,4.94,3.11,3.11,0,0,0,4.16-2.51,4.44,4.44,0,0,0-2.7-4.94"/><polyline class="cls-18" points="309.16 153.62 304.03 151.8 303.66 153.69 306.81 154.81 304.21 168.09 306.19 168.79 309.16 153.62"/><path class="cls-18" d="M303.91,181a7,7,0,0,0-3.09-.44,4.71,4.71,0,0,0-2.48.93l1.11,1.76a4,4,0,0,1,3.9-.39,4.21,4.21,0,0,1,2.08,1.44,2.72,2.72,0,0,1,.4,2.13,3.4,3.4,0,0,1-.67,1.47,6,6,0,0,1-1.77,1.38l-6.86,3.95-.29,1.47,10.05,3.55.37-1.88-7.17-2.54,5.15-2.95a7.54,7.54,0,0,0,2.3-1.83,5.14,5.14,0,0,0,.93-2.13,4.49,4.49,0,0,0-.69-3.54,6.34,6.34,0,0,0-3.27-2.38"/><path class="cls-18" d="M303,210.62l-9.24-3.27-.37,1.89,6.73,2.38-4.43,3.44-.29,1.51,1.11.4a5,5,0,0,1,2.47,1.61,2.76,2.76,0,0,1,.47,2.25,2.07,2.07,0,0,1-1.25,1.67,3.64,3.64,0,0,1-2.57-.14,7.73,7.73,0,0,1-2.29-1.29,6.67,6.67,0,0,1-1.61-1.83l-1.25,1.39a7.69,7.69,0,0,0,2,2.15,10,10,0,0,0,2.78,1.51,6.41,6.41,0,0,0,3,.41,3.59,3.59,0,0,0,2.12-1,4.2,4.2,0,0,0,1.05-2.14,4.8,4.8,0,0,0-.49-3.34,6.08,6.08,0,0,0-2.87-2.48l4.62-3.61.29-1.47"/><path class="cls-18" d="M321.25,217.07a.61.61,0,0,0-.81.49l-2.88,14.67a.87.87,0,0,0,.53,1,.6.6,0,0,0,.8-.49L321.77,218a.87.87,0,0,0-.52-1"/></g></g><path class="cls-19" d="M613.41,516h0v0a6.4,6.4,0,0,0-.25-1.43l-1.26-7.14-3.27.82.34,1.28a18.86,18.86,0,0,0-4-1.92L578.12,498c-4.32,4.08-13.54,5.35-20.6,2.84L279,401.73c-7.06-2.52-9.28-7.86-5-12l-26.9-9.57c-8.28-2.94-19.09-1.45-24.15,3.34L81,513.12a14.3,14.3,0,0,0-4.43,13.1h0c.6,3,3.48,5.82,8.28,7.53L442.71,661.09c8.28,2.94,19.09,1.45,24.15-3.33l144-136.21A7.17,7.17,0,0,0,613.41,516ZM281.57,416.6l254.92,90.72c1.74.62,2.28,1.93,1.22,2.94l-3.83,3.62a5.44,5.44,0,0,1-5.07.7L273.9,423.87c-1.75-.62-2.3-1.94-1.23-2.95l3.82-3.61A5.47,5.47,0,0,1,281.57,416.6Zm172.2,132.12a5.46,5.46,0,0,1-5.08.7l-12.14-4.32c-1.75-.62-2.29-1.94-1.23-3l7.42-7a5.44,5.44,0,0,1,5.08-.7L460,538.75c1.74.62,2.29,1.94,1.22,3Zm.89,7.17a5.46,5.46,0,0,1,5.08-.7l12.14,4.33c1.74.62,2.29,1.93,1.23,2.94l-1.26,1.19a5.46,5.46,0,0,1-5.08.7L454.63,560c-1.74-.62-2.29-1.94-1.23-2.95ZM232.05,485.65l7.43-7a5.42,5.42,0,0,1,5.07-.7l12.15,4.32c1.74.62,2.29,1.94,1.23,2.95l-7.42,7a5.44,5.44,0,0,1-5.08.7l-12.15-4.32C231.54,488,231,486.66,232.05,485.65Zm-2.15-.76a5.46,5.46,0,0,1-5.08.7l-12.14-4.32c-1.75-.62-2.29-1.94-1.23-2.95l7.42-7a5.44,5.44,0,0,1,5.08-.7l12.15,4.32c1.74.62,2.29,1.94,1.22,2.95Zm198.62,13.5-7.42,7a5.44,5.44,0,0,1-5.08.71l-12.15-4.33c-1.74-.62-2.28-1.93-1.22-2.94l7.42-7a5.44,5.44,0,0,1,5.08-.7l12.15,4.32C429,496.07,429.58,497.39,428.52,498.39Zm2.16.77a5.43,5.43,0,0,1,5.08-.7l12.14,4.32c1.75.62,2.29,1.94,1.23,3l-7.42,7a5.44,5.44,0,0,1-5.08.7l-12.15-4.32c-1.74-.62-2.29-1.94-1.22-2.95Zm-22.77-8.1-7.42,7a5.43,5.43,0,0,1-5.08.7l-12.14-4.32c-1.74-.62-2.29-1.94-1.23-2.94l7.42-7a5.47,5.47,0,0,1,5.08-.7l12.15,4.33C408.43,488.74,409,490.05,407.91,491.06Zm-94.65-8.18,7.43-7a5.41,5.41,0,0,1,5.07-.7l12.15,4.32c1.74.62,2.29,1.94,1.23,2.94l-7.43,7a5.44,5.44,0,0,1-5.07.69l-12.15-4.32C312.75,485.2,312.2,483.89,313.26,482.88Zm-2.18-.78a5.43,5.43,0,0,1-5.08.7l-12.14-4.32c-1.74-.62-2.3-1.94-1.23-2.94l7.42-7a5.47,5.47,0,0,1,5.08-.69l12.14,4.32c1.75.62,2.3,1.93,1.23,2.94Zm22.81,8.12,7.43-7a5.42,5.42,0,0,1,5.07-.7l12.15,4.32c1.74.62,2.3,1.94,1.23,2.94l-7.42,7a5.44,5.44,0,0,1-5.08.7l-12.15-4.33C333.38,492.54,332.83,491.23,333.89,490.22Zm20.63,7.34,7.43-7a5.41,5.41,0,0,1,5.07-.7l12.15,4.32c1.74.62,2.29,1.94,1.23,2.95l-7.43,7a5.41,5.41,0,0,1-5.07.7l-12.15-4.33C354,499.89,353.46,498.57,354.52,497.56Zm20.64,7.35,7.42-7a5.44,5.44,0,0,1,5.08-.7l12.14,4.33c1.75.62,2.3,1.93,1.23,2.94l-7.42,7a5.44,5.44,0,0,1-5.08.7l-12.14-4.32C374.64,507.23,374.09,505.91,375.16,504.91Zm12.15-21.18-7.42,7a5.44,5.44,0,0,1-5.08.7l-12.15-4.32c-1.74-.62-2.29-1.94-1.22-2.95l7.42-7a5.46,5.46,0,0,1,5.08-.7l12.14,4.32C387.83,481.4,388.37,482.72,387.31,483.73Zm-20.6-7.33-7.43,7a5.46,5.46,0,0,1-5.08.7l-12.14-4.32c-1.74-.62-2.29-1.94-1.23-2.95l7.42-7a5.44,5.44,0,0,1,5.08-.7l12.15,4.32C367.22,474.07,367.77,475.39,366.71,476.4Zm-20.62-7.34-7.42,7a5.45,5.45,0,0,1-5.07.71l-12.15-4.33c-1.74-.62-2.29-1.94-1.23-2.94l7.42-7a5.44,5.44,0,0,1,5.08-.7l12.15,4.32C346.61,466.74,347.16,468.06,346.09,469.06Zm-20.6-7.33-7.42,7a5.44,5.44,0,0,1-5.08.7l-12.15-4.32c-1.74-.62-2.29-1.94-1.22-2.95l7.42-7a5.46,5.46,0,0,1,5.08-.7l12.14,4.33C326,459.4,326.55,460.72,325.49,461.73Zm-20.6-7.33-7.43,7a5.43,5.43,0,0,1-5.08.7l-12.14-4.32c-1.74-.62-2.29-1.94-1.23-2.95l7.42-7a5.44,5.44,0,0,1,5.08-.7l12.15,4.32C305.4,452.07,306,453.39,304.89,454.4Zm-25.47,6.77a5.49,5.49,0,0,1,5.08-.7l12.15,4.33c1.74.62,2.29,1.93,1.23,2.94l-7.43,7a5.43,5.43,0,0,1-5.08.7l-12.15-4.32c-1.73-.62-2.29-1.94-1.22-2.94Zm3.17,14.46L294.74,480c1.74.62,2.29,1.94,1.22,2.95l-7.42,7a5.43,5.43,0,0,1-5.08.7l-12.14-4.32c-1.75-.62-2.3-1.94-1.23-2.95l7.42-7A5.44,5.44,0,0,1,282.59,475.63Zm8.16,15.07,7.42-7a5.46,5.46,0,0,1,5.08-.7l12.14,4.32c1.75.62,2.29,1.94,1.23,2.95l-7.42,7a5.44,5.44,0,0,1-5.08.7L292,493.65C290.23,493,289.68,491.71,290.75,490.7Zm20.65,7.35,7.42-7a5.43,5.43,0,0,1,5.08-.7L336,494.65c1.75.62,2.3,1.94,1.23,3l-7.42,7a5.47,5.47,0,0,1-5.08.7L312.62,501C310.88,500.38,310.33,499.06,311.4,498.05Zm20.65,7.35,7.43-7a5.43,5.43,0,0,1,5.08-.7L356.7,502c1.74.62,2.29,1.94,1.23,2.95l-7.42,7a5.44,5.44,0,0,1-5.08.7l-12.15-4.32C331.54,507.73,331,506.41,332.05,505.4Zm20.65,7.35,7.43-7a5.43,5.43,0,0,1,5.08-.7l12.14,4.32c1.74.62,2.29,1.94,1.23,2.95l-7.42,7a5.47,5.47,0,0,1-5.08.7l-12.15-4.32C352.19,515.08,351.64,513.76,352.7,512.75Zm20.66,7.35,7.42-7a5.44,5.44,0,0,1,5.08-.7L398,516.7c1.74.62,2.29,1.94,1.23,2.95l-7.43,7a5.46,5.46,0,0,1-5.08.7L374.58,523C372.85,522.43,372.3,521.11,373.36,520.1ZM397,515.19c-1.74-.62-2.28-1.94-1.22-2.94l7.43-7a5.44,5.44,0,0,1,5.07-.7l12.15,4.33c1.74.62,2.29,1.93,1.22,2.94l-7.42,7a5.43,5.43,0,0,1-5.08.7Zm19.41,4.4,7.42-7a5.47,5.47,0,0,1,5.08-.69l12.15,4.32c1.74.62,2.29,1.93,1.23,2.94l-7.43,7a5.43,5.43,0,0,1-5.08.7l-12.14-4.32C415.91,521.91,415.35,520.6,416.42,519.59Zm20.63,7.34,7.43-7a5.41,5.41,0,0,1,5.07-.7l12.15,4.32c1.74.62,2.29,1.94,1.23,2.94l-7.43,7a5.44,5.44,0,0,1-5.07.69l-12.15-4.32C436.54,529.25,436,527.94,437.05,526.93Zm25.26-6.85a5.43,5.43,0,0,1-5.08.7l-12.14-4.32c-1.74-.62-2.29-1.94-1.23-3l7.42-7a5.47,5.47,0,0,1,5.08-.7l12.15,4.32c1.74.62,2.29,1.94,1.22,2.95Zm4.57-11.7c-1.74-.62-2.29-1.94-1.22-2.94l7.42-7a5.41,5.41,0,0,1,5.07-.71L490.31,502c1.74.62,2.28,1.93,1.22,2.94l-7.43,7a5.41,5.41,0,0,1-5.07.7ZM471,497.66l-7.42,7a5.47,5.47,0,0,1-5.08.7l-12.15-4.33c-1.74-.62-2.29-1.93-1.23-2.94l7.43-7a5.43,5.43,0,0,1,5.08-.7l12.14,4.32C471.48,495.34,472,496.66,471,497.66Zm-20.56-7.31-7.42,7a5.44,5.44,0,0,1-5.08.7l-12.15-4.32c-1.74-.62-2.29-1.94-1.22-2.95l7.42-7a5.46,5.46,0,0,1,5.08-.7l12.14,4.32C450.93,488,451.47,489.34,450.41,490.35ZM429.85,483l-7.42,7a5.43,5.43,0,0,1-5.08.7l-12.15-4.32c-1.74-.62-2.29-1.94-1.22-2.94l7.42-7a5.43,5.43,0,0,1,5.08-.7l12.14,4.32C430.37,480.71,430.92,482,429.85,483Zm-20.56-7.31-7.42,7a5.46,5.46,0,0,1-5.08.7l-12.15-4.32c-1.74-.62-2.29-1.94-1.22-2.95l7.42-7a5.43,5.43,0,0,1,5.08-.7l12.15,4.32C409.81,473.39,410.36,474.71,409.29,475.72Zm-20.56-7.32-7.42,7a5.43,5.43,0,0,1-5.08.7l-12.14-4.32c-1.75-.62-2.29-1.94-1.23-2.94l7.42-7a5.47,5.47,0,0,1,5.08-.7l12.15,4.33C389.25,466.08,389.8,467.39,388.73,468.4Zm-20.56-7.32-7.42,7a5.43,5.43,0,0,1-5.08.71l-12.15-4.33c-1.74-.62-2.28-1.93-1.22-2.94l7.42-7a5.44,5.44,0,0,1,5.08-.7L367,458.14C368.69,458.76,369.23,460.08,368.17,461.08Zm-20.56-7.31-7.42,7a5.43,5.43,0,0,1-5.08.7L323,457.17c-1.74-.62-2.29-1.94-1.22-2.95l7.42-7a5.43,5.43,0,0,1,5.08-.7l12.15,4.32C348.13,451.44,348.68,452.76,347.61,453.77Zm-20.56-7.32-7.42,7a5.43,5.43,0,0,1-5.08.7l-12.14-4.32c-1.75-.62-2.3-1.94-1.23-2.94l7.42-7a5.44,5.44,0,0,1,5.08-.71l12.15,4.33C327.57,444.13,328.12,445.44,327.05,446.45Zm-20.56-7.31-7.42,7a5.46,5.46,0,0,1-5.08.7l-12.14-4.32c-1.74-.62-2.29-1.94-1.23-3l7.42-7a5.44,5.44,0,0,1,5.08-.7l12.15,4.32C307,436.81,307.56,438.13,306.49,439.14Zm-20.55-7.32-7.43,7a5.43,5.43,0,0,1-5.08.7l-12.14-4.32c-1.74-.62-2.29-1.94-1.23-3l7.42-7a5.47,5.47,0,0,1,5.08-.7l12.15,4.32C286.45,429.49,287,430.81,285.94,431.82Zm-15,8,12.15,4.32c1.75.62,2.29,1.94,1.23,2.95l-7.42,7a5.47,5.47,0,0,1-5.08.7l-12.15-4.33c-1.74-.61-2.29-1.93-1.22-2.94l7.42-7A5.42,5.42,0,0,1,270.9,439.8Zm-12.11,14a5.44,5.44,0,0,1,5.08-.7L276,457.45c1.75.62,2.3,1.94,1.23,2.95l-7.42,7a5.44,5.44,0,0,1-5.08.7L252.6,463.8c-1.75-.62-2.3-1.94-1.23-2.95Zm3.14,14.45,12.16,4.32c1.74.62,2.28,1.94,1.22,2.95l-7.43,7a5.44,5.44,0,0,1-5.07.7L250.66,479c-1.74-.62-2.29-1.94-1.22-2.95l7.42-7A5.45,5.45,0,0,1,261.93,468.28ZM252.66,493l7.42-7a5.47,5.47,0,0,1,5.08-.7l17.51,6.23c1.73.62,2.28,1.94,1.22,2.94l-7.43,7a5.44,5.44,0,0,1-5.07.7l-17.51-6.23C252.14,495.31,251.6,494,252.66,493Zm26,9.24,7.42-7a5.43,5.43,0,0,1,5.08-.7l94.33,33.57c1.74.62,2.29,1.94,1.23,2.94l-7.42,7a5.44,5.44,0,0,1-5.08.71l-94.34-33.57C278.1,504.55,277.55,503.23,278.62,502.22ZM381.41,538.8l7.42-7a5.44,5.44,0,0,1,5.08-.7l17,6c1.75.62,2.29,1.94,1.23,3l-7.42,7a5.47,5.47,0,0,1-5.08.7l-17-6C380.89,541.13,380.34,539.81,381.41,538.8Zm31-4.78a5.46,5.46,0,0,1-5.08.7l-12.14-4.32c-1.74-.62-2.29-1.94-1.23-2.95l7.42-7a5.44,5.44,0,0,1,5.08-.7l12.15,4.32c1.74.62,2.29,1.94,1.23,3Zm2.21.78,7.42-7a5.44,5.44,0,0,1,5.08-.7l12.15,4.32c1.74.62,2.29,1.94,1.22,3l-7.42,7a5.46,5.46,0,0,1-5.08.7l-12.14-4.32C414.15,537.13,413.6,535.81,414.67,534.8Zm44.24,2.41c-1.74-.62-2.3-1.93-1.23-2.94l7.42-7a5.44,5.44,0,0,1,5.08-.7l12.15,4.32c1.74.62,2.29,1.94,1.23,2.94l-7.43,7a5.46,5.46,0,0,1-5.08.7Zm24-9.8a5.47,5.47,0,0,1-5.08.71l-12.15-4.33c-1.74-.62-2.29-1.94-1.22-2.94l7.42-7a5.43,5.43,0,0,1,5.08-.7l12.15,4.32c1.73.62,2.28,1.94,1.22,2.94Zm2.16.77,7.42-7a5.42,5.42,0,0,1,5.07-.7l12.15,4.32c1.75.62,2.29,1.94,1.23,3l-7.42,7a5.47,5.47,0,0,1-5.08.7l-12.15-4.33C484.56,530.51,484,529.19,485.08,528.18ZM499.59,520l-12.15-4.32c-1.74-.62-2.29-1.94-1.22-3l7.42-7a5.43,5.43,0,0,1,5.08-.7l12.14,4.32c1.75.62,2.3,1.94,1.23,2.95l-7.42,7A5.44,5.44,0,0,1,499.59,520ZM251.67,413.45l3.82-3.62a5.47,5.47,0,0,1,5.08-.7l12.15,4.32c1.74.62,2.29,1.94,1.23,2.95L270.12,420a5.46,5.46,0,0,1-5.08.7l-12.14-4.33C251.16,415.77,250.61,414.46,251.67,413.45ZM239.5,425l7.43-7a5.43,5.43,0,0,1,5.08-.7l12.14,4.32c1.74.62,2.29,1.94,1.23,2.94l-7.42,7a5.47,5.47,0,0,1-5.08.7l-12.15-4.33C239,427.28,238.44,426,239.5,425Zm-12.16,11.51,7.42-7a5.47,5.47,0,0,1,5.08-.7l22.6,8.05c1.75.62,2.29,1.93,1.23,2.94l-7.42,7a5.44,5.44,0,0,1-5.08.7l-22.6-8C226.82,438.79,226.28,437.47,227.34,436.47ZM215.17,448l7.43-7a5.43,5.43,0,0,1,5.08-.7l27.71,9.86c1.73.62,2.28,1.94,1.22,2.94l-7.43,7a5.41,5.41,0,0,1-5.07.7l-27.71-9.86C214.66,450.3,214.11,449,215.17,448ZM203,459.48l7.42-7a5.44,5.44,0,0,1,5.08-.7l37.92,13.49c1.74.62,2.29,1.94,1.23,2.95l-7.43,7a5.43,5.43,0,0,1-5.08.7l-37.91-13.49C202.49,461.81,201.94,460.49,203,459.48ZM190.85,471l7.42-7a5.43,5.43,0,0,1,5.08-.7l12.14,4.32c1.74.62,2.29,1.94,1.23,2.94l-7.42,7a5.44,5.44,0,0,1-5.08.71l-12.15-4.33C190.33,473.31,189.78,472,190.85,471Zm220.58,93.22-55.37,52.38c-2.3,2.17-7.21,2.85-11,1.51L191.37,563.4c-3.76-1.34-4.94-4.18-2.65-6.36l55.38-52.38c2.29-2.17,7.19-2.84,11-1.51l153.72,54.71C412.54,559.2,413.72,562,411.43,564.21Zm8.79-9.09-12.14-4.32c-1.74-.62-2.29-1.94-1.23-2.95l7.42-7a5.47,5.47,0,0,1,5.08-.7l12.15,4.32c1.74.62,2.29,1.94,1.23,2.95l-7.43,7A5.43,5.43,0,0,1,420.22,555.12Zm26.09,5.14-1.25,1.19a5.44,5.44,0,0,1-5.08.7l-12.15-4.32c-1.74-.62-2.29-1.94-1.22-3l1.25-1.18a5.43,5.43,0,0,1,5.08-.7l12.15,4.32C446.83,557.94,447.38,559.26,446.31,560.26Zm21.29,7.58L466.34,569a5.46,5.46,0,0,1-5.08.7l-12.14-4.33c-1.74-.62-2.29-1.93-1.23-2.94l1.26-1.19a5.43,5.43,0,0,1,5.08-.7l12.14,4.32C468.12,565.51,468.66,566.83,467.6,567.84Zm21.29,7.58-1.25,1.18a5.44,5.44,0,0,1-5.08.7L470.41,573c-1.74-.62-2.29-1.94-1.22-2.94l1.25-1.19a5.44,5.44,0,0,1,5.08-.7l12.15,4.32C489.41,573.09,490,574.41,488.89,575.42Zm18.33-17.35-7.42,7a5.46,5.46,0,0,1-5.08.7L457.2,552.45c-1.74-.62-2.29-1.94-1.22-3l7.42-7a5.43,5.43,0,0,1,5.08-.7L506,555.13C507.74,555.75,508.29,557.07,507.22,558.07Zm12.17-11.5-7.42,7a5.44,5.44,0,0,1-5.08.7l-27.35-9.73c-1.74-.62-2.29-1.94-1.23-2.95l7.43-7a5.43,5.43,0,0,1,5.08-.7l27.34,9.73C519.9,544.24,520.46,545.56,519.39,546.57Zm12.16-11.51-7.42,7a5.43,5.43,0,0,1-5.08.7l-12.14-4.32c-1.74-.62-2.29-1.94-1.23-3l7.42-7a5.47,5.47,0,0,1,5.08-.7l12.15,4.32C532.07,532.73,532.62,534.05,531.55,535.06Zm12.17-11.51-7.42,7a5.44,5.44,0,0,1-5.08.7L508,523c-1.74-.62-2.29-1.94-1.22-2.94l7.42-7a5.43,5.43,0,0,1,5.08-.7l23.21,8.26C544.23,521.23,544.78,522.55,543.72,523.55Zm8.57-8.1-3.83,3.62a5.46,5.46,0,0,1-5.08.69l-5.72-2c-1.74-.62-2.28-1.94-1.22-2.94l3.82-3.62a5.44,5.44,0,0,1,5.08-.7l5.72,2C552.8,513.12,553.35,514.44,552.29,515.45Z"/><path class="cls-20" d="M617.18,512.94h0v0a6.32,6.32,0,0,0-.25-1.42l-1.26-7.14-3.27.82.33,1.27a18.28,18.28,0,0,0-3.94-1.91L581.89,495c-4.32,4.09-13.54,5.36-20.6,2.85l-278.48-99.1c-7.06-2.51-9.28-7.86-5-11.94l-26.9-9.57c-8.27-2.95-19.09-1.45-24.15,3.33l-144,136.21-.16.16-3.71-1.47,1.41,7.77h0c.6,3,3.49,5.83,8.29,7.54L446.48,658.07c8.27,2.95,19.08,1.46,24.14-3.33l144-136.2A7.19,7.19,0,0,0,617.18,512.94ZM285.34,413.59,540.26,504.3c1.74.62,2.28,1.94,1.22,2.95l-3.83,3.62a5.44,5.44,0,0,1-5.07.7L277.66,420.85c-1.74-.62-2.29-1.94-1.23-2.94l3.83-3.62A5.46,5.46,0,0,1,285.34,413.59ZM457.54,545.7a5.43,5.43,0,0,1-5.08.7l-12.15-4.32c-1.74-.62-2.29-1.94-1.22-2.94l7.42-7a5.43,5.43,0,0,1,5.08-.71l12.15,4.33c1.74.62,2.29,1.93,1.22,2.94Zm.88,7.18a5.44,5.44,0,0,1,5.08-.7l12.15,4.32c1.74.62,2.29,1.94,1.23,3l-1.26,1.18a5.46,5.46,0,0,1-5.08.71L458.4,557c-1.75-.62-2.3-1.94-1.23-2.94Zm-222.6-70.24,7.42-7a5.47,5.47,0,0,1,5.08-.71l12.15,4.33c1.74.62,2.29,1.94,1.23,2.94l-7.43,7a5.46,5.46,0,0,1-5.08.7L237,485.58C235.31,485,234.76,483.65,235.82,482.64Zm-2.15-.77a5.43,5.43,0,0,1-5.08.7l-12.15-4.32c-1.74-.62-2.29-1.94-1.22-2.94l7.42-7a5.46,5.46,0,0,1,5.08-.71l12.15,4.33c1.74.62,2.29,1.94,1.22,2.94Zm198.62,13.51-7.43,7a5.41,5.41,0,0,1-5.07.7l-12.15-4.32c-1.74-.62-2.29-1.94-1.22-2.94l7.42-7a5.41,5.41,0,0,1,5.07-.71l12.16,4.33C432.81,493.06,433.35,494.37,432.29,495.38Zm2.15.77a5.45,5.45,0,0,1,5.09-.7l12.14,4.32c1.74.62,2.29,1.94,1.23,2.94l-7.42,7a5.45,5.45,0,0,1-5.09.71l-12.14-4.33c-1.74-.62-2.29-1.93-1.23-2.94Zm-22.76-8.1-7.42,7a5.43,5.43,0,0,1-5.08.7L387,491.45c-1.74-.62-2.29-1.94-1.22-2.95l7.42-7a5.43,5.43,0,0,1,5.08-.7l12.15,4.32C412.2,485.72,412.75,487,411.68,488.05ZM317,479.87l7.42-7a5.47,5.47,0,0,1,5.08-.7l12.15,4.33c1.74.62,2.29,1.93,1.23,2.94l-7.43,7a5.43,5.43,0,0,1-5.08.7l-12.14-4.32C316.52,482.19,316,480.87,317,479.87Zm-2.18-.78a5.44,5.44,0,0,1-5.08.7l-12.15-4.32c-1.74-.62-2.29-1.94-1.23-3l7.43-7a5.43,5.43,0,0,1,5.08-.7L321,469.12c1.74.62,2.3,1.94,1.23,2.95Zm22.81,8.12,7.43-7a5.44,5.44,0,0,1,5.07-.69l12.15,4.32c1.74.62,2.29,1.93,1.23,2.94l-7.43,7a5.44,5.44,0,0,1-5.07.69l-12.15-4.32C337.15,489.53,336.6,488.22,337.66,487.21Zm20.63,7.34,7.43-7a5.41,5.41,0,0,1,5.07-.7l12.15,4.32c1.74.62,2.29,1.93,1.23,2.94l-7.43,7a5.46,5.46,0,0,1-5.08.69l-12.14-4.32C357.78,496.87,357.23,495.56,358.29,494.55Zm20.63,7.34,7.43-7a5.43,5.43,0,0,1,5.08-.7l12.14,4.32c1.74.62,2.3,1.94,1.23,2.94l-7.42,7a5.47,5.47,0,0,1-5.08.7l-12.15-4.33C378.41,504.21,377.86,502.9,378.92,501.89Zm12.16-21.17-7.42,7a5.48,5.48,0,0,1-5.09.7l-12.14-4.32c-1.74-.62-2.29-1.94-1.23-2.95l7.42-7a5.45,5.45,0,0,1,5.09-.7l12.14,4.32C391.59,478.39,392.14,479.71,391.08,480.72Zm-20.61-7.34-7.42,7a5.43,5.43,0,0,1-5.08.7l-12.15-4.32c-1.74-.62-2.29-1.94-1.22-2.94l7.42-7a5.43,5.43,0,0,1,5.08-.7l12.15,4.32C371,471.06,371.54,472.38,370.47,473.38Zm-20.61-7.33-7.42,7a5.42,5.42,0,0,1-5.07.7l-12.16-4.32c-1.74-.62-2.29-1.94-1.22-2.95l7.42-7a5.46,5.46,0,0,1,5.08-.7l12.15,4.33C350.38,463.72,350.93,465,349.86,466.05Zm-20.6-7.33-7.42,7a5.48,5.48,0,0,1-5.09.7l-12.14-4.32c-1.74-.62-2.29-1.94-1.23-2.95l7.42-7a5.45,5.45,0,0,1,5.09-.7L328,455.77C329.77,456.39,330.32,457.71,329.26,458.72Zm-20.61-7.34-7.42,7a5.46,5.46,0,0,1-5.08.7L284,454.78c-1.74-.62-2.29-1.93-1.22-2.94l7.42-7a5.43,5.43,0,0,1,5.08-.7l12.15,4.32C309.17,449.06,309.72,450.38,308.65,451.38Zm-25.46,6.78a5.42,5.42,0,0,1,5.07-.7l12.15,4.32c1.75.62,2.3,1.94,1.23,3l-7.42,7a5.44,5.44,0,0,1-5.08.7L277,468.12c-1.74-.61-2.29-1.93-1.22-2.94Zm3.17,14.46,12.14,4.32c1.75.62,2.29,1.94,1.23,2.94l-7.42,7a5.44,5.44,0,0,1-5.08.71l-12.15-4.33c-1.74-.62-2.29-1.93-1.22-2.94l7.42-7A5.43,5.43,0,0,1,286.36,472.62Zm8.15,15.07,7.42-7A5.45,5.45,0,0,1,307,480l12.14,4.32c1.74.62,2.29,1.94,1.23,2.94l-7.42,7a5.48,5.48,0,0,1-5.09.7l-12.14-4.33C294,490,293.45,488.7,294.51,487.69ZM315.16,495l7.43-7a5.43,5.43,0,0,1,5.08-.7l12.14,4.32c1.74.62,2.29,1.94,1.23,2.94l-7.42,7a5.44,5.44,0,0,1-5.08.7L316.39,498C314.65,497.36,314.1,496,315.16,495Zm20.66,7.35,7.42-7a5.44,5.44,0,0,1,5.08-.7L360.47,499c1.74.62,2.29,1.94,1.22,2.94l-7.42,7a5.43,5.43,0,0,1-5.08.71l-12.14-4.33C335.31,504.71,334.76,503.4,335.82,502.39Zm20.65,7.35,7.42-7A5.44,5.44,0,0,1,369,502l12.15,4.32c1.74.62,2.29,1.94,1.23,2.94l-7.43,7a5.43,5.43,0,0,1-5.08.7l-12.14-4.32C356,512.06,355.41,510.74,356.47,509.74Zm20.66,7.35,7.42-7a5.46,5.46,0,0,1,5.08-.71l12.15,4.33c1.74.62,2.29,1.94,1.22,2.94l-7.42,7a5.46,5.46,0,0,1-5.08.71L378.35,520C376.61,519.41,376.06,518.09,377.13,517.09Zm23.65-4.92c-1.74-.62-2.29-1.93-1.22-2.94l7.42-7a5.42,5.42,0,0,1,5.07-.7l12.15,4.32c1.75.62,2.29,1.94,1.23,2.94l-7.43,7a5.41,5.41,0,0,1-5.07.7Zm19.4,4.4,7.43-7a5.43,5.43,0,0,1,5.08-.7l12.14,4.33c1.74.61,2.3,1.93,1.23,2.94l-7.42,7a5.44,5.44,0,0,1-5.08.7l-12.15-4.32C419.67,518.9,419.12,517.58,420.18,516.57Zm20.64,7.35,7.42-7a5.47,5.47,0,0,1,5.08-.69l12.15,4.32c1.74.62,2.29,1.93,1.23,2.94l-7.43,7a5.43,5.43,0,0,1-5.08.7l-12.14-4.32C440.31,526.24,439.75,524.92,440.82,523.92Zm25.26-6.85a5.46,5.46,0,0,1-5.08.7l-12.15-4.32c-1.74-.62-2.29-1.94-1.22-3l7.42-7a5.43,5.43,0,0,1,5.08-.7l12.15,4.32c1.74.62,2.29,1.94,1.22,2.95Zm4.57-11.7c-1.75-.62-2.29-1.94-1.22-2.95l7.42-7a5.41,5.41,0,0,1,5.07-.7L494.07,499c1.74.62,2.29,1.94,1.22,3l-7.42,7a5.44,5.44,0,0,1-5.07.7Zm4.09-10.72-7.43,7a5.43,5.43,0,0,1-5.08.7l-12.14-4.32c-1.74-.62-2.29-1.94-1.23-2.95l7.42-7a5.47,5.47,0,0,1,5.08-.7l12.15,4.33C475.25,492.32,475.8,493.64,474.74,494.65Zm-20.56-7.32-7.42,7a5.48,5.48,0,0,1-5.09.7l-12.14-4.33c-1.74-.62-2.29-1.93-1.23-2.94l7.42-7a5.45,5.45,0,0,1,5.09-.7L453,484.39C454.69,485,455.24,486.33,454.18,487.33ZM433.62,480l-7.42,7a5.44,5.44,0,0,1-5.08.7L409,483.42c-1.74-.62-2.29-1.94-1.23-2.95l7.43-7a5.46,5.46,0,0,1,5.08-.7l12.14,4.32C434.13,477.69,434.68,479,433.62,480Zm-20.56-7.32-7.42,7a5.44,5.44,0,0,1-5.08.7l-12.15-4.32c-1.74-.62-2.29-1.94-1.22-2.94l7.42-7a5.43,5.43,0,0,1,5.08-.7l12.14,4.32C413.58,470.38,414.12,471.7,413.06,472.7Zm-20.56-7.31-7.42,7a5.46,5.46,0,0,1-5.08.7l-12.15-4.32c-1.74-.62-2.29-1.94-1.22-3l7.42-7a5.43,5.43,0,0,1,5.08-.7l12.15,4.32C393,463.06,393.57,464.38,392.5,465.39Zm-20.56-7.32-7.42,7a5.44,5.44,0,0,1-5.08.7l-12.15-4.32c-1.74-.62-2.29-1.94-1.22-2.94l7.42-7a5.43,5.43,0,0,1,5.08-.71l12.15,4.33C372.46,455.75,373,457.06,371.94,458.07Zm-20.56-7.32-7.42,7a5.44,5.44,0,0,1-5.08.71l-12.15-4.33c-1.74-.62-2.29-1.93-1.23-2.94l7.43-7a5.43,5.43,0,0,1,5.08-.7l12.14,4.32C351.89,448.43,352.44,449.75,351.38,450.75Zm-20.56-7.31-7.42,7a5.44,5.44,0,0,1-5.08.7l-12.15-4.32c-1.74-.62-2.29-1.94-1.22-2.95l7.42-7a5.43,5.43,0,0,1,5.08-.7l12.14,4.32C331.34,441.11,331.88,442.43,330.82,443.44Zm-20.56-7.32-7.42,7a5.43,5.43,0,0,1-5.08.7l-12.15-4.32c-1.74-.62-2.29-1.94-1.22-2.94l7.42-7a5.46,5.46,0,0,1,5.08-.71L309,433.18C310.78,433.8,311.33,435.12,310.26,436.12Zm-20.56-7.31-7.42,7a5.46,5.46,0,0,1-5.08.7l-12.14-4.32c-1.75-.62-2.29-1.94-1.23-2.95l7.42-7a5.44,5.44,0,0,1,5.08-.7l12.15,4.32C290.22,426.48,290.77,427.8,289.7,428.81Zm-15,8,12.15,4.33c1.74.62,2.29,1.94,1.23,2.94l-7.42,7a5.44,5.44,0,0,1-5.08.7l-12.16-4.32c-1.73-.62-2.28-1.94-1.22-2.94l7.43-7A5.44,5.44,0,0,1,274.67,436.78Zm-12.11,14a5.43,5.43,0,0,1,5.08-.7l12.14,4.32c1.74.62,2.29,1.94,1.23,2.94l-7.42,7a5.47,5.47,0,0,1-5.08.69l-12.15-4.32c-1.74-.62-2.29-1.93-1.23-2.94Zm3.14,14.45,12.15,4.32c1.74.62,2.29,1.94,1.22,2.94l-7.42,7a5.41,5.41,0,0,1-5.07.71l-12.15-4.33c-1.74-.62-2.29-1.93-1.23-2.94l7.43-7A5.42,5.42,0,0,1,265.7,465.27ZM256.43,490l7.42-7a5.42,5.42,0,0,1,5.07-.7l17.51,6.23c1.74.62,2.29,1.93,1.22,2.94l-7.42,7a5.42,5.42,0,0,1-5.07.7l-17.51-6.23C255.91,492.3,255.36,491,256.43,490Zm25.95,9.24,7.43-7a5.43,5.43,0,0,1,5.08-.7l94.33,33.56c1.74.62,2.29,1.94,1.23,3L383,535a5.43,5.43,0,0,1-5.08.7l-94.33-33.57C281.87,501.53,281.32,500.21,282.38,499.21Zm102.8,36.58,7.42-7a5.46,5.46,0,0,1,5.08-.71l17,6.05c1.74.62,2.29,1.94,1.23,2.94l-7.42,7a5.47,5.47,0,0,1-5.08.71l-17-6C384.66,538.11,384.11,536.79,385.18,535.79ZM416.23,531a5.43,5.43,0,0,1-5.08.7L399,527.38c-1.75-.62-2.29-1.94-1.23-2.94l7.42-7a5.47,5.47,0,0,1,5.08-.71L422.43,521c1.74.62,2.29,1.94,1.22,2.94Zm2.21.79,7.42-7a5.43,5.43,0,0,1,5.08-.7l12.14,4.32c1.75.62,2.29,1.94,1.23,2.94l-7.42,7a5.44,5.44,0,0,1-5.08.7l-12.15-4.32C417.92,534.11,417.37,532.79,418.44,531.79Zm44.24,2.41c-1.75-.62-2.3-1.94-1.23-2.94l7.42-7a5.47,5.47,0,0,1,5.08-.69l12.14,4.32c1.75.62,2.3,1.93,1.23,2.94l-7.42,7a5.44,5.44,0,0,1-5.08.7Zm24-9.8a5.41,5.41,0,0,1-5.07.7l-12.15-4.32c-1.74-.62-2.29-1.94-1.23-2.95l7.42-7a5.47,5.47,0,0,1,5.08-.7l12.16,4.33c1.73.61,2.28,1.93,1.22,2.94Zm2.16.77,7.42-7a5.47,5.47,0,0,1,5.08-.71l12.15,4.33c1.74.62,2.29,1.94,1.23,2.94l-7.42,7a5.45,5.45,0,0,1-5.09.7l-12.15-4.32C488.33,527.49,487.78,526.17,488.84,525.17ZM503.36,517l-12.15-4.33c-1.74-.62-2.29-1.93-1.23-2.94l7.43-7a5.43,5.43,0,0,1,5.08-.7l12.14,4.32c1.74.62,2.29,1.94,1.23,2.94l-7.42,7A5.44,5.44,0,0,1,503.36,517ZM255.43,410.44l3.83-3.62a5.43,5.43,0,0,1,5.08-.7l12.15,4.32c1.74.62,2.29,1.94,1.22,2.95L273.89,417a5.46,5.46,0,0,1-5.08.69l-12.15-4.32C254.92,412.76,254.37,411.44,255.43,410.44ZM243.27,422l7.42-7a5.47,5.47,0,0,1,5.08-.7l12.15,4.33c1.74.62,2.29,1.93,1.23,2.94l-7.43,7a5.43,5.43,0,0,1-5.08.7l-12.14-4.32C242.76,424.27,242.21,423,243.27,422Zm-12.16,11.5,7.42-7a5.43,5.43,0,0,1,5.08-.7l22.6,8c1.74.62,2.29,1.94,1.23,3l-7.42,7a5.45,5.45,0,0,1-5.09.7l-22.6-8C230.59,435.78,230,434.46,231.11,433.45ZM218.94,445l7.43-7a5.41,5.41,0,0,1,5.07-.7l27.71,9.86c1.74.62,2.29,1.93,1.23,2.94l-7.43,7a5.41,5.41,0,0,1-5.07.7l-27.71-9.86C218.43,447.28,217.88,446,218.94,445Zm-12.16,11.51,7.42-7a5.43,5.43,0,0,1,5.08-.7l37.92,13.49c1.74.62,2.29,1.94,1.22,2.94l-7.42,7a5.46,5.46,0,0,1-5.08.7L208,459.41C206.26,458.79,205.71,457.47,206.78,456.47ZM194.61,468l7.42-7a5.48,5.48,0,0,1,5.09-.7l12.14,4.32c1.74.62,2.29,1.94,1.23,2.95l-7.43,7a5.43,5.43,0,0,1-5.08.7l-12.14-4.32C194.1,470.3,193.55,469,194.61,468ZM415.2,561.19l-55.38,52.39c-2.29,2.17-7.2,2.85-10.95,1.51l-153.73-54.7c-3.76-1.34-4.94-4.19-2.65-6.36l55.37-52.38c2.3-2.17,7.2-2.85,11-1.51l153.73,54.71C416.31,556.18,417.49,559,415.2,561.19Zm8.79-9.08-12.15-4.32c-1.74-.62-2.29-1.94-1.22-2.95l7.42-7a5.43,5.43,0,0,1,5.08-.7l12.15,4.32c1.74.62,2.29,1.94,1.22,2.95l-7.42,7A5.46,5.46,0,0,1,424,552.11Zm26.09,5.14-1.26,1.19a5.46,5.46,0,0,1-5.08.7l-12.14-4.32c-1.74-.62-2.29-1.94-1.23-3l1.26-1.19a5.46,5.46,0,0,1,5.08-.7l12.14,4.32C450.59,554.92,451.14,556.24,450.08,557.25Zm21.29,7.57L470.11,566a5.43,5.43,0,0,1-5.08.7l-12.14-4.32c-1.75-.62-2.29-1.94-1.23-2.94l1.25-1.19a5.45,5.45,0,0,1,5.09-.7l12.14,4.32C471.88,562.5,472.43,563.82,471.37,564.82Zm21.29,7.58-1.25,1.19a5.45,5.45,0,0,1-5.09.7L474.18,570c-1.74-.62-2.29-1.94-1.23-3l1.26-1.19a5.46,5.46,0,0,1,5.08-.7l12.14,4.33C493.18,570.08,493.72,571.39,492.66,572.4ZM511,555.06l-7.42,7a5.44,5.44,0,0,1-5.08.7L461,549.43c-1.74-.62-2.29-1.94-1.23-2.94l7.43-7a5.43,5.43,0,0,1,5.08-.7l37.51,13.35C511.51,552.74,512.06,554.05,511,555.06Zm12.17-11.51-7.43,7a5.44,5.44,0,0,1-5.07.69l-27.35-9.73c-1.74-.62-2.29-1.93-1.23-2.94l7.43-7a5.41,5.41,0,0,1,5.07-.7l27.35,9.73C523.67,541.23,524.22,542.54,523.16,543.55ZM535.32,532l-7.42,7a5.46,5.46,0,0,1-5.08.7l-12.15-4.33c-1.74-.61-2.29-1.93-1.22-2.94l7.42-7a5.43,5.43,0,0,1,5.08-.7l12.15,4.32C535.84,529.72,536.39,531,535.32,532Zm12.17-11.5-7.43,7a5.43,5.43,0,0,1-5.08.7L511.77,520c-1.74-.62-2.29-1.94-1.23-3l7.42-7a5.47,5.47,0,0,1,5.08-.7l23.22,8.26C548,518.21,548.55,519.53,547.49,520.54Zm8.56-8.11-3.82,3.62a5.43,5.43,0,0,1-5.08.7l-5.72-2c-1.74-.62-2.29-1.93-1.23-2.94l3.83-3.61a5.41,5.41,0,0,1,5.07-.71l5.73,2C556.57,510.11,557.12,511.43,556.05,512.43Z"/><path class="cls-21" d="M616.23,507.24a11.2,11.2,0,0,0-.25-1.42l-1.08-3.31-3.27,1.17a18.74,18.74,0,0,0-3.94-1.88l-26.84-9.37c-4.31,4-13.51,5.25-20.56,2.79l-277.9-97c-7.05-2.46-9.27-7.69-5-11.68l-26.84-9.37c-8.26-2.89-19.05-1.43-24.1,3.26L82.8,513.75l-.16.15-3.7-1.43,1.4,7.6-1.28-4c.6,2.94,4.79,7,9.57,8.65L445.72,652.08c8.26,2.89,19,1.43,24.09-3.26L613.71,512C615.55,510.28,616.33,509.1,616.23,507.24ZM284.91,412.79,539.3,501.58c1.74.6,2.28,1.89,1.22,2.88L536.7,508a5.51,5.51,0,0,1-5.06.68L277.25,419.89c-1.74-.6-2.28-1.89-1.23-2.87l3.82-3.55A5.53,5.53,0,0,1,284.91,412.79ZM456.76,542.1a5.54,5.54,0,0,1-5.07.68l-12.12-4.23c-1.74-.61-2.29-1.9-1.23-2.88l7.41-6.87a5.5,5.5,0,0,1,5.07-.69l12.12,4.23c1.74.61,2.29,1.9,1.22,2.88Zm.88,7a5.53,5.53,0,0,1,5.07-.68l12.12,4.23c1.74.6,2.29,1.89,1.22,2.88l-1.25,1.16a5.53,5.53,0,0,1-5.07.69l-12.12-4.23c-1.74-.61-2.29-1.9-1.22-2.89ZM235.5,480.37l7.4-6.87a5.54,5.54,0,0,1,5.07-.69L260.09,477c1.74.61,2.29,1.9,1.23,2.88l-7.41,6.88a5.53,5.53,0,0,1-5.07.68l-12.12-4.23C235,482.65,234.44,481.36,235.5,480.37Zm-2.15-.75a5.53,5.53,0,0,1-5.07.69l-12.12-4.23c-1.74-.61-2.29-1.9-1.22-2.89l7.4-6.87a5.53,5.53,0,0,1,5.07-.68l12.12,4.23c1.74.6,2.29,1.89,1.23,2.88Zm198.21,13.22-7.41,6.87a5.5,5.5,0,0,1-5.07.69L407,496.17c-1.74-.61-2.28-1.9-1.22-2.88l7.41-6.87a5.48,5.48,0,0,1,5.06-.69L430.34,490C432.08,490.57,432.62,491.85,431.56,492.84Zm2.15.75a5.53,5.53,0,0,1,5.07-.68l12.12,4.23c1.74.6,2.29,1.89,1.22,2.88l-7.4,6.87a5.54,5.54,0,0,1-5.07.69l-12.12-4.23c-1.74-.61-2.29-1.9-1.23-2.89ZM411,485.66l-7.4,6.88a5.54,5.54,0,0,1-5.07.68L386.4,489c-1.74-.61-2.29-1.9-1.23-2.88l7.41-6.87a5.5,5.5,0,0,1,5.07-.69l12.12,4.23C411.51,483.39,412.06,484.68,411,485.66Zm-94.45-8,7.41-6.88a5.51,5.51,0,0,1,5.06-.68l12.12,4.23c1.74.6,2.29,1.89,1.23,2.88L335,484.08a5.53,5.53,0,0,1-5.07.69l-12.12-4.23C316,479.93,315.47,478.64,316.54,477.66Zm-2.18-.76a5.53,5.53,0,0,1-5.07.68l-12.12-4.23c-1.74-.61-2.29-1.9-1.23-2.88l7.41-6.88a5.53,5.53,0,0,1,5.07-.68l12.12,4.23c1.74.61,2.29,1.9,1.23,2.88Zm22.77,7.94,7.41-6.87a5.51,5.51,0,0,1,5.06-.69l12.12,4.23c1.74.61,2.29,1.9,1.23,2.88l-7.41,6.88a5.5,5.5,0,0,1-5.07.68l-12.12-4.23C336.62,487.12,336.06,485.83,337.13,484.84ZM357.71,492l7.41-6.88a5.53,5.53,0,0,1,5.07-.68l12.12,4.23c1.74.61,2.29,1.89,1.23,2.88l-7.41,6.87a5.53,5.53,0,0,1-5.07.69l-12.12-4.23C357.2,494.3,356.65,493,357.71,492Zm20.59,7.18,7.41-6.87a5.5,5.5,0,0,1,5.07-.68l12.12,4.23c1.74.6,2.29,1.89,1.23,2.88l-7.41,6.87a5.5,5.5,0,0,1-5.07.68l-12.12-4.23C377.79,501.49,377.24,500.2,378.3,499.21Zm12.13-20.72L383,485.36A5.53,5.53,0,0,1,378,486l-12.12-4.23c-1.73-.6-2.28-1.89-1.22-2.88l7.41-6.87a5.53,5.53,0,0,1,5.07-.69l12.12,4.23C391,476.21,391.49,477.5,390.43,478.49Zm-20.56-7.18-7.41,6.87a5.53,5.53,0,0,1-5.07.69l-12.12-4.23c-1.74-.61-2.28-1.9-1.22-2.88l7.41-6.88a5.53,5.53,0,0,1,5.07-.68l12.12,4.23C370.38,469,370.93,470.32,369.87,471.31Zm-20.57-7.18L341.89,471a5.48,5.48,0,0,1-5.06.69l-12.13-4.23c-1.73-.61-2.28-1.9-1.22-2.88l7.41-6.88A5.53,5.53,0,0,1,336,457l12.12,4.23C349.82,461.86,350.36,463.15,349.3,464.13ZM328.74,457l-7.41,6.88a5.53,5.53,0,0,1-5.07.68l-12.12-4.23c-1.74-.6-2.28-1.89-1.22-2.88l7.41-6.87a5.53,5.53,0,0,1,5.07-.69l12.12,4.23C329.25,454.68,329.8,456,328.74,457Zm-20.56-7.17-7.41,6.87a5.53,5.53,0,0,1-5.07.69l-12.12-4.23c-1.74-.61-2.29-1.9-1.22-2.89l7.4-6.87a5.54,5.54,0,0,1,5.07-.68L307,446.9C308.69,447.5,309.24,448.79,308.18,449.78Zm-25.41,6.63a5.51,5.51,0,0,1,5.06-.69L300,460c1.73.6,2.29,1.89,1.22,2.88l-7.41,6.87a5.48,5.48,0,0,1-5.06.68l-12.13-4.23c-1.73-.6-2.28-1.89-1.22-2.88Zm3.16,14.15,12.12,4.23c1.74.61,2.29,1.9,1.22,2.88l-7.4,6.87a5.51,5.51,0,0,1-5.07.69L274.68,481c-1.74-.61-2.29-1.9-1.23-2.88l7.41-6.87A5.5,5.5,0,0,1,285.93,470.56Zm8.14,14.75,7.4-6.87a5.57,5.57,0,0,1,5.07-.69L318.66,482c1.74.6,2.29,1.89,1.23,2.88l-7.41,6.87a5.53,5.53,0,0,1-5.07.69l-12.12-4.23C293.55,487.59,293,486.3,294.07,485.31Zm20.61,7.2,7.4-6.88a5.53,5.53,0,0,1,5.07-.68l12.12,4.23c1.74.6,2.29,1.9,1.23,2.88l-7.41,6.87a5.5,5.5,0,0,1-5.07.69l-12.12-4.23C314.16,494.78,313.61,493.49,314.68,492.51Zm20.61,7.19,7.41-6.87a5.53,5.53,0,0,1,5.07-.69l12.12,4.23c1.73.61,2.28,1.9,1.22,2.89l-7.41,6.87a5.53,5.53,0,0,1-5.07.68l-12.12-4.23C334.78,502,334.23,500.69,335.29,499.7Zm20.61,7.19,7.4-6.87a5.54,5.54,0,0,1,5.07-.68l12.12,4.23c1.74.6,2.29,1.89,1.23,2.88l-7.41,6.87a5.53,5.53,0,0,1-5.07.69l-12.12-4.23C355.38,509.17,354.84,507.88,355.9,506.89Zm20.61,7.2,7.41-6.87a5.48,5.48,0,0,1,5.06-.69l12.13,4.23c1.74.61,2.28,1.9,1.22,2.88l-7.4,6.87a5.51,5.51,0,0,1-5.07.69L377.73,517C376,516.36,375.45,515.07,376.51,514.09Zm23.61-4.81c-1.74-.61-2.29-1.89-1.23-2.88l7.41-6.87a5.49,5.49,0,0,1,5.06-.69l12.13,4.23c1.74.61,2.28,1.9,1.22,2.88l-7.41,6.88a5.51,5.51,0,0,1-5.06.68Zm19.36,4.31,7.41-6.88A5.5,5.5,0,0,1,432,506l12.12,4.23c1.73.6,2.29,1.89,1.22,2.88L437.89,520a5.51,5.51,0,0,1-5.06.69l-12.12-4.24C419,515.86,418.42,514.57,419.48,513.59Zm20.59,7.18,7.41-6.87a5.53,5.53,0,0,1,5.07-.69l12.12,4.23c1.73.61,2.29,1.9,1.22,2.88l-7.41,6.88a5.51,5.51,0,0,1-5.06.68l-12.12-4.23C439.56,523.05,439,521.76,440.07,520.77Zm25.21-6.7a5.53,5.53,0,0,1-5.07.68l-12.12-4.23c-1.74-.6-2.29-1.89-1.23-2.88l7.41-6.87a5.53,5.53,0,0,1,5.07-.69l12.12,4.23c1.74.61,2.29,1.9,1.23,2.89Zm4.56-11.46c-1.74-.6-2.28-1.89-1.22-2.88l7.4-6.87a5.56,5.56,0,0,1,5.07-.69l12.12,4.24c1.74.6,2.28,1.89,1.22,2.88l-7.4,6.87a5.56,5.56,0,0,1-5.07.69Zm4.08-10.48L466.51,499a5.53,5.53,0,0,1-5.07.68l-12.12-4.23c-1.74-.6-2.29-1.89-1.22-2.88l7.4-6.87a5.53,5.53,0,0,1,5.07-.69l12.12,4.23C474.43,489.85,475,491.14,473.92,492.13ZM453.4,485,446,491.84a5.53,5.53,0,0,1-5.07.68l-12.12-4.23c-1.73-.6-2.28-1.89-1.22-2.88l7.41-6.87a5.53,5.53,0,0,1,5.07-.69l12.12,4.23C453.91,482.69,454.46,484,453.4,485Zm-20.52-7.16-7.4,6.87a5.53,5.53,0,0,1-5.07.68l-12.12-4.23c-1.74-.6-2.29-1.89-1.23-2.88l7.41-6.87a5.53,5.53,0,0,1,5.07-.69l12.12,4.23C433.4,475.53,434,476.82,432.88,477.81Zm-20.51-7.17L405,477.52a5.53,5.53,0,0,1-5.07.68L387.77,474c-1.74-.6-2.28-1.89-1.22-2.88l7.4-6.87a5.54,5.54,0,0,1,5.07-.69l12.13,4.23C412.88,468.37,413.43,469.66,412.37,470.64Zm-20.52-7.16-7.4,6.88a5.54,5.54,0,0,1-5.07.68l-12.12-4.23c-1.74-.6-2.29-1.9-1.23-2.88l7.41-6.87a5.5,5.5,0,0,1,5.07-.69l12.12,4.23C392.37,461.21,392.92,462.5,391.85,463.48Zm-20.52-7.16-7.41,6.87a5.48,5.48,0,0,1-5.06.69l-12.13-4.23c-1.73-.61-2.28-1.9-1.21-2.88l7.4-6.87a5.5,5.5,0,0,1,5.07-.69l12.12,4.23C371.85,454.05,372.39,455.34,371.33,456.32Zm-20.51-7.16L343.41,456a5.5,5.5,0,0,1-5.07.69l-12.12-4.23c-1.74-.61-2.29-1.9-1.23-2.88l7.41-6.88a5.53,5.53,0,0,1,5.07-.68l12.12,4.23C351.33,446.88,351.88,448.18,350.82,449.16ZM330.3,442l-7.41,6.87a5.53,5.53,0,0,1-5.07.69l-12.12-4.23c-1.74-.61-2.28-1.9-1.22-2.88l7.41-6.88a5.53,5.53,0,0,1,5.07-.68l12.12,4.23C330.81,439.72,331.36,441,330.3,442Zm-20.52-7.16-7.4,6.87a5.54,5.54,0,0,1-5.07.69l-12.12-4.23c-1.74-.61-2.29-1.9-1.23-2.89l7.41-6.87a5.53,5.53,0,0,1,5.07-.68L308.56,432C310.3,432.56,310.85,433.85,309.78,434.84Zm-20.51-7.16-7.41,6.87a5.53,5.53,0,0,1-5.07.69L264.67,431c-1.74-.61-2.29-1.9-1.22-2.89l7.4-6.87a5.54,5.54,0,0,1,5.07-.68L288,424.8C289.78,425.4,290.33,426.69,289.27,427.68Zm-15,7.81,12.12,4.23c1.74.61,2.29,1.9,1.23,2.88l-7.41,6.87a5.5,5.5,0,0,1-5.07.69L263,445.93c-1.73-.61-2.28-1.9-1.22-2.88l7.41-6.88A5.53,5.53,0,0,1,274.27,435.49Zm-12.09,13.73a5.51,5.51,0,0,1,5.06-.68l12.13,4.23c1.73.61,2.28,1.89,1.22,2.88l-7.41,6.87a5.51,5.51,0,0,1-5.06.69L256,459c-1.74-.61-2.29-1.9-1.23-2.88Zm3.14,14.15,12.12,4.23c1.74.6,2.28,1.89,1.22,2.88l-7.41,6.87a5.51,5.51,0,0,1-5.06.69l-12.13-4.23c-1.73-.61-2.28-1.9-1.22-2.88l7.41-6.88A5.53,5.53,0,0,1,265.32,463.37Zm-9.26,24.18,7.41-6.88a5.51,5.51,0,0,1,5.06-.68L286,486.08c1.74.61,2.28,1.9,1.22,2.89l-7.41,6.87a5.54,5.54,0,0,1-5.06.69l-17.47-6.1C255.55,489.82,255,488.53,256.06,487.55Zm25.9,9,7.41-6.87a5.5,5.5,0,0,1,5.07-.69l94.14,32.86c1.74.6,2.28,1.89,1.22,2.88l-7.41,6.87a5.53,5.53,0,0,1-5.07.69l-94.13-32.86C281.45,498.86,280.9,497.57,282,496.59Zm102.58,35.8,7.41-6.87a5.53,5.53,0,0,1,5.07-.69l17,5.92c1.73.6,2.28,1.89,1.22,2.88l-7.41,6.87a5.53,5.53,0,0,1-5.07.69l-16.94-5.92C384,534.67,383.48,533.38,384.54,532.39Zm31-4.68a5.53,5.53,0,0,1-5.07.68l-12.12-4.23c-1.73-.6-2.28-1.89-1.22-2.88l7.41-6.87a5.53,5.53,0,0,1,5.07-.69L421.72,518c1.73.61,2.28,1.9,1.22,2.89Zm2.2.77,7.41-6.88a5.53,5.53,0,0,1,5.07-.68l12.12,4.23c1.74.6,2.29,1.9,1.22,2.88l-7.4,6.87a5.5,5.5,0,0,1-5.07.69L419,531.36C417.22,530.75,416.67,529.46,417.73,528.48Zm44.15,2.36c-1.74-.61-2.29-1.9-1.22-2.88l7.41-6.88a5.51,5.51,0,0,1,5.06-.68l12.12,4.23c1.74.61,2.29,1.89,1.23,2.88l-7.41,6.87a5.53,5.53,0,0,1-5.07.69Zm24-9.6a5.48,5.48,0,0,1-5.06.69l-12.13-4.23c-1.74-.61-2.29-1.9-1.22-2.88l7.4-6.87a5.51,5.51,0,0,1,5.07-.69L492,511.49c1.73.61,2.28,1.9,1.22,2.88ZM488,522l7.41-6.88a5.53,5.53,0,0,1,5.07-.68l12.12,4.23c1.74.6,2.29,1.9,1.23,2.88l-7.41,6.87a5.5,5.5,0,0,1-5.07.69l-12.13-4.23C487.48,524.27,486.93,523,488,522Zm14.49-8-12.12-4.23c-1.74-.61-2.29-1.9-1.23-2.89l7.41-6.87a5.53,5.53,0,0,1,5.07-.68l12.12,4.23c1.74.6,2.29,1.89,1.22,2.88l-7.4,6.87A5.53,5.53,0,0,1,502.48,514ZM255.07,409.7l3.82-3.54a5.53,5.53,0,0,1,5.07-.69l12.12,4.23c1.74.61,2.28,1.9,1.22,2.89l-3.82,3.54a5.5,5.5,0,0,1-5.06.68l-12.12-4.23C254.56,412,254,410.68,255.07,409.7ZM242.93,421l7.41-6.87a5.53,5.53,0,0,1,5.07-.68l12.12,4.23c1.74.6,2.28,1.89,1.22,2.88l-7.4,6.87a5.55,5.55,0,0,1-5.08.69l-12.12-4.23C242.42,423.24,241.87,422,242.93,421Zm-12.14,11.27,7.41-6.88a5.53,5.53,0,0,1,5.07-.68l22.55,7.87c1.74.61,2.29,1.9,1.23,2.88l-7.41,6.87a5.5,5.5,0,0,1-5.07.69L232,435.11C230.28,434.5,229.73,433.21,230.79,432.23Zm-12.14,11.26,7.41-6.87a5.53,5.53,0,0,1,5.07-.69l27.65,9.66c1.73.6,2.28,1.89,1.22,2.87l-7.41,6.88a5.51,5.51,0,0,1-5.06.68l-27.65-9.65C218.14,445.76,217.59,444.48,218.65,443.49Zm-12.14,11.26,7.41-6.87a5.53,5.53,0,0,1,5.07-.68l37.84,13.2c1.74.61,2.28,1.9,1.22,2.89l-7.41,6.87a5.53,5.53,0,0,1-5.07.68l-37.83-13.2C206,457,205.45,455.74,206.51,454.75ZM194.37,466l7.41-6.88a5.53,5.53,0,0,1,5.07-.68L219,462.69c1.74.61,2.29,1.9,1.22,2.88l-7.4,6.87a5.5,5.5,0,0,1-5.07.69L195.6,468.9C193.86,468.29,193.31,467,194.37,466ZM414.5,557.26l-55.26,51.27c-2.29,2.12-7.19,2.79-10.93,1.48L194.9,556.47c-3.76-1.31-4.93-4.1-2.64-6.22L247.51,499c2.29-2.13,7.19-2.79,10.94-1.48L411.86,551C415.61,552.35,416.79,555.13,414.5,557.26Zm8.78-8.9-12.12-4.23c-1.74-.6-2.29-1.89-1.23-2.88l7.41-6.87a5.53,5.53,0,0,1,5.07-.69l12.12,4.23c1.74.61,2.28,1.9,1.22,2.89l-7.4,6.87A5.54,5.54,0,0,1,423.28,548.36Zm26,5-1.25,1.16a5.53,5.53,0,0,1-5.07.68L430.87,551c-1.74-.6-2.29-1.89-1.22-2.88L430.9,547a5.53,5.53,0,0,1,5.07-.69l12.12,4.23C449.83,551.12,450.37,552.41,449.31,553.4Zm21.25,7.41L469.3,562a5.5,5.5,0,0,1-5.07.69l-12.12-4.23c-1.74-.61-2.28-1.9-1.22-2.88l1.25-1.17a5.53,5.53,0,0,1,5.07-.68l12.12,4.23C471.07,558.53,471.62,559.83,470.56,560.81Zm21.24,7.42-1.25,1.16a5.53,5.53,0,0,1-5.07.69l-12.12-4.23c-1.74-.61-2.28-1.9-1.22-2.89l1.25-1.16a5.56,5.56,0,0,1,5.07-.69l12.12,4.23C492.32,566,492.87,567.24,491.8,568.23Zm18.3-17-7.41,6.87a5.53,5.53,0,0,1-5.07.68l-37.44-13.06c-1.74-.61-2.29-1.9-1.22-2.89l7.4-6.87a5.54,5.54,0,0,1,5.07-.68l37.44,13.06C510.61,549,511.16,550.27,510.1,551.26ZM522.24,540l-7.41,6.88a5.55,5.55,0,0,1-5.07.68L482.47,538c-1.73-.6-2.29-1.89-1.22-2.88l7.41-6.87a5.48,5.48,0,0,1,5.06-.68L521,537.11C522.75,537.72,523.3,539,522.24,540Zm12.14-11.26L527,535.6a5.56,5.56,0,0,1-5.07.69l-12.12-4.23c-1.74-.61-2.29-1.9-1.22-2.89l7.4-6.87a5.57,5.57,0,0,1,5.07-.69l12.12,4.23C534.89,526.45,535.44,527.74,534.38,528.73Zm12.14-11.26-7.41,6.87A5.53,5.53,0,0,1,534,525l-23.17-8.08c-1.73-.61-2.28-1.9-1.22-2.89l7.41-6.87a5.53,5.53,0,0,1,5.07-.68l23.16,8.08C547,515.19,547.58,516.48,546.52,517.47Zm8.55-7.94-3.82,3.54a5.53,5.53,0,0,1-5.07.69l-5.71-2c-1.74-.6-2.28-1.89-1.22-2.87l3.82-3.55a5.51,5.51,0,0,1,5.06-.68l5.71,2C555.58,507.26,556.13,508.55,555.07,509.53Z"/><g class="cls-10"><g class="cls-22"><polygon class="cls-23" points="180.9 463.71 488.89 575.41 565.04 505.15 252.66 390.85 180.9 463.71"/><path class="cls-24" d="M430.26,547.4c-1.74-.62-2.29-1.94-1.23-2.95l1.26-1.19a5.46,5.46,0,0,1,5.08-.7l12.14,4.32c1.74.62,2.29,1.94,1.23,3L447.48,551a5.46,5.46,0,0,1-5.08.7l-12.14-4.32M451.55,555c-1.75-.62-2.3-1.94-1.23-2.94l1.25-1.19a5.44,5.44,0,0,1,5.08-.7l12.15,4.32c1.74.62,2.29,1.94,1.23,2.94l-1.26,1.19a5.43,5.43,0,0,1-5.08.7L451.55,555m21.29,7.58c-1.74-.62-2.29-1.94-1.23-2.95l1.26-1.18a5.43,5.43,0,0,1,5.08-.71L490.09,562c1.74.62,2.29,1.93,1.23,2.94l-1.26,1.19a5.43,5.43,0,0,1-5.08.7l-12.14-4.32m-15.79-13c-1.74-.62-2.29-1.93-1.22-2.94l1.25-1.19a5.44,5.44,0,0,1,5.08-.7l12.15,4.32c1.74.62,2.29,1.94,1.23,2.95l-1.26,1.18a5.43,5.43,0,0,1-5.08.71l-12.15-4.33M194.5,463.5c-1.74-.62-2.29-1.94-1.23-2.95l7.42-7a5.47,5.47,0,0,1,5.08-.7l12.15,4.33c1.74.61,2.29,1.93,1.23,2.94l-7.43,7a5.43,5.43,0,0,1-5.08.7L194.5,463.5m20.6,7.33c-1.74-.62-2.29-1.94-1.22-2.94l7.42-7a5.43,5.43,0,0,1,5.08-.7l12.14,4.32c1.75.62,2.29,1.94,1.23,2.94l-7.42,7a5.44,5.44,0,0,1-5.08.7l-12.15-4.32m20.6,7.33c-1.73-.62-2.28-1.93-1.22-2.94l7.42-7a5.44,5.44,0,0,1,5.08-.7l12.15,4.32c1.74.62,2.29,1.94,1.23,2.94l-7.43,7a5.46,5.46,0,0,1-5.08.7l-12.15-4.33m20.61,7.33c-1.74-.61-2.29-1.93-1.22-2.94l7.42-7a5.42,5.42,0,0,1,5.07-.7l17.51,6.23c1.74.62,2.29,1.93,1.22,2.94l-7.42,7a5.45,5.45,0,0,1-5.07.71l-17.51-6.24m26,9.24c-1.74-.62-2.29-1.93-1.23-2.94l7.42-7a5.45,5.45,0,0,1,5.09-.7l94.33,33.57c1.74.62,2.29,1.93,1.22,2.94l-7.42,7a5.43,5.43,0,0,1-5.08.7l-94.33-33.57m102.79,36.58c-1.74-.62-2.29-1.94-1.23-2.94l7.43-7a5.43,5.43,0,0,1,5.08-.7l17,6c1.74.62,2.29,1.94,1.23,2.94l-7.43,7a5.43,5.43,0,0,1-5.08.71l-17-6.05m25.44,9.06c-1.74-.62-2.29-1.94-1.22-3l7.42-7a5.43,5.43,0,0,1,5.08-.7L433.92,534c1.75.62,2.3,1.94,1.23,3l-7.42,7a5.47,5.47,0,0,1-5.08.7l-12.15-4.32M206.66,452c-1.74-.62-2.29-1.93-1.22-2.94l7.42-7a5.43,5.43,0,0,1,5.08-.7l37.91,13.49c1.75.62,2.3,1.94,1.23,2.94l-7.42,7a5.47,5.47,0,0,1-5.08.7L206.66,452m46.42,16.52c-1.73-.61-2.28-1.93-1.22-2.94l7.43-7a5.41,5.41,0,0,1,5.07-.7l12.15,4.32c1.74.62,2.29,1.94,1.22,2.94l-7.42,7a5.41,5.41,0,0,1-5.07.71l-12.16-4.33m20.66,7.35c-1.74-.62-2.29-1.93-1.23-2.94l7.43-7a5.43,5.43,0,0,1,5.08-.7l12.14,4.32c1.74.62,2.29,1.94,1.23,2.94l-7.42,7a5.47,5.47,0,0,1-5.08.7l-12.15-4.33m20.66,7.35c-1.74-.61-2.29-1.93-1.23-2.94l7.42-7a5.44,5.44,0,0,1,5.08-.7l12.15,4.32c1.74.62,2.29,1.94,1.23,2.95l-7.43,7a5.46,5.46,0,0,1-5.08.7l-12.14-4.33m20.65,7.35c-1.74-.62-2.29-1.93-1.23-2.94l7.42-7a5.45,5.45,0,0,1,5.09-.7l12.14,4.32c1.74.62,2.29,1.94,1.23,2.94l-7.43,7a5.43,5.43,0,0,1-5.08.71l-12.14-4.33m20.66,7.35c-1.75-.62-2.29-1.93-1.23-2.94l7.42-7a5.44,5.44,0,0,1,5.08-.7l12.15,4.32c1.74.62,2.29,1.94,1.22,2.94l-7.42,7a5.46,5.46,0,0,1-5.08.7l-12.14-4.33m20.65,7.35c-1.74-.62-2.29-1.94-1.23-2.94l7.42-7a5.44,5.44,0,0,1,5.08-.7l12.15,4.32c1.74.62,2.29,1.94,1.22,2.94l-7.42,7a5.43,5.43,0,0,1-5.08.7l-12.14-4.32M377,512.61c-1.74-.62-2.29-1.93-1.22-2.94l7.42-7a5.45,5.45,0,0,1,5.07-.71l12.16,4.33c1.74.62,2.29,1.94,1.22,2.94l-7.42,7a5.43,5.43,0,0,1-5.08.71L377,512.61M397.66,520c-1.74-.62-2.29-1.94-1.22-2.94l7.42-7a5.43,5.43,0,0,1,5.08-.7l12.15,4.32c1.74.62,2.29,1.94,1.22,2.94l-7.42,7a5.43,5.43,0,0,1-5.08.7L397.66,520m20.66,7.35c-1.74-.62-2.29-1.94-1.22-2.94l7.42-7a5.43,5.43,0,0,1,5.08-.7L441.74,521c1.74.62,2.29,1.94,1.23,2.94l-7.42,7a5.47,5.47,0,0,1-5.08.71l-12.15-4.33M439,534.66c-1.74-.62-2.29-1.94-1.22-2.94l7.42-7a5.43,5.43,0,0,1,5.08-.7l12.14,4.32c1.75.62,2.29,1.94,1.23,2.94l-7.42,7a5.44,5.44,0,0,1-5.08.7L439,534.66M459.63,542c-1.74-.62-2.29-1.94-1.23-2.94l7.42-7a5.45,5.45,0,0,1,5.09-.7l37.51,13.35c1.75.62,2.29,1.93,1.23,2.94l-7.42,7a5.44,5.44,0,0,1-5.08.7L459.63,542M218.83,440.48c-1.74-.62-2.3-1.93-1.23-2.94l7.42-7a5.44,5.44,0,0,1,5.08-.7l27.71,9.86c1.74.62,2.29,1.93,1.23,2.94l-7.43,7a5.45,5.45,0,0,1-5.07.69l-27.71-9.86M255,453.36c-1.74-.62-2.29-1.93-1.23-2.94l7.43-7a5.41,5.41,0,0,1,5.07-.7L278.44,447c1.74.62,2.29,1.94,1.23,2.94l-7.43,7a5.47,5.47,0,0,1-5.07.7L255,453.36m20.63,7.34c-1.74-.61-2.29-1.93-1.22-2.94l7.42-7a5.42,5.42,0,0,1,5.07-.7l12.15,4.32c1.74.62,2.3,1.94,1.23,2.95l-7.42,7a5.44,5.44,0,0,1-5.08.7l-12.15-4.33m20.63,7.35c-1.74-.62-2.29-1.94-1.23-2.95l7.43-7a5.43,5.43,0,0,1,5.08-.7l12.14,4.32c1.74.62,2.3,1.94,1.23,2.95l-7.42,7a5.44,5.44,0,0,1-5.08.7l-12.15-4.32m20.64,7.34c-1.74-.62-2.3-1.94-1.23-2.94l7.42-7a5.47,5.47,0,0,1,5.08-.69l12.14,4.32c1.75.62,2.3,1.93,1.23,2.94l-7.42,7a5.44,5.44,0,0,1-5.08.7l-12.14-4.32m20.62,7.34c-1.73-.62-2.28-1.93-1.22-2.94l7.43-7a5.41,5.41,0,0,1,5.07-.7L361,476.39c1.74.62,2.29,1.93,1.23,2.94l-7.43,7a5.44,5.44,0,0,1-5.07.69l-12.16-4.32m20.64,7.34c-1.74-.62-2.3-1.93-1.23-2.94l7.42-7a5.44,5.44,0,0,1,5.08-.7l12.15,4.32c1.74.62,2.29,1.93,1.23,2.94l-7.43,7a5.46,5.46,0,0,1-5.08.69l-12.14-4.32m20.63,7.34c-1.74-.62-2.29-1.93-1.23-2.94l7.43-7a5.41,5.41,0,0,1,5.07-.7l12.15,4.32c1.74.62,2.29,1.94,1.23,2.94L396,501a5.41,5.41,0,0,1-5.07.7l-12.15-4.33m20.63,7.34c-1.74-.62-2.29-1.93-1.22-2.94l7.42-7a5.42,5.42,0,0,1,5.07-.7l12.15,4.33c1.75.61,2.29,1.93,1.23,2.93l-7.43,7a5.41,5.41,0,0,1-5.07.7l-12.15-4.33m20.63,7.35c-1.74-.62-2.29-1.94-1.23-2.94l7.43-7a5.43,5.43,0,0,1,5.08-.7l12.14,4.33c1.74.62,2.3,1.93,1.23,2.94l-7.42,7a5.44,5.44,0,0,1-5.08.7l-12.15-4.32m20.64,7.34c-1.74-.62-2.3-1.94-1.23-2.94l7.42-7a5.47,5.47,0,0,1,5.08-.69l12.15,4.32c1.74.62,2.29,1.93,1.23,2.94l-7.43,7a5.43,5.43,0,0,1-5.08.7l-12.14-4.32m20.63,7.34c-1.75-.62-2.3-1.93-1.23-2.94l7.42-7a5.47,5.47,0,0,1,5.08-.69l12.14,4.32c1.74.62,2.3,1.93,1.23,2.94l-7.42,7a5.44,5.44,0,0,1-5.08.7l-12.14-4.32M482,534.12c-1.74-.62-2.3-1.93-1.23-2.94l7.42-7a5.44,5.44,0,0,1,5.08-.7l27.35,9.73c1.74.62,2.29,1.94,1.23,2.94l-7.43,7a5.46,5.46,0,0,1-5.08.69L482,534.12M231,429c-1.74-.62-2.29-1.94-1.22-3l7.42-7a5.43,5.43,0,0,1,5.08-.7l22.6,8c1.74.62,2.29,1.94,1.23,2.95l-7.43,7a5.43,5.43,0,0,1-5.08.7L231,429m31.06,11c-1.73-.62-2.28-1.94-1.22-2.94l7.42-7a5.47,5.47,0,0,1,5.08-.71l12.15,4.33c1.74.62,2.29,1.94,1.23,2.94l-7.43,7a5.43,5.43,0,0,1-5.08.7L262.05,440m20.61,7.33c-1.74-.62-2.29-1.93-1.22-2.94l7.42-7a5.43,5.43,0,0,1,5.08-.7L306.08,441c1.75.62,2.3,1.94,1.23,2.94l-7.42,7a5.47,5.47,0,0,1-5.08.7l-12.15-4.33m20.61,7.34c-1.74-.62-2.29-1.94-1.23-2.95l7.42-7a5.44,5.44,0,0,1,5.08-.7l12.15,4.32c1.74.62,2.29,1.94,1.23,2.95l-7.43,7a5.46,5.46,0,0,1-5.08.7l-12.14-4.32m20.6,7.33c-1.74-.62-2.29-1.94-1.22-2.95l7.42-7a5.46,5.46,0,0,1,5.08-.7l12.15,4.33c1.74.61,2.29,1.93,1.22,2.94l-7.42,7a5.44,5.44,0,0,1-5.08.7L323.87,462m20.61,7.33c-1.74-.62-2.29-1.94-1.22-2.94l7.42-7a5.43,5.43,0,0,1,5.08-.7L367.9,463c1.75.62,2.3,1.94,1.23,2.94l-7.42,7a5.43,5.43,0,0,1-5.08.71l-12.15-4.33m20.61,7.34c-1.74-.62-2.29-1.94-1.23-2.95l7.42-7a5.44,5.44,0,0,1,5.08-.7l12.15,4.32c1.74.62,2.29,1.94,1.23,2.95l-7.43,7a5.46,5.46,0,0,1-5.08.7l-12.14-4.32m20.6,7.33c-1.74-.62-2.29-1.94-1.22-2.95l7.42-7a5.43,5.43,0,0,1,5.08-.7l12.14,4.32c1.75.62,2.3,1.94,1.23,2.95l-7.42,7a5.44,5.44,0,0,1-5.08.7L385.69,484m20.61,7.33c-1.74-.62-2.29-1.94-1.22-2.94l7.42-7a5.41,5.41,0,0,1,5.07-.71L429.72,485c1.75.62,2.29,1.93,1.23,2.94l-7.43,7a5.41,5.41,0,0,1-5.07.7l-12.15-4.32m20.61,7.33c-1.74-.62-2.29-1.93-1.23-2.94l7.42-7a5.44,5.44,0,0,1,5.08-.7l12.15,4.32c1.74.62,2.29,1.94,1.23,2.94l-7.43,7a5.46,5.46,0,0,1-5.08.7l-12.14-4.33m20.6,7.34c-1.74-.62-2.29-1.94-1.22-2.95l7.42-7a5.43,5.43,0,0,1,5.08-.7l12.14,4.32c1.75.62,2.3,1.94,1.23,2.95l-7.42,7a5.47,5.47,0,0,1-5.08.7L447.51,506m20.61,7.33c-1.74-.62-2.29-1.94-1.23-2.95l7.42-7a5.47,5.47,0,0,1,5.08-.7L491.54,507c1.74.61,2.29,1.93,1.23,2.94l-7.43,7a5.42,5.42,0,0,1-5.07.7l-12.15-4.32m20.6,7.33c-1.73-.62-2.28-1.94-1.22-2.94l7.42-7A5.47,5.47,0,0,1,500,510l12.15,4.33c1.74.62,2.29,1.94,1.23,2.94l-7.43,7a5.46,5.46,0,0,1-5.08.71l-12.15-4.33M509.33,528c-1.74-.62-2.29-1.94-1.22-2.95l7.42-7a5.43,5.43,0,0,1,5.08-.7l12.14,4.32c1.75.62,2.3,1.94,1.23,3l-7.42,7a5.47,5.47,0,0,1-5.08.7L509.33,528M243.16,417.47c-1.75-.62-2.29-1.94-1.23-2.94l7.42-7a5.47,5.47,0,0,1,5.08-.7l12.15,4.33c1.74.62,2.29,1.93,1.22,2.94l-7.42,7a5.43,5.43,0,0,1-5.08.7l-12.14-4.32m20.55,7.32c-1.74-.62-2.29-1.94-1.22-3l7.42-7a5.43,5.43,0,0,1,5.08-.7l12.15,4.32c1.74.62,2.29,1.94,1.22,2.95l-7.42,7a5.46,5.46,0,0,1-5.08.7l-12.15-4.32m20.56,7.31c-1.74-.62-2.29-1.94-1.22-2.94l7.42-7a5.43,5.43,0,0,1,5.08-.7l12.14,4.32c1.75.62,2.3,1.94,1.23,2.94l-7.42,7a5.44,5.44,0,0,1-5.08.7l-12.15-4.32m20.56,7.32c-1.74-.62-2.29-1.94-1.22-2.95l7.42-7a5.46,5.46,0,0,1,5.08-.7l12.14,4.32c1.74.62,2.29,1.94,1.23,2.95l-7.42,7a5.44,5.44,0,0,1-5.08.7l-12.15-4.32m20.56,7.31c-1.74-.62-2.29-1.93-1.23-2.94l7.43-7a5.43,5.43,0,0,1,5.08-.7l12.14,4.32c1.74.62,2.29,1.94,1.23,2.94l-7.42,7a5.47,5.47,0,0,1-5.08.7l-12.15-4.33M346,454.05c-1.74-.62-2.29-1.94-1.22-2.94l7.42-7a5.41,5.41,0,0,1,5.07-.71l12.16,4.33c1.74.62,2.28,1.93,1.22,2.94l-7.43,7a5.41,5.41,0,0,1-5.07.7L346,454.05m20.56,7.32c-1.74-.62-2.29-1.94-1.22-2.95l7.42-7a5.43,5.43,0,0,1,5.08-.7L389.93,455c1.75.62,2.29,1.94,1.23,3l-7.42,7a5.44,5.44,0,0,1-5.08.7l-12.15-4.32m20.56,7.31c-1.74-.62-2.29-1.94-1.23-2.94l7.43-7a5.43,5.43,0,0,1,5.08-.7l12.14,4.32c1.74.62,2.29,1.94,1.23,2.94l-7.42,7a5.44,5.44,0,0,1-5.08.71l-12.15-4.33M407.63,476c-1.74-.62-2.29-1.94-1.23-2.95l7.43-7a5.46,5.46,0,0,1,5.08-.7l12.14,4.32c1.74.62,2.29,1.94,1.23,3l-7.42,7a5.45,5.45,0,0,1-5.09.7L407.63,476m20.56,7.31c-1.74-.61-2.29-1.93-1.23-2.94l7.42-7a5.44,5.44,0,0,1,5.08-.7L451.61,477c1.74.62,2.29,1.94,1.23,2.95l-7.43,7a5.46,5.46,0,0,1-5.08.7l-12.14-4.33m20.56,7.32c-1.75-.62-2.29-1.94-1.23-2.94l7.42-7A5.47,5.47,0,0,1,460,480l12.15,4.33c1.74.62,2.29,1.93,1.22,2.94l-7.42,7a5.43,5.43,0,0,1-5.08.7l-12.14-4.32M469.3,498c-1.74-.62-2.28-1.94-1.22-2.95l7.43-7a5.44,5.44,0,0,1,5.07-.7l12.15,4.32c1.74.62,2.29,1.94,1.22,2.95l-7.42,7a5.44,5.44,0,0,1-5.07.7L469.3,498m20.57,7.31c-1.74-.62-2.29-1.93-1.23-2.94l7.42-7a5.45,5.45,0,0,1,5.09-.7l12.14,4.32c1.74.62,2.29,1.94,1.23,2.94l-7.43,7a5.46,5.46,0,0,1-5.08.7l-12.14-4.33m20.56,7.32c-1.74-.62-2.29-1.94-1.23-3l7.42-7a5.47,5.47,0,0,1,5.08-.7l23.22,8.26c1.74.62,2.29,1.94,1.22,2.95l-7.42,7a5.43,5.43,0,0,1-5.08.7l-23.21-8.26M255.32,406c-1.74-.62-2.29-1.94-1.23-2.94l3.83-3.62a5.43,5.43,0,0,1,5.08-.7L275.15,403c1.74.62,2.29,1.94,1.22,3l-3.82,3.62a5.47,5.47,0,0,1-5.08.69L255.32,406m21,7.47c-1.74-.62-2.29-1.93-1.23-2.94l3.83-3.62a5.46,5.46,0,0,1,5.08-.7l254.92,90.71c1.74.62,2.28,1.94,1.22,2.95l-3.83,3.62a5.44,5.44,0,0,1-5.07.7L276.32,413.43m263.77,93.86c-1.75-.62-2.29-1.93-1.23-2.94l3.83-3.61a5.41,5.41,0,0,1,5.07-.71l5.73,2c1.74.62,2.29,1.94,1.22,2.94l-3.82,3.62a5.43,5.43,0,0,1-5.08.7l-5.72-2m67.35-10.17-26.9-9.57c-4.31,4.08-13.53,5.35-20.59,2.84l-278.48-99.1c-7.06-2.51-9.29-7.85-5-11.94l-26.9-9.57c-8.27-2.95-19.09-1.45-24.15,3.33l-144,136.21c-5.06,4.79-2.45,11.05,5.82,14L445.14,650.66c8.27,2.94,19.08,1.45,24.14-3.34l144-136.2c5.06-4.79,2.45-11.06-5.83-14"/><path class="cls-12" d="M580.54,487.55l-304-108.2c-4.32,4.09-2.09,9.43,5,11.94L560,490.39c7.06,2.51,16.28,1.24,20.59-2.84"/><path class="cls-25" d="M283.24,566.78c-.32-.12-.42-.36-.23-.55l38.16-36.09a1,1,0,0,1,.95-.13c.32.11.42.36.22.55l-38.15,36.09a1.06,1.06,0,0,1-.95.13M402.84,546,261,495.51c-3.47-1.23-8-.61-10.12,1.39l-51.1,48.35c-2.12,2-1,4.63,2.44,5.87l141.89,50.49c3.46,1.23,8,.6,10.11-1.4l51.11-48.35c2.12-2,1-4.62-2.44-5.86"/><path class="cls-26" d="M283.24,568.35c-.32-.12-.42-.36-.23-.55l38.16-36.09a1,1,0,0,1,.95-.13c.32.11.42.36.22.55l-38.15,36.09a1.06,1.06,0,0,1-.95.13m119.6-20.78L261,497.08c-3.47-1.23-8-.61-10.12,1.39l-51.1,48.35c-2.12,2-1,4.63,2.44,5.87l141.89,50.49c3.46,1.23,8,.6,10.11-1.4l51.11-48.35c2.12-2,1-4.62-2.44-5.86"/><path class="cls-25" d="M322.12,531.58a1,1,0,0,0-.95.13L283,567.8c-.19.19-.09.43.23.55a1.06,1.06,0,0,0,.95-.13l38.15-36.09c.2-.19.1-.44-.22-.55"/></g></g><g class="cls-10"><g class="cls-27"><path class="cls-28" d="M599.54,527.08l-4.28,4.09a4.57,4.57,0,0,0-1.14,3c0,1,.57,1.35,1.22.73l4.29-4.1a4.47,4.47,0,0,0,1.13-3c0-1-.57-1.35-1.22-.73"/><path class="cls-28" d="M608.24,518.77,604,522.86a4.55,4.55,0,0,0-1.14,3c0,1,.57,1.34,1.22.72l4.28-4.09a4.43,4.43,0,0,0,1.14-3c0-1-.57-1.35-1.22-.73"/><path class="cls-28" d="M612.65,514.55a4,4,0,0,0-.82,1.34,4.6,4.6,0,0,0-.31,1.64,1.18,1.18,0,0,0,.37,1c.23.13.54,0,.85-.26a3.65,3.65,0,0,0,.82-1.34,4.57,4.57,0,0,0,.32-1.63,1.13,1.13,0,0,0-.38-1c-.23-.14-.53,0-.85.25"/></g></g><g class="cls-10"><path class="cls-19" d="M799,543.4,706,390l198.4-41.27,102.28,168.69L825.78,555.05A25.3,25.3,0,0,1,799,543.4Z"/><polygon class="cls-4" points="827.87 551.19 725.59 382.5 923.99 341.23 1026.27 509.92 827.87 551.19"/><g class="cls-10"><path class="cls-4" d="M821.86,549.19,719.58,380.5c1,1.69,3.35,2.55,6,2l102.28,168.7C825.21,551.74,822.89,550.89,821.86,549.19Z"/><g class="cls-29"><g class="cls-10"><path class="cls-4" d="M821.86,549.19,719.58,380.5l.09.14L822,549.34l-.09-.15"/><path class="cls-4" d="M822,549.34,719.67,380.64l.19.26L822.14,549.6l-.19-.26"/><path class="cls-4" d="M822.14,549.6,719.86,380.9a2.62,2.62,0,0,0,.22.25L822.36,549.84l-.22-.24"/><path class="cls-4" d="M822.36,549.84,720.08,381.15l.24.24L822.6,550.08l-.24-.24"/><path class="cls-4" d="M822.6,550.08,720.32,381.39l.29.23,102.28,168.7-.29-.24"/><path class="cls-4" d="M822.89,550.32,720.61,381.62a2.75,2.75,0,0,0,.33.23L823.22,550.54a2.7,2.7,0,0,1-.33-.22"/><path class="cls-4" d="M823.22,550.54,720.94,381.85a3,3,0,0,0,.39.22l102.28,168.7-.39-.23"/><path class="cls-4" d="M823.61,550.77,721.33,382.07a5,5,0,0,0,.53.23L824.14,551a4.93,4.93,0,0,1-.53-.22"/><path class="cls-4" d="M824.14,551,721.86,382.3a6.57,6.57,0,0,0,.79.23L824.93,551.22a5.14,5.14,0,0,1-.79-.23"/><path class="cls-4" d="M824.93,551.22,722.65,382.53a7,7,0,0,0,2.2.08l102.28,168.7a7,7,0,0,1-2.2-.09"/><path class="cls-4" d="M827.13,551.31,724.85,382.61a4.75,4.75,0,0,0,.74-.12l102.28,168.7c-.25,0-.49.09-.74.12"/></g></g></g><polygon class="cls-30" points="1017.69 506.75 1017.69 491.42 1003.1 495.3 1013.5 505.79 1017.69 506.75"/><polygon class="cls-30" points="819.29 548.01 717.01 379.32 915.41 338.05 1017.69 506.75 819.29 548.01"/><polygon class="cls-4" points="827.46 528.4 725.18 359.71 923.58 318.44 1025.86 487.13 827.46 528.4"/><path class="cls-31" d="M1025.86,487.13l.08,4.11-198.4,41.27c-3.58.74-6.44,3.73-6.38,6.68l.14,8c.05,2.94,3,4.73,6.57,4l198.4-41.27.08,4.1L828,555.29c-6.18,1.29-11.29-1.9-11.38-7.11l-.15-8c-.09-5.2,4.86-10.49,11-11.77Z"/><path class="cls-32" d="M816.42,540.17a11.09,11.09,0,0,1,.07-1.15l.06-.35a8,8,0,0,1,.17-.82c0-.12.06-.24.1-.36a8.62,8.62,0,0,1,.33-.93c0-.06,0-.13.07-.2a11,11,0,0,1,.55-1.08c.06-.11.13-.22.2-.33s.27-.43.41-.63l.33-.45.27-.35c.15-.18.31-.37.48-.55l.17-.19c.22-.24.46-.47.7-.7l.17-.14c.2-.18.4-.36.61-.53l.21-.16c.26-.2.53-.4.81-.59l.09-.06.77-.47.25-.14c.26-.15.54-.29.81-.43l.11,0c.32-.15.64-.28,1-.41l.35-.13.66-.22.57-.16c.25-.07.51-.14.76-.19L725.18,359.71l-.38.08-.38.11-.57.16-.19.05-.47.17-.35.13-.11,0c-.28.11-.55.22-.82.35l0,0-.11.05-.6.3-.21.12-.24.14-.24.14-.54.34-.09.06,0,0-.63.45-.15.12-.2.16-.26.2-.36.32-.17.15-.07.06c-.2.19-.4.39-.59.59l0,0a1.54,1.54,0,0,0-.17.19l-.38.42a1.13,1.13,0,0,0-.1.13c-.1.11-.18.23-.27.35l-.23.3a1.21,1.21,0,0,0-.1.14c-.14.21-.28.42-.41.63l-.16.26a.2.2,0,0,0,0,.08,11,11,0,0,0-.55,1.08,1.59,1.59,0,0,0-.07.2,7.77,7.77,0,0,0-.33.92c0,.12-.07.24-.1.36a8.15,8.15,0,0,0-.17.83l-.06.35a10.92,10.92,0,0,0-.07,1.15l.15,8a7,7,0,0,0,1,3.59L817.58,551.77a7,7,0,0,1-1-3.59Z"/></g><g class="cls-10"><polygon class="cls-6" points="902.07 519.75 743.97 361 901.32 307.5 1059.42 466.25 902.07 519.75"/><polygon class="cls-33" points="898 525.2 739.9 366.45 739.88 364.43 897.98 523.18 898 525.2"/><g class="cls-10"><g class="cls-34"><g class="cls-10"><path class="cls-35" d="M898,523.18,739.89,364.43a3.58,3.58,0,0,0-1-2.56L897,520.62a3.52,3.52,0,0,1,1,2.56"/></g></g></g><path class="cls-5" d="M742.46,358.35l158.1,158.74c-1.77-1.77-4.7-2.33-8-1.21a15.12,15.12,0,0,0-9.47,10.33L725,367.46a15.14,15.14,0,0,1,9.48-10.33C737.77,356,740.7,356.57,742.46,358.35Z"/><g class="cls-36"><g class="cls-10"><path class="cls-37" d="M741.45,357.54l-.49-.28a5.38,5.38,0,0,0-.55-.24c-.21-.08-.42-.15-.64-.21s-.49-.12-.75-.16h0a7.91,7.91,0,0,0-1-.09,9.43,9.43,0,0,0-2.2.2h0a12.2,12.2,0,0,0-2.77.95c-.36.18-.72.36-1.06.57s-.56.34-.84.53-.47.33-.7.51-.43.33-.63.51l-.58.52c-.19.17-.37.35-.55.54l-.51.55c-.17.19-.33.39-.49.59s-.32.41-.47.62-.31.45-.46.67-.3.5-.44.75-.31.57-.45.85-.32.73-.45,1.09a11.37,11.37,0,0,0-.43,1.45l158.1,158.75a12.59,12.59,0,0,1,.42-1.45c.14-.36.29-.73.46-1.09s.29-.57.44-.86.29-.49.45-.74.3-.45.46-.67.31-.42.47-.62.32-.4.49-.59l.51-.56.54-.53c.19-.18.39-.35.59-.52s.41-.35.63-.52l.7-.51c.27-.18.55-.36.84-.52a10.65,10.65,0,0,1,1-.57c.47-.22.94-.41,1.42-.58a12.43,12.43,0,0,1,1.35-.37h0a9.41,9.41,0,0,1,2.2-.21,8.06,8.06,0,0,1,1,.1l-79-79.38,79,79.38a6.42,6.42,0,0,1,1.38.37,5.55,5.55,0,0,1,.56.24l.49.28Z"/><path class="cls-38" d="M899.55,516.29,741.45,357.54c.16.1.3.2.45.31L900,516.6c-.15-.11-.3-.22-.45-.31"/><path class="cls-39" d="M900,516.6,741.9,357.85l.41.34L900.4,516.94l-.4-.34"/><path class="cls-40" d="M900.4,516.94,742.31,358.19l.15.16,158.1,158.74-.16-.15"/></g></g><polygon class="cls-6" points="870.2 530.58 712.11 371.84 724.98 367.46 883.08 526.21 870.2 530.58"/><g class="cls-10"><path class="cls-6" d="M865.9,529.68,707.8,370.93a4,4,0,0,0,4.31.91L870.2,530.58A4,4,0,0,1,865.9,529.68Z"/><g class="cls-41"><g class="cls-10"><path class="cls-6" d="M865.9,529.68,707.8,370.93l.12.12L866,529.8l-.12-.12"/><path class="cls-6" d="M866,529.8,707.92,371.05l.3.25,158.1,158.75-.3-.25"/><path class="cls-6" d="M866.32,530.05,708.22,371.3l.31.22,158.1,158.74a2.11,2.11,0,0,1-.31-.21"/><path class="cls-6" d="M866.63,530.26,708.53,371.52l.32.18L867,530.44a2,2,0,0,1-.32-.18"/><path class="cls-6" d="M867,530.44,708.85,371.7l.33.14,158.1,158.75a2,2,0,0,1-.33-.15"/><path class="cls-6" d="M867.28,530.59,709.18,371.84a2.29,2.29,0,0,0,.37.12L867.64,530.71l-.36-.12"/><path class="cls-6" d="M867.64,530.71,709.55,372a2.71,2.71,0,0,0,.41.09L868.05,530.8a3,3,0,0,1-.41-.09"/><path class="cls-6" d="M868.05,530.8,710,372.05a4,4,0,0,0,.5.05l158.1,158.75a4.4,4.4,0,0,1-.51-.05"/><path class="cls-6" d="M868.56,530.85,710.46,372.1a4.39,4.39,0,0,0,1.13-.12l158.1,158.75a4.44,4.44,0,0,1-1.13.12"/><path class="cls-6" d="M869.69,530.73,711.59,372h0l158.1,158.75h0"/><path class="cls-6" d="M869.74,530.72,711.64,372l.47-.13L870.2,530.58a4,4,0,0,1-.46.14"/></g></g></g><polygon class="cls-7" points="895.91 512.64 742.08 357.91 893.16 306.35 1045.93 461.62 895.91 512.64"/><polygon class="cls-7" points="1045.93 461.62 1045.93 435.7 1026.99 442.48 1029.63 453.7 1045.93 461.62"/><g class="cls-10"><path class="cls-7" d="M734.67,350.68,892.76,509.42c-1.76-1.77-4.69-2.33-8-1.21a15.12,15.12,0,0,0-9.48,10.33L717.19,359.79a15.09,15.09,0,0,1,9.47-10.32C730,348.34,732.9,348.9,734.67,350.68Z"/><g class="cls-42"><g class="cls-10"><path class="cls-7" d="M875.28,518.54,717.19,359.79a11.31,11.31,0,0,1,.42-1.45l158.1,158.75a10.91,10.91,0,0,0-.43,1.45"/><path class="cls-7" d="M875.71,517.09,717.61,358.34c.13-.36.29-.73.46-1.09L876.17,516c-.17.36-.33.73-.46,1.09"/><path class="cls-7" d="M876.17,516,718.07,357.25c.13-.28.28-.57.44-.85l158.1,158.74c-.16.29-.31.57-.44.86"/><path class="cls-7" d="M876.61,515.14,718.51,356.4q.21-.37.45-.75L877.06,514.4c-.16.25-.31.49-.45.74"/><path class="cls-7" d="M877.06,514.4,719,355.65c.14-.22.3-.45.45-.67l158.1,158.75c-.16.22-.31.44-.45.67"/><path class="cls-7" d="M877.51,513.73,719.41,355c.16-.21.31-.42.48-.62L878,513.11c-.16.2-.32.41-.47.62"/><path class="cls-7" d="M878,513.11,719.89,354.36c.15-.2.32-.39.49-.59L878.47,512.52c-.17.19-.33.39-.49.59"/><path class="cls-7" d="M878.47,512.52,720.38,353.77c.16-.19.33-.37.51-.55L879,512l-.52.56"/><path class="cls-7" d="M879,512,720.89,353.22c.17-.19.36-.37.54-.54l158.1,158.75c-.19.17-.37.35-.54.53"/><path class="cls-7" d="M879.53,511.43,721.43,352.68l.58-.52,158.1,158.75-.58.52"/><path class="cls-7" d="M880.11,510.91,722,352.16q.32-.27.63-.51l158.1,158.74-.63.52"/><path class="cls-7" d="M880.74,510.39,722.64,351.65c.23-.18.47-.35.71-.51l158.1,158.74-.71.51"/><path class="cls-7" d="M881.45,509.88,723.35,351.14c.27-.19.55-.37.83-.53l158.1,158.75c-.28.16-.56.34-.83.52"/><path class="cls-7" d="M882.28,509.36,724.18,350.61c.35-.21.7-.39,1.06-.57l158.1,158.75c-.36.17-.71.36-1.06.57"/><path class="cls-7" d="M883.34,508.79,725.24,350a12.37,12.37,0,0,1,1.42-.57,12.53,12.53,0,0,1,1.35-.38l158.1,158.75a11.84,11.84,0,0,0-1.35.37,13.62,13.62,0,0,0-1.42.58"/><path class="cls-7" d="M886.11,507.84,728,349.09h0l158.1,158.75h0"/><path class="cls-7" d="M886.12,507.84,728,349.09a9.51,9.51,0,0,1,2.21-.2L888.32,507.63a9.51,9.51,0,0,0-2.2.21"/><path class="cls-7" d="M888.32,507.63,730.23,348.89a8.26,8.26,0,0,1,1,.09l158.1,158.75c-.33-.05-.66-.08-1-.1"/><path class="cls-7" d="M889.33,507.73,731.23,349c.25,0,.51.1.75.16l158.1,158.75a6.69,6.69,0,0,0-.75-.16"/><path class="cls-7" d="M890.08,507.89,732,349.14a5.81,5.81,0,0,1,.63.21L890.71,508.1l-.63-.21"/><path class="cls-7" d="M890.71,508.1,732.61,349.35c.19.07.37.16.55.24l158.1,158.75a5.38,5.38,0,0,0-.55-.24"/><path class="cls-7" d="M891.26,508.34,733.16,349.59c.17.09.34.18.5.28L891.75,508.62l-.49-.28"/><path class="cls-7" d="M891.75,508.62,733.66,349.87c.15.1.3.2.44.31L892.2,508.93a5.09,5.09,0,0,0-.45-.31"/><path class="cls-7" d="M892.2,508.93,734.1,350.18c.14.11.28.22.41.34l158.1,158.75c-.13-.12-.27-.23-.41-.34"/><path class="cls-7" d="M892.61,509.27,734.51,350.52l.16.16L892.76,509.42l-.15-.15"/></g></g></g><polygon class="cls-7" points="862.41 522.91 704.31 364.17 717.19 359.79 875.28 518.54 862.41 522.91"/><g class="cls-10"><path class="cls-7" d="M858.1,522,700,363.26a4,4,0,0,0,4.31.91l158.1,158.74A4,4,0,0,1,858.1,522Z"/><g class="cls-43"><g class="cls-10"><path class="cls-7" d="M858.1,522,700,363.26l.12.12,158.1,158.75-.12-.12"/><path class="cls-7" d="M858.22,522.13,700.12,363.38l.31.25L858.52,522.38l-.3-.25"/><path class="cls-7" d="M858.52,522.38,700.43,363.63a3.3,3.3,0,0,0,.3.22l158.1,158.74a2.82,2.82,0,0,1-.31-.21"/><path class="cls-7" d="M858.83,522.59,700.73,363.85l.32.18,158.1,158.74a2,2,0,0,1-.32-.18"/><path class="cls-7" d="M859.15,522.77,701.05,364l.34.15,158.1,158.74a2.07,2.07,0,0,1-.34-.15"/><path class="cls-7" d="M859.49,522.92,701.39,364.18l.36.11L859.85,523a2.17,2.17,0,0,1-.36-.12"/><path class="cls-7" d="M859.85,523,701.75,364.29a2.71,2.71,0,0,0,.41.09l158.1,158.75a2.71,2.71,0,0,1-.41-.09"/><path class="cls-7" d="M860.26,523.13,702.16,364.38a4.4,4.4,0,0,0,.51.05l158.1,158.75a4,4,0,0,1-.51,0"/><path class="cls-7" d="M860.77,523.18,702.67,364.43a4.49,4.49,0,0,0,1.13-.12L861.9,523.06a4.49,4.49,0,0,1-1.13.12"/><path class="cls-7" d="M861.9,523.06,703.8,364.31h0l158.1,158.75h0"/><path class="cls-7" d="M861.94,523.05,703.84,364.3l.47-.13,158.1,158.74a4.19,4.19,0,0,1-.47.14"/></g></g></g><polygon class="cls-44" points="897.91 488.13 739.81 329.38 901.25 274.48 1059.35 433.23 897.91 488.13"/><path class="cls-45" d="M897.54,492.13s0-.05,0-.07a6,6,0,0,0,.25-.9.17.17,0,0,0,0-.07,5.07,5.07,0,0,0,.09-.94v-2L739.81,329.38v2a5,5,0,0,1-.09.94.25.25,0,0,1,0,.08,5.18,5.18,0,0,1-.25.89.74.74,0,0,1,0,.14l-.18.42-.06.15-.09.17c-.06.11-.11.22-.18.33a1,1,0,0,1-.08.14l-.2.33a.71.71,0,0,0-.1.14l-.24.33-.08.1-.34.41a.46.46,0,0,1-.07.07l-.3.32-.1.1-.4.37h0l-.4.32-.15.11-.3.2-.21.13-.25.15-.33.18-.22.1a6.07,6.07,0,0,1-.7.29,8.09,8.09,0,0,1-.91.23l-.21,0a5,5,0,0,1-.85.06,5.48,5.48,0,0,1-.57-.05h0l-.48-.11-.11,0a2.63,2.63,0,0,1-.42-.17h0a2.65,2.65,0,0,1-.4-.24l-.07-.05a3.79,3.79,0,0,1-.37-.31L888.07,496.39l.09.09.23.19.06,0,.06.05.13.08a1.17,1.17,0,0,0,.27.15h0l.27.12.14.05.12,0,.09,0a2.34,2.34,0,0,0,.38.09h0a5,5,0,0,0,.56.06h0a6.29,6.29,0,0,0,.85-.06l.21,0a6.32,6.32,0,0,0,.91-.22,6.07,6.07,0,0,0,.7-.29l.08,0,.13-.07.34-.18.13-.07.12-.08.21-.13.12-.08.17-.12.15-.11.08-.05.33-.27v0h0l.32-.29.07-.07.11-.1.12-.12.18-.2.07-.08,0,0,.28-.33,0,0,.08-.11.15-.19.09-.14.09-.14a.36.36,0,0,0,.07-.1l.14-.22a1.09,1.09,0,0,0,.08-.15l0,0,.14-.27.09-.18,0,0a.61.61,0,0,1,.05-.12l.18-.43A.14.14,0,0,1,897.54,492.13Z"/><g class="cls-10"><g class="cls-46"><g class="cls-10"><path class="cls-35" d="M884.52,499.91,726.42,341.17a5.91,5.91,0,0,1-1.5-2.67L883,497.25a5.83,5.83,0,0,0,1.5,2.66"/></g></g></g><path class="cls-47" d="M860,511c0-.28.07-.57.12-.86s.07-.33.11-.5.11-.52.18-.78a5.08,5.08,0,0,1,.15-.52c.07-.25.15-.49.23-.74l.18-.48c.13-.34.27-.68.42-1l.18-.39c.09-.2.19-.39.29-.57l.3-.56c.07-.12.15-.24.22-.37s.27-.43.41-.64l.21-.31c.16-.24.33-.47.5-.69l.15-.21.69-.83.15-.16c.22-.23.43-.46.66-.67l.13-.13a10.27,10.27,0,0,1,.78-.7l.19-.15c.23-.19.47-.37.71-.54l.16-.12c.29-.2.59-.38.88-.56l.39-.2L869,498c.38-.17.76-.33,1.14-.46l17-5.77L729,333.05l-17,5.77a12.16,12.16,0,0,0-1.13.46l-.08,0c-.17.08-.34.18-.51.27l-.39.2-.06,0c-.26.15-.51.31-.76.48a.18.18,0,0,1-.07.05l-.16.13-.43.3-.28.23-.19.15-.13.11-.58.52-.07.07-.13.13-.35.34-.3.33-.15.17-.09.09-.54.64-.06.09-.16.21-.31.41c-.07.09-.13.19-.19.28l-.21.31-.15.21c-.09.14-.17.29-.25.43s-.16.25-.23.38L704,346c-.08.14-.15.28-.22.42l-.3.58-.06.13c0,.08-.07.17-.11.26-.16.33-.3.67-.43,1,0,.08-.07.15-.1.23a2.17,2.17,0,0,0-.07.24c-.09.25-.17.5-.24.74s-.11.35-.15.52-.13.52-.18.79-.08.33-.11.49-.08.58-.12.87c0,.14,0,.28,0,.42q-.06.65-.06,1.29l0,13.71a9.33,9.33,0,0,0,2.44,6.7l158.1,158.75a9.29,9.29,0,0,1-2.44-6.7l0-13.72c0-.42,0-.85.06-1.28C860,511.32,860,511.17,860,511Z"/><path class="cls-48" d="M1059.35,433.23v4.06L902,490.79a15.1,15.1,0,0,1-9.47,10.33c-4.63,1.57-8.52-.14-9.51-3.87l-12.88,4.38c-3.28,1.11-5.93,5.44-5.92,9.65l0,13.71c0,4.2,2.68,6.71,6,5.59l12.88-4.37a15.12,15.12,0,0,1,9.47-10.33c4.63-1.57,8.51.15,9.52,3.87l157.35-53.5v4.06L898,525.2l0-2c0-2.8-2.44-4.25-5.42-3.23s-5.4,4.11-5.4,6.91v2l-17,5.77c-5.66,1.92-10.27-1.75-10.28-8.19l0-13.72c0-6.44,4.57-13.25,10.23-15.17l17-5.77v2c0,2.8,2.44,4.25,5.42,3.24s5.4-4.12,5.39-6.92v-2Z"/></g><path class="cls-49" d="M952.35,493.26c0-.11,0-.21,0-.32a1,1,0,0,1,0-.17v-.14c0-.11,0-.22,0-.32l0-.31v-.11l0-.2,0-.29a2.51,2.51,0,0,1,0-.27v-.06l0-.2c0-.07,0-.14,0-.22a1.55,1.55,0,0,0,0-.21l0-.2h0l0-.17,0-.16s0-.1,0-.16l0-.16,0-.14,0-.05h0l0-.07,0-.13,0-.13,0-.13a.56.56,0,0,0,0-.12l0-.13,0-.12v0h0l0-.11,0-.12,0-.13a1.42,1.42,0,0,0,0-.16c0-.05,0-.1,0-.15a1.42,1.42,0,0,1,0-.16h0s0-.09,0-.14l-.12-.34-.06-.18c0-.13-.09-.25-.13-.37l-.09-.24-.12-.31,0-.06h0l0-.1c0-.05,0-.11-.07-.17a1.11,1.11,0,0,0-.07-.16l-.06-.14a.69.69,0,0,0,0-.13l0-.08h0l0,0-.06-.12c0-.05,0-.09-.05-.13l-.07-.13-.06-.14-.06-.13,0-.06h0l0-.06-.07-.14-.09-.17-.08-.16-.09-.16v0l-.1-.17-.12-.21-.13-.22,0,0,0,0-.11-.17c0-.09-.11-.17-.17-.26a1.3,1.3,0,0,0-.1-.15l0-.05,0-.06-.18-.25-.19-.24h0l-.19-.23-.18-.2-.07-.08-8.25,2.53c.15.16.3.34.44.52h0c.14.17.28.36.42.55l0,0c.13.19.26.38.38.58l0,0c.13.21.25.43.38.65v0c.13.23.25.47.37.71h0c.12.24.24.49.35.75h0q.18.38.33.78h0l.23.6c0,.13.09.25.13.38s.15.44.22.66h0c.08.28.17.56.24.84h0c.07.29.15.57.21.85h0c.07.28.13.56.19.85h0c0,.28.1.56.14.83v0c0,.27.08.54.11.8v.05c0,.26,0,.52.06.77v.06c0,.25,0,.51,0,.76s0,.56,0,.82v.05c0,.26-.05.5-.08.73v0a5.56,5.56,0,0,1-.13.64.09.09,0,0,0,0,.05l-.15.44-.06.16-.14.27a1.62,1.62,0,0,0-.1.18,1.84,1.84,0,0,1-.17.22l-.11.13a1.71,1.71,0,0,1-.2.18l-.11.08a1.06,1.06,0,0,1-.34.16l5-1.53,3.27-1a1.17,1.17,0,0,0,.34-.16l.11-.08a1.71,1.71,0,0,0,.2-.18l.11-.13.17-.22c0-.05.06-.12.1-.18l.09-.17a.42.42,0,0,0,0-.1,1.11,1.11,0,0,0,.07-.16l.06-.16c0-.09.06-.19.08-.28l0,0v0c0-.11.06-.22.08-.33s0-.19.05-.29v0h0c0-.1,0-.21,0-.31l0-.31a.38.38,0,0,1,0-.1v0c0-.05,0-.11,0-.16s0-.2,0-.3,0-.21,0-.32v-.31Z"/><path class="cls-50" d="M966.26,487c0-.1,0-.2,0-.3a.86.86,0,0,0,0-.16v-.14l0-.3c0-.1,0-.2,0-.3v-.09a1.36,1.36,0,0,0,0-.2l0-.27a2.34,2.34,0,0,0,0-.26v-.06l0-.19,0-.2a1.55,1.55,0,0,0,0-.21l0-.18h0l0-.15,0-.15,0-.16,0-.15,0-.13,0-.05h0v-.06l0-.13,0-.12a.93.93,0,0,0,0-.13l0-.12,0-.11,0-.12h0l0-.1,0-.12,0-.12-.05-.15c0-.05,0-.1,0-.15l0-.15h0a.74.74,0,0,1,0-.14c0-.11-.08-.22-.11-.32l-.06-.18a3.62,3.62,0,0,1-.13-.35c0-.07-.05-.15-.08-.22l-.12-.29,0-.06h0l0-.09a.77.77,0,0,0-.07-.16l-.06-.16-.06-.14,0-.12,0-.07h0l0,0a.61.61,0,0,0,0-.12l-.06-.12-.06-.13-.06-.12-.06-.13,0,0h0l0-.06s-.05-.09-.07-.14l-.08-.15-.08-.16a1.09,1.09,0,0,1-.08-.15l0,0h0l-.09-.17-.12-.2-.13-.21,0-.05,0,0c0-.06-.07-.11-.1-.16s-.11-.17-.16-.25l-.1-.14,0-.05,0-.06-.17-.24-.18-.23h0l-.18-.21a1.54,1.54,0,0,0-.17-.19l-.07-.08-7.83,2.41c.14.15.28.31.42.49h0c.13.16.26.34.39.52l0,.05c.13.18.25.36.37.55l0,0c.12.2.24.4.36.62h0l.36.68h0c.12.23.23.47.34.71h0c.11.24.21.49.31.74h0l.21.57c.05.12.09.24.13.36s.15.42.21.63h0c.08.27.16.53.23.8h0c.08.26.14.53.21.8h0c.06.27.12.54.17.8h0c0,.26.1.53.14.79v0c0,.25.07.51.1.76v0l.06.73v.06c0,.24,0,.48,0,.72s0,.53,0,.78v.05a6.57,6.57,0,0,1-.08.69v0c0,.22-.08.42-.13.61v0a4.13,4.13,0,0,1-.14.42l-.06.15c0,.1-.09.18-.13.26a1,1,0,0,1-.1.17,1.91,1.91,0,0,1-.15.21l-.11.13-.19.17-.1.07a1.26,1.26,0,0,1-.33.16l7.84-2.41A1.37,1.37,0,0,0,965,491a.39.39,0,0,0,.1-.08,1.56,1.56,0,0,0,.2-.16l.1-.13c.05-.07.11-.13.16-.21l.09-.17a.83.83,0,0,0,.09-.16.42.42,0,0,0,0-.1l.06-.15.06-.15a2.13,2.13,0,0,0,.08-.27.06.06,0,0,0,0,0v0c0-.1.05-.21.07-.31a2.74,2.74,0,0,0,0-.28v0h0c0-.1,0-.2,0-.3l0-.29V488a.76.76,0,0,1,0-.15c0-.1,0-.19,0-.29V487Z"/><path class="cls-19" d="M726.68,558.85l-3-40.05-73.37.73c-1.35-.09-7.63-.06-9.35.09h0c-18.91,1.65-33.5,12.1-33.5,24.75,0,13.79,17.35,25,38.74,25C651.58,569.35,726.68,558.85,726.68,558.85Z"/><g class="cls-10"><g class="cls-10"><g class="cls-51"><g class="cls-10"><path class="cls-52" d="M713,539.81l23.82,15.11c9.84-5.52,12.69-13.65,8.45-20.71L713,539.81"/><path class="cls-53" d="M713,539.81l32.27-5.6a22.15,22.15,0,0,0-7.76-7.28c-11.36-6.79-29.05-7.88-42.38-3.16l17.87,16"/><path class="cls-54" d="M713,539.81l-17.87-16a39.68,39.68,0,0,0-6,2.67l0,0L713,539.81"/><path class="cls-53" d="M713,539.81l-23.86-13.34c-13.49,7.59-13.78,20.11-.64,28a36.44,36.44,0,0,0,5.54,2.69l19-17.31"/><path class="cls-52" d="M713,539.81l-19,17.31c13.12,5.1,31,4.4,42.78-2.2L713,539.81"/></g></g></g><path class="cls-55" d="M763.75,419.35c-.07.47-.16.93-.27,1.39,0,.15-.07.31-.11.46-.11.43-.24.86-.39,1.28,0,.1-.06.21-.1.32-.19.52-.41,1-.64,1.55l-.19.38c-.2.41-.41.81-.64,1.22-.08.13-.15.27-.23.41-.33.55-.68,1.09-1.06,1.62l-.19.26c-.35.47-.72.93-1.11,1.39-.12.15-.23.29-.36.43l-.47.52c-.19.21-.38.41-.58.61s-.34.35-.52.52l-.62.59-.57.51-.67.58-.61.5-.76.59c-.18.14-.36.28-.55.41s-.57.41-.86.61-.36.26-.55.38l-1,.65-.49.32c-.52.31-1,.62-1.59.93s-1.24.68-1.88,1l-.67.33-1.28.61-.81.36-1.2.52-.87.34-1.19.47-.93.32c-.39.14-.79.29-1.19.42l-1,.31c-.39.12-.79.25-1.19.36l-1,.29-1.19.33-1,.25-1.09.27c-1.2.27-2.42.52-3.65.74l-.65.11q-1.83.31-3.69.54c-.25,0-.5.06-.76.09-.84.1-1.69.18-2.54.26l-.58.05c-1,.07-2,.13-3,.18l-.71,0-2.15.05h-.94l-2.07,0h-.82c-.93,0-1.87-.08-2.8-.14l-.23,0c-.85-.06-1.7-.13-2.55-.22l-.84-.09c-.71-.07-1.42-.16-2.13-.26l-.86-.11c-.89-.13-1.77-.27-2.64-.43l-.2,0c-1.08-.2-2.14-.42-3.2-.66l-.73-.17c-1-.24-2.08-.51-3.1-.8L691,443c-1.11-.32-2.2-.66-3.28-1l-.43-.15c-1.09-.38-2.14-.79-3.18-1.22l-.59-.24c-1-.44-2-.9-3-1.38l-.47-.25c-1-.52-2-1.05-3-1.63a40.3,40.3,0,0,1-5.72-4.09c-.83-.71-1.6-1.45-2.32-2.2a25.68,25.68,0,0,1-3.54-4.63,19.32,19.32,0,0,1-2.6-7.32h0q8,61.65,16.07,123.31c.58,4.46,3.76,8.84,9.57,12.31.77.46,1.57.89,2.4,1.3l.83.38c.57.27,1.14.53,1.73.77l1,.39c.56.21,1.12.41,1.69.6l1.1.34c.26.08.51.17.77.24s.73.19,1.1.29l.86.22c.88.21,1.76.4,2.66.57l.17,0h0c.93.17,1.86.3,2.81.42l.71.09.76.09c.7.07,1.39.13,2.09.18h.1c.65,0,1.3.08,2,.1h1.54c.9,0,1.8,0,2.7,0h.17l.34,0c.75,0,1.51-.09,2.25-.16l1.16-.11.68-.07c.42,0,.84-.13,1.26-.19l1.23-.18c.65-.11,1.29-.24,1.93-.37.35-.07.71-.13,1.06-.21l.21-.05c.51-.11,1-.26,1.5-.39s.87-.22,1.3-.35,1.15-.37,1.72-.56c.39-.14.78-.25,1.16-.39.62-.23,1.22-.5,1.82-.75.31-.13.63-.25.93-.39.89-.41,1.76-.84,2.59-1.31.63-.35,1.22-.72,1.79-1.09l.24-.15c.54-.36,1-.73,1.53-1.1l.14-.11.22-.18.41-.33.46-.39.37-.34.43-.41.35-.34.39-.42.32-.35.12-.13.12-.16c.26-.31.51-.62.75-.94l.12-.17c.26-.36.5-.73.72-1.1l.07-.1.09-.18c.15-.27.3-.54.43-.81l.12-.26c.16-.35.31-.7.44-1.05,0,0,0,0,0,0l0-.17c.09-.28.18-.57.26-.86,0-.1,0-.2.07-.31.08-.31.14-.62.19-.94a.52.52,0,0,1,0-.11v-.06q8.37-61.62,16.76-123.22A2.38,2.38,0,0,1,763.75,419.35Z"/><g class="cls-10"><g class="cls-56"><g class="cls-10"><path class="cls-57" d="M671.78,400.36l-1.51,2.26c-4.29,6.42-4.15,13.61.46,20l1.49-2.95c-4.45-6.17-4.58-13.11-.44-19.31"/><path class="cls-58" d="M672.22,419.67l-1.49,2.95a25.61,25.61,0,0,0,3.09,3.53l1.38-3.08a24.43,24.43,0,0,1-3-3.4"/><path class="cls-59" d="M675.2,423.07l-1.38,3.08a31,31,0,0,0,2.89,2.45l1.29-3.16a32,32,0,0,1-2.8-2.37"/><path class="cls-60" d="M678,425.44l-1.29,3.16q1.34,1,2.85,1.95l1.19-3.23c-1-.6-1.89-1.23-2.75-1.88"/><path class="cls-61" d="M680.75,427.32l-1.19,3.23.66.41c.7.41,1.41.81,2.14,1.2l1.09-3.29c-.7-.37-1.39-.76-2.07-1.16l-.63-.39"/><path class="cls-62" d="M683.45,428.87l-1.09,3.29c.89.46,1.79.9,2.72,1.32l1-3.33c-.89-.4-1.77-.83-2.62-1.28"/><path class="cls-63" d="M686.07,430.15l-1,3.33c.88.4,1.77.77,2.68,1.13l.9-3.38c-.88-.34-1.74-.7-2.59-1.08"/><path class="cls-64" d="M688.66,431.23l-.9,3.38c.87.33,1.76.65,2.66.95l.81-3.4c-.87-.29-1.73-.6-2.57-.93"/><path class="cls-65" d="M691.23,432.16l-.81,3.4c.88.29,1.76.57,2.66.82l.71-3.43c-.86-.25-1.72-.51-2.56-.79"/><path class="cls-66" d="M693.79,433l-.71,3.43c.87.25,1.75.48,2.65.7l.62-3.46c-.86-.21-1.72-.43-2.56-.67"/><path class="cls-67" d="M696.35,433.62l-.62,3.46c.86.2,1.73.4,2.61.57l.53-3.48c-.85-.17-1.69-.35-2.52-.55"/><path class="cls-68" d="M698.87,434.17l-.53,3.48c.84.17,1.68.32,2.53.46l.44-3.49c-.82-.14-1.63-.29-2.44-.45"/><path class="cls-69" d="M701.31,434.62l-.44,3.49c.8.13,1.61.25,2.42.36l.36-3.51c-.79-.1-1.57-.22-2.34-.34"/><path class="cls-54" d="M703.65,435l-.36,3.51c.77.1,1.55.19,2.33.26l.28-3.51c-.76-.08-1.51-.16-2.25-.26"/><path class="cls-53" d="M705.9,435.22l-.28,3.51c.69.07,1.38.13,2.08.18l.2-3.52-2-.17"/><path class="cls-52" d="M707.9,435.39l-.2,3.52c.66,0,1.33.09,2,.12l.13-3.52c-.64,0-1.29-.07-1.93-.12"/><path class="cls-70" d="M709.83,435.51,709.7,439l1.83.07.07-3.53-1.77-.06"/><path class="cls-71" d="M711.6,435.57l-.07,3.53,1.78,0v-3.53l-1.72,0"/><path class="cls-72" d="M713.32,435.59v3.53H715l0-3.53h-1.62"/><path class="cls-73" d="M714.94,435.58l0,3.53,1.67-.05-.11-3.53-1.61.05"/><path class="cls-74" d="M716.55,435.53l.11,3.53,1.65-.08-.16-3.53-1.6.08"/><path class="cls-75" d="M718.15,435.45l.16,3.53,1.68-.12-.22-3.52-1.62.11"/><path class="cls-76" d="M719.77,435.34l.22,3.52,1.86-.18-.29-3.51-1.79.17"/><path class="cls-77" d="M721.56,435.17l.29,3.51c.67-.07,1.35-.15,2-.24l-.36-3.51-2,.24"/><path class="cls-78" d="M723.51,434.93l.36,3.51c.87-.12,1.74-.25,2.6-.39l-.45-3.49c-.83.14-1.67.26-2.51.37"/><path class="cls-79" d="M726,434.56l.45,3.49a67.74,67.74,0,0,0,8.81-2.09l-.76-3.42a66.25,66.25,0,0,1-8.5,2"/><path class="cls-78" d="M734.52,432.54l.76,3.42c1.13-.35,2.24-.74,3.33-1.15l-.88-3.38q-1.58.6-3.21,1.11"/><path class="cls-77" d="M737.73,431.43l.88,3.38c1-.37,1.93-.76,2.87-1.17l-1-3.34c-.91.4-1.83.78-2.78,1.13"/><path class="cls-76" d="M740.51,430.3l1,3.34c1-.46,2-.95,3-1.46l-1.08-3.29c-.94.5-1.91,1-2.9,1.41"/><path class="cls-75" d="M743.41,428.89l1.08,3.29,1-.56-1.11-3.27-1,.54"/></g></g></g><path class="cls-80" d="M768.79,419.22c0-.15,0-.29.05-.44l0-.31v-.19c0-.6.06-1.2,0-1.81v-.05s0-.09,0-.14a16.25,16.25,0,0,0-.15-1.7,1.21,1.21,0,0,0,0-.19.29.29,0,0,1,0-.09,17.67,17.67,0,0,0-.35-1.76,1,1,0,0,0,0-.17,1.39,1.39,0,0,0-.06-.19c-.15-.59-.33-1.19-.54-1.78,0,0,0,0,0,0-.12-.34-.26-.69-.41-1l-.09-.19c-.11-.26-.23-.53-.35-.79l-.07-.13c-.06-.13-.13-.26-.2-.39l-.38-.72c-.08-.15-.17-.29-.25-.43s-.14-.25-.22-.37-.12-.2-.19-.3a4.53,4.53,0,0,0-.3-.46l-.44-.66-.32-.45-.15-.21-.59-.76-.5-.62-.29-.37-.08-.1-.58-.72-.35-.44-.34-.42-.18-.23c-.12-.14-.25-.31-.38-.48l-1-1.28-.63-.78-.55-.69-.07-.09-.25-.31-.58-.73c.21.26.4.52.59.79.39.52.75,1,1.08,1.58l.18.3c.31.52.6,1.05.86,1.58a2.14,2.14,0,0,0,.1.22c.24.51.45,1,.64,1.52a1.66,1.66,0,0,1,.06.16c.19.52.35,1,.49,1.57,0,.11,0,.21.08.32.12.52.23,1,.3,1.55l0,.25c.07.51.11,1,.13,1.51a1,1,0,0,1,0,.17c0,.53,0,1.06,0,1.6,0,.1,0,.21,0,.31-.05.53-.12,1.07-.22,1.6a2.38,2.38,0,0,1-.05.26,16.87,16.87,0,0,1-.42,1.7c-.1.34-.22.68-.34,1l-.12.29c-.09.24-.19.48-.29.71l-.21.46c-.09.19-.18.38-.28.57s-.16.31-.24.47l-.31.55-.34.56-.3.48c-.12.19-.26.38-.39.57l-.32.46c-.25.33-.5.67-.77,1l-.07.09c-.29.36-.6.71-.92,1.06l-.26.28c-.26.28-.53.55-.8.83l-.39.37-.79.73-.42.37-.87.72-.38.31c-.43.34-.88.67-1.33,1l-.61.41-.66.46-.66.41-.68.44-1.39.81c-.45.25-.91.49-1.37.72s-.74.39-1.12.57l-.94.46-.78.35c-.37.16-.74.33-1.12.48l-.77.32-1.24.49-.65.24c-.45.17-.9.32-1.36.48l-.64.22-.91.28c-.43.13-.85.27-1.29.39l-1.16.32-1,.27-1.21.29-1,.23-1.27.26-1,.2-1.33.23-.92.16-1.46.22-.82.11-2.08.25-.47,0c-.68.07-1.36.13-2,.18h-.1l-2.16.13h-.16c-.71,0-1.41.05-2.12.06h-2.76c-.7,0-1.39,0-2.09-.05h-.23c-.61,0-1.22-.06-1.82-.09l-.62,0-1.95-.16h-.15c-.73-.07-1.45-.15-2.18-.24l-.74-.09-1.42-.2-1.27-.2-1.06-.18-1.57-.3-.79-.16c-.82-.17-1.63-.36-2.43-.56l-.42-.11c-.7-.17-1.38-.36-2.06-.55l-.79-.24-1.75-.55-.81-.27c-.69-.24-1.38-.49-2.06-.75l-.41-.16c-.83-.32-1.64-.67-2.44-1l-.61-.28c-.67-.31-1.34-.64-2-1-.2-.1-.4-.19-.59-.3-.71-.38-1.42-.77-2.1-1.17l-.86-.54c-.28-.17-.54-.34-.8-.52l-.58-.38c-.26-.18-.51-.35-.75-.53l-.52-.38c-.34-.25-.66-.5-1-.76l-.35-.27q-.64-.52-1.23-1l-.16-.15c-.41-.37-.8-.75-1.17-1.13l-.31-.31c-.4-.42-.79-.84-1.15-1.27l-.34-.41c-.16-.2-.32-.39-.46-.58s-.22-.3-.33-.45-.28-.37-.41-.56l-.3-.46c-.12-.19-.25-.37-.36-.56s-.19-.32-.28-.48-.22-.37-.32-.56-.13-.25-.19-.37-.28-.54-.4-.82l-.18-.41c-.12-.27-.23-.54-.33-.8s-.1-.26-.14-.4c-.12-.32-.23-.65-.32-1l-.06-.2c-.11-.4-.21-.8-.29-1.19l-.06-.34c-.05-.29-.1-.58-.13-.87s0-.28-.05-.42,0-.54-.07-.81,0-.28,0-.41c0-.31,0-.61,0-.92,0-.09,0-.19,0-.29q0-.6.09-1.2c0-.09,0-.18,0-.28,0-.3.09-.61.15-.91,0-.14,0-.28.08-.42s.12-.53.19-.8.07-.28.12-.42.17-.57.27-.85c0-.11.07-.23.11-.34.14-.39.3-.78.47-1.17l.09-.18c.15-.33.31-.66.48-1,.06-.13.14-.26.21-.39s.29-.52.45-.78.16-.27.25-.4.34-.53.52-.79l.25-.36c.27-.37.55-.74.85-1.11L663,403.16q-.5.63-1,1.26l-.28.41c-.2.29-.4.59-.59.89-.1.15-.19.3-.28.46s-.35.58-.51.88l-.24.43q-.29.56-.54,1.11l-.1.21c-.19.44-.37.88-.53,1.32,0,.13-.08.26-.13.39q-.16.48-.3,1c0,.16-.09.32-.13.47-.08.31-.16.61-.22.91s-.07.31-.1.47c-.06.34-.11.69-.16,1a3.06,3.06,0,0,1,0,.32c-.05.45-.08.91-.1,1.36,0,.11,0,.22,0,.33,0,.34,0,.68,0,1l0,.47c0,.3,0,.61.07.91s0,.32,0,.48c0,.33.1.65.16,1,0,.13,0,.25.07.38.09.45.2.9.32,1.35l.07.22c.11.38.23.75.36,1.12l.16.45c.12.3.24.6.37.9l.21.47c.14.31.29.62.45.92l.14.3s0,.08.07.13l.36.63.32.54c.13.21.27.42.41.63s.22.35.34.52.31.43.46.64l.37.51c.17.22.35.43.53.65l.34.42a.08.08,0,0,0,0,0c.41.49.85,1,1.31,1.45l.34.34c.42.43.86.86,1.33,1.28l.13.13.05,0c.44.4.9.79,1.38,1.18l.4.32c.36.29.73.57,1.11.85l.23.18.36.25c.28.2.56.4.85.59l.65.44c.29.2.6.39.9.58l.42.27c.18.12.37.23.56.34.77.46,1.57.9,2.38,1.33l.22.13c.15.08.3.14.44.22.74.38,1.49.74,2.26,1.1l.43.21.25.11c.91.4,1.83.79,2.76,1.16l.08,0,.38.13c.77.3,1.55.59,2.34.86l.38.14.52.16c.66.22,1.32.43,2,.63l.57.18.32.08c.77.23,1.55.43,2.33.63l.41.11.07,0c.91.22,1.82.43,2.74.63l.12,0c.25.06.52.1.78.15l1.78.35.23,0,.95.16,1.45.23.28.05,1.32.17.85.11.17,0c.74.09,1.5.17,2.25.24h.2l1.75.15.47,0,.69,0,.78.05,1.28.06h.38l1.66.05h4.53l1.46-.05H718l1.14-.06,1.28-.08h.17l1.61-.13.66-.07.54-.05.48-.05c.61-.06,1.22-.14,1.83-.22h0l1-.14,1.55-.22h.07l1.06-.19,1.48-.26,1.1-.22,1.42-.3,1.11-.26,1.37-.33,1.1-.3,1.16-.31.17-.05,1.47-.45.89-.27.12-.05.74-.25,1.27-.43.25-.1.74-.28,1-.36.44-.19c.3-.11.59-.24.87-.36l.68-.28c.2-.08.39-.18.59-.27l.88-.4.5-.22.56-.29,1.28-.64.49-.25,1.05-.57c.52-.3,1-.6,1.55-.91h0c.27-.16.52-.33.78-.5s.5-.3.73-.46l.76-.51.66-.46h0c.52-.37,1-.75,1.5-1.13l.44-.35,1-.81.2-.18.28-.25c.3-.27.6-.54.89-.82l.44-.42c.31-.31.61-.63.91-.94l.24-.25,0-.06c.37-.4.71-.8,1-1.2l.08-.1c.3-.37.59-.75.87-1.12l.06-.08c.11-.15.2-.3.3-.44s.3-.43.44-.65l.34-.53c.13-.22.27-.43.39-.65l.08-.13.26-.49.28-.53c.11-.21.21-.42.31-.64s.17-.35.24-.52l0-.1c.1-.23.19-.47.28-.7l.13-.34q.21-.57.39-1.14h0c0-.05,0-.11,0-.16.09-.33.18-.65.26-1l.09-.39c0-.19.09-.38.12-.58l0-.18c0-.14,0-.28.07-.43S768.76,419.46,768.79,419.22Z"/><path class="cls-80" d="M735.49,419.54c-12.58,7.06-32.69,6.86-44.91-.45s-11.94-19,.63-26,32.69-6.85,44.92.46S748.07,412.48,735.49,419.54Zm-22.08-13.2a0,0,0,0,0,0-.07h-.11s0,.05,0,.07a.13.13,0,0,0,.12,0"/><g class="cls-10"><path class="cls-2" d="M681.61,399.64v0Zm0,.84v0Zm0,.83v0Zm0,.81v0Zm54.55-15.72c-12.23-7.31-32.34-7.52-44.92-.46-6.39,3.59-9.61,8.36-9.62,13.15a11,11,0,0,0,.59,3.56c1.21-3.53,4.22-6.89,9-9.58,12.58-7.05,32.69-6.85,44.92.46,6,3.59,9,8.23,9,12.87l0-7.14C745.15,394.63,742.16,390,736.15,386.4Zm-54.54,12.69v0Zm0,5.38v0Z"/><g class="cls-81"><g class="cls-10"><path class="cls-2" d="M681.62,398.8a2.81,2.81,0,0,0,0,.29l0,7.13a2.53,2.53,0,0,1,0-.28l0-7.14.2-1.82,0,7.14a10.14,10.14,0,0,0-.2,1.82l0-7.14a10.34,10.34,0,0,1,.2-1.82l.52-1.79,0,7.14a11.74,11.74,0,0,0-.52,1.79l0-7.14a12.08,12.08,0,0,1,.52-1.79l.84-1.8,0,7.13a14,14,0,0,0-.84,1.81l0-7.14a14.53,14.53,0,0,1,.84-1.8l1.28-1.9,0,7.13a15.82,15.82,0,0,0-1.28,1.9l0-7.13a15.82,15.82,0,0,1,1.28-1.9l1.95-2.1,0,7.13a19,19,0,0,0-1.95,2.1l0-7.13a19,19,0,0,1,1.95-2.1l4.07-3,0,7.13a25.13,25.13,0,0,0-4.07,3l0-7.13a25.13,25.13,0,0,1,4.07-3l7.36-3.29a36.39,36.39,0,0,0-6.61,2.85l-.75.44,0,7.13.75-.44a37.11,37.11,0,0,1,6.61-2.85l0-7.13,6-1.48a47.62,47.62,0,0,0-6,1.48l0,7.13a47.19,47.19,0,0,1,6-1.48l0-7.13,4.06-.56c-1.37.13-2.73.32-4.06.56l0,7.13c1.33-.24,2.69-.43,4.06-.56l0-7.13,3.54-.24q-1.78.06-3.54.24l0,7.13q1.75-.18,3.54-.24l0-7.13h3.24c-1.08,0-2.16,0-3.24,0l0,7.13c1.08,0,2.16,0,3.24,0l0-7.13,3.13.16c-1-.08-2.09-.14-3.13-.16l0,7.13c1,0,2.09.08,3.13.16l0-7.13,3.08.35,0,7.13c-1-.15-2.05-.26-3.08-.35l0-7.13c1,.09,2.06.2,3.08.35l3.15.55,0,7.13c-1-.22-2.08-.4-3.15-.55l0-7.13c1.07.15,2.12.33,3.15.55l3.34.81,0,7.14c-1.09-.32-2.2-.59-3.34-.82l0-7.13c1.14.23,2.25.5,3.34.81l3.85,1.3,0,7.14a39.54,39.54,0,0,0-3.85-1.3l0-7.14c1.32.38,2.61.81,3.85,1.3l13.94,15.29,0,7.14c0-4.64-3-9.28-9-12.87a34,34,0,0,0-5-2.42l0-7.14a35.12,35.12,0,0,1,5,2.43c6,3.59,9,8.23,9,12.86"/></g></g></g><g class="cls-10"><path class="cls-3" d="M758.07,393.47l.32.86.17.42.32.85.33.85.17.43.32.85.33.85.16.43.33.85.33.85.16.43.33.85c3.58,9.33-1,19.48-13.72,26.61l-2.33-10.34C757.12,411.62,761.41,402.17,758.07,393.47Z"/></g><g class="cls-10"><path class="cls-3" d="M665.39,401.72l.34-.85.16-.43.33-.85.33-.85.17-.42.33-.85.33-.85.17-.43.33-.84.33-.85.17-.43.33-.85c-3.3,8.45.62,17.68,11.83,24.38,17.62,10.54,46.61,10.83,64.75.66l2.33,10.34c-19.48,10.92-50.6,10.61-69.53-.7C666.06,420.7,661.85,410.79,665.39,401.72Z"/><g class="cls-82"><g class="cls-10"><path class="cls-3" d="M761.4,402.16l-.06-.17-3.27-8.52.06.17,3.27,8.52.63,2a19.89,19.89,0,0,0-.63-2l-3.27-8.52a16.57,16.57,0,0,1,.58,1.9L762,404.2l.36,2a17.5,17.5,0,0,0-.36-2l-3.32-8.66a14.5,14.5,0,0,1,.34,1.86l3.34,8.8.12,2a16.44,16.44,0,0,0-.12-2l-3.34-8.8a14.2,14.2,0,0,1,.11,1.84l3.35,8.94-.11,2-3.34-9.08a16.08,16.08,0,0,0,.1-1.84l3.35,8.94a16.43,16.43,0,0,1-.11,2l-.36,2-3.32-9.21a17.32,17.32,0,0,0,.34-1.86l3.34,9.08a17.33,17.33,0,0,1-.36,2l-.61,2-3.28-9.35a16.82,16.82,0,0,0,.57-1.88l3.32,9.21a18.69,18.69,0,0,1-.61,2l-.91,2.07-3.21-9.49a19.11,19.11,0,0,0,.84-1.93l3.28,9.35a18.86,18.86,0,0,1-.91,2.07l-1.26,2.17-3.13-9.65a20.65,20.65,0,0,0,1.18-2l3.21,9.49a23,23,0,0,1-1.26,2.17l-1.74,2.31-3-9.8a22.51,22.51,0,0,0,1.62-2.16l3.13,9.65a25.86,25.86,0,0,1-1.74,2.31L755,423.3l-2.84-10a25.88,25.88,0,0,0,2.31-2.4l3,9.8A29.86,29.86,0,0,1,755,423.3l-4.15,3.28A37.27,37.27,0,0,0,755,423.3l-2.84-10a33.06,33.06,0,0,1-3.86,3.05l2.55,10.21-3.27,2-2.33-10.34c1.08-.61,2.09-1.24,3.05-1.89l2.55,10.21c-1,.69-2.12,1.37-3.27,2l-18,6.43a62.25,62.25,0,0,0,18-6.43l-2.33-10.34a57.51,57.51,0,0,1-16.78,6L729.6,435l-4.91.82c1.65-.22,3.29-.5,4.91-.82l-1.09-10.79c-1.51.31-3,.56-4.58.77l.76,10.84-3.87.43c1.3-.12,2.59-.26,3.87-.43L723.93,425c-1.19.16-2.39.29-3.59.4l.48,10.87-3.49.23c1.17-.06,2.33-.13,3.49-.23l-.48-10.87c-1.08.09-2.17.16-3.26.21l.25,10.89-3.35.08c1.12,0,2.24,0,3.35-.08l-.25-10.89c-1,.05-2.08.07-3.12.08l0,10.89-3.3,0c1.1,0,2.2.06,3.3,0l0-10.89c-1,0-2.05,0-3.07,0l-.21,10.88-3.28-.17c1.09.08,2.18.14,3.28.17l.21-10.88c-1,0-2-.09-3.06-.16l-.43,10.87-3.27-.3q1.62.18,3.27.3l.43-10.87c-1-.08-2-.17-3-.28l-.66,10.85-3.25-.43c1.08.17,2.16.31,3.25.43l.66-10.85c-1-.12-2-.25-3-.4l-.88,10.82-3.22-.56,1.1-10.79c1,.2,2,.37,3,.53l-.88,10.82c-1.08-.16-2.16-.35-3.22-.56l-3.21-.7,1.32-10.74c1,.24,2,.45,3,.65l-1.1,10.79c-1.08-.21-2.15-.45-3.21-.7l-3.22-.87,1.54-10.68q1.49.44,3,.81l-1.32,10.74c-1.09-.27-2.16-.56-3.22-.87l-3.26-1,1.77-10.61c1,.35,2,.67,3,1l-1.54,10.68c-1.1-.32-2.19-.67-3.26-1l-3.33-1.28,2-10.52c1,.42,2.05.82,3.1,1.19L688,432.47c-1.13-.4-2.24-.83-3.33-1.28l-3.47-1.6,2.23-10.41c1.05.52,2.13,1,3.24,1.49l-2,10.52c-1.19-.5-2.35-1-3.47-1.6l-3.81-2.14,2.5-10.26.68.41c.92.55,1.88,1.08,2.86,1.58l-2.23,10.41c-1.06-.54-2.09-1.1-3.08-1.69l-.73-.45-4.21-3,2.78-10.06a37,37,0,0,0,3.93,2.81l-2.5,10.26a40.21,40.21,0,0,1-4.21-3l-7.76-22.72,3.32-8.5c-2.8,7.17-.41,14.89,7.22,21.16l-2.78,10.06c-8.19-6.73-10.76-15-7.76-22.72"/></g></g></g><path class="cls-80" d="M745.29,418.26c-18.14,10.17-47.13,9.88-64.75-.66s-17.22-27.33.92-37.5,47.12-9.89,64.75.65S763.42,408.08,745.29,418.26Zm-9.78-5.85c12.58-7.06,12.86-18.71.64-26s-32.34-7.52-44.92-.46-12.86,18.71-.63,26,32.33,7.51,44.91.45"/></g><path class="cls-83" d="M666.18,444.52l-.21-1.59C666,443.46,666.09,444,666.18,444.52Z"/><path class="cls-83" d="M760.33,445.06a15.56,15.56,0,0,0,.29-2.13Z"/><path class="cls-84" d="M746.19,461.54c-18.72,10.5-48.65,10.19-66.84-.68-7.73-4.62-12.13-10.41-13.17-16.34l8.65,66.55h0c0,5.47,3.62,10.94,10.81,15.18,14.71,8.69,38.9,8.93,54,.54,7.74-4.28,11.61-10,11.57-15.72h.07l9-66C759.11,451.11,754.34,457,746.19,461.54Zm-33.08,49.57a.17.17,0,0,1-.14,0l0,0h.19A.05.05,0,0,1,713.11,511.11Z"/><path class="cls-83" d="M713.3,441.91s.05-.07,0-.1a.17.17,0,0,0-.17,0s0,.07,0,.1A.25.25,0,0,0,713.3,441.91Z"/><path class="cls-2" d="M684.85,411.22a2.7,2.7,0,0,1,.56.14l12.15,4.52a2,2,0,0,1,1.12,2.85,2.77,2.77,0,0,1-2.77,1.33,2.87,2.87,0,0,1-.56-.14l-12.14-4.52a2,2,0,0,1-1.12-2.85A2.75,2.75,0,0,1,684.85,411.22Z"/><polygon class="cls-55" points="684.27 415.79 690.3 418.04 684.94 363.65 678.75 364.23 684.27 415.79"/><path class="cls-85" d="M684.12,365.62a5,5,0,0,1-4.48,0c-1.21-.72-1.19-1.87.07-2.56a5,5,0,0,1,4.47,0C685.4,363.78,685.37,364.93,684.12,365.62Zm-2.2-1.3h0"/><path class="cls-14" d="M482.28,156.62a4.3,4.3,0,0,0-5.73,3.46,6.11,6.11,0,0,0,3.72,6.78,4.28,4.28,0,0,0,5.73-3.44,6.1,6.1,0,0,0-3.72-6.8"/></svg>