<svg width="1600" height="1201" viewBox="0 0 1600 1201" fill="none" xmlns="http://www.w3.org/2000/svg">
<g clip-path="url(#clip0)">
<rect width="1600" height="1200" transform="translate(0 0.726562)" fill="black"/>
<path fill-rule="evenodd" clip-rule="evenodd" d="M2479.24 827.615L2430.41 807.855C2381.57 788.095 2281.82 748.815 2179.83 671.724C2075.75 594.874 1969.43 480.212 1874 478.503C1780.66 476.554 1698.19 587.558 1612.05 648.227C1525.91 708.896 1431.92 719.711 1335.69 692.714C1237.38 665.958 1136.83 601.391 1042.84 612.206C950.932 622.78 865.586 708.737 780.887 781.93C696.188 855.122 607.96 916.032 513.174 901.559C416.3 887.327 312.868 797.712 215.994 783.48C121.209 769.007 32.98 829.916 -10.0897 860.251L-53.1597 890.585L-1.28439 1341.44L44.6676 1336.15C90.6193 1330.86 184.612 1320.05 276.515 1309.47C370.508 1298.66 462.412 1288.08 556.404 1277.27C648.308 1266.69 742.3 1255.88 834.204 1245.3C926.107 1234.73 1064.7 1346.72 1156.6 1336.15C1250.59 1325.33 1342.5 1314.76 1436.49 1303.94C1528.39 1293.37 1622.39 1282.56 1714.29 1271.98C1806.19 1261.41 1900.19 1250.59 1992.09 1240.02C2086.08 1229.2 2177.99 1218.63 2271.98 1207.81C2363.88 1197.24 2457.87 1186.42 2503.83 1181.14L2549.78 1175.85L2479.24 827.615Z" fill="white"/>
<rect x="50.5" y="188.227" width="1498" height="826" rx="38.5" stroke="white" stroke-width="3"/>
<path d="M916.223 789.135L958.34 788.635L958.84 805.635L922.97 805.828L916.223 789.135Z" fill="white"/>
<rect x="1237.03" y="800.801" width="88.6699" height="4.86515" fill="white"/>
<g filter="url(#filter0_d)">
<rect x="660.34" y="358.947" width="839" height="511.78" rx="48" fill="white"/>
<rect x="661.34" y="359.947" width="837" height="509.78" rx="47" stroke="white" stroke-width="2"/>
</g>
<path fill-rule="evenodd" clip-rule="evenodd" d="M1193.73 620.564C1135.71 620.564 1088.63 667.619 1088.63 725.723C1088.63 755.129 1100.65 781.76 1120.25 800.92H1267.21C1286.8 781.76 1298.83 755.129 1298.83 725.723C1298.83 667.619 1251.75 620.564 1193.73 620.564ZM1297.62 890.816H1089.83C1035.1 856.275 998.733 795.247 998.733 725.723C998.733 617.997 1086.04 530.667 1193.73 530.667C1301.42 530.667 1388.72 617.997 1388.72 725.723C1388.72 795.247 1352.36 856.275 1297.62 890.816Z" fill="#E4ECF4"/>
<path d="M832.104 745.762C832.104 715.076 856.98 690.199 887.666 690.199C918.353 690.199 943.229 715.075 943.229 745.762V893.003H832.104V745.762Z" fill="black"/>
<rect x="1020.19" y="532.599" width="220.037" height="82.124" fill="white" stroke="black" stroke-width="2"/>
<rect x="1019.19" y="531.599" width="117.148" height="84.124" fill="black"/>
<path d="M1155.75 558.676H1224.26" stroke="black" stroke-width="2" stroke-linecap="round"/>
<path d="M1155.74 568.667H1224.26" stroke="black" stroke-width="2" stroke-linecap="round"/>
<path d="M1155.74 578.655H1224.26" stroke="black" stroke-width="2" stroke-linecap="round"/>
<path d="M1155.74 588.645H1183.67" stroke="black" stroke-width="2" stroke-linecap="round"/>
<path d="M1030.94 558.618H1057.32" stroke="white" stroke-width="2" stroke-linecap="round"/>
<path d="M1060.25 558.618H1066.11" stroke="#FF3366" stroke-width="2" stroke-linecap="round"/>
<path d="M1069.04 558.618H1095.42" stroke="white" stroke-width="2" stroke-linecap="round"/>
<path d="M1030.95 568.647H1077.83" stroke="white" stroke-width="2" stroke-linecap="round"/>
<path d="M1080.76 568.647H1115.93" stroke="#FF3366" stroke-width="2" stroke-linecap="round"/>
<path d="M1118.86 568.647H1124.72" stroke="white" stroke-width="2" stroke-linecap="round"/>
<path d="M1089.55 578.676H1113" stroke="#FF3366" stroke-width="2" stroke-linecap="round"/>
<path d="M1036.81 578.676H1086.63" stroke="#FF3366" stroke-width="2" stroke-linecap="round"/>
<path d="M1030.95 588.705H1060.25" stroke="white" stroke-width="2" stroke-linecap="round"/>
<mask id="path-24-inside-1" fill="white">
<path d="M943.292 719.881C933.22 713.373 916.661 717.745 910.479 727.998C904.297 738.252 905.075 758.213 920.384 768.669C935.693 779.126 984.249 801.288 984.249 801.288C994.124 806.065 1005.44 806.505 1012.34 797.529L1051.81 746.127C1057.46 738.773 1056.3 728.272 1049.18 722.331C1042.06 716.389 1031.52 717.124 1025.29 723.995L995.606 756.762C995.606 756.762 953.365 726.388 943.292 719.881Z"/>
</mask>
<path d="M943.292 719.881C933.22 713.373 916.661 717.745 910.479 727.998C904.297 738.252 905.075 758.213 920.384 768.669C935.693 779.126 984.249 801.288 984.249 801.288C994.124 806.065 1005.44 806.505 1012.34 797.529L1051.81 746.127C1057.46 738.773 1056.3 728.272 1049.18 722.331C1042.06 716.389 1031.52 717.124 1025.29 723.995L995.606 756.762C995.606 756.762 953.365 726.388 943.292 719.881Z" fill="white"/>
<path d="M910.479 727.998L912.192 729.031L912.192 729.031L910.479 727.998ZM943.292 719.881L942.207 721.561L942.207 721.561L943.292 719.881ZM995.606 756.762L994.439 758.385L995.889 759.428L997.088 758.104L995.606 756.762ZM1051.81 746.127L1050.22 744.909L1050.22 744.909L1051.81 746.127ZM1012.34 797.529L1013.92 798.747L1012.34 797.529ZM1025.29 723.995L1023.81 722.652L1025.29 723.995ZM1049.18 722.331L1047.9 723.866L1049.18 722.331ZM984.249 801.288L985.119 799.488L985.099 799.478L985.079 799.469L984.249 801.288ZM920.384 768.669L919.256 770.321L920.384 768.669ZM912.192 729.031C914.951 724.454 920.134 721.056 925.917 719.593C931.702 718.13 937.754 718.684 942.207 721.561L944.378 718.201C938.758 714.57 931.494 714.056 924.936 715.715C918.376 717.375 912.188 721.29 908.766 726.966L912.192 729.031ZM942.207 721.561C947.196 724.784 960.23 733.972 972.067 742.391C977.975 746.593 983.568 750.592 987.684 753.54C989.742 755.014 991.431 756.226 992.605 757.069C993.192 757.49 993.651 757.819 993.962 758.043C994.118 758.155 994.237 758.241 994.318 758.298C994.358 758.327 994.388 758.349 994.408 758.363C994.418 758.371 994.426 758.376 994.431 758.38C994.434 758.382 994.436 758.383 994.437 758.384C994.437 758.385 994.438 758.385 994.438 758.385C994.439 758.385 994.439 758.385 995.606 756.762C996.774 755.138 996.774 755.138 996.773 755.137C996.773 755.137 996.773 755.137 996.772 755.136C996.771 755.135 996.769 755.134 996.766 755.132C996.761 755.129 996.753 755.123 996.743 755.116C996.723 755.101 996.692 755.079 996.652 755.05C996.572 754.993 996.452 754.907 996.296 754.795C995.984 754.57 995.525 754.241 994.938 753.819C993.763 752.975 992.073 751.763 990.013 750.288C985.895 747.338 980.298 743.337 974.386 739.132C962.584 730.738 949.461 721.485 944.378 718.201L942.207 721.561ZM1050.22 744.909L1010.75 796.311L1013.92 798.747L1053.4 747.345L1050.22 744.909ZM997.088 758.104L1026.78 725.338L1023.81 722.652L994.124 755.419L997.088 758.104ZM1047.9 723.866C1054.19 729.12 1055.22 738.406 1050.22 744.909L1053.4 747.345C1059.7 739.14 1058.4 727.425 1050.46 720.795L1047.9 723.866ZM1050.46 720.795C1042.52 714.166 1030.76 714.986 1023.81 722.652L1026.78 725.338C1032.28 719.262 1041.6 718.612 1047.9 723.866L1050.46 720.795ZM1010.75 796.311C1004.72 804.168 994.641 804.094 985.119 799.488L983.378 803.089C993.606 808.036 1006.17 808.843 1013.92 798.747L1010.75 796.311ZM984.249 801.288C985.079 799.469 985.079 799.469 985.079 799.469C985.078 799.469 985.078 799.468 985.077 799.468C985.076 799.467 985.073 799.466 985.071 799.465C985.065 799.462 985.056 799.458 985.045 799.453C985.022 799.443 984.987 799.427 984.941 799.406C984.849 799.364 984.713 799.301 984.534 799.219C984.175 799.055 983.648 798.812 982.97 798.5C981.615 797.874 979.662 796.969 977.27 795.85C972.485 793.612 965.947 790.52 958.933 787.102C944.847 780.238 929.022 772.147 921.512 767.018L919.256 770.321C927.054 775.647 943.162 783.866 957.181 790.698C964.219 794.128 970.777 797.229 975.575 799.474C977.974 800.596 979.934 801.504 981.294 802.132C981.975 802.445 982.505 802.689 982.866 802.855C983.046 802.937 983.184 803.001 983.277 803.043C983.323 803.064 983.358 803.08 983.382 803.091C983.394 803.097 983.403 803.101 983.409 803.104C983.412 803.105 983.414 803.106 983.416 803.107C983.416 803.107 983.417 803.107 983.417 803.107C983.418 803.108 983.418 803.108 984.249 801.288ZM921.512 767.018C914.364 762.135 910.598 755.038 909.342 747.91C908.078 740.734 909.386 733.685 912.192 729.031L908.766 726.966C905.39 732.565 903.997 740.623 905.403 748.605C906.818 756.635 911.095 764.746 919.256 770.321L921.512 767.018Z" fill="black" mask="url(#path-24-inside-1)"/>
<path d="M816.659 783.844L815.525 783.035L816.654 782.219L863.13 748.626C873.132 741.396 876.648 726.48 871.01 715.565C865.146 704.212 851.697 701.62 841.785 710.094L775.132 767.082C773.346 768.609 771.847 770.434 770.66 772.448L770.647 772.469L770.634 772.49C769.922 773.572 769.302 774.765 768.794 776.067C764.792 786.311 769.402 799.013 779.08 804.378L846.982 842.014C854.842 846.37 863.748 842.677 866.294 833.974C868.367 826.884 865.498 818.667 859.421 814.334L816.659 783.844Z" fill="white" stroke="black" stroke-width="2" stroke-linecap="round"/>
<path d="M832.104 749.25V833.81C832.104 866.501 856.98 893.002 887.666 893.002L859.003 786.832L875.319 722.003L859.003 698.532C842.883 708.894 832.104 727.731 832.104 749.25Z" fill="black"/>
<path d="M870.15 677.434C870.15 675.8 871.208 674.171 873.23 672.9C875.24 671.638 878.078 670.825 881.265 670.825H904.34C907.527 670.825 910.365 671.638 912.374 672.9C914.397 674.171 915.454 675.8 915.454 677.434L915.453 707.296C915.453 708.93 914.396 710.559 912.373 711.829C910.364 713.091 907.526 713.905 904.339 713.905H881.264C878.077 713.905 875.239 713.091 873.229 711.829C871.207 710.559 870.149 708.93 870.149 707.296L870.15 677.434Z" fill="white" stroke="black" stroke-width="2" stroke-linecap="round"/>
<path d="M935.903 655.883L957.503 646.452L934.13 625.708" stroke="black" stroke-width="2" stroke-linecap="round"/>
<path d="M850.729 626.304C848.917 592.413 869.098 577.625 893.706 576.472C968.743 572.955 939.988 653.375 938.976 674.19C933.758 697.54 899.851 699.64 877.464 692.853C855.076 686.065 852.993 668.669 850.729 626.304Z" fill="white" stroke="black" stroke-width="2" stroke-linecap="round"/>
<path d="M944.693 617.992C936.571 615.118 925.066 626.095 922.367 626.45C919.667 626.806 916.388 625.393 913.096 626.45C909.803 627.507 901.644 638.431 909.803 647.498C911.248 649.103 903.603 664.275 903.603 664.275C896.46 674.666 855.663 666.452 855.702 668.433C855.707 668.462 855.709 668.477 855.709 668.477C855.704 668.461 855.702 668.447 855.702 668.433C855.497 667.163 850.922 638.75 850.526 631.945C848.188 604.583 861.44 581.336 881.346 578.501C901.253 575.667 915.433 575.48 931.298 585.778C941.389 591.223 946.02 614.154 944.693 617.992Z" fill="black"/>
<path d="M884.781 584.336C884.432 584.341 883.935 584.36 883.317 584.414C882.084 584.52 880.364 584.762 878.381 585.307C874.416 586.398 869.367 588.71 865.111 593.591C860.877 598.447 858.399 604.739 857.112 610.432C855.831 616.097 855.682 621.396 856.302 624.352" stroke="white" stroke-width="2" stroke-linecap="round"/>
<path d="M939.188 669.997C938.216 671.044 935.289 672.508 932.226 671.618C929.162 670.728 928.009 668.975 927.578 667.908" stroke="black" stroke-width="2" stroke-linecap="round"/>
<path d="M935.158 633.954C934.888 636.921 933.982 639.264 933.135 639.187C932.287 639.11 931.819 636.642 932.089 633.675C932.358 630.709 933.264 628.366 934.112 628.443C934.959 628.52 935.428 630.988 935.158 633.954Z" fill="black"/>
<path d="M928.456 584.446C928.713 584.623 928.987 584.808 929.278 585.004C930.394 585.754 931.742 586.661 933.158 587.926C935.316 590.047 938.631 591.679 941.718 592.16C944.765 592.635 948.094 592.021 949.459 588.941C950.341 586.954 950.493 585.223 950.009 583.763C949.525 582.304 948.465 581.292 947.272 580.626C946.085 579.963 944.715 579.607 943.462 579.464C942.217 579.322 940.997 579.379 940.094 579.615" stroke="black" stroke-width="3" stroke-linecap="round"/>
<path d="M1305.01 517.686C1283.39 511.895 1270.57 489.678 1276.36 468.063C1282.15 446.449 1304.36 433.622 1325.98 439.413C1347.59 445.205 1360.42 467.422 1354.63 489.036C1348.83 510.651 1326.62 523.478 1305.01 517.686Z" fill="#E4ECF4"/>
<path d="M1276.36 468.062C1278.67 459.412 1283.79 451.772 1290.91 446.339C1298.03 440.906 1306.75 437.985 1315.71 438.032L1315.49 478.549L1276.36 468.062Z" fill="#2C73FB"/>
<path d="M1120.49 825.983C1117.61 836.07 1110.93 841.003 1104.94 843.439C1101.93 844.66 1099.1 845.251 1097.02 845.535C1095.98 845.677 1095.13 845.742 1094.54 845.772C1094.29 845.785 1094.08 845.791 1093.93 845.794C1093.81 845.713 1093.63 845.599 1093.42 845.451C1092.94 845.118 1092.25 844.615 1091.45 843.946C1089.83 842.607 1087.73 840.611 1085.83 837.986C1082.02 832.754 1078.95 825.038 1081.82 814.951C1084.72 804.8 1092.3 796.949 1099.25 791.603C1102.72 788.938 1106.01 786.916 1108.42 785.562C1109.63 784.885 1110.62 784.375 1111.31 784.036C1111.41 783.986 1111.5 783.94 1111.59 783.897C1111.64 783.98 1111.7 784.069 1111.76 784.165C1112.16 784.814 1112.73 785.769 1113.4 786.982C1114.74 789.408 1116.46 792.859 1118 796.952C1121.09 805.164 1123.39 815.832 1120.49 825.983Z" fill="#47DB99" stroke="black" stroke-width="2"/>
<path d="M1106.67 808.936L1095.54 841.226" stroke="black" stroke-width="2" stroke-linecap="round"/>
<path d="M1095.92 820.981C1101.28 826.342 1102.05 832.286 1101.48 836.93C1101.2 839.262 1100.58 841.263 1100.02 842.681C1099.75 843.389 1099.49 843.948 1099.3 844.326C1099.24 844.454 1099.19 844.562 1099.14 844.647C1099.06 844.691 1098.95 844.746 1098.82 844.809C1098.44 844.995 1097.88 845.252 1097.18 845.528C1095.76 846.081 1093.76 846.704 1091.42 846.989C1086.78 847.556 1080.84 846.789 1075.48 841.428C1070.07 836.019 1067.75 828.441 1066.81 822.109C1066.34 818.956 1066.22 816.147 1066.21 814.127C1066.21 813.124 1066.23 812.318 1066.26 811.763C1066.81 811.737 1067.62 811.711 1068.62 811.714C1070.64 811.721 1073.45 811.845 1076.6 812.315C1082.94 813.258 1090.51 815.573 1095.92 820.981Z" fill="#47DB99" stroke="black" stroke-width="2"/>
<path d="M1080.16 824.69L1092.52 840.635" stroke="black" stroke-width="2" stroke-linecap="round"/>
<path d="M1114.88 846.096L1109.21 875.834L1080.64 875.834L1074.98 846.096L1114.88 846.096Z" fill="white" stroke="black" stroke-width="2"/>
<rect x="1119.32" y="848.24" width="48.7805" height="7.43246" transform="rotate(180 1119.32 848.24)" fill="white" stroke="black" stroke-width="2"/>
<path d="M749.737 891.528H1409.9" stroke="black" stroke-width="2" stroke-linecap="round"/>
<path fill-rule="evenodd" clip-rule="evenodd" d="M971.332 439.332C980.117 440.917 989.366 446.731 999.072 456.536C1003.91 461.427 1008.79 467.232 1013.79 473.269C1014.34 473.937 1014.9 474.607 1015.45 475.279C1019.87 480.634 1024.38 486.094 1028.9 490.982C1033.97 496.471 1039.24 501.458 1044.68 504.892C1050.14 508.335 1056.12 510.441 1062.42 509.532C1064.66 509.208 1066.22 507.129 1065.89 504.888C1065.57 502.647 1063.49 501.093 1061.25 501.416C1057.58 501.946 1053.58 500.814 1049.06 497.959C1044.53 495.095 1039.83 490.725 1034.92 485.418C1030.57 480.709 1026.21 475.435 1021.77 470.055C1021.22 469.385 1020.66 468.714 1020.11 468.042C1015.13 462.024 1010.03 455.953 1004.9 450.767C994.655 440.419 983.953 433.277 972.788 431.263C961.374 429.205 950.182 432.624 939.451 441.915C929.67 450.384 920.008 464.004 910.741 477.069C910.115 477.951 909.49 478.831 908.868 479.707C898.765 493.922 889.194 506.949 879.886 513.665C871.08 520.019 862.585 520.596 853.871 517.138C844.82 513.546 835.37 505.511 825.532 494.153C821.611 489.626 817.698 484.656 813.714 479.597C812.709 478.321 811.7 477.04 810.685 475.758C805.696 469.459 800.585 463.181 795.422 457.965C790.298 452.789 784.832 448.354 779.058 446.062C773.067 443.685 766.748 443.635 760.534 447.222C758.573 448.354 757.901 450.861 759.033 452.822C760.164 454.783 762.672 455.455 764.632 454.323C768.393 452.153 772.049 452.102 776.034 453.684C780.234 455.351 784.744 458.833 789.595 463.734C794.407 468.594 799.271 474.552 804.257 480.849C805.238 482.086 806.223 483.338 807.213 484.595C811.209 489.67 815.276 494.835 819.335 499.521C829.447 511.195 839.947 520.434 850.847 524.759C862.083 529.218 873.538 528.356 884.683 520.315C895.324 512.636 905.704 498.312 915.551 484.457C916.094 483.692 916.636 482.928 917.177 482.166C926.702 468.75 935.82 455.905 944.818 448.114C954.038 440.131 962.796 437.793 971.332 439.332Z" fill="#FF3366"/>
<path fill-rule="evenodd" clip-rule="evenodd" d="M1034.99 462.732C1026.34 462.732 1009.6 462.734 993.059 478.525L993.041 478.543L993.022 478.561C988.698 482.596 984.319 487.719 979.804 493.296C978.287 495.17 976.744 497.109 975.187 499.066C972.196 502.825 969.155 506.647 966.157 510.184C961.575 515.59 956.795 520.698 951.856 524.475C946.947 528.229 941.413 531.03 935.387 531.03C929.482 531.03 924.019 528.238 919.249 524.892C914.798 521.771 910.378 517.742 906.228 513.959C905.896 513.655 905.565 513.354 905.235 513.054C900.667 508.896 896.433 505.134 892.318 502.526C888.188 499.908 884.832 498.883 881.943 499.277C878.918 499.69 875.298 501.778 871.006 505.804C866.796 509.753 862.468 515.054 857.968 520.97C856.207 523.285 854.39 525.736 852.553 528.213C849.828 531.888 847.06 535.62 844.372 539.05C839.818 544.861 835.064 550.379 830.18 554.375L830.16 554.391L830.141 554.407C819.806 562.675 809.28 564.139 798.947 561.701C788.996 559.353 779.322 553.405 770.204 547.326C768.076 545.908 767.501 543.033 768.92 540.906C770.338 538.778 773.213 538.203 775.341 539.621C784.517 545.739 792.934 550.767 801.074 552.688C808.825 554.517 816.384 553.545 824.336 547.192C828.389 543.871 832.623 539.029 837.083 533.338C839.741 529.947 842.331 526.452 844.964 522.899C846.808 520.411 848.673 517.894 850.598 515.364C855.143 509.389 859.86 503.561 864.67 499.049C869.399 494.614 874.773 490.909 880.692 490.102C886.746 489.276 892.386 491.605 897.275 494.704C902.18 497.813 906.992 502.131 911.469 506.205C911.765 506.475 912.059 506.743 912.353 507.011C916.628 510.906 920.624 514.546 924.566 517.311C928.816 520.292 932.347 521.769 935.387 521.769C938.507 521.769 942.07 520.301 946.231 517.119C950.363 513.959 954.629 509.463 959.092 504.197C962.006 500.759 964.879 497.148 967.806 493.468C969.385 491.483 970.98 489.478 972.606 487.47C977.156 481.849 981.867 476.308 986.684 471.809C1005.91 453.471 1025.75 453.471 1034.98 453.471H1043.93C1046.49 453.471 1048.56 455.544 1048.56 458.101C1048.56 460.659 1046.49 462.732 1043.93 462.732H1034.99Z" fill="#2C73FB"/>
<path d="M1204.85 760.068L1146.32 877.457C1145.33 879.452 1146.78 881.796 1149.01 881.796H1335.43C1336.6 881.796 1337.66 881.124 1338.15 880.071L1393.25 762.681C1394.18 760.691 1392.73 758.406 1390.54 758.406H1207.53C1206.39 758.406 1205.36 759.05 1204.85 760.068Z" fill="black"/>
<path d="M1214.77 771.538L1170.46 860.427C1169.46 862.421 1170.91 864.765 1173.14 864.765H1314.95C1316.11 864.765 1317.17 864.093 1317.66 863.04L1359.39 774.152C1360.32 772.162 1358.87 769.877 1356.67 769.877H1217.46C1216.32 769.877 1215.28 770.52 1214.77 771.538Z" fill="white"/>
<path d="M1221.99 778.49L1184.6 853.475C1183.61 855.469 1185.06 857.813 1187.29 857.813H1307.32C1308.49 857.813 1309.55 857.141 1310.04 856.088L1345.24 781.104C1346.17 779.114 1344.72 776.829 1342.52 776.829H1224.67C1223.53 776.829 1222.5 777.472 1221.99 778.49Z" fill="white" stroke="black" stroke-width="2"/>
<path d="M1294.62 796.06L1286.09 813.176C1285.76 813.841 1286.24 814.622 1286.98 814.622H1314.66C1315.05 814.622 1315.4 814.398 1315.57 814.047L1323.6 796.931C1323.91 796.268 1323.43 795.507 1322.69 795.507H1295.52C1295.14 795.507 1294.79 795.721 1294.62 796.06Z" fill="black"/>
<path d="M1287.13 795.614L1278.59 812.73C1277.93 814.06 1278.9 815.622 1280.38 815.622H1308.06C1308.83 815.622 1309.54 815.174 1309.87 814.472L1317.9 797.356C1318.53 796.03 1317.56 794.507 1316.09 794.507H1288.92C1288.16 794.507 1287.46 794.936 1287.13 795.614L1288.02 796.06L1287.13 795.614Z" stroke="white" stroke-width="2"/>
<path d="M1225.76 788.778L1201.18 840.395C1200.87 841.058 1201.35 841.825 1202.09 841.825H1253.16C1253.54 841.825 1253.9 841.599 1254.06 841.247L1278.11 789.63C1278.41 788.967 1277.93 788.208 1277.2 788.208H1226.67C1226.28 788.208 1225.93 788.43 1225.76 788.778Z" fill="#FF3366"/>
<path d="M1279.99 826.684L1274.91 837.718C1274.61 838.381 1275.09 839.136 1275.82 839.136H1303.52C1303.92 839.136 1304.29 838.894 1304.44 838.522L1309.05 827.487C1309.33 826.829 1308.84 826.102 1308.13 826.102H1280.9C1280.51 826.102 1280.16 826.329 1279.99 826.684Z" fill="black"/>
<path d="M1382.05 757.382L1323.65 881.796" stroke="white" stroke-width="2"/>
<path d="M1045.59 875.541H1339.29C1339.29 884.371 1332.14 891.529 1323.31 891.529H1061.58C1052.75 891.529 1045.59 884.371 1045.59 875.541Z" fill="black"/>
<path d="M1275.25 539.556H1339.29V654.241H1275.25V539.556Z" fill="black"/>
<path d="M1268.24 532.598H1330.28V645.283H1268.24V532.598Z" fill="white" stroke="black" stroke-width="2"/>
<rect x="1281.25" y="581.982" width="36.0216" height="13.9161" rx="6.95803" stroke="black" stroke-width="2"/>
<circle cx="1288.85" cy="588.94" r="4.11454" fill="black"/>
<rect x="1281.25" y="609.762" width="36.0216" height="13.9161" rx="6.95803" stroke="black" stroke-width="2"/>
<circle cx="1288.85" cy="616.72" r="4.11454" fill="black"/>
<rect x="1280.25" y="553.203" width="38.0216" height="15.9161" rx="7.95803" fill="#47DB99"/>
<circle cx="1310.19" cy="561.161" r="4.11454" fill="white"/>
<path d="M1380.68 853.202C1380.68 853.202 1352.34 872.644 1356.3 879.446C1360.26 886.248 1367.85 882.989 1368.81 878.004C1369.77 873.019 1356.59 860.296 1341.71 869.889" stroke="black" stroke-width="2"/>
<path d="M1308.58 708.341C1321.23 701.681 1333.88 696.353 1346.76 699.017C1361.71 702.163 1373.31 721.538 1384.72 730.985H1143.57C1163.27 719.338 1177.17 702.928 1194.47 688.361C1207.12 677.705 1219.78 672.376 1232.43 680.369C1245.08 688.361 1257.96 709.673 1270.61 716.333C1283.27 722.993 1295.92 715.001 1308.58 708.341Z" fill="#2C73FB"/>
<rect x="1404.62" y="845.153" width="20.4353" height="28.9684" rx="1" transform="rotate(124.002 1404.62 845.153)" fill="#FF3366"/>
<path d="M1395.35 846.579L1404.23 833.421" stroke="black" stroke-width="2" stroke-linecap="round"/>
<path d="M1389.21 842.433L1398.09 829.275" stroke="black" stroke-width="2" stroke-linecap="round"/>
<path d="M1382.76 838.08L1391.63 824.922" stroke="black" stroke-width="2" stroke-linecap="round"/>
<path d="M1397.32 855.575L1373.68 839.627" stroke="black" stroke-width="2"/>
<path d="M1289.73 704.5C1302.38 697.84 1315.04 692.512 1327.91 695.176C1342.86 698.322 1354.46 717.698 1365.87 727.144H1124.72C1144.42 715.497 1158.32 699.087 1175.62 684.52C1188.27 673.864 1200.93 668.536 1213.58 676.528C1226.24 684.52 1239.11 705.832 1251.77 712.492C1264.42 719.152 1277.07 711.16 1289.73 704.5Z" stroke="black" stroke-width="2"/>
<circle r="22.3615" transform="matrix(-1 0 0 1 1207.64 485.361)" fill="#E4ECF4"/>
<circle r="33.2771" transform="matrix(-1 0 0 1 1163.48 469.499)" fill="white" stroke="black" stroke-width="2"/>
<path d="M1147.31 469.786L1155.68 473.17V475.791L1144.74 470.722V468.77L1155.68 463.714V466.336L1147.31 469.786Z" fill="black"/>
<path d="M1160.08 480.071H1157.96L1166.09 458.927H1168.2L1160.08 480.071Z" fill="black"/>
<path d="M1179.64 469.706L1170.8 466.242V463.701L1182.22 468.756V470.709L1170.8 475.778V473.21L1179.64 469.706Z" fill="black"/>
<circle r="8.81284" transform="matrix(-1 0 0 1 1189.65 485.26)" fill="white" stroke="black" stroke-width="2"/>
<rect x="1025.65" y="723.473" width="35.8458" height="29.4685" rx="14.7342" transform="rotate(-45 1025.65 723.473)" fill="white" stroke="black" stroke-width="2"/>
<path d="M1068.25 644.712L1013.24 708.58L1074.73 727.675L1128.52 660.437L1068.25 644.712Z" fill="white" stroke="black" stroke-width="2"/>
<path d="M1071.53 655.315L1062.85 665.408L1075.76 669.228L1083.91 658.551L1071.53 655.315Z" fill="white" stroke="black" stroke-width="2"/>
<path d="M1058.2 671.064L1049.52 681.156L1062.43 684.976L1070.58 674.3L1058.2 671.064Z" fill="white" stroke="black" stroke-width="2"/>
<path d="M1044.93 687.751L1036.24 697.843L1049.15 701.664L1057.31 690.987L1044.93 687.751Z" fill="white" stroke="black" stroke-width="2"/>
<path d="M1071.49 659.555L1073.59 663.686L1088.97 660.548" stroke="#FF3366" stroke-width="2"/>
<path d="M1057.68 674.859L1059.77 678.991L1075.15 675.852" stroke="#FF3366" stroke-width="2"/>
<path d="M1044.45 692.485L1046.54 696.617L1061.92 693.478" stroke="#FF3366" stroke-width="2"/>
<rect x="1052.41" y="724.444" width="23.791" height="9.59189" rx="4.79595" transform="rotate(-45 1052.41 724.444)" fill="white" stroke="black" stroke-width="2"/>
<g filter="url(#filter1_d)">
<rect x="401.607" y="795.727" width="319" height="140" rx="70" fill="#FF4B78"/>
<path d="M521.662 852.332C523.256 852.332 524.797 852.432 526.285 852.631C527.785 852.818 529.127 853.146 530.311 853.615C531.506 854.072 532.484 854.693 533.246 855.479C534.02 856.264 534.471 857.242 534.6 858.414L530.029 859.68C530.029 858.977 529.789 858.402 529.309 857.957C528.84 857.5 528.213 857.143 527.428 856.885C526.654 856.615 525.764 856.428 524.756 856.322C523.76 856.217 522.729 856.164 521.662 856.164C520.619 856.164 519.594 856.211 518.586 856.305C517.578 856.398 516.67 856.574 515.861 856.832C515.064 857.09 514.42 857.447 513.928 857.904C513.436 858.361 513.189 858.953 513.189 859.68V863.863H534.6V872.969C534.6 873.754 534.424 874.457 534.072 875.078C533.732 875.688 533.258 876.221 532.648 876.678C532.051 877.123 531.336 877.504 530.504 877.82C529.684 878.125 528.793 878.371 527.832 878.559C526.883 878.746 525.881 878.881 524.826 878.963C523.771 879.045 522.717 879.086 521.662 879.086C520.584 879.086 519.523 879.045 518.48 878.963C517.438 878.881 516.447 878.746 515.51 878.559C514.572 878.371 513.699 878.125 512.891 877.82C512.094 877.504 511.391 877.123 510.781 876.678C510.172 876.221 509.68 875.688 509.305 875.078C508.93 874.469 508.701 873.766 508.619 872.969L513.189 871.703C513.189 872.43 513.436 873.021 513.928 873.479C514.42 873.936 515.064 874.293 515.861 874.551C516.67 874.809 517.578 874.984 518.586 875.078C519.594 875.172 520.619 875.219 521.662 875.219C522.729 875.219 523.76 875.172 524.756 875.078C525.764 874.973 526.654 874.791 527.428 874.533C528.213 874.264 528.84 873.9 529.309 873.443C529.789 872.986 530.029 872.406 530.029 871.703V867.414H508.619V858.414C508.619 857.629 508.789 856.938 509.129 856.34C509.48 855.73 509.955 855.203 510.553 854.758C511.162 854.301 511.883 853.92 512.715 853.615C513.547 853.299 514.443 853.047 515.404 852.859C516.377 852.672 517.391 852.537 518.445 852.455C519.512 852.373 520.584 852.332 521.662 852.332Z" fill="white"/>
<path d="M545.041 858.836H549.506V861.789H545.041V879.121H540.857V861.789H537.553V858.836H540.857V852.719H545.041V858.836Z" fill="white"/>
<path d="M573.412 871.949C573.119 871.691 572.756 871.439 572.322 871.193C571.889 870.947 571.355 870.73 570.723 870.543C570.09 870.344 569.334 870.186 568.455 870.068C567.588 869.939 566.568 869.875 565.396 869.875C564.354 869.875 563.363 869.898 562.426 869.945C561.5 869.98 560.686 870.098 559.982 870.297C559.279 870.484 558.723 870.789 558.312 871.211C557.902 871.633 557.697 872.219 557.697 872.969V875.219C558.729 875.383 559.865 875.518 561.107 875.623C562.35 875.729 563.732 875.781 565.256 875.781C566.475 875.781 567.77 875.74 569.141 875.658C570.523 875.564 571.947 875.383 573.412 875.113V871.949ZM565.502 859.082C566.088 859.082 566.797 859.111 567.629 859.17C568.461 859.229 569.328 859.334 570.23 859.486C571.133 859.627 572.023 859.826 572.902 860.084C573.793 860.33 574.59 860.658 575.293 861.068C576.008 861.467 576.582 861.947 577.016 862.51C577.449 863.072 577.666 863.734 577.666 864.496V878.102C576.682 878.301 575.568 878.471 574.326 878.611C573.26 878.74 571.988 878.857 570.512 878.963C569.035 879.068 567.389 879.121 565.572 879.121C563.768 879.121 561.846 879.045 559.807 878.893C557.779 878.74 555.658 878.477 553.443 878.102V871.773C553.443 871.094 553.602 870.502 553.918 869.998C554.246 869.482 554.691 869.043 555.254 868.68C555.816 868.316 556.479 868.018 557.24 867.783C558.002 867.549 558.822 867.361 559.701 867.221C560.58 867.08 561.494 866.986 562.443 866.939C563.393 866.881 564.342 866.852 565.291 866.852C566.732 866.852 567.957 866.945 568.965 867.133C569.984 867.309 570.828 867.502 571.496 867.713C572.27 867.971 572.908 868.258 573.412 868.574V865.727C573.412 865.246 573.295 864.836 573.061 864.496C572.826 864.145 572.51 863.852 572.111 863.617C571.713 863.371 571.256 863.178 570.74 863.037C570.225 862.885 569.686 862.768 569.123 862.686C568.561 862.604 567.986 862.551 567.4 862.527C566.826 862.504 566.287 862.492 565.783 862.492C565.256 862.492 564.693 862.51 564.096 862.545C563.498 862.568 562.9 862.621 562.303 862.703C561.717 862.785 561.148 862.902 560.598 863.055C560.059 863.195 559.578 863.389 559.156 863.635C558.734 863.881 558.395 864.18 558.137 864.531C557.891 864.871 557.768 865.281 557.768 865.762L553.408 864.637C553.408 863.852 553.602 863.172 553.988 862.598C554.375 862.012 554.885 861.514 555.518 861.104C556.162 860.693 556.9 860.359 557.732 860.102C558.564 859.832 559.426 859.627 560.316 859.486C561.219 859.334 562.115 859.229 563.006 859.17C563.896 859.111 564.729 859.082 565.502 859.082Z" fill="white"/>
<path d="M598.795 859.082C598.795 860.301 598.754 861.572 598.672 862.896C598.59 864.209 598.432 865.562 598.197 866.957H593.943C594.049 866.559 594.148 866.125 594.242 865.656C594.312 865.258 594.377 864.795 594.436 864.268C594.506 863.729 594.541 863.16 594.541 862.562C593.51 862.586 592.654 862.686 591.975 862.861C591.307 863.025 590.75 863.225 590.305 863.459C589.859 863.682 589.496 863.91 589.215 864.145C588.934 864.379 588.682 864.566 588.459 864.707V879.121H583.959V864.602C583.912 864.227 583.801 863.91 583.625 863.652C583.461 863.395 583.285 863.184 583.098 863.02C582.887 862.82 582.646 862.656 582.377 862.527L584.24 859.082C584.674 859.234 585.102 859.439 585.523 859.697C585.887 859.92 586.268 860.207 586.666 860.559C587.076 860.898 587.439 861.32 587.756 861.824C588.354 861.414 588.904 861.068 589.408 860.787C589.912 860.494 590.398 860.248 590.867 860.049C591.348 859.85 591.84 859.697 592.344 859.592C592.859 859.475 593.422 859.381 594.031 859.311C594.652 859.24 595.344 859.193 596.105 859.17C596.879 859.135 597.775 859.105 598.795 859.082Z" fill="white"/>
<path d="M609.131 858.836H613.596V861.789H609.131V879.121H604.947V861.789H601.643V858.836H604.947V852.719H609.131V858.836Z" fill="white"/>
</g>
<rect x="170.757" y="874.227" width="57" height="17" rx="8.5" transform="rotate(-180 170.757 874.227)" stroke="black" stroke-width="3"/>
<circle cx="242.257" cy="865.727" r="10" transform="rotate(-180 242.257 865.727)" fill="black"/>
<circle cx="202.257" cy="865.727" r="10" transform="rotate(-180 202.257 865.727)" fill="black"/>
<path d="M141.888 384.331C143.341 384.331 144.817 384.483 146.317 384.788C147.817 385.069 149.153 385.456 150.325 385.948C152.388 389.557 154.263 393.237 155.95 396.987C157.661 400.714 159.185 404.557 160.521 408.518C161.435 408.636 162.36 408.765 163.298 408.905C164.235 409.022 165.185 409.151 166.146 409.292V418.292L163.122 417.448C163.966 420.94 164.681 424.503 165.267 428.136C165.853 431.768 166.286 435.472 166.567 439.245H158.2C157.849 435.214 157.263 431.229 156.442 427.292C155.622 423.354 154.685 419.581 153.63 415.972C151.356 415.784 149.188 415.643 147.126 415.55C145.087 415.456 143.341 415.409 141.888 415.409C139.942 415.409 138.009 415.444 136.087 415.515C134.165 415.585 132.231 415.714 130.286 415.901C129.231 419.511 128.282 423.284 127.438 427.222C126.618 431.159 126.044 435.167 125.716 439.245H117.349C117.606 435.472 118.017 431.78 118.579 428.171C119.165 424.561 119.88 421.011 120.724 417.518L117.981 418.292V409.292L123.396 408.518C124.708 404.557 126.208 400.714 127.896 396.987C129.606 393.237 131.505 389.557 133.591 385.948C134.763 385.456 136.087 385.069 137.563 384.788C139.04 384.483 140.481 384.331 141.888 384.331ZM141.888 407.464C143.294 407.464 144.747 407.487 146.247 407.534C147.747 407.557 149.294 407.628 150.888 407.745C149.692 404.487 148.509 401.663 147.337 399.272C146.188 396.858 145.192 394.995 144.349 393.682C143.927 393.495 143.528 393.366 143.153 393.296C142.778 393.225 142.356 393.19 141.888 393.19C141.138 393.19 140.364 393.354 139.567 393.682C138.724 394.995 137.716 396.858 136.544 399.272C135.372 401.663 134.2 404.487 133.028 407.745C134.575 407.628 136.087 407.557 137.563 407.534C139.063 407.487 140.505 407.464 141.888 407.464ZM185.411 426.518C185.411 427.597 185.798 428.499 186.571 429.225C187.368 429.952 188.423 430.55 189.735 431.018C191.071 431.464 192.606 431.792 194.341 432.003C196.075 432.19 197.88 432.284 199.755 432.284C201.724 432.284 203.575 432.179 205.31 431.968C207.044 431.733 208.556 431.393 209.845 430.948C211.134 430.479 212.153 429.882 212.903 429.155C213.653 428.429 214.028 427.55 214.028 426.518V399.167L223.38 399.87V428.768C223.38 430.034 223.063 431.194 222.431 432.249C221.821 433.304 220.966 434.253 219.864 435.097C218.763 435.917 217.462 436.632 215.962 437.241C214.462 437.85 212.833 438.354 211.075 438.753C209.341 439.151 207.501 439.444 205.556 439.632C203.634 439.843 201.7 439.948 199.755 439.948C197.786 439.948 195.841 439.843 193.919 439.632C191.997 439.444 190.157 439.151 188.399 438.753C186.665 438.354 185.048 437.85 183.548 437.241C182.048 436.632 180.747 435.917 179.646 435.097C178.544 434.253 177.677 433.315 177.044 432.284C176.435 431.229 176.13 430.057 176.13 428.768V399.87L185.411 399.167V426.518ZM256.216 399.167C258.278 399.167 260.435 399.401 262.685 399.87C264.958 400.339 267.161 400.948 269.294 401.698V385.737H278.505V436.503C277.263 436.878 275.774 437.229 274.04 437.557C272.329 437.886 270.489 438.179 268.521 438.436C266.552 438.671 264.501 438.87 262.368 439.034C260.259 439.175 258.208 439.245 256.216 439.245C252.606 439.245 249.384 438.999 246.548 438.507C243.712 437.991 241.31 437.206 239.341 436.151C237.372 435.097 235.872 433.761 234.841 432.143C233.81 430.526 233.294 428.604 233.294 426.378V412.034C233.294 409.807 233.81 407.886 234.841 406.268C235.872 404.651 237.372 403.315 239.341 402.261C241.31 401.206 243.712 400.432 246.548 399.94C249.384 399.425 252.606 399.167 256.216 399.167ZM258.747 432.706C259.685 432.706 260.634 432.659 261.595 432.565C262.579 432.472 263.528 432.343 264.442 432.179C265.38 432.015 266.259 431.827 267.079 431.616C267.923 431.405 268.661 431.182 269.294 430.948V408.87C267.677 408.097 266.013 407.464 264.302 406.972C262.614 406.456 260.763 406.198 258.747 406.198C257.294 406.198 255.876 406.233 254.493 406.304C253.134 406.35 251.856 406.479 250.661 406.69C249.466 406.878 248.364 407.159 247.356 407.534C246.349 407.886 245.481 408.366 244.755 408.975C244.052 409.585 243.501 410.335 243.103 411.225C242.704 412.116 242.505 413.182 242.505 414.425V424.761C242.505 426.659 242.938 428.147 243.806 429.225C244.696 430.28 245.88 431.065 247.356 431.581C248.833 432.097 250.556 432.413 252.524 432.53C254.493 432.647 256.567 432.706 258.747 432.706ZM300.091 439.245H291.161V399.167H300.091V439.245ZM295.661 385.245C297.396 385.245 298.767 385.538 299.774 386.124C300.782 386.686 301.286 387.589 301.286 388.831V390.589C301.286 391.714 300.782 392.522 299.774 393.015C298.767 393.507 297.396 393.753 295.661 393.753C293.997 393.753 292.649 393.507 291.618 393.015C290.61 392.522 290.106 391.714 290.106 390.589V388.831C290.106 387.589 290.61 386.686 291.618 386.124C292.649 385.538 293.997 385.245 295.661 385.245ZM325.052 398.675H333.981V404.581H325.052V439.245H316.685V404.581H310.075V398.675H316.685V386.44H325.052V398.675ZM382.778 422.932C382.778 424.245 382.954 425.382 383.306 426.343C383.657 427.28 384.138 428.089 384.747 428.768C385.356 429.425 386.048 429.964 386.821 430.386C387.618 430.807 388.45 431.136 389.317 431.37C390.185 431.581 391.063 431.733 391.954 431.827C392.845 431.897 393.7 431.932 394.521 431.932C397.497 431.932 400.204 431.546 402.642 430.772C405.079 429.999 407.247 429.05 409.146 427.925V399.167L418.216 399.87V441.003C418.216 442.667 417.864 444.214 417.161 445.643C416.458 447.073 415.438 448.304 414.103 449.335C412.767 450.39 411.126 451.21 409.181 451.796C407.235 452.382 405.021 452.675 402.536 452.675V446.557C403.474 446.557 404.341 446.464 405.138 446.276C405.935 446.089 406.626 445.796 407.212 445.397C407.821 445.022 408.29 444.542 408.618 443.956C408.97 443.393 409.146 442.737 409.146 441.987V434.604C408.044 435.284 406.919 435.905 405.771 436.468C404.646 437.03 403.462 437.522 402.22 437.944C400.978 438.343 399.677 438.659 398.317 438.893C396.958 439.128 395.528 439.245 394.028 439.245C390.396 439.245 387.29 438.952 384.712 438.366C382.134 437.757 380.013 436.866 378.349 435.694C376.708 434.499 375.501 433.022 374.728 431.265C373.954 429.507 373.567 427.456 373.567 425.112V399.87L382.778 399.167V422.932ZM453.513 398.534C455.481 398.534 457.438 398.628 459.384 398.815C461.353 399.003 463.239 399.307 465.044 399.729C466.849 400.151 468.536 400.679 470.106 401.311C471.677 401.944 473.036 402.706 474.185 403.597C475.356 404.487 476.271 405.518 476.927 406.69C477.583 407.839 477.911 409.128 477.911 410.557V428.768C477.911 430.034 477.583 431.194 476.927 432.249C476.271 433.304 475.356 434.253 474.185 435.097C473.036 435.917 471.677 436.632 470.106 437.241C468.536 437.85 466.849 438.354 465.044 438.753C463.239 439.151 461.353 439.444 459.384 439.632C457.415 439.843 455.458 439.948 453.513 439.948C451.567 439.948 449.61 439.843 447.642 439.632C445.696 439.444 443.821 439.151 442.017 438.753C440.212 438.354 438.524 437.85 436.954 437.241C435.407 436.632 434.048 435.917 432.876 435.097C431.728 434.253 430.825 433.315 430.169 432.284C429.513 431.229 429.185 430.057 429.185 428.768V410.557C429.185 409.128 429.513 407.839 430.169 406.69C430.825 405.518 431.728 404.487 432.876 403.597C434.048 402.706 435.407 401.944 436.954 401.311C438.524 400.679 440.212 400.151 442.017 399.729C443.821 399.307 445.696 399.003 447.642 398.815C449.61 398.628 451.567 398.534 453.513 398.534ZM438.114 426.518C438.114 427.597 438.56 428.534 439.45 429.331C440.364 430.104 441.548 430.761 443.001 431.3C444.454 431.815 446.095 432.202 447.923 432.46C449.774 432.718 451.638 432.847 453.513 432.847C455.481 432.847 457.38 432.706 459.208 432.425C461.06 432.143 462.7 431.745 464.13 431.229C465.56 430.69 466.696 430.034 467.54 429.261C468.407 428.464 468.841 427.55 468.841 426.518V411.893C468.841 410.886 468.407 409.983 467.54 409.186C466.696 408.366 465.56 407.686 464.13 407.147C462.7 406.585 461.06 406.163 459.208 405.882C457.38 405.577 455.481 405.425 453.513 405.425C451.638 405.425 449.774 405.565 447.923 405.847C446.095 406.104 444.454 406.503 443.001 407.042C441.548 407.581 440.364 408.261 439.45 409.081C438.56 409.878 438.114 410.815 438.114 411.893V426.518ZM494.646 426.518C494.646 427.597 495.032 428.499 495.806 429.225C496.603 429.952 497.657 430.55 498.97 431.018C500.306 431.464 501.841 431.792 503.575 432.003C505.31 432.19 507.114 432.284 508.989 432.284C510.958 432.284 512.81 432.179 514.544 431.968C516.278 431.733 517.79 431.393 519.079 430.948C520.368 430.479 521.388 429.882 522.138 429.155C522.888 428.429 523.263 427.55 523.263 426.518V399.167L532.614 399.87V428.768C532.614 430.034 532.298 431.194 531.665 432.249C531.056 433.304 530.2 434.253 529.099 435.097C527.997 435.917 526.696 436.632 525.196 437.241C523.696 437.85 522.067 438.354 520.31 438.753C518.575 439.151 516.735 439.444 514.79 439.632C512.868 439.843 510.935 439.948 508.989 439.948C507.021 439.948 505.075 439.843 503.153 439.632C501.231 439.444 499.392 439.151 497.634 438.753C495.899 438.354 494.282 437.85 492.782 437.241C491.282 436.632 489.981 435.917 488.88 435.097C487.778 434.253 486.911 433.315 486.278 432.284C485.669 431.229 485.364 430.057 485.364 428.768V399.87L494.646 399.167V426.518ZM574.731 399.167C574.731 401.604 574.649 404.147 574.485 406.796C574.321 409.421 574.005 412.128 573.536 414.917H565.028C565.239 414.12 565.438 413.253 565.626 412.315C565.767 411.518 565.896 410.593 566.013 409.538C566.153 408.46 566.224 407.323 566.224 406.128C564.161 406.175 562.45 406.374 561.091 406.725C559.755 407.054 558.642 407.452 557.751 407.921C556.86 408.366 556.134 408.823 555.571 409.292C555.009 409.761 554.505 410.136 554.06 410.417V439.245H545.06V410.206C544.966 409.456 544.743 408.823 544.392 408.307C544.063 407.792 543.712 407.37 543.337 407.042C542.915 406.643 542.435 406.315 541.896 406.057L545.622 399.167C546.489 399.472 547.345 399.882 548.188 400.397C548.915 400.843 549.677 401.417 550.474 402.12C551.294 402.8 552.021 403.643 552.653 404.651C553.849 403.831 554.95 403.14 555.958 402.577C556.966 401.991 557.938 401.499 558.876 401.1C559.837 400.702 560.821 400.397 561.829 400.186C562.86 399.952 563.985 399.765 565.204 399.624C566.446 399.483 567.829 399.39 569.353 399.343C570.899 399.272 572.692 399.214 574.731 399.167ZM127.614 472.026C127.403 473.69 127.216 475.354 127.052 477.018C126.911 478.682 126.841 480.417 126.841 482.222C126.841 484.378 126.935 486.511 127.122 488.62C127.31 490.729 127.708 492.757 128.317 494.702C128.95 496.624 129.853 498.452 131.024 500.186C132.22 501.921 133.825 503.503 135.841 504.932C136.989 504.206 137.903 503.327 138.583 502.296C139.286 501.241 139.837 500.116 140.235 498.921C140.634 497.725 140.915 496.507 141.079 495.265C141.267 494.022 141.419 492.815 141.536 491.643V483.065H148.567V491.643C148.661 492.815 148.802 494.022 148.989 495.265C149.177 496.507 149.47 497.725 149.868 498.921C150.267 500.116 150.806 501.241 151.485 502.296C152.188 503.327 153.091 504.206 154.192 504.932C156.208 503.503 157.813 501.921 159.009 500.186C160.204 498.452 161.118 496.624 161.751 494.702C162.384 492.757 162.794 490.729 162.981 488.62C163.169 486.511 163.263 484.378 163.263 482.222C163.263 480.417 163.181 478.682 163.017 477.018C162.876 475.354 162.677 473.69 162.419 472.026C164.552 472.143 166.438 472.296 168.079 472.483C169.72 472.671 171.114 472.858 172.263 473.046C173.599 473.257 174.771 473.479 175.778 473.714V481.87C175.169 481.542 174.583 481.296 174.021 481.132C173.481 480.944 173.001 480.804 172.579 480.71C172.087 480.616 171.63 480.557 171.208 480.534C171.208 483.932 171.056 486.979 170.751 489.675C170.446 492.347 169.989 494.749 169.38 496.882C168.771 499.015 167.997 500.913 167.06 502.577C166.146 504.241 165.056 505.753 163.79 507.112C162.524 508.448 161.095 509.679 159.501 510.804C157.907 511.929 156.138 513.018 154.192 514.073C151.966 512.807 150.126 511.39 148.673 509.819C147.22 508.249 146.013 506.456 145.052 504.44C144.138 506.456 142.942 508.249 141.466 509.819C140.013 511.39 138.138 512.807 135.841 514.073C133.919 513.018 132.161 511.929 130.567 510.804C128.997 509.679 127.579 508.448 126.313 507.112C125.071 505.753 123.993 504.241 123.079 502.577C122.165 500.913 121.403 499.015 120.794 496.882C120.185 494.749 119.728 492.347 119.423 489.675C119.118 486.979 118.966 483.932 118.966 480.534C118.521 480.557 118.052 480.616 117.56 480.71C117.114 480.804 116.61 480.944 116.048 481.132C115.485 481.296 114.888 481.542 114.255 481.87V473.714C115.263 473.479 116.446 473.257 117.806 473.046C118.954 472.858 120.349 472.671 121.989 472.483C123.653 472.296 125.528 472.143 127.614 472.026ZM209.247 472.167C210.442 472.167 211.884 472.225 213.571 472.343C215.259 472.46 217.005 472.671 218.81 472.975C220.638 473.257 222.442 473.667 224.224 474.206C226.005 474.722 227.599 475.39 229.005 476.21C230.435 477.03 231.583 478.026 232.45 479.198C233.341 480.347 233.786 481.706 233.786 483.276V495.159H193.497V504.159C196.333 504.557 199.063 504.839 201.688 505.003C204.313 505.143 206.833 505.214 209.247 505.214C212.927 505.214 216.255 505.073 219.231 504.792C222.231 504.511 224.821 504.194 227.001 503.843C229.509 503.444 231.771 502.987 233.786 502.472V510.276C229.333 510.979 225.032 511.483 220.884 511.788C216.759 512.093 212.88 512.245 209.247 512.245C205.591 512.245 202.274 512.151 199.298 511.964C196.321 511.753 193.767 511.518 191.634 511.261C189.149 510.979 186.911 510.651 184.919 510.276V483.276C184.919 481.706 185.306 480.347 186.079 479.198C186.853 478.026 187.884 477.03 189.173 476.21C190.462 475.39 191.938 474.722 193.603 474.206C195.29 473.667 197.036 473.257 198.841 472.975C200.646 472.671 202.438 472.46 204.22 472.343C206.024 472.225 207.7 472.167 209.247 472.167ZM193.497 489.534H225.067V485.456C225.067 484.495 224.833 483.675 224.364 482.995C223.896 482.292 223.263 481.706 222.466 481.237C221.692 480.768 220.778 480.393 219.724 480.112C218.692 479.807 217.614 479.585 216.489 479.444C215.364 479.28 214.228 479.175 213.079 479.128C211.954 479.081 210.888 479.057 209.88 479.057C208.825 479.057 207.688 479.081 206.47 479.128C205.274 479.175 204.067 479.28 202.849 479.444C201.63 479.608 200.458 479.843 199.333 480.147C198.208 480.429 197.212 480.815 196.345 481.307C195.478 481.776 194.786 482.362 194.271 483.065C193.755 483.745 193.497 484.565 193.497 485.526V489.534ZM267.114 472.167C270.724 472.167 273.946 472.425 276.782 472.94C279.642 473.432 282.044 474.206 283.989 475.261C285.958 476.315 287.458 477.651 288.489 479.268C289.521 480.886 290.036 482.807 290.036 485.034V499.378C290.036 501.604 289.521 503.526 288.489 505.143C287.458 506.761 285.958 508.097 283.989 509.151C282.044 510.206 279.642 510.991 276.782 511.507C273.946 511.999 270.724 512.245 267.114 512.245C265.099 512.245 263.036 512.175 260.927 512.034C258.817 511.87 256.778 511.671 254.81 511.436C252.841 511.179 250.989 510.886 249.255 510.557C247.521 510.229 246.044 509.878 244.825 509.503V458.737H254.036V474.698C256.122 473.948 258.302 473.339 260.575 472.87C262.872 472.401 265.052 472.167 267.114 472.167ZM264.583 478.706C263.364 478.706 262.251 478.788 261.243 478.952C260.235 479.116 259.298 479.327 258.431 479.585C257.587 479.843 256.802 480.136 256.075 480.464C255.349 480.768 254.669 481.073 254.036 481.378V503.526C254.669 503.737 255.396 503.948 256.216 504.159C257.036 504.347 257.903 504.522 258.817 504.686C259.755 504.85 260.704 504.979 261.665 505.073C262.649 505.167 263.622 505.214 264.583 505.214C266.036 505.214 267.454 505.202 268.837 505.179C270.22 505.132 271.509 505.026 272.704 504.862C273.899 504.698 274.989 504.452 275.974 504.124C276.981 503.796 277.837 503.339 278.54 502.753C279.267 502.143 279.829 501.405 280.228 500.538C280.626 499.647 280.825 498.557 280.825 497.268V486.932C280.825 485.081 280.392 483.616 279.524 482.538C278.657 481.436 277.485 480.604 276.009 480.042C274.532 479.479 272.81 479.116 270.841 478.952C268.872 478.788 266.786 478.706 264.583 478.706ZM322.731 472.167C325.521 472.167 328.239 472.343 330.888 472.694C333.536 473.022 335.915 473.597 338.024 474.417C340.134 475.214 341.868 476.304 343.228 477.686C344.587 479.069 345.396 480.792 345.653 482.854L337.497 485.104C337.497 483.886 337.075 482.878 336.231 482.081C335.411 481.261 334.31 480.628 332.927 480.182C331.567 479.714 329.997 479.386 328.216 479.198C326.435 479.011 324.606 478.917 322.731 478.917C320.927 478.917 319.134 479.011 317.353 479.198C315.595 479.362 314.013 479.679 312.606 480.147C311.224 480.593 310.099 481.214 309.231 482.011C308.388 482.807 307.966 483.839 307.966 485.104V489.393H345.653V501.557C345.653 502.94 345.349 504.171 344.739 505.249C344.13 506.304 343.286 507.229 342.208 508.026C341.13 508.8 339.853 509.468 338.376 510.03C336.923 510.569 335.341 511.003 333.63 511.331C331.942 511.659 330.161 511.893 328.286 512.034C326.435 512.175 324.583 512.245 322.731 512.245C319.896 512.245 317.153 512.081 314.505 511.753C311.856 511.401 309.478 510.827 307.368 510.03C305.259 509.21 303.524 508.12 302.165 506.761C300.829 505.378 300.044 503.643 299.81 501.557L307.966 499.307C307.966 500.597 308.388 501.64 309.231 502.436C310.099 503.233 311.224 503.854 312.606 504.3C314.013 504.745 315.595 505.05 317.353 505.214C319.134 505.354 320.927 505.425 322.731 505.425C324.606 505.425 326.435 505.343 328.216 505.179C329.997 504.991 331.567 504.675 332.927 504.229C334.31 503.761 335.411 503.14 336.231 502.366C337.075 501.569 337.497 500.55 337.497 499.307V495.018H299.81V482.854C299.81 481.472 300.114 480.253 300.724 479.198C301.333 478.12 302.165 477.194 303.22 476.421C304.298 475.624 305.563 474.956 307.017 474.417C308.47 473.854 310.04 473.409 311.728 473.081C313.438 472.753 315.22 472.518 317.071 472.378C318.946 472.237 320.833 472.167 322.731 472.167ZM365.833 512.245H356.903V472.167H365.833V512.245ZM361.403 458.245C363.138 458.245 364.509 458.538 365.517 459.124C366.524 459.686 367.028 460.589 367.028 461.831V463.589C367.028 464.714 366.524 465.522 365.517 466.015C364.509 466.507 363.138 466.753 361.403 466.753C359.739 466.753 358.392 466.507 357.36 466.015C356.353 465.522 355.849 464.714 355.849 463.589V461.831C355.849 460.589 356.353 459.686 357.36 459.124C358.392 458.538 359.739 458.245 361.403 458.245ZM390.794 471.675H399.724V477.581H390.794V512.245H382.427V477.581H375.817V471.675H382.427V459.44H390.794V471.675ZM432.138 472.167C433.333 472.167 434.774 472.225 436.462 472.343C438.149 472.46 439.896 472.671 441.7 472.975C443.528 473.257 445.333 473.667 447.114 474.206C448.896 474.722 450.489 475.39 451.896 476.21C453.325 477.03 454.474 478.026 455.341 479.198C456.231 480.347 456.677 481.706 456.677 483.276V495.159H416.388V504.159C419.224 504.557 421.954 504.839 424.579 505.003C427.204 505.143 429.724 505.214 432.138 505.214C435.817 505.214 439.146 505.073 442.122 504.792C445.122 504.511 447.712 504.194 449.892 503.843C452.399 503.444 454.661 502.987 456.677 502.472V510.276C452.224 510.979 447.923 511.483 443.774 511.788C439.649 512.093 435.771 512.245 432.138 512.245C428.481 512.245 425.165 512.151 422.188 511.964C419.212 511.753 416.657 511.518 414.524 511.261C412.04 510.979 409.802 510.651 407.81 510.276V483.276C407.81 481.706 408.196 480.347 408.97 479.198C409.743 478.026 410.774 477.03 412.063 476.21C413.353 475.39 414.829 474.722 416.493 474.206C418.181 473.667 419.927 473.257 421.731 472.975C423.536 472.671 425.329 472.46 427.11 472.343C428.915 472.225 430.591 472.167 432.138 472.167ZM416.388 489.534H447.958V485.456C447.958 484.495 447.724 483.675 447.255 482.995C446.786 482.292 446.153 481.706 445.356 481.237C444.583 480.768 443.669 480.393 442.614 480.112C441.583 479.807 440.505 479.585 439.38 479.444C438.255 479.28 437.118 479.175 435.97 479.128C434.845 479.081 433.778 479.057 432.771 479.057C431.716 479.057 430.579 479.081 429.36 479.128C428.165 479.175 426.958 479.28 425.739 479.444C424.521 479.608 423.349 479.843 422.224 480.147C421.099 480.429 420.103 480.815 419.235 481.307C418.368 481.776 417.677 482.362 417.161 483.065C416.646 483.745 416.388 484.565 416.388 485.526V489.534Z" fill="white"/>
<path d="M115.924 616.965V593.133H118.624V614.373H131.62V616.965H115.924ZM144.488 617.253C142.664 617.253 141.068 616.845 139.7 616.029C138.332 615.189 137.264 614.061 136.496 612.645C135.752 611.229 135.38 609.669 135.38 607.965C135.38 606.237 135.74 604.677 136.46 603.285C137.18 601.869 138.212 600.753 139.556 599.937C140.9 599.097 142.484 598.677 144.308 598.677C146.156 598.677 147.74 599.097 149.06 599.937C150.404 600.753 151.436 601.869 152.156 603.285C152.876 604.677 153.236 606.237 153.236 607.965V609.045H138.152C138.296 610.101 138.632 611.073 139.16 611.961C139.712 612.825 140.444 613.521 141.356 614.049C142.268 614.553 143.324 614.805 144.524 614.805C145.796 614.805 146.864 614.529 147.728 613.977C148.592 613.401 149.264 612.669 149.744 611.781H152.696C152.072 613.389 151.076 614.709 149.708 615.741C148.364 616.749 146.624 617.253 144.488 617.253ZM138.188 606.525H150.428C150.188 604.989 149.54 603.705 148.484 602.673C147.428 601.641 146.036 601.125 144.308 601.125C142.58 601.125 141.188 601.641 140.132 602.673C139.1 603.705 138.452 604.989 138.188 606.525ZM160.819 616.965V601.341H157.147V598.965H160.819V592.521H163.519V598.965H167.659V601.341H163.519V616.965H160.819ZM188.362 616.965L180.946 593.133H183.79L189.91 613.149L196.318 593.133H199.414L205.822 613.149L211.942 593.133H214.786L207.37 616.965H204.31L197.866 596.949L191.422 616.965H188.362ZM226.587 617.253C224.763 617.253 223.167 616.845 221.799 616.029C220.431 615.189 219.363 614.061 218.595 612.645C217.851 611.229 217.479 609.669 217.479 607.965C217.479 606.237 217.839 604.677 218.559 603.285C219.279 601.869 220.311 600.753 221.655 599.937C222.999 599.097 224.583 598.677 226.407 598.677C228.255 598.677 229.839 599.097 231.159 599.937C232.503 600.753 233.535 601.869 234.255 603.285C234.975 604.677 235.335 606.237 235.335 607.965V609.045H220.251C220.395 610.101 220.731 611.073 221.259 611.961C221.811 612.825 222.543 613.521 223.455 614.049C224.367 614.553 225.423 614.805 226.623 614.805C227.895 614.805 228.963 614.529 229.827 613.977C230.691 613.401 231.363 612.669 231.843 611.781H234.795C234.171 613.389 233.175 614.709 231.807 615.741C230.463 616.749 228.723 617.253 226.587 617.253ZM220.287 606.525H232.527C232.287 604.989 231.639 603.705 230.583 602.673C229.527 601.641 228.135 601.125 226.407 601.125C224.679 601.125 223.287 601.641 222.231 602.673C221.199 603.705 220.551 604.989 220.287 606.525ZM250.118 617.253C248.63 617.253 247.346 616.965 246.266 616.389C245.21 615.813 244.346 615.045 243.674 614.085V616.965H240.974V591.765H243.674V601.881C244.346 600.897 245.21 600.117 246.266 599.541C247.346 598.965 248.63 598.677 250.118 598.677C251.87 598.677 253.394 599.097 254.69 599.937C256.01 600.753 257.03 601.869 257.75 603.285C258.47 604.677 258.83 606.237 258.83 607.965C258.83 609.669 258.47 611.229 257.75 612.645C257.03 614.061 256.01 615.189 254.69 616.029C253.394 616.845 251.87 617.253 250.118 617.253ZM249.758 614.805C251.102 614.805 252.242 614.493 253.178 613.869C254.138 613.245 254.87 612.417 255.374 611.385C255.878 610.329 256.13 609.189 256.13 607.965C256.13 606.717 255.878 605.577 255.374 604.545C254.87 603.513 254.138 602.685 253.178 602.061C252.242 601.437 251.102 601.125 249.758 601.125C248.438 601.125 247.31 601.437 246.374 602.061C245.438 602.685 244.73 603.513 244.25 604.545C243.77 605.577 243.53 606.717 243.53 607.965C243.53 609.189 243.77 610.329 244.25 611.385C244.73 612.417 245.438 613.245 246.374 613.869C247.31 614.493 248.438 614.805 249.758 614.805ZM276.394 616.965V593.133H286.438C287.854 593.133 289.21 593.409 290.506 593.961C291.826 594.489 293.002 595.269 294.034 596.301C295.066 597.333 295.882 598.581 296.482 600.045C297.082 601.509 297.382 603.177 297.382 605.049C297.382 606.921 297.082 608.589 296.482 610.053C295.882 611.517 295.066 612.765 294.034 613.797C293.002 614.829 291.826 615.621 290.506 616.173C289.21 616.701 287.854 616.965 286.438 616.965H276.394ZM279.094 614.409H286.33C288.034 614.409 289.51 613.977 290.758 613.113C292.006 612.249 292.966 611.109 293.638 609.693C294.334 608.277 294.682 606.729 294.682 605.049C294.682 603.345 294.334 601.785 293.638 600.369C292.966 598.953 292.006 597.825 290.758 596.985C289.51 596.121 288.034 595.689 286.33 595.689H279.094V614.409ZM311.462 617.253C309.638 617.253 308.042 616.845 306.674 616.029C305.306 615.189 304.238 614.061 303.47 612.645C302.726 611.229 302.354 609.669 302.354 607.965C302.354 606.237 302.714 604.677 303.434 603.285C304.154 601.869 305.186 600.753 306.53 599.937C307.874 599.097 309.458 598.677 311.282 598.677C313.13 598.677 314.714 599.097 316.034 599.937C317.378 600.753 318.41 601.869 319.13 603.285C319.85 604.677 320.21 606.237 320.21 607.965V609.045H305.126C305.27 610.101 305.606 611.073 306.134 611.961C306.686 612.825 307.418 613.521 308.33 614.049C309.242 614.553 310.298 614.805 311.498 614.805C312.77 614.805 313.838 614.529 314.702 613.977C315.566 613.401 316.238 612.669 316.718 611.781H319.67C319.046 613.389 318.05 614.709 316.682 615.741C315.338 616.749 313.598 617.253 311.462 617.253ZM305.162 606.525H317.402C317.162 604.989 316.514 603.705 315.458 602.673C314.402 601.641 313.01 601.125 311.282 601.125C309.554 601.125 308.162 601.641 307.106 602.673C306.074 603.705 305.426 604.989 305.162 606.525ZM330.745 616.965L323.689 598.965H326.641L332.329 614.085L337.981 598.965H340.933L333.913 616.965H330.745ZM355.699 595.941V592.413H358.615V595.941H355.699ZM355.807 616.965V598.965H358.507V616.965H355.807ZM373.126 617.253C371.374 617.253 369.838 616.845 368.518 616.029C367.222 615.189 366.214 614.061 365.494 612.645C364.774 611.229 364.414 609.669 364.414 607.965C364.414 606.237 364.774 604.677 365.494 603.285C366.214 601.869 367.222 600.753 368.518 599.937C369.838 599.097 371.374 598.677 373.126 598.677C374.614 598.677 375.886 598.965 376.942 599.541C378.022 600.117 378.898 600.897 379.57 601.881V591.765H382.27V616.965H379.57V614.085C378.898 615.045 378.022 615.813 376.942 616.389C375.886 616.965 374.614 617.253 373.126 617.253ZM373.486 614.805C374.83 614.805 375.958 614.493 376.87 613.869C377.806 613.245 378.514 612.417 378.994 611.385C379.474 610.329 379.714 609.189 379.714 607.965C379.714 606.717 379.474 605.577 378.994 604.545C378.514 603.513 377.806 602.685 376.87 602.061C375.958 601.437 374.83 601.125 373.486 601.125C372.166 601.125 371.026 601.437 370.066 602.061C369.106 602.685 368.374 603.513 367.87 604.545C367.366 605.577 367.114 606.717 367.114 607.965C367.114 609.189 367.366 610.329 367.87 611.385C368.374 612.417 369.106 613.245 370.066 613.869C371.026 614.493 372.166 614.805 373.486 614.805ZM397.272 617.253C395.448 617.253 393.852 616.845 392.484 616.029C391.116 615.189 390.048 614.061 389.28 612.645C388.536 611.229 388.164 609.669 388.164 607.965C388.164 606.237 388.524 604.677 389.244 603.285C389.964 601.869 390.996 600.753 392.34 599.937C393.684 599.097 395.268 598.677 397.092 598.677C398.94 598.677 400.524 599.097 401.844 599.937C403.188 600.753 404.22 601.869 404.94 603.285C405.66 604.677 406.02 606.237 406.02 607.965V609.045H390.936C391.08 610.101 391.416 611.073 391.944 611.961C392.496 612.825 393.228 613.521 394.14 614.049C395.052 614.553 396.108 614.805 397.308 614.805C398.58 614.805 399.648 614.529 400.512 613.977C401.376 613.401 402.048 612.669 402.528 611.781H405.48C404.856 613.389 403.86 614.709 402.492 615.741C401.148 616.749 399.408 617.253 397.272 617.253ZM390.972 606.525H403.212C402.972 604.989 402.324 603.705 401.268 602.673C400.212 601.641 398.82 601.125 397.092 601.125C395.364 601.125 393.972 601.641 392.916 602.673C391.884 603.705 391.236 604.989 390.972 606.525ZM411.659 616.965V598.965H414.359V601.773C415.007 600.909 415.799 600.177 416.735 599.577C417.671 598.977 418.871 598.677 420.335 598.677C421.583 598.677 422.747 598.977 423.827 599.577C424.931 600.153 425.819 601.029 426.491 602.205C427.187 603.357 427.535 604.785 427.535 606.489V616.965H424.835V606.561C424.835 604.929 424.367 603.621 423.431 602.637C422.495 601.629 421.283 601.125 419.795 601.125C418.787 601.125 417.875 601.353 417.059 601.809C416.243 602.265 415.583 602.913 415.079 603.753C414.599 604.569 414.359 605.517 414.359 606.597V616.965H411.659ZM435.912 616.965V601.341H432.24V598.965H435.912V592.521H438.612V598.965H442.752V601.341H438.612V616.965H435.912ZM447.942 595.941V592.413H450.858V595.941H447.942ZM448.05 616.965V598.965H450.75V616.965H448.05ZM458.996 616.965V601.341H455.9V598.965H458.996V597.381C458.996 595.413 459.584 593.937 460.76 592.953C461.96 591.969 463.592 591.477 465.656 591.477H465.872V594.033H465.512C464.264 594.033 463.316 594.321 462.668 594.897C462.02 595.449 461.696 596.349 461.696 597.597V598.965H465.872V601.341H461.696V616.965H458.996ZM473.024 624.093L476.3 616.713L468.956 598.965H471.944L477.74 613.725L483.644 598.965H486.596L475.94 624.093H473.024ZM503.334 616.965V601.341H499.662V598.965H503.334V592.521H506.034V598.965H510.174V601.341H506.034V616.965H503.334ZM515.472 616.965V591.765H518.172V601.773C518.82 600.909 519.612 600.177 520.548 599.577C521.484 598.977 522.684 598.677 524.148 598.677C525.396 598.677 526.56 598.977 527.64 599.577C528.744 600.153 529.632 601.029 530.304 602.205C531 603.357 531.348 604.785 531.348 606.489V616.965H528.648V606.561C528.648 604.929 528.18 603.621 527.244 602.637C526.308 601.629 525.096 601.125 523.608 601.125C522.6 601.125 521.688 601.353 520.872 601.809C520.056 602.265 519.396 602.913 518.892 603.753C518.412 604.569 518.172 605.517 518.172 606.597V616.965H515.472ZM546.195 617.253C544.371 617.253 542.775 616.845 541.407 616.029C540.039 615.189 538.971 614.061 538.203 612.645C537.459 611.229 537.087 609.669 537.087 607.965C537.087 606.237 537.447 604.677 538.167 603.285C538.887 601.869 539.919 600.753 541.263 599.937C542.607 599.097 544.191 598.677 546.015 598.677C547.863 598.677 549.447 599.097 550.767 599.937C552.111 600.753 553.143 601.869 553.863 603.285C554.583 604.677 554.943 606.237 554.943 607.965V609.045H539.859C540.003 610.101 540.339 611.073 540.867 611.961C541.419 612.825 542.151 613.521 543.063 614.049C543.975 614.553 545.031 614.805 546.231 614.805C547.503 614.805 548.571 614.529 549.435 613.977C550.299 613.401 550.971 612.669 551.451 611.781H554.403C553.779 613.389 552.783 614.709 551.415 615.741C550.071 616.749 548.331 617.253 546.195 617.253ZM539.895 606.525H552.135C551.895 604.989 551.247 603.705 550.191 602.673C549.135 601.641 547.743 601.125 546.015 601.125C544.287 601.125 542.895 601.641 541.839 602.673C540.807 603.705 540.159 604.989 539.895 606.525ZM115.348 660.965V642.965H118.048V645.701C118.456 644.981 119.104 644.297 119.992 643.649C120.88 643.001 122.056 642.677 123.52 642.677C124.72 642.677 125.824 643.001 126.832 643.649C127.864 644.273 128.668 645.161 129.244 646.313C129.484 645.905 129.856 645.413 130.36 644.837C130.888 644.261 131.572 643.757 132.412 643.325C133.252 642.893 134.26 642.677 135.436 642.677C136.588 642.677 137.668 642.977 138.676 643.577C139.684 644.177 140.5 645.041 141.124 646.169C141.772 647.273 142.096 648.581 142.096 650.093V660.965H139.396V650.165C139.396 648.653 138.964 647.441 138.1 646.529C137.26 645.593 136.204 645.125 134.932 645.125C133.612 645.125 132.472 645.569 131.512 646.457C130.552 647.345 130.072 648.593 130.072 650.201V660.965H127.372V650.165C127.372 648.653 126.94 647.441 126.076 646.529C125.236 645.593 124.18 645.125 122.908 645.125C121.588 645.125 120.448 645.569 119.488 646.457C118.528 647.345 118.048 648.593 118.048 650.201V660.965H115.348ZM156.754 661.253C154.93 661.253 153.346 660.845 152.002 660.029C150.658 659.189 149.626 658.061 148.906 656.645C148.186 655.229 147.826 653.669 147.826 651.965C147.826 650.237 148.186 648.677 148.906 647.285C149.626 645.869 150.658 644.753 152.002 643.937C153.346 643.097 154.93 642.677 156.754 642.677C158.602 642.677 160.186 643.097 161.506 643.937C162.85 644.753 163.882 645.869 164.602 647.285C165.322 648.677 165.682 650.237 165.682 651.965C165.682 653.669 165.322 655.229 164.602 656.645C163.882 658.061 162.85 659.189 161.506 660.029C160.186 660.845 158.602 661.253 156.754 661.253ZM156.754 658.805C158.098 658.805 159.226 658.493 160.138 657.869C161.074 657.245 161.782 656.417 162.262 655.385C162.742 654.329 162.982 653.189 162.982 651.965C162.982 650.717 162.742 649.577 162.262 648.545C161.782 647.513 161.074 646.685 160.138 646.061C159.226 645.437 158.098 645.125 156.754 645.125C155.434 645.125 154.306 645.437 153.37 646.061C152.434 646.685 151.726 647.513 151.246 648.545C150.766 649.577 150.526 650.717 150.526 651.965C150.526 653.189 150.766 654.329 151.246 655.385C151.726 656.417 152.434 657.245 153.37 657.869C154.306 658.493 155.434 658.805 156.754 658.805ZM178.154 661.253C176.498 661.253 175.094 660.977 173.942 660.425C172.814 659.873 171.95 659.153 171.35 658.265C170.75 657.353 170.414 656.369 170.342 655.313H173.15C173.222 655.913 173.426 656.501 173.762 657.077C174.122 657.629 174.662 658.085 175.382 658.445C176.102 658.781 177.038 658.949 178.19 658.949C178.55 658.949 178.994 658.913 179.522 658.841C180.05 658.769 180.554 658.637 181.034 658.445C181.538 658.253 181.958 657.965 182.294 657.581C182.63 657.197 182.798 656.705 182.798 656.105C182.798 655.361 182.51 654.785 181.934 654.377C181.358 653.969 180.614 653.657 179.702 653.441C178.79 653.201 177.818 652.973 176.786 652.757C175.778 652.541 174.818 652.265 173.906 651.929C172.994 651.569 172.25 651.077 171.674 650.453C171.098 649.805 170.81 648.929 170.81 647.825C170.81 646.193 171.398 644.933 172.574 644.045C173.774 643.133 175.538 642.677 177.866 642.677C179.45 642.677 180.734 642.929 181.718 643.433C182.726 643.913 183.482 644.537 183.986 645.305C184.514 646.073 184.826 646.901 184.922 647.789H182.186C182.09 647.021 181.706 646.361 181.034 645.809C180.386 645.257 179.306 644.981 177.794 644.981C174.938 644.981 173.51 645.845 173.51 647.573C173.51 648.293 173.798 648.845 174.374 649.229C174.95 649.613 175.694 649.925 176.606 650.165C177.518 650.381 178.478 650.597 179.486 650.813C180.518 651.005 181.49 651.281 182.402 651.641C183.314 652.001 184.058 652.517 184.634 653.189C185.21 653.837 185.498 654.725 185.498 655.853C185.498 657.605 184.826 658.949 183.482 659.885C182.162 660.797 180.386 661.253 178.154 661.253ZM193.253 660.965V645.341H189.581V642.965H193.253V636.521H195.953V642.965H200.093V645.341H195.953V660.965H193.253ZM223.135 661.253C221.335 661.253 219.775 660.845 218.455 660.029C217.135 659.189 216.103 658.061 215.359 656.645C214.639 655.229 214.279 653.669 214.279 651.965C214.279 650.237 214.639 648.677 215.359 647.285C216.103 645.869 217.135 644.753 218.455 643.937C219.775 643.097 221.335 642.677 223.135 642.677C225.271 642.677 227.083 643.229 228.571 644.333C230.083 645.437 231.103 646.865 231.631 648.617H228.715C228.307 647.585 227.647 646.745 226.735 646.097C225.847 645.449 224.767 645.125 223.495 645.125C222.175 645.125 221.023 645.437 220.039 646.061C219.055 646.685 218.299 647.513 217.771 648.545C217.243 649.577 216.979 650.717 216.979 651.965C216.979 653.189 217.243 654.329 217.771 655.385C218.299 656.417 219.055 657.245 220.039 657.869C221.023 658.493 222.175 658.805 223.495 658.805C224.767 658.805 225.847 658.481 226.735 657.833C227.647 657.185 228.307 656.345 228.715 655.313H231.631C231.103 657.065 230.083 658.493 228.571 659.597C227.083 660.701 225.271 661.253 223.135 661.253ZM237.318 660.965V642.965H240.018V647.393C240.114 647.081 240.294 646.673 240.558 646.169C240.846 645.641 241.254 645.113 241.782 644.585C242.31 644.057 242.97 643.613 243.762 643.253C244.578 642.869 245.538 642.677 246.642 642.677H246.822V645.377H246.498C245.154 645.377 243.99 645.749 243.006 646.493C242.046 647.213 241.302 648.161 240.774 649.337C240.27 650.489 240.018 651.725 240.018 653.045V660.965H237.318ZM251.96 639.941V636.413H254.876V639.941H251.96ZM252.068 660.965V642.965H254.768V660.965H252.068ZM263.734 660.965V645.341H260.062V642.965H263.734V636.521H266.434V642.965H270.574V645.341H266.434V660.965H263.734ZM275.765 639.941V636.413H278.681V639.941H275.765ZM275.873 660.965V642.965H278.573V660.965H275.873ZM293.335 661.253C291.535 661.253 289.975 660.845 288.655 660.029C287.335 659.189 286.303 658.061 285.559 656.645C284.839 655.229 284.479 653.669 284.479 651.965C284.479 650.237 284.839 648.677 285.559 647.285C286.303 645.869 287.335 644.753 288.655 643.937C289.975 643.097 291.535 642.677 293.335 642.677C295.471 642.677 297.283 643.229 298.771 644.333C300.283 645.437 301.303 646.865 301.831 648.617H298.915C298.507 647.585 297.847 646.745 296.935 646.097C296.047 645.449 294.967 645.125 293.695 645.125C292.375 645.125 291.223 645.437 290.239 646.061C289.255 646.685 288.499 647.513 287.971 648.545C287.443 649.577 287.179 650.717 287.179 651.965C287.179 653.189 287.443 654.329 287.971 655.385C288.499 656.417 289.255 657.245 290.239 657.869C291.223 658.493 292.375 658.805 293.695 658.805C294.967 658.805 296.047 658.481 296.935 657.833C297.847 657.185 298.507 656.345 298.915 655.313H301.831C301.303 657.065 300.283 658.493 298.771 659.597C297.283 660.701 295.471 661.253 293.335 661.253ZM315.114 661.253C313.362 661.253 311.826 660.845 310.506 660.029C309.21 659.189 308.202 658.061 307.482 656.645C306.762 655.229 306.402 653.669 306.402 651.965C306.402 650.237 306.762 648.677 307.482 647.285C308.202 645.869 309.21 644.753 310.506 643.937C311.826 643.097 313.362 642.677 315.114 642.677C316.602 642.677 317.874 642.965 318.93 643.541C320.01 644.117 320.886 644.897 321.558 645.881V642.965H324.258V660.965H321.558V658.085C320.886 659.045 320.01 659.813 318.93 660.389C317.874 660.965 316.602 661.253 315.114 661.253ZM315.474 658.805C316.818 658.805 317.946 658.493 318.858 657.869C319.794 657.245 320.502 656.417 320.982 655.385C321.462 654.329 321.702 653.189 321.702 651.965C321.702 650.717 321.462 649.577 320.982 648.545C320.502 647.513 319.794 646.685 318.858 646.061C317.946 645.437 316.818 645.125 315.474 645.125C314.154 645.125 313.014 645.437 312.054 646.061C311.094 646.685 310.362 647.513 309.858 648.545C309.354 649.577 309.102 650.717 309.102 651.965C309.102 653.189 309.354 654.329 309.858 655.385C310.362 656.417 311.094 657.245 312.054 657.869C313.014 658.493 314.154 658.805 315.474 658.805ZM331.268 660.965V635.765H333.968V660.965H331.268ZM352.939 660.965V645.341H349.267V642.965H352.939V636.521H355.639V642.965H359.779V645.341H355.639V660.965H352.939ZM372.717 661.253C370.893 661.253 369.297 660.845 367.929 660.029C366.561 659.189 365.493 658.061 364.725 656.645C363.981 655.229 363.609 653.669 363.609 651.965C363.609 650.237 363.969 648.677 364.689 647.285C365.409 645.869 366.441 644.753 367.785 643.937C369.129 643.097 370.713 642.677 372.537 642.677C374.385 642.677 375.969 643.097 377.289 643.937C378.633 644.753 379.665 645.869 380.385 647.285C381.105 648.677 381.465 650.237 381.465 651.965V653.045H366.381C366.525 654.101 366.861 655.073 367.389 655.961C367.941 656.825 368.673 657.521 369.585 658.049C370.497 658.553 371.553 658.805 372.753 658.805C374.025 658.805 375.093 658.529 375.957 657.977C376.821 657.401 377.493 656.669 377.973 655.781H380.925C380.301 657.389 379.305 658.709 377.937 659.741C376.593 660.749 374.853 661.253 372.717 661.253ZM366.417 650.525H378.657C378.417 648.989 377.769 647.705 376.713 646.673C375.657 645.641 374.265 645.125 372.537 645.125C370.809 645.125 369.417 645.641 368.361 646.673C367.329 647.705 366.681 648.989 366.417 650.525ZM394.844 661.253C393.044 661.253 391.484 660.845 390.164 660.029C388.844 659.189 387.812 658.061 387.068 656.645C386.348 655.229 385.988 653.669 385.988 651.965C385.988 650.237 386.348 648.677 387.068 647.285C387.812 645.869 388.844 644.753 390.164 643.937C391.484 643.097 393.044 642.677 394.844 642.677C396.98 642.677 398.792 643.229 400.28 644.333C401.792 645.437 402.812 646.865 403.34 648.617H400.424C400.016 647.585 399.356 646.745 398.444 646.097C397.556 645.449 396.476 645.125 395.204 645.125C393.884 645.125 392.732 645.437 391.748 646.061C390.764 646.685 390.008 647.513 389.48 648.545C388.952 649.577 388.688 650.717 388.688 651.965C388.688 653.189 388.952 654.329 389.48 655.385C390.008 656.417 390.764 657.245 391.748 657.869C392.732 658.493 393.884 658.805 395.204 658.805C396.476 658.805 397.556 658.481 398.444 657.833C399.356 657.185 400.016 656.345 400.424 655.313H403.34C402.812 657.065 401.792 658.493 400.28 659.597C398.792 660.701 396.98 661.253 394.844 661.253ZM409.026 660.965V635.765H411.726V645.773C412.374 644.909 413.166 644.177 414.102 643.577C415.038 642.977 416.238 642.677 417.702 642.677C418.95 642.677 420.114 642.977 421.194 643.577C422.298 644.153 423.186 645.029 423.858 646.205C424.554 647.357 424.902 648.785 424.902 650.489V660.965H422.202V650.561C422.202 648.929 421.734 647.621 420.798 646.637C419.862 645.629 418.65 645.125 417.162 645.125C416.154 645.125 415.242 645.353 414.426 645.809C413.61 646.265 412.95 646.913 412.446 647.753C411.966 648.569 411.726 649.517 411.726 650.597V660.965H409.026ZM431.757 660.965V642.965H434.457V645.773C435.105 644.909 435.897 644.177 436.833 643.577C437.769 642.977 438.969 642.677 440.433 642.677C441.681 642.677 442.845 642.977 443.925 643.577C445.029 644.153 445.917 645.029 446.589 646.205C447.285 647.357 447.633 648.785 447.633 650.489V660.965H444.933V650.561C444.933 648.929 444.465 647.621 443.529 646.637C442.593 645.629 441.381 645.125 439.893 645.125C438.885 645.125 437.973 645.353 437.157 645.809C436.341 646.265 435.681 646.913 435.177 647.753C434.697 648.569 434.457 649.517 434.457 650.597V660.965H431.757ZM454.379 639.941V636.413H457.295V639.941H454.379ZM454.487 660.965V642.965H457.187V660.965H454.487ZM471.95 661.253C470.15 661.253 468.59 660.845 467.27 660.029C465.95 659.189 464.918 658.061 464.174 656.645C463.454 655.229 463.094 653.669 463.094 651.965C463.094 650.237 463.454 648.677 464.174 647.285C464.918 645.869 465.95 644.753 467.27 643.937C468.59 643.097 470.15 642.677 471.95 642.677C474.086 642.677 475.898 643.229 477.386 644.333C478.898 645.437 479.918 646.865 480.446 648.617H477.53C477.122 647.585 476.462 646.745 475.55 646.097C474.662 645.449 473.582 645.125 472.31 645.125C470.99 645.125 469.838 645.437 468.854 646.061C467.87 646.685 467.114 647.513 466.586 648.545C466.058 649.577 465.794 650.717 465.794 651.965C465.794 653.189 466.058 654.329 466.586 655.385C467.114 656.417 467.87 657.245 468.854 657.869C469.838 658.493 470.99 658.805 472.31 658.805C473.582 658.805 474.662 658.481 475.55 657.833C476.462 657.185 477.122 656.345 477.53 655.313H480.446C479.918 657.065 478.898 658.493 477.386 659.597C475.898 660.701 474.086 661.253 471.95 661.253ZM493.728 661.253C491.976 661.253 490.44 660.845 489.12 660.029C487.824 659.189 486.816 658.061 486.096 656.645C485.376 655.229 485.016 653.669 485.016 651.965C485.016 650.237 485.376 648.677 486.096 647.285C486.816 645.869 487.824 644.753 489.12 643.937C490.44 643.097 491.976 642.677 493.728 642.677C495.216 642.677 496.488 642.965 497.544 643.541C498.624 644.117 499.5 644.897 500.172 645.881V642.965H502.872V660.965H500.172V658.085C499.5 659.045 498.624 659.813 497.544 660.389C496.488 660.965 495.216 661.253 493.728 661.253ZM494.088 658.805C495.432 658.805 496.56 658.493 497.472 657.869C498.408 657.245 499.116 656.417 499.596 655.385C500.076 654.329 500.316 653.189 500.316 651.965C500.316 650.717 500.076 649.577 499.596 648.545C499.116 647.513 498.408 646.685 497.472 646.061C496.56 645.437 495.432 645.125 494.088 645.125C492.768 645.125 491.628 645.437 490.668 646.061C489.708 646.685 488.976 647.513 488.472 648.545C487.968 649.577 487.716 650.717 487.716 651.965C487.716 653.189 487.968 654.329 488.472 655.385C488.976 656.417 489.708 657.245 490.668 657.869C491.628 658.493 492.768 658.805 494.088 658.805ZM509.883 660.965V635.765H512.583V660.965H509.883ZM115.24 684.941V681.413H118.156V684.941H115.24ZM115.348 705.965V687.965H118.048V705.965H115.348ZM131.623 706.253C129.967 706.253 128.563 705.977 127.411 705.425C126.283 704.873 125.419 704.153 124.819 703.265C124.219 702.353 123.883 701.369 123.811 700.313H126.619C126.691 700.913 126.895 701.501 127.231 702.077C127.591 702.629 128.131 703.085 128.851 703.445C129.571 703.781 130.507 703.949 131.659 703.949C132.019 703.949 132.463 703.913 132.991 703.841C133.519 703.769 134.023 703.637 134.503 703.445C135.007 703.253 135.427 702.965 135.763 702.581C136.099 702.197 136.267 701.705 136.267 701.105C136.267 700.361 135.979 699.785 135.403 699.377C134.827 698.969 134.083 698.657 133.171 698.441C132.259 698.201 131.287 697.973 130.255 697.757C129.247 697.541 128.287 697.265 127.375 696.929C126.463 696.569 125.719 696.077 125.143 695.453C124.567 694.805 124.279 693.929 124.279 692.825C124.279 691.193 124.867 689.933 126.043 689.045C127.243 688.133 129.007 687.677 131.335 687.677C132.919 687.677 134.203 687.929 135.187 688.433C136.195 688.913 136.951 689.537 137.455 690.305C137.983 691.073 138.295 691.901 138.391 692.789H135.655C135.559 692.021 135.175 691.361 134.503 690.809C133.855 690.257 132.775 689.981 131.263 689.981C128.407 689.981 126.979 690.845 126.979 692.573C126.979 693.293 127.267 693.845 127.843 694.229C128.419 694.613 129.163 694.925 130.075 695.165C130.987 695.381 131.947 695.597 132.955 695.813C133.987 696.005 134.959 696.281 135.871 696.641C136.783 697.001 137.527 697.517 138.103 698.189C138.679 698.837 138.967 699.725 138.967 700.853C138.967 702.605 138.295 703.949 136.951 704.885C135.631 705.797 133.855 706.253 131.623 706.253ZM151.33 706.253C149.674 706.253 148.27 705.977 147.118 705.425C145.99 704.873 145.126 704.153 144.526 703.265C143.926 702.353 143.59 701.369 143.518 700.313H146.326C146.398 700.913 146.602 701.501 146.938 702.077C147.298 702.629 147.838 703.085 148.558 703.445C149.278 703.781 150.214 703.949 151.366 703.949C151.726 703.949 152.17 703.913 152.698 703.841C153.226 703.769 153.73 703.637 154.21 703.445C154.714 703.253 155.134 702.965 155.47 702.581C155.806 702.197 155.974 701.705 155.974 701.105C155.974 700.361 155.686 699.785 155.11 699.377C154.534 698.969 153.79 698.657 152.878 698.441C151.966 698.201 150.994 697.973 149.962 697.757C148.954 697.541 147.994 697.265 147.082 696.929C146.17 696.569 145.426 696.077 144.85 695.453C144.274 694.805 143.986 693.929 143.986 692.825C143.986 691.193 144.574 689.933 145.75 689.045C146.95 688.133 148.714 687.677 151.042 687.677C152.626 687.677 153.91 687.929 154.894 688.433C155.902 688.913 156.658 689.537 157.162 690.305C157.69 691.073 158.002 691.901 158.098 692.789H155.362C155.266 692.021 154.882 691.361 154.21 690.809C153.562 690.257 152.482 689.981 150.97 689.981C148.114 689.981 146.686 690.845 146.686 692.573C146.686 693.293 146.974 693.845 147.55 694.229C148.126 694.613 148.87 694.925 149.782 695.165C150.694 695.381 151.654 695.597 152.662 695.813C153.694 696.005 154.666 696.281 155.578 696.641C156.49 697.001 157.234 697.517 157.81 698.189C158.386 698.837 158.674 699.725 158.674 700.853C158.674 702.605 158.002 703.949 156.658 704.885C155.338 705.797 153.562 706.253 151.33 706.253ZM171.505 706.253C170.281 706.253 169.117 705.965 168.013 705.389C166.909 704.789 166.009 703.913 165.313 702.761C164.641 701.585 164.305 700.145 164.305 698.441V687.965H167.005V698.369C167.005 700.001 167.473 701.321 168.409 702.329C169.369 703.313 170.581 703.805 172.045 703.805C173.053 703.805 173.965 703.577 174.781 703.121C175.597 702.641 176.245 701.993 176.725 701.177C177.229 700.361 177.481 699.413 177.481 698.333V687.965H180.181V705.965H177.481V703.157C176.833 704.021 176.041 704.753 175.105 705.353C174.169 705.953 172.969 706.253 171.505 706.253ZM195.208 706.253C193.384 706.253 191.788 705.845 190.42 705.029C189.052 704.189 187.984 703.061 187.216 701.645C186.472 700.229 186.1 698.669 186.1 696.965C186.1 695.237 186.46 693.677 187.18 692.285C187.9 690.869 188.932 689.753 190.276 688.937C191.62 688.097 193.204 687.677 195.028 687.677C196.876 687.677 198.46 688.097 199.78 688.937C201.124 689.753 202.156 690.869 202.876 692.285C203.596 693.677 203.956 695.237 203.956 696.965V698.045H188.872C189.016 699.101 189.352 700.073 189.88 700.961C190.432 701.825 191.164 702.521 192.076 703.049C192.988 703.553 194.044 703.805 195.244 703.805C196.516 703.805 197.584 703.529 198.448 702.977C199.312 702.401 199.984 701.669 200.464 700.781H203.416C202.792 702.389 201.796 703.709 200.428 704.741C199.084 705.749 197.344 706.253 195.208 706.253ZM188.908 695.525H201.148C200.908 693.989 200.26 692.705 199.204 691.673C198.148 690.641 196.756 690.125 195.028 690.125C193.3 690.125 191.908 690.641 190.852 691.673C189.82 692.705 189.172 693.989 188.908 695.525ZM216.147 706.253C214.491 706.253 213.087 705.977 211.935 705.425C210.807 704.873 209.943 704.153 209.343 703.265C208.743 702.353 208.407 701.369 208.335 700.313H211.143C211.215 700.913 211.419 701.501 211.755 702.077C212.115 702.629 212.655 703.085 213.375 703.445C214.095 703.781 215.031 703.949 216.183 703.949C216.543 703.949 216.987 703.913 217.515 703.841C218.043 703.769 218.547 703.637 219.027 703.445C219.531 703.253 219.951 702.965 220.287 702.581C220.623 702.197 220.791 701.705 220.791 701.105C220.791 700.361 220.503 699.785 219.927 699.377C219.351 698.969 218.607 698.657 217.695 698.441C216.783 698.201 215.811 697.973 214.779 697.757C213.771 697.541 212.811 697.265 211.899 696.929C210.987 696.569 210.243 696.077 209.667 695.453C209.091 694.805 208.803 693.929 208.803 692.825C208.803 691.193 209.391 689.933 210.567 689.045C211.767 688.133 213.531 687.677 215.859 687.677C217.443 687.677 218.727 687.929 219.711 688.433C220.719 688.913 221.475 689.537 221.979 690.305C222.507 691.073 222.819 691.901 222.915 692.789H220.179C220.083 692.021 219.699 691.361 219.027 690.809C218.379 690.257 217.299 689.981 215.787 689.981C212.931 689.981 211.503 690.845 211.503 692.573C211.503 693.293 211.791 693.845 212.367 694.229C212.943 694.613 213.687 694.925 214.599 695.165C215.511 695.381 216.471 695.597 217.479 695.813C218.511 696.005 219.483 696.281 220.395 696.641C221.307 697.001 222.051 697.517 222.627 698.189C223.203 698.837 223.491 699.725 223.491 700.853C223.491 702.605 222.819 703.949 221.475 704.885C220.155 705.797 218.379 706.253 216.147 706.253Z" fill="white"/>
<path d="M1486.44 227.077L1499.34 239.975" stroke="white" stroke-width="3" stroke-linecap="round"/>
<path d="M1499.34 227.077L1486.44 239.975" stroke="white" stroke-width="3" stroke-linecap="round"/>
<circle cx="1452.44" cy="233.526" r="7.5" stroke="white" stroke-width="3"/>
<path d="M1418.44 239.526H1401.44" stroke="white" stroke-width="3" stroke-linecap="round"/>
</g>
<defs>
<filter id="filter0_d" x="610.34" y="308.947" width="1079" height="751.78" filterUnits="userSpaceOnUse" color-interpolation-filters="sRGB">
<feFlood flood-opacity="0" result="BackgroundImageFix"/>
<feColorMatrix in="SourceAlpha" type="matrix" values="0 0 0 0 0 0 0 0 0 0 0 0 0 0 0 0 0 0 127 0"/>
<feOffset dx="70" dy="70"/>
<feGaussianBlur stdDeviation="60"/>
<feColorMatrix type="matrix" values="0 0 0 0 1 0 0 0 0 1 0 0 0 0 1 0 0 0 0.14 0"/>
<feBlend mode="normal" in2="BackgroundImageFix" result="effect1_dropShadow"/>
<feBlend mode="normal" in="SourceGraphic" in2="effect1_dropShadow" result="shape"/>
</filter>
<filter id="filter1_d" x="351.607" y="745.727" width="559" height="380" filterUnits="userSpaceOnUse" color-interpolation-filters="sRGB">
<feFlood flood-opacity="0" result="BackgroundImageFix"/>
<feColorMatrix in="SourceAlpha" type="matrix" values="0 0 0 0 0 0 0 0 0 0 0 0 0 0 0 0 0 0 127 0"/>
<feOffset dx="70" dy="70"/>
<feGaussianBlur stdDeviation="60"/>
<feColorMatrix type="matrix" values="0 0 0 0 0.9 0 0 0 0 0 0 0 0 0 0 0 0 0 0.16 0"/>
<feBlend mode="normal" in2="BackgroundImageFix" result="effect1_dropShadow"/>
<feBlend mode="normal" in="SourceGraphic" in2="effect1_dropShadow" result="shape"/>
</filter>
<clipPath id="clip0">
<rect width="1600" height="1200" fill="white" transform="translate(0 0.726562)"/>
</clipPath>
</defs>
</svg>
