<svg width="1601" height="1201" viewBox="0 0 1601 1201" fill="none" xmlns="http://www.w3.org/2000/svg">
<g clip-path="url(#clip0)">
<rect width="1600" height="1200" transform="translate(0.785645 0.121338)" fill="black"/>
<path fill-rule="evenodd" clip-rule="evenodd" d="M2480.03 827.01L2431.19 807.25C2382.36 787.49 2282.6 748.21 2180.61 671.119C2076.53 594.268 1970.22 479.606 1874.79 477.898C1781.44 475.949 1698.98 586.952 1612.84 647.622C1526.7 708.291 1432.71 719.105 1336.48 692.109C1238.16 665.353 1137.61 600.786 1043.62 611.601C951.718 622.175 866.372 708.132 781.673 781.324C696.974 854.517 608.746 915.427 513.96 900.954C417.086 886.721 313.654 797.107 216.78 782.874C121.994 768.402 33.7659 829.311 -9.30384 859.646L-52.3738 889.98L-0.498504 1340.83L45.4534 1335.54C91.4051 1330.26 185.398 1319.44 277.301 1308.87C371.294 1298.05 463.198 1287.48 557.19 1276.66C649.093 1266.09 743.086 1255.27 834.989 1244.7C926.893 1234.12 1065.48 1346.12 1157.39 1335.54C1251.38 1324.73 1343.28 1314.15 1437.28 1303.34C1529.18 1292.77 1623.17 1281.95 1715.08 1271.38C1806.98 1260.8 1900.97 1249.99 1992.88 1239.41C2086.87 1228.6 2178.77 1218.02 2272.76 1207.21C2364.67 1196.63 2458.66 1185.82 2504.61 1180.53L2550.56 1175.24L2480.03 827.01Z" fill="white"/>
<rect x="51.2856" y="187.621" width="1498" height="826" rx="38.5" stroke="white" stroke-width="3"/>
<path d="M917.008 788.529L959.125 788.029L959.625 805.029L923.755 805.223L917.008 788.529Z" fill="white"/>
<rect x="1237.81" y="800.196" width="88.6699" height="4.86515" fill="white"/>
<g filter="url(#filter0_d)">
<rect x="661.125" y="358.342" width="839" height="511.78" rx="48" fill="white"/>
<rect x="662.125" y="359.342" width="837" height="509.78" rx="47" stroke="white" stroke-width="2"/>
</g>
<path d="M784.905 749.404C782.483 732.827 795.336 717.96 812.09 717.96C828.696 717.96 841.506 732.579 839.325 749.042L834.826 783.004C833.331 794.291 823.706 802.725 812.32 802.725C801.049 802.725 791.485 794.456 789.856 783.303L784.905 749.404Z" fill="#47DB99" stroke="black" stroke-width="2"/>
<path d="M839.108 790.502L831.361 831.173L792.377 831.173L784.63 790.502L839.108 790.502Z" fill="white" stroke="black" stroke-width="2"/>
<path d="M811.158 717.671C794.801 726.917 794.089 736.162 794.089 746.83C794.089 755.383 797.171 773.855 798.357 783.1" stroke="black" stroke-width="2"/>
<path d="M813.292 717.671C829.649 726.917 830.36 736.162 830.36 746.83C830.36 755.383 827.279 773.855 826.093 783.1" stroke="black" stroke-width="2"/>
<path d="M830.36 747.541L833.204 746.83M827.515 731.895H824.67M812.58 736.162L814.714 734.74M809.735 751.808L812.58 753.231M813.291 771.722L815.425 771.01M796.223 769.588L798.356 768.166M794.089 753.231L791.244 751.808M796.223 732.607L798.356 733.318" stroke="black" stroke-width="2"/>
<path d="M811.868 717.671L812.58 783.1" stroke="black" stroke-width="2"/>
<path d="M786.266 775.989H788.4M781.999 744.697H784.133M793.378 721.939L794.8 723.362M831.071 724.784L833.204 723.362M838.894 754.654L841.739 755.365M838.894 774.567L836.049 775.989M828.937 764.61L825.381 766.033" stroke="black" stroke-width="2"/>
<rect x="845.006" y="794.073" width="66.2737" height="10.6818" transform="rotate(180 845.006 794.073)" fill="white" stroke="black" stroke-width="2"/>
<path d="M1447.3 500.731L1447.3 503.884L1426.28 503.884L1426.28 500.731L1447.3 500.731Z" fill="#E4ECF4"/>
<path d="M1447.3 509.139L1447.3 512.292L1426.28 512.292L1426.28 509.139L1447.3 509.139Z" fill="#E4ECF4"/>
<path d="M1447.3 517.517L1447.3 520.67L1426.28 520.67L1426.28 517.517L1447.3 517.517Z" fill="#E4ECF4"/>
<path d="M1447.3 525.467L1447.3 528.62L1426.28 528.62L1426.28 525.467L1447.3 525.467Z" fill="#E4ECF4"/>
<path d="M1426.28 550.105H1447.3V571.125H1426.28V550.105Z" fill="#E4ECF4"/>
<path d="M1415.77 560.616H1436.79V581.636H1415.77V560.616Z" fill="#47DB99"/>
<path d="M1383.17 499.154L1383.17 502.307L1362.15 502.307L1362.15 499.154L1383.17 499.154Z" fill="#E4ECF4"/>
<path d="M1383.17 507.563L1383.17 510.716L1362.15 510.716L1362.15 507.563L1383.17 507.563Z" fill="#E4ECF4"/>
<path d="M1383.17 515.941L1383.17 519.094L1362.15 519.094L1362.15 515.941L1383.17 515.941Z" fill="#E4ECF4"/>
<path d="M1383.17 523.891L1383.17 527.044L1362.15 527.044L1362.15 523.891L1383.17 523.891Z" fill="#E4ECF4"/>
<path d="M1383.17 532.726L1383.17 535.879L1362.15 535.879L1362.15 532.726L1383.17 532.726Z" fill="#E4ECF4"/>
<path d="M1383.17 540.677L1383.17 543.83L1362.15 543.83L1362.15 540.677L1383.17 540.677Z" fill="#E4ECF4"/>
<path d="M1383.17 548.627L1383.17 551.78L1362.15 551.78L1362.15 548.627L1383.17 548.627Z" fill="#E4ECF4"/>
<path d="M1383.17 557.462L1383.17 560.615L1362.15 560.615L1362.15 557.462L1383.17 557.462Z" fill="#E4ECF4"/>
<path d="M959.732 653.407C959.732 565.606 1030.88 494.456 1118.62 494.456C1206.35 494.456 1277.5 565.606 1277.5 653.407C1277.5 705.167 1252.8 751.182 1214.38 780.261H1022.86C984.432 751.182 959.732 705.167 959.732 653.407Z" stroke="#E4ECF4" stroke-width="100"/>
<path d="M1273.73 705.289L1226.82 830.669H1117.82L1186.99 687.298C1205.79 687.256 1245.24 687.197 1252.63 687.298C1261.87 687.424 1265.73 686.544 1271.52 691.954C1276.15 696.282 1274.92 702.647 1273.73 705.289Z" fill="black"/>
<path fill-rule="evenodd" clip-rule="evenodd" d="M1187.91 688.752C1207.05 688.711 1245.35 688.655 1252.61 688.754C1253.97 688.773 1255.2 688.771 1256.32 688.769C1259.1 688.765 1261.2 688.761 1263.13 689.081C1265.65 689.5 1267.81 690.484 1270.53 693.018C1272.51 694.868 1273.25 697.151 1273.35 699.326C1273.46 701.532 1272.91 703.554 1272.4 704.689L1272.38 704.734L1225.81 829.213H1120.14L1187.91 688.752ZM1252.65 685.842C1245.24 685.741 1205.78 685.8 1186.99 685.842L1186.07 685.844L1115.5 832.126H1227.83L1275.07 705.844C1275.75 704.333 1276.4 701.874 1276.26 699.182C1276.13 696.432 1275.17 693.368 1272.51 690.89C1269.44 688.014 1266.77 686.732 1263.6 686.208C1261.42 685.846 1258.96 685.85 1256.06 685.855C1254.99 685.856 1253.85 685.858 1252.65 685.842Z" fill="black"/>
<path d="M1165.85 687.152C1165.85 691.003 1155.86 694.124 1143.55 694.124C1131.23 694.124 1121.25 691.003 1121.25 687.152C1121.25 683.302 1131.23 680.18 1143.55 680.18C1155.86 680.18 1165.85 683.302 1165.85 687.152Z" fill="white"/>
<path fill-rule="evenodd" clip-rule="evenodd" d="M1162.97 686.936C1162.97 686.936 1162.97 686.941 1162.96 686.952C1162.97 686.941 1162.97 686.936 1162.97 686.936ZM1162.8 687.152C1162.71 687.058 1162.57 686.933 1162.36 686.78C1161.6 686.215 1160.31 685.583 1158.45 685.002C1154.76 683.85 1149.5 683.093 1143.55 683.093C1137.6 683.093 1132.33 683.85 1128.65 685.002C1126.79 685.583 1125.5 686.215 1124.73 686.78C1124.53 686.933 1124.39 687.058 1124.3 687.152C1124.39 687.247 1124.53 687.371 1124.73 687.524C1125.5 688.089 1126.79 688.721 1128.65 689.302C1132.33 690.454 1137.6 691.212 1143.55 691.212C1149.5 691.212 1154.76 690.454 1158.45 689.302C1160.31 688.721 1161.6 688.089 1162.36 687.524C1162.57 687.371 1162.71 687.247 1162.8 687.152ZM1124.13 686.936C1124.13 686.936 1124.13 686.941 1124.13 686.952C1124.13 686.941 1124.13 686.936 1124.13 686.936ZM1124.13 687.368C1124.13 687.368 1124.13 687.363 1124.13 687.353C1124.13 687.363 1124.13 687.368 1124.13 687.368ZM1162.96 687.353C1162.97 687.363 1162.97 687.368 1162.97 687.368C1162.97 687.368 1162.97 687.363 1162.96 687.353ZM1143.55 694.124C1155.86 694.124 1165.85 691.003 1165.85 687.152C1165.85 683.302 1155.86 680.18 1143.55 680.18C1131.23 680.18 1121.25 683.302 1121.25 687.152C1121.25 691.003 1131.23 694.124 1143.55 694.124Z" fill="black"/>
<path d="M1113.03 676.262C1130.07 678.001 1142.48 692.539 1140.92 708.687L1090.79 822.479L1041.09 818.152L1041.13 818.027C1041.43 817.156 1041.87 815.877 1042.43 814.246C1043.54 810.984 1045.14 806.311 1047.07 800.67C1050.94 789.389 1056.13 774.233 1061.46 758.74C1072.13 727.732 1083.32 695.424 1085.45 690.035C1089.51 679.766 1100.75 675.008 1113.03 676.262Z" fill="white" stroke="black" stroke-width="2"/>
<path d="M1155.6 687V646L1118.6 649.844V687H1155.6Z" fill="white" stroke="black" stroke-width="2"/>
<path fill-rule="evenodd" clip-rule="evenodd" d="M1097.1 564.89C1102.67 556.791 1111.55 552.027 1121.69 550.145C1137.05 547.296 1148.04 549.363 1155.81 554.554C1163.59 559.753 1167.95 567.955 1170.26 576.943C1174.4 593.032 1172.09 612.069 1170.86 622.168C1169.37 634.484 1164.11 644.192 1153.52 649.896C1144.68 654.655 1133.75 656.074 1123.96 654.349C1119.04 653.484 1115.03 651.877 1111.67 649.323C1108.3 646.768 1105.66 643.318 1103.44 638.875C1099.01 630.06 1096.12 617.135 1092.4 599.072C1089.36 584.334 1091.51 573.011 1097.1 564.89Z" fill="white" stroke="black" stroke-width="2" stroke-linecap="round"/>
<path d="M1134.74 548.814C1183.89 550.43 1180.09 603.891 1175.06 620.557C1172.33 633.147 1165 640.98 1163.15 643.549C1155.1 642.538 1158.99 619.851 1163.99 620.539C1169.23 620.547 1171.56 608.614 1169.2 604.175C1167.32 600.624 1162.01 603.648 1160.39 605.432C1156.53 553.978 1088.64 556.948 1090.21 589.778C1090.21 589.778 1086.05 547.213 1134.74 548.814Z" fill="black"/>
<path d="M1128.84 555.345C1129.52 553.41 1131.5 552.422 1134.74 551.175C1137.96 549.931 1146.07 549.651 1152.97 553.346C1160.12 557.173 1163.72 560.046 1168.93 561.609C1174.14 563.172 1177.76 561.87 1176.72 556.88C1175.4 550.57 1166.73 550.012 1168.98 556.361" stroke="black" stroke-width="3" stroke-linecap="round"/>
<path d="M1119.6 646H1154.6V674H1119.6V646Z" fill="white"/>
<path d="M1128.57 583.973L1090.6 591.367L1091.53 577.936L1098.06 563.613L1159.6 562L1158.16 594C1158.16 594 1154.95 584.974 1149.27 583.151C1143.59 581.328 1134.82 583.151 1134.82 583.151V574.691L1128.57 583.973Z" fill="black"/>
<path d="M1152.59 558.667C1152.38 558.938 1152.29 559.262 1152.32 559.634C1152.36 560.012 1152.54 560.467 1152.95 560.972C1153.77 561.988 1155.46 563.137 1158.42 564.15C1161.47 565.198 1163.04 566.657 1163.7 568.137C1164.36 569.615 1164.07 571.029 1163.59 571.893" stroke="white" stroke-width="2" stroke-linecap="round"/>
<path d="M1103.25 604.426C1103.5 605.859 1103.01 607.138 1102.16 607.284C1101.31 607.431 1100.42 606.388 1100.18 604.955C1099.93 603.522 1100.42 602.243 1101.27 602.097C1102.12 601.95 1103.01 602.993 1103.25 604.426Z" fill="black"/>
<path d="M1131.16 600.594C1131.41 602.027 1130.92 603.306 1130.07 603.452C1129.22 603.598 1128.33 602.555 1128.09 601.123C1127.84 599.69 1128.33 598.41 1129.18 598.264C1130.02 598.118 1130.91 599.161 1131.16 600.594Z" fill="black"/>
<path d="M1123.23 634.473C1129.39 634.473 1134.39 631.159 1134.39 627.069" stroke="black" stroke-width="2" stroke-linecap="round"/>
<path d="M1114.35 608.809L1109.97 618.193L1119.67 620.382" stroke="black" stroke-width="2" stroke-linecap="round"/>
<path d="M1174.13 659.245C1174.13 659.245 1121.27 670.781 1115.57 672.119C1109.87 673.457 1104.63 676.703 1100.47 681.225C1096.31 685.746 1092.88 694.116 1091.81 698.808C1090.73 703.5 1070.73 831 1070.73 831L1192.2 831C1193.85 787.669 1197.24 698.997 1197.64 690.959C1198.14 680.911 1196.65 676.515 1192.2 666.781C1188.63 658.994 1178.66 658.513 1174.13 659.245Z" fill="black"/>
<path d="M1101.23 698.335L1117.01 696.509L1115.97 706.053L1100.19 707.88L1101.23 698.335Z" fill="#C4C4C4"/>
<path d="M1101.23 698.335L1117.01 696.509L1115.97 706.053L1100.19 707.88L1101.23 698.335Z" fill="white"/>
<path d="M1095.72 698.976L1101.23 698.339L1100.19 707.883L1094.68 708.52L1095.72 698.976Z" fill="#FF4B78"/>
<path d="M1096.91 701.349L1099.48 701.052L1099 705.506L1096.43 705.803L1096.91 701.349Z" fill="white"/>
<path d="M1156.06 792.138L1156.86 791.978V791.157V687.477C1157.05 673.323 1165.38 661.06 1176.92 658.486C1189.97 655.576 1202.8 666.109 1205.26 682.573C1205.86 686.559 1205.87 690.235 1205.4 693.579L1205.4 693.6L1205.4 693.621L1192.29 830.996L1088.42 830.505L1079.59 807.251L1156.06 792.138Z" fill="white" stroke="black" stroke-width="2"/>
<path d="M1127.73 817H942.732L946.398 831H1127.73V817Z" fill="white" stroke="black" stroke-width="2"/>
<path d="M957.507 830.67L916.732 708.52H1063.91L1098.09 830.67H957.507Z" fill="white" stroke="black" stroke-width="2"/>
<path d="M716.711 518.333C716.711 509.268 724.06 501.92 733.124 501.92H943.212C952.277 501.92 959.625 509.268 959.625 518.333V524.898H716.711V518.333Z" fill="#2C73FB"/>
<path d="M958.624 668.333L717.71 668.333L717.71 525.898L958.624 525.898L958.624 668.333Z" fill="#E4ECF4" stroke="#2C73FB" stroke-width="2"/>
<rect width="78" height="46" transform="translate(753.362 544.841)" fill="white"/>
<path fill-rule="evenodd" clip-rule="evenodd" d="M792.362 557.841C793.151 557.841 793.791 558.48 793.791 559.269V576.412C793.791 577.201 793.151 577.841 792.362 577.841C791.573 577.841 790.933 577.201 790.933 576.412V559.269C790.933 558.48 791.573 557.841 792.362 557.841Z" fill="#2C73FB"/>
<path fill-rule="evenodd" clip-rule="evenodd" d="M802.362 567.84C802.362 568.629 801.722 569.269 800.933 569.269H783.791C783.002 569.269 782.362 568.629 782.362 567.84C782.362 567.052 783.002 566.412 783.791 566.412H800.933C801.722 566.412 802.362 567.052 802.362 567.84Z" fill="#2C73FB"/>
<path d="M739.689 514.812C739.689 516.625 738.219 518.094 736.406 518.094C734.593 518.094 733.123 516.625 733.123 514.812C733.123 512.999 734.593 511.529 736.406 511.529C738.219 511.529 739.689 512.999 739.689 514.812Z" fill="white"/>
<path d="M754.254 514.812C754.254 516.625 752.784 518.094 750.971 518.094C749.158 518.094 747.688 516.625 747.688 514.812C747.688 512.999 749.158 511.529 750.971 511.529C752.784 511.529 754.254 512.999 754.254 514.812Z" fill="white"/>
<path d="M768.819 514.812C768.819 516.625 767.349 518.094 765.536 518.094C763.723 518.094 762.254 516.625 762.254 514.812C762.254 512.999 763.723 511.529 765.536 511.529C767.349 511.529 768.819 512.999 768.819 514.812Z" fill="white"/>
<g clip-path="url(#clip1)">
<rect width="78.7829" height="45.9567" transform="translate(845.362 544.434)" fill="white"/>
<path d="M862.516 569.502L838.797 590.391H930.71V581.438L904.026 557.565L877.341 584.423L862.516 569.502Z" fill="#2C73FB"/>
<path d="M867.922 557.565C867.922 559.378 866.452 560.847 864.639 560.847C862.826 560.847 861.357 559.378 861.357 557.565C861.357 555.752 862.826 554.282 864.639 554.282C866.452 554.282 867.922 555.752 867.922 557.565Z" fill="#2C73FB"/>
</g>
<g clip-path="url(#clip2)">
<rect width="78.7829" height="45.9567" transform="translate(752.884 604.841)" fill="white"/>
<path fill-rule="evenodd" clip-rule="evenodd" d="M762.732 644.555L774.246 636.006C775.854 634.856 779.129 632.554 782.403 633.129C785.735 633.705 789.009 637.157 792.284 639.171C795.558 641.185 798.833 641.76 802.107 640.322C805.382 638.883 808.713 635.431 811.988 634.568C815.262 633.705 818.537 635.431 821.811 637.445C825.085 639.459 828.36 641.76 831.692 640.897C834.966 640.034 838.241 636.006 839.849 633.993L841.515 631.979V647.514H839.849C838.241 647.514 834.966 647.514 831.692 647.514C828.36 647.514 825.085 647.514 821.811 647.514C818.537 647.514 815.262 647.514 811.988 647.514C808.713 647.514 805.382 647.514 802.107 647.514C798.833 647.514 795.558 647.514 792.284 647.514C789.009 647.514 785.735 647.514 782.403 647.514C779.129 647.514 775.854 647.514 774.246 647.514H772.58L762.732 644.555Z" fill="#E4ECF4"/>
<path d="M763.508 639.815C755.868 639.815 748.865 647.137 746.319 650.797C786.267 650.638 851.363 650.797 851.363 650.797C851.363 650.797 846.588 644.113 842.291 639.338C839.097 635.789 830.354 624.536 816.03 624.536C801.706 624.536 790.246 645.545 781.174 645.545C772.102 645.545 773.057 639.815 763.508 639.815Z" fill="#0099FF"/>
</g>
<rect width="78.7829" height="45.9567" transform="translate(845.667 604.841)" fill="white"/>
<path d="M868.645 616.33C868.645 618.143 867.176 619.612 865.363 619.612C863.55 619.612 862.08 618.143 862.08 616.33C862.08 614.517 863.55 613.047 865.363 613.047C867.176 613.047 868.645 614.517 868.645 616.33Z" fill="#2C73FB"/>
<path fill-rule="evenodd" clip-rule="evenodd" d="M906.396 616.33C906.396 617.236 905.661 617.971 904.754 617.971H875.211C874.304 617.971 873.569 617.236 873.569 616.33C873.569 615.423 874.304 614.688 875.211 614.688H904.754C905.661 614.688 906.396 615.423 906.396 616.33Z" fill="#E4ECF4"/>
<path d="M868.645 627.819C868.645 629.632 867.176 631.102 865.363 631.102C863.55 631.102 862.08 629.632 862.08 627.819C862.08 626.006 863.55 624.536 865.363 624.536C867.176 624.536 868.645 626.006 868.645 627.819Z" fill="#47DB99"/>
<path fill-rule="evenodd" clip-rule="evenodd" d="M906.396 627.819C906.396 628.725 905.661 629.46 904.754 629.46H875.211C874.304 629.46 873.569 628.725 873.569 627.819C873.569 626.912 874.304 626.178 875.211 626.178H904.754C905.661 626.178 906.396 626.912 906.396 627.819Z" fill="#E4ECF4"/>
<path d="M868.645 639.308C868.645 641.121 867.176 642.591 865.363 642.591C863.55 642.591 862.08 641.121 862.08 639.308C862.08 637.495 863.55 636.025 865.363 636.025C867.176 636.025 868.645 637.495 868.645 639.308Z" fill="#FF3366"/>
<path fill-rule="evenodd" clip-rule="evenodd" d="M906.396 639.308C906.396 640.214 905.661 640.949 904.754 640.949H875.211C874.304 640.949 873.569 640.214 873.569 639.308C873.569 638.402 874.304 637.667 875.211 637.667H904.754C905.661 637.667 906.396 638.402 906.396 639.308Z" fill="#E4ECF4"/>
<path d="M1343.73 404C1343.73 402.895 1344.63 402 1345.73 402H1443.67C1444.78 402 1445.67 402.895 1445.67 404V461.164C1445.67 462.269 1444.78 463.164 1443.67 463.164H1345.73C1344.63 463.164 1343.73 462.269 1343.73 461.164V404Z" fill="#E4ECF4"/>
<path fill-rule="evenodd" clip-rule="evenodd" d="M1343.73 446.479L1344.92 448.643C1346.19 450.807 1348.57 455.134 1351.03 455.134C1353.41 455.134 1355.87 450.807 1358.25 450.266C1360.71 449.725 1363.17 452.97 1365.55 452.429C1368.01 451.888 1370.39 447.561 1372.85 448.102C1375.22 448.643 1377.69 454.052 1380.15 452.429C1382.52 450.807 1384.99 442.152 1387.36 438.907C1389.82 435.662 1392.2 437.825 1394.66 442.152C1397.13 446.479 1399.5 452.97 1401.96 456.216C1404.34 459.461 1406.8 459.461 1409.18 458.379C1411.64 457.297 1414.1 455.134 1416.48 450.807C1418.94 446.479 1421.32 439.989 1423.78 436.202C1426.16 432.416 1428.62 431.334 1431.08 434.58C1433.46 437.825 1435.92 445.398 1438.29 448.643C1440.76 451.888 1443.13 450.807 1444.41 450.266L1445.59 449.725V462.706H1444.41C1443.13 462.706 1440.76 462.706 1438.29 462.706C1435.92 462.706 1433.46 462.706 1431.08 462.706C1428.62 462.706 1426.16 462.706 1423.78 462.706C1421.32 462.706 1418.94 462.706 1416.48 462.706C1414.1 462.706 1411.64 462.706 1409.18 462.706C1406.8 462.706 1404.34 462.706 1401.96 462.706C1399.5 462.706 1397.13 462.706 1394.66 462.706C1392.2 462.706 1389.82 462.706 1387.36 462.706C1384.99 462.706 1382.52 462.706 1380.15 462.706C1377.69 462.706 1375.22 462.706 1372.85 462.706C1370.39 462.706 1368.01 462.706 1365.55 462.706C1363.17 462.706 1360.71 462.706 1358.25 462.706C1355.87 462.706 1353.41 462.706 1351.03 462.706C1348.57 462.706 1346.19 462.706 1344.92 462.706H1343.73V446.479Z" fill="#0099FF"/>
<path d="M803.733 433.577C803.733 430.689 806.447 428.348 809.795 428.348C813.144 428.348 815.858 430.689 815.858 433.577V463.904C815.858 466.792 813.144 469.133 809.795 469.133C806.447 469.133 803.733 466.792 803.733 463.904V433.577Z" fill="#47DB99"/>
<path d="M856.643 425.999C856.643 422.426 859.357 419.529 862.706 419.529C866.054 419.529 868.768 422.426 868.768 425.999V462.663C868.768 466.236 866.054 469.133 862.706 469.133C859.357 469.133 856.643 466.236 856.643 462.663V425.999Z" fill="#E4ECF4"/>
<path d="M821.369 448.74C821.369 445.392 824.084 442.678 827.432 442.678C830.78 442.678 833.495 445.392 833.495 448.74V463.07C833.495 466.419 830.78 469.133 827.432 469.133C824.084 469.133 821.369 466.419 821.369 463.07V448.74Z" fill="#FF4B78"/>
<path d="M839.006 438.079C839.006 434.531 841.721 431.655 845.069 431.655C848.417 431.655 851.132 434.531 851.132 438.079V462.708C851.132 466.256 848.417 469.133 845.069 469.133C841.721 469.133 839.006 466.256 839.006 462.708V438.079Z" fill="#2C73FB"/>
<path d="M874.28 461.417C874.28 457.764 876.994 454.803 880.343 454.803C883.691 454.803 886.405 457.764 886.405 461.417V462.519C886.405 466.172 883.691 469.133 880.343 469.133C876.994 469.133 874.28 466.172 874.28 462.519V461.417Z" fill="#47DB99"/>
<path d="M1208.69 488.832C1192.15 484.398 1182.33 467.388 1186.76 450.839C1191.19 434.29 1208.2 424.469 1224.75 428.903C1241.3 433.337 1251.12 450.348 1246.69 466.897C1242.25 483.446 1225.24 493.267 1208.69 488.832Z" fill="#E4F4E6"/>
<path d="M1247.74 458.867C1247.74 465.002 1245.92 471 1242.51 476.102C1239.11 481.203 1234.26 485.179 1228.59 487.527C1222.93 489.875 1216.69 490.489 1210.67 489.292C1204.65 488.095 1199.13 485.141 1194.79 480.802C1190.45 476.464 1187.5 470.936 1186.3 464.919C1185.1 458.901 1185.72 452.664 1188.06 446.995C1190.41 441.327 1194.39 436.482 1199.49 433.073C1204.59 429.664 1210.59 427.845 1216.72 427.845V458.867H1247.74Z" fill="#47DB99"/>
<path d="M747.443 831.266C1007.8 831.266 1153.77 831.266 1414.12 831.266" stroke="black" stroke-width="2" stroke-linecap="round"/>
<path d="M1242.5 544.08C1272.08 548.306 1332.67 570.535 1338.4 625.651C1344.14 680.766 1327.93 766.561 1319.11 802.57" stroke="black" stroke-width="2"/>
<path d="M1418.23 651.786C1401.3 649.849 1364.04 654.772 1350.38 689.96C1336.72 725.147 1329.14 783.918 1327.07 808.905" stroke="black" stroke-width="2"/>
<rect x="1375.98" y="769.603" width="97.2072" height="11.2276" transform="rotate(180 1375.98 769.603)" fill="white" stroke="black" stroke-width="2"/>
<path d="M1366.92 769.585L1355.58 831.121L1298.67 831.121L1287.33 769.585L1366.92 769.585Z" fill="white" stroke="black" stroke-width="2"/>
<path d="M1326.6 546.923C1323.82 556.657 1317.38 561.416 1311.59 563.767C1308.69 564.946 1305.95 565.516 1303.95 565.791C1302.94 565.928 1302.12 565.99 1301.56 566.019C1301.32 566.031 1301.12 566.037 1300.98 566.04C1300.86 565.963 1300.7 565.854 1300.5 565.715C1300.03 565.394 1299.37 564.908 1298.59 564.263C1297.03 562.97 1295.01 561.043 1293.17 558.51C1289.49 553.461 1286.53 546.015 1289.3 536.281C1292.1 526.483 1299.42 518.903 1306.13 513.738C1309.48 511.165 1312.66 509.212 1314.99 507.904C1316.16 507.25 1317.11 506.758 1317.77 506.431C1317.86 506.388 1317.94 506.347 1318.02 506.31C1318.07 506.382 1318.12 506.46 1318.17 506.543C1318.56 507.17 1319.11 508.092 1319.75 509.263C1321.05 511.607 1322.71 514.939 1324.2 518.893C1327.18 526.825 1329.4 537.124 1326.6 546.923Z" fill="#47DB99" stroke="black" stroke-width="2"/>
<path d="M1302.56 577.733C1309.72 576.262 1314.91 578.799 1318.35 581.72C1320.08 583.188 1321.36 584.752 1322.21 585.951C1322.63 586.549 1322.95 587.053 1323.15 587.403C1323.22 587.518 1323.28 587.615 1323.32 587.695C1323.31 587.785 1323.3 587.897 1323.28 588.028C1323.23 588.432 1323.14 589.019 1322.99 589.735C1322.68 591.171 1322.12 593.114 1321.11 595.144C1319.1 599.185 1315.33 603.564 1308.17 605.036C1300.94 606.521 1293.6 604.362 1287.99 601.757C1285.2 600.46 1282.87 599.067 1281.24 597.999C1280.44 597.479 1279.82 597.037 1279.38 596.722C1279.66 596.262 1280.06 595.608 1280.58 594.817C1281.66 593.192 1283.26 590.993 1285.31 588.701C1289.44 584.096 1295.33 579.219 1302.56 577.733Z" fill="#47DB99" stroke="black" stroke-width="2"/>
<path d="M1226.26 550.036C1231.08 544.533 1236.75 543.415 1241.26 543.664C1243.52 543.789 1245.49 544.261 1246.89 544.702C1247.59 544.923 1248.14 545.134 1248.52 545.289C1248.64 545.34 1248.74 545.384 1248.83 545.421C1248.87 545.498 1248.93 545.595 1249 545.71C1249.2 546.062 1249.48 546.584 1249.79 547.247C1250.42 548.577 1251.14 550.464 1251.57 552.691C1252.41 557.124 1252.05 562.892 1247.24 568.395C1242.37 573.948 1235.22 576.663 1229.18 577.977C1226.18 578.631 1223.48 578.93 1221.53 579.066C1220.58 579.132 1219.82 579.159 1219.28 579.17C1219.22 578.638 1219.15 577.874 1219.09 576.926C1218.96 574.979 1218.9 572.264 1219.15 569.197C1219.66 563.035 1221.4 555.588 1226.26 550.036Z" fill="#47DB99" stroke="black" stroke-width="2"/>
<path d="M1363.86 638.593C1358.16 643.166 1352.38 643.273 1347.99 642.238C1345.78 641.718 1343.93 640.909 1342.62 640.229C1341.97 639.889 1341.47 639.584 1341.12 639.366C1341.01 639.294 1340.92 639.233 1340.84 639.182C1340.81 639.097 1340.77 638.992 1340.72 638.867C1340.59 638.485 1340.4 637.922 1340.21 637.214C1339.83 635.795 1339.44 633.811 1339.42 631.544C1339.36 627.032 1340.73 621.415 1346.43 616.842C1352.19 612.227 1359.71 610.807 1365.89 610.573C1368.96 610.456 1371.67 610.634 1373.61 610.842C1374.56 610.943 1375.32 611.051 1375.84 611.134C1375.81 611.668 1375.75 612.433 1375.64 613.377C1375.42 615.315 1375.01 617.999 1374.22 620.975C1372.65 626.953 1369.62 633.979 1363.86 638.593Z" fill="#47DB99" stroke="black" stroke-width="2"/>
<path d="M1316.09 728.982C1321.8 733.555 1327.58 733.662 1331.97 732.627C1334.18 732.107 1336.03 731.298 1337.33 730.618C1337.98 730.278 1338.49 729.973 1338.83 729.754C1338.95 729.683 1339.04 729.621 1339.12 729.571C1339.15 729.486 1339.19 729.381 1339.23 729.256C1339.37 728.874 1339.56 728.311 1339.75 727.603C1340.13 726.184 1340.51 724.199 1340.54 721.933C1340.59 717.42 1339.23 711.804 1333.52 707.231C1327.76 702.616 1320.25 701.196 1314.07 700.962C1311 700.845 1308.29 701.023 1306.35 701.231C1305.4 701.332 1304.64 701.439 1304.11 701.523C1304.15 702.057 1304.21 702.822 1304.31 703.766C1304.53 705.704 1304.95 708.387 1305.74 711.363C1307.31 717.342 1310.34 724.367 1316.09 728.982Z" fill="#47DB99" stroke="black" stroke-width="2"/>
<path d="M1367 699.542C1360.48 696.232 1358 691.013 1357.13 686.586C1356.69 684.361 1356.66 682.34 1356.74 680.873C1356.78 680.142 1356.85 679.552 1356.91 679.149C1356.93 679.018 1356.95 678.907 1356.96 678.817C1357.02 678.752 1357.1 678.673 1357.2 678.58C1357.49 678.296 1357.92 677.893 1358.49 677.428C1359.63 676.496 1361.27 675.325 1363.33 674.365C1367.42 672.454 1373.09 671.378 1379.62 674.687C1386.2 678.027 1390.59 684.286 1393.36 689.816C1394.73 692.569 1395.69 695.11 1396.3 696.963C1396.6 697.864 1396.82 698.601 1396.96 699.117C1396.46 699.307 1395.74 699.568 1394.83 699.86C1392.98 700.459 1390.36 701.188 1387.32 701.702C1381.23 702.735 1373.58 702.882 1367 699.542Z" fill="#47DB99" stroke="black" stroke-width="2"/>
<path d="M1407.05 674.73C1403.42 668.385 1404.21 662.659 1405.91 658.479C1406.76 656.38 1407.85 654.674 1408.72 653.493C1409.16 652.904 1409.54 652.448 1409.81 652.143C1409.89 652.044 1409.97 651.96 1410.03 651.893C1410.12 651.874 1410.23 651.851 1410.36 651.826C1410.76 651.748 1411.34 651.65 1412.07 651.572C1413.53 651.416 1415.55 651.341 1417.8 651.665C1422.26 652.31 1427.6 654.526 1431.24 660.87C1434.91 667.273 1435.15 674.918 1434.43 681.058C1434.07 684.115 1433.47 686.764 1432.97 688.648C1432.72 689.566 1432.5 690.3 1432.33 690.809C1431.81 690.694 1431.06 690.516 1430.15 690.264C1428.27 689.747 1425.68 688.921 1422.86 687.686C1417.2 685.206 1410.72 681.132 1407.05 674.73Z" fill="#47DB99" stroke="black" stroke-width="2"/>
<path d="M924.432 830.371L924.531 831.261H925.426H959.55H960.446L960.544 830.371L966.749 774.378L966.872 773.268H965.755H919.222H918.105L918.228 774.378L924.432 830.371Z" fill="#E4ECF4" stroke="black" stroke-width="2"/>
<path d="M916.025 765.593L915.732 765.886V766.3V773.065V774.065H916.732H968.244H969.244V773.065V766.3V765.886L968.951 765.593L961.276 757.918L960.983 757.625H960.569H924.407H923.993L923.7 757.918L916.025 765.593Z" fill="white" stroke="black" stroke-width="2"/>
<path d="M920.777 788.154L964.254 788.154L959.878 830.261H925.445L920.777 788.154Z" fill="#2C73FB"/>
<path d="M1015.38 490.592L1044.98 490.592L1075.4 509.201L1075.4 490.592L1089.73 490.592L1089.73 421L1015.38 421L1015.38 490.592Z" fill="white" stroke="black" stroke-width="2"/>
<path d="M1034.38 451.707C1034.38 454.958 1035.76 456.909 1036.46 457.56C1037.15 458.21 1052.19 473.329 1052.19 473.329C1052.19 473.329 1067.23 458.21 1067.92 457.56C1068.62 456.909 1070 454.958 1070 451.707C1070 446.14 1065.2 441.627 1059.28 441.627C1056.56 441.627 1054.08 442.578 1052.19 444.146C1050.3 442.578 1047.82 441.627 1045.1 441.627C1039.18 441.627 1034.38 446.14 1034.38 451.707Z" fill="#FF4B78"/>
<g filter="url(#filter1_d)">
<rect x="402.393" y="795.121" width="319" height="140" rx="70" fill="#FF4B78"/>
<path d="M522.448 851.727C524.042 851.727 525.583 851.826 527.071 852.026C528.571 852.213 529.913 852.541 531.096 853.01C532.292 853.467 533.27 854.088 534.032 854.873C534.805 855.658 535.256 856.637 535.385 857.809L530.815 859.074C530.815 858.371 530.575 857.797 530.094 857.352C529.625 856.895 528.999 856.537 528.213 856.28C527.44 856.01 526.549 855.823 525.542 855.717C524.545 855.612 523.514 855.559 522.448 855.559C521.405 855.559 520.379 855.606 519.372 855.699C518.364 855.793 517.456 855.969 516.647 856.227C515.85 856.485 515.206 856.842 514.713 857.299C514.221 857.756 513.975 858.348 513.975 859.074V863.258H535.385V872.364C535.385 873.149 535.209 873.852 534.858 874.473C534.518 875.082 534.043 875.615 533.434 876.073C532.836 876.518 532.122 876.899 531.29 877.215C530.469 877.52 529.579 877.766 528.618 877.953C527.668 878.141 526.667 878.276 525.612 878.358C524.557 878.44 523.502 878.481 522.448 878.481C521.37 878.481 520.309 878.44 519.266 878.358C518.223 878.276 517.233 878.141 516.295 877.953C515.358 877.766 514.485 877.52 513.676 877.215C512.879 876.899 512.176 876.518 511.567 876.073C510.958 875.615 510.465 875.082 510.09 874.473C509.715 873.864 509.487 873.16 509.405 872.364L513.975 871.098C513.975 871.824 514.221 872.416 514.713 872.873C515.206 873.33 515.85 873.688 516.647 873.946C517.456 874.203 518.364 874.379 519.372 874.473C520.379 874.567 521.405 874.614 522.448 874.614C523.514 874.614 524.545 874.567 525.542 874.473C526.549 874.367 527.44 874.186 528.213 873.928C528.999 873.658 529.625 873.295 530.094 872.838C530.575 872.381 530.815 871.801 530.815 871.098V866.809H509.405V857.809C509.405 857.024 509.575 856.332 509.915 855.735C510.266 855.125 510.741 854.598 511.338 854.153C511.948 853.696 512.668 853.315 513.5 853.01C514.333 852.694 515.229 852.442 516.19 852.254C517.163 852.067 518.176 851.932 519.231 851.85C520.297 851.768 521.37 851.727 522.448 851.727Z" fill="white"/>
<path d="M545.827 858.231H550.292V861.184H545.827V878.516H541.643V861.184H538.338V858.231H541.643V852.114H545.827V858.231Z" fill="white"/>
<path d="M574.198 871.344C573.905 871.086 573.542 870.834 573.108 870.588C572.674 870.342 572.141 870.125 571.508 869.938C570.875 869.739 570.12 869.58 569.241 869.463C568.374 869.334 567.354 869.27 566.182 869.27C565.139 869.27 564.149 869.293 563.211 869.34C562.286 869.375 561.471 869.492 560.768 869.692C560.065 869.879 559.508 870.184 559.098 870.606C558.688 871.028 558.483 871.614 558.483 872.364V874.614C559.514 874.778 560.651 874.912 561.893 875.018C563.135 875.123 564.518 875.176 566.042 875.176C567.26 875.176 568.555 875.135 569.926 875.053C571.309 874.959 572.733 874.778 574.198 874.508V871.344ZM566.288 858.477C566.874 858.477 567.583 858.506 568.415 858.565C569.247 858.623 570.114 858.729 571.016 858.881C571.918 859.022 572.809 859.221 573.688 859.479C574.579 859.725 575.375 860.053 576.079 860.463C576.793 860.862 577.368 861.342 577.801 861.905C578.235 862.467 578.452 863.129 578.452 863.891V877.496C577.467 877.696 576.354 877.865 575.112 878.006C574.045 878.135 572.774 878.252 571.297 878.358C569.821 878.463 568.174 878.516 566.358 878.516C564.553 878.516 562.631 878.44 560.592 878.287C558.565 878.135 556.444 877.871 554.229 877.496V871.168C554.229 870.489 554.387 869.897 554.704 869.393C555.032 868.877 555.477 868.438 556.04 868.074C556.602 867.711 557.264 867.412 558.026 867.178C558.788 866.944 559.608 866.756 560.487 866.615C561.366 866.475 562.28 866.381 563.229 866.334C564.178 866.276 565.127 866.246 566.077 866.246C567.518 866.246 568.743 866.34 569.75 866.528C570.77 866.703 571.614 866.897 572.282 867.108C573.055 867.365 573.694 867.653 574.198 867.969V865.121C574.198 864.641 574.081 864.231 573.846 863.891C573.612 863.539 573.295 863.246 572.897 863.012C572.499 862.766 572.042 862.573 571.526 862.432C571.01 862.28 570.471 862.162 569.909 862.08C569.346 861.998 568.772 861.946 568.186 861.922C567.612 861.899 567.073 861.887 566.569 861.887C566.042 861.887 565.479 861.905 564.881 861.94C564.284 861.963 563.686 862.016 563.088 862.098C562.502 862.18 561.934 862.297 561.383 862.449C560.844 862.59 560.364 862.783 559.942 863.03C559.52 863.276 559.18 863.574 558.922 863.926C558.676 864.266 558.553 864.676 558.553 865.156L554.194 864.031C554.194 863.246 554.387 862.567 554.774 861.992C555.161 861.406 555.67 860.908 556.303 860.498C556.948 860.088 557.686 859.754 558.518 859.496C559.35 859.227 560.211 859.022 561.102 858.881C562.004 858.729 562.901 858.623 563.792 858.565C564.682 858.506 565.514 858.477 566.288 858.477Z" fill="white"/>
<path d="M599.581 858.477C599.581 859.696 599.54 860.967 599.458 862.291C599.375 863.604 599.217 864.957 598.983 866.352H594.729C594.834 865.953 594.934 865.52 595.028 865.051C595.098 864.653 595.163 864.19 595.221 863.662C595.292 863.123 595.327 862.555 595.327 861.957C594.295 861.981 593.44 862.08 592.76 862.256C592.092 862.42 591.536 862.619 591.09 862.854C590.645 863.076 590.282 863.305 590 863.539C589.719 863.774 589.467 863.961 589.245 864.102V878.516H584.745V863.996C584.698 863.621 584.586 863.305 584.411 863.047C584.247 862.789 584.071 862.578 583.883 862.414C583.672 862.215 583.432 862.051 583.163 861.922L585.026 858.477C585.459 858.629 585.887 858.834 586.309 859.092C586.672 859.315 587.053 859.602 587.452 859.953C587.862 860.293 588.225 860.715 588.542 861.219C589.139 860.809 589.69 860.463 590.194 860.182C590.698 859.889 591.184 859.643 591.653 859.444C592.133 859.244 592.625 859.092 593.129 858.987C593.645 858.869 594.208 858.776 594.817 858.705C595.438 858.635 596.129 858.588 596.891 858.565C597.665 858.53 598.561 858.5 599.581 858.477Z" fill="white"/>
<path d="M609.917 858.231H614.381V861.184H609.917V878.516H605.733V861.184H602.428V858.231H605.733V852.114H609.917V858.231Z" fill="white"/>
</g>
<rect x="171.542" y="873.621" width="57" height="17" rx="8.5" transform="rotate(-180 171.542 873.621)" stroke="black" stroke-width="3"/>
<circle cx="243.042" cy="865.121" r="10" transform="rotate(-180 243.042 865.121)" fill="black"/>
<circle cx="203.042" cy="865.121" r="10" transform="rotate(-180 203.042 865.121)" fill="black"/>
<path d="M149.345 344.883C151.121 344.883 152.926 345.069 154.759 345.441C156.593 345.785 158.225 346.258 159.658 346.859C162.179 351.271 164.47 355.768 166.533 360.352C168.624 364.906 170.486 369.604 172.119 374.445C173.236 374.589 174.367 374.746 175.513 374.918C176.659 375.061 177.819 375.219 178.994 375.391V386.391L175.298 385.359C176.33 389.628 177.203 393.982 177.919 398.422C178.636 402.862 179.166 407.388 179.509 412H169.283C168.853 407.073 168.137 402.203 167.134 397.391C166.132 392.578 164.986 387.966 163.697 383.555C160.918 383.326 158.268 383.154 155.748 383.039C153.255 382.924 151.121 382.867 149.345 382.867C146.968 382.867 144.604 382.91 142.255 382.996C139.906 383.082 137.543 383.24 135.166 383.469C133.876 387.88 132.716 392.492 131.685 397.305C130.682 402.117 129.981 407.016 129.58 412H119.353C119.668 407.388 120.169 402.876 120.857 398.465C121.573 394.053 122.447 389.714 123.478 385.445L120.126 386.391V375.391L126.744 374.445C128.348 369.604 130.181 364.906 132.244 360.352C134.335 355.768 136.655 351.271 139.205 346.859C140.637 346.258 142.255 345.785 144.06 345.441C145.865 345.069 147.626 344.883 149.345 344.883ZM149.345 373.156C151.064 373.156 152.84 373.185 154.673 373.242C156.507 373.271 158.397 373.357 160.345 373.5C158.884 369.518 157.438 366.066 156.005 363.145C154.602 360.194 153.384 357.917 152.353 356.312C151.837 356.083 151.35 355.926 150.892 355.84C150.434 355.754 149.918 355.711 149.345 355.711C148.429 355.711 147.483 355.911 146.509 356.312C145.478 357.917 144.246 360.194 142.814 363.145C141.382 366.066 139.949 369.518 138.517 373.5C140.408 373.357 142.255 373.271 144.06 373.242C145.893 373.185 147.655 373.156 149.345 373.156ZM194.033 376.508C193.918 375.591 193.646 374.818 193.216 374.188C192.815 373.557 192.371 373.042 191.884 372.641C191.34 372.154 190.738 371.753 190.08 371.438L194.892 363.016C195.952 363.388 197.012 363.889 198.072 364.52C198.96 365.064 199.891 365.766 200.865 366.625C201.867 367.456 202.741 368.487 203.486 369.719C204.918 368.802 206.379 367.943 207.869 367.141C209.387 366.31 210.962 365.594 212.595 364.992C214.257 364.391 215.99 363.918 217.794 363.574C219.628 363.202 221.59 363.016 223.681 363.016C228.093 363.016 231.874 363.388 235.025 364.133C238.205 364.849 240.797 365.938 242.802 367.398C244.836 368.831 246.326 370.621 247.271 372.77C248.216 374.918 248.689 377.424 248.689 380.289V412H237.431V382.953C237.431 381.349 237.216 379.974 236.787 378.828C236.357 377.654 235.77 376.665 235.025 375.863C234.309 375.033 233.464 374.359 232.49 373.844C231.516 373.328 230.499 372.941 229.439 372.684C228.408 372.397 227.348 372.211 226.259 372.125C225.171 372.01 224.139 371.953 223.166 371.953C221.332 371.953 219.585 372.082 217.923 372.34C216.262 372.598 214.686 372.956 213.197 373.414C211.707 373.844 210.304 374.359 208.986 374.961C207.668 375.562 206.436 376.193 205.291 376.852V412H194.033V376.508ZM310.564 394.469C309.848 393.839 308.96 393.223 307.9 392.621C306.84 392.02 305.537 391.49 303.99 391.031C302.443 390.544 300.595 390.158 298.447 389.871C296.327 389.556 293.835 389.398 290.97 389.398C288.421 389.398 286 389.456 283.708 389.57C281.445 389.656 279.455 389.943 277.736 390.43C276.017 390.888 274.656 391.633 273.654 392.664C272.651 393.695 272.15 395.128 272.15 396.961V402.461C274.671 402.862 277.449 403.191 280.486 403.449C283.522 403.707 286.903 403.836 290.626 403.836C293.606 403.836 296.771 403.736 300.123 403.535C303.503 403.306 306.983 402.862 310.564 402.203V394.469ZM291.228 363.016C292.66 363.016 294.393 363.087 296.427 363.23C298.461 363.374 300.581 363.632 302.787 364.004C304.992 364.348 307.169 364.835 309.318 365.465C311.495 366.066 313.443 366.868 315.162 367.871C316.909 368.845 318.313 370.02 319.373 371.395C320.432 372.77 320.962 374.388 320.962 376.25V409.508C318.556 409.995 315.835 410.41 312.798 410.754C310.192 411.069 307.083 411.355 303.474 411.613C299.865 411.871 295.84 412 291.4 412C286.988 412 282.291 411.814 277.306 411.441C272.35 411.069 267.166 410.424 261.751 409.508V394.039C261.751 392.378 262.138 390.931 262.912 389.699C263.714 388.439 264.802 387.365 266.177 386.477C267.552 385.589 269.171 384.858 271.033 384.285C272.895 383.712 274.9 383.254 277.048 382.91C279.197 382.566 281.431 382.337 283.751 382.223C286.072 382.079 288.392 382.008 290.712 382.008C294.236 382.008 297.229 382.237 299.693 382.695C302.185 383.125 304.248 383.598 305.88 384.113C307.771 384.743 309.332 385.445 310.564 386.219V379.258C310.564 378.083 310.278 377.081 309.705 376.25C309.132 375.391 308.358 374.674 307.384 374.102C306.41 373.5 305.293 373.027 304.033 372.684C302.772 372.311 301.455 372.025 300.08 371.824C298.705 371.624 297.301 371.495 295.869 371.438C294.465 371.38 293.147 371.352 291.916 371.352C290.626 371.352 289.251 371.395 287.791 371.48C286.33 371.538 284.869 371.667 283.408 371.867C281.975 372.068 280.586 372.354 279.24 372.727C277.922 373.07 276.748 373.543 275.716 374.145C274.685 374.746 273.854 375.477 273.224 376.336C272.623 377.167 272.322 378.169 272.322 379.344L261.666 376.594C261.666 374.674 262.138 373.013 263.083 371.609C264.029 370.177 265.275 368.96 266.822 367.957C268.397 366.954 270.202 366.138 272.236 365.508C274.27 364.849 276.375 364.348 278.552 364.004C280.758 363.632 282.949 363.374 285.126 363.23C287.304 363.087 289.337 363.016 291.228 363.016ZM345.712 412H335.916V347.461H345.712V412ZM371.494 392.062C371.494 393.667 371.708 395.056 372.138 396.23C372.568 397.376 373.155 398.365 373.9 399.195C374.645 399.997 375.49 400.656 376.435 401.172C377.409 401.688 378.426 402.089 379.486 402.375C380.546 402.633 381.62 402.819 382.708 402.934C383.797 403.02 384.843 403.062 385.845 403.062C389.483 403.062 392.792 402.59 395.771 401.645C398.75 400.699 401.4 399.539 403.72 398.164V363.016L414.806 363.875V414.148C414.806 416.182 414.376 418.073 413.517 419.82C412.658 421.568 411.412 423.072 409.779 424.332C408.146 425.621 406.141 426.624 403.763 427.34C401.386 428.056 398.679 428.414 395.642 428.414V420.938C396.788 420.938 397.848 420.823 398.822 420.594C399.796 420.365 400.641 420.007 401.357 419.52C402.102 419.061 402.675 418.474 403.076 417.758C403.505 417.07 403.72 416.268 403.72 415.352V406.328C402.374 407.159 400.999 407.918 399.595 408.605C398.22 409.293 396.774 409.895 395.255 410.41C393.737 410.897 392.147 411.284 390.486 411.57C388.824 411.857 387.077 412 385.244 412C380.804 412 377.008 411.642 373.857 410.926C370.706 410.181 368.113 409.092 366.08 407.66C364.074 406.199 362.599 404.395 361.654 402.246C360.708 400.098 360.236 397.591 360.236 394.727V363.875L371.494 363.016V392.062ZM455.369 363.016C459.007 363.016 462.401 363.13 465.552 363.359C468.703 363.56 471.482 363.775 473.888 364.004C476.667 364.319 479.231 364.648 481.58 364.992V372.383C480.462 373.729 479.016 375.247 477.24 376.938C475.492 378.599 473.53 380.361 471.353 382.223C469.205 384.085 466.899 386.004 464.435 387.98C461.972 389.928 459.436 391.848 456.83 393.738C454.251 395.629 451.659 397.462 449.052 399.238C446.474 401.014 443.996 402.633 441.619 404.094C442.535 404.18 443.567 404.251 444.712 404.309C445.887 404.337 446.975 404.352 447.978 404.352C450.012 404.352 452.117 404.309 454.294 404.223C456.472 404.137 458.62 404.022 460.74 403.879C462.86 403.707 464.922 403.521 466.927 403.32C468.932 403.091 470.78 402.862 472.47 402.633C472.585 401.831 472.699 401.014 472.814 400.184C472.929 399.353 473.029 398.579 473.115 397.863C473.201 397.118 473.272 396.445 473.33 395.844C473.387 395.214 473.416 394.698 473.416 394.297H483.298C483.298 394.641 483.27 395.171 483.212 395.887C483.184 396.603 483.126 397.434 483.041 398.379C482.955 399.324 482.854 400.341 482.74 401.43C482.654 402.518 482.539 403.592 482.396 404.652C482.281 405.712 482.153 406.729 482.009 407.703C481.866 408.648 481.723 409.451 481.58 410.109C479.374 410.453 477.097 410.754 474.748 411.012C472.427 411.241 470.121 411.427 467.83 411.57C465.538 411.714 463.318 411.828 461.169 411.914C459.021 411.971 457.059 412 455.283 412C451.673 412 448.293 411.9 445.142 411.699C441.991 411.499 439.212 411.284 436.806 411.055C433.999 410.768 431.421 410.453 429.072 410.109V401.773C432.738 399.654 436.491 397.362 440.33 394.898C444.168 392.435 447.935 389.9 451.63 387.293C455.326 384.658 458.863 381.979 462.244 379.258C465.624 376.536 468.689 373.844 471.439 371.18C468.431 370.836 465.223 370.664 461.814 370.664C459.866 370.664 457.875 370.707 455.841 370.793C453.836 370.879 451.845 370.993 449.869 371.137C447.892 371.28 445.973 371.452 444.111 371.652C442.278 371.853 440.559 372.068 438.955 372.297C438.811 373.128 438.682 373.973 438.568 374.832C438.453 375.663 438.339 376.465 438.224 377.238C438.138 378.012 438.067 378.728 438.009 379.387C437.952 380.017 437.923 380.547 437.923 380.977H428.126C428.126 380.461 428.169 379.53 428.255 378.184C428.37 376.837 428.513 375.362 428.685 373.758C428.857 372.125 429.029 370.507 429.201 368.902C429.401 367.298 429.587 365.995 429.759 364.992C431.965 364.62 434.214 364.319 436.505 364.09C438.797 363.832 441.046 363.632 443.251 363.488C445.457 363.316 447.577 363.202 449.611 363.145C451.673 363.059 453.593 363.016 455.369 363.016ZM525.15 363.016C526.611 363.016 528.373 363.087 530.435 363.23C532.498 363.374 534.632 363.632 536.837 364.004C539.072 364.348 541.278 364.849 543.455 365.508C545.632 366.138 547.58 366.954 549.298 367.957C551.046 368.96 552.449 370.177 553.509 371.609C554.598 373.013 555.142 374.674 555.142 376.594V391.117H505.9V402.117C509.366 402.604 512.703 402.948 515.912 403.148C519.12 403.32 522.199 403.406 525.15 403.406C529.647 403.406 533.715 403.234 537.353 402.891C541.02 402.547 544.185 402.16 546.849 401.73C549.914 401.243 552.679 400.685 555.142 400.055V409.594C549.699 410.453 544.443 411.069 539.373 411.441C534.331 411.814 529.59 412 525.15 412C520.681 412 516.628 411.885 512.99 411.656C509.352 411.398 506.229 411.112 503.623 410.797C500.586 410.453 497.85 410.052 495.416 409.594V376.594C495.416 374.674 495.888 373.013 496.833 371.609C497.779 370.177 499.039 368.96 500.615 367.957C502.19 366.954 503.995 366.138 506.029 365.508C508.091 364.849 510.225 364.348 512.431 364.004C514.637 363.632 516.828 363.374 519.005 363.23C521.211 363.087 523.259 363.016 525.15 363.016ZM505.9 384.242H544.486V379.258C544.486 378.083 544.199 377.081 543.626 376.25C543.054 375.391 542.28 374.674 541.306 374.102C540.361 373.529 539.244 373.07 537.955 372.727C536.694 372.354 535.376 372.082 534.001 371.91C532.626 371.71 531.237 371.581 529.833 371.523C528.458 371.466 527.155 371.438 525.923 371.438C524.634 371.438 523.245 371.466 521.755 371.523C520.294 371.581 518.819 371.71 517.33 371.91C515.84 372.111 514.408 372.397 513.033 372.77C511.658 373.113 510.44 373.586 509.38 374.188C508.32 374.76 507.475 375.477 506.845 376.336C506.215 377.167 505.9 378.169 505.9 379.344V384.242ZM134.22 452.414H145.134V459.633H134.22V502H123.994V459.633H115.916V452.414H123.994V437.461H134.22V452.414ZM185.697 453.016C190.108 453.016 193.889 453.388 197.041 454.133C200.192 454.849 202.77 455.938 204.775 457.398C206.809 458.831 208.284 460.621 209.201 462.77C210.146 464.918 210.619 467.424 210.619 470.289V502H199.361V472.953C199.361 471.349 199.146 469.974 198.716 468.828C198.287 467.654 197.699 466.665 196.955 465.863C196.238 465.033 195.393 464.359 194.419 463.844C193.445 463.328 192.429 462.941 191.369 462.684C190.337 462.397 189.278 462.211 188.189 462.125C187.1 462.01 186.069 461.953 185.095 461.953C183.262 461.953 181.514 462.082 179.853 462.34C178.192 462.598 176.616 462.956 175.126 463.414C173.637 463.844 172.233 464.359 170.916 464.961C169.598 465.562 168.366 466.193 167.22 466.852V502H155.962V436.602H167.22V458.688C168.538 457.885 169.884 457.141 171.259 456.453C172.634 455.766 174.067 455.164 175.556 454.648C177.074 454.133 178.664 453.732 180.326 453.445C182.016 453.159 183.806 453.016 185.697 453.016ZM253.587 453.016C255.048 453.016 256.81 453.087 258.873 453.23C260.935 453.374 263.069 453.632 265.275 454.004C267.509 454.348 269.715 454.849 271.892 455.508C274.069 456.138 276.017 456.954 277.736 457.957C279.483 458.96 280.887 460.177 281.947 461.609C283.035 463.013 283.58 464.674 283.58 466.594V481.117H234.337V492.117C237.804 492.604 241.141 492.948 244.349 493.148C247.557 493.32 250.637 493.406 253.587 493.406C258.085 493.406 262.153 493.234 265.791 492.891C269.457 492.547 272.623 492.16 275.287 491.73C278.352 491.243 281.116 490.685 283.58 490.055V499.594C278.137 500.453 272.88 501.069 267.81 501.441C262.768 501.814 258.028 502 253.587 502C249.119 502 245.065 501.885 241.427 501.656C237.789 501.398 234.667 501.112 232.06 500.797C229.024 500.453 226.288 500.052 223.853 499.594V466.594C223.853 464.674 224.326 463.013 225.271 461.609C226.216 460.177 227.477 458.96 229.052 457.957C230.628 456.954 232.432 456.138 234.466 455.508C236.529 454.849 238.663 454.348 240.869 454.004C243.074 453.632 245.266 453.374 247.443 453.23C249.649 453.087 251.697 453.016 253.587 453.016ZM234.337 474.242H272.923V469.258C272.923 468.083 272.637 467.081 272.064 466.25C271.491 465.391 270.718 464.674 269.744 464.102C268.798 463.529 267.681 463.07 266.392 462.727C265.132 462.354 263.814 462.082 262.439 461.91C261.064 461.71 259.675 461.581 258.271 461.523C256.896 461.466 255.593 461.438 254.361 461.438C253.072 461.438 251.682 461.466 250.193 461.523C248.732 461.581 247.257 461.71 245.767 461.91C244.278 462.111 242.845 462.397 241.47 462.77C240.095 463.113 238.878 463.586 237.818 464.188C236.758 464.76 235.913 465.477 235.283 466.336C234.653 467.167 234.337 468.169 234.337 469.344V474.242ZM363.158 453.016C365.679 453.016 368.314 453.302 371.064 453.875C373.843 454.448 376.535 455.193 379.142 456.109V436.602H390.4V498.648C388.882 499.107 387.063 499.536 384.943 499.938C382.852 500.339 380.603 500.697 378.197 501.012C375.791 501.298 373.284 501.542 370.677 501.742C368.099 501.914 365.593 502 363.158 502C358.746 502 354.807 501.699 351.341 501.098C347.875 500.467 344.939 499.508 342.533 498.219C340.126 496.93 338.293 495.297 337.033 493.32C335.772 491.344 335.142 488.995 335.142 486.273V468.742C335.142 466.021 335.772 463.672 337.033 461.695C338.293 459.719 340.126 458.086 342.533 456.797C344.939 455.508 347.875 454.562 351.341 453.961C354.807 453.331 358.746 453.016 363.158 453.016ZM366.251 494.008C367.397 494.008 368.557 493.951 369.732 493.836C370.935 493.721 372.095 493.564 373.212 493.363C374.358 493.163 375.432 492.934 376.435 492.676C377.466 492.418 378.369 492.146 379.142 491.859V464.875C377.166 463.93 375.132 463.156 373.041 462.555C370.978 461.924 368.715 461.609 366.251 461.609C364.475 461.609 362.742 461.652 361.052 461.738C359.391 461.796 357.83 461.953 356.369 462.211C354.908 462.44 353.561 462.784 352.33 463.242C351.098 463.672 350.038 464.259 349.15 465.004C348.291 465.749 347.617 466.665 347.13 467.754C346.643 468.842 346.4 470.146 346.4 471.664V484.297C346.4 486.617 346.93 488.436 347.99 489.754C349.078 491.043 350.525 492.003 352.33 492.633C354.134 493.263 356.24 493.65 358.646 493.793C361.052 493.936 363.587 494.008 366.251 494.008ZM452.791 484.469C452.074 483.839 451.186 483.223 450.126 482.621C449.067 482.02 447.763 481.49 446.216 481.031C444.669 480.544 442.822 480.158 440.673 479.871C438.554 479.556 436.061 479.398 433.197 479.398C430.647 479.398 428.227 479.456 425.935 479.57C423.672 479.656 421.681 479.943 419.962 480.43C418.244 480.888 416.883 481.633 415.88 482.664C414.878 483.695 414.376 485.128 414.376 486.961V492.461C416.897 492.862 419.676 493.191 422.712 493.449C425.749 493.707 429.129 493.836 432.853 493.836C435.832 493.836 438.998 493.736 442.349 493.535C445.729 493.306 449.21 492.862 452.791 492.203V484.469ZM433.455 453.016C434.887 453.016 436.62 453.087 438.654 453.23C440.688 453.374 442.807 453.632 445.013 454.004C447.219 454.348 449.396 454.835 451.544 455.465C453.722 456.066 455.669 456.868 457.388 457.871C459.136 458.845 460.539 460.02 461.599 461.395C462.659 462.77 463.189 464.388 463.189 466.25V499.508C460.783 499.995 458.061 500.41 455.025 500.754C452.418 501.069 449.31 501.355 445.701 501.613C442.091 501.871 438.067 502 433.626 502C429.215 502 424.517 501.814 419.533 501.441C414.577 501.069 409.392 500.424 403.978 499.508V484.039C403.978 482.378 404.365 480.931 405.138 479.699C405.94 478.439 407.029 477.365 408.404 476.477C409.779 475.589 411.397 474.858 413.259 474.285C415.121 473.712 417.126 473.254 419.275 472.91C421.423 472.566 423.658 472.337 425.978 472.223C428.298 472.079 430.619 472.008 432.939 472.008C436.462 472.008 439.456 472.237 441.919 472.695C444.412 473.125 446.474 473.598 448.107 474.113C449.998 474.743 451.559 475.445 452.791 476.219V469.258C452.791 468.083 452.504 467.081 451.931 466.25C451.358 465.391 450.585 464.674 449.611 464.102C448.637 463.5 447.52 463.027 446.259 462.684C444.999 462.311 443.681 462.025 442.306 461.824C440.931 461.624 439.528 461.495 438.095 461.438C436.692 461.38 435.374 461.352 434.142 461.352C432.853 461.352 431.478 461.395 430.017 461.48C428.556 461.538 427.095 461.667 425.634 461.867C424.202 462.068 422.813 462.354 421.466 462.727C420.149 463.07 418.974 463.543 417.943 464.145C416.912 464.746 416.081 465.477 415.451 466.336C414.849 467.167 414.548 468.169 414.548 469.344L403.892 466.594C403.892 464.674 404.365 463.013 405.31 461.609C406.255 460.177 407.501 458.96 409.048 457.957C410.624 456.954 412.429 456.138 414.462 455.508C416.496 454.849 418.602 454.348 420.779 454.004C422.985 453.632 425.176 453.374 427.353 453.23C429.53 453.087 431.564 453.016 433.455 453.016ZM490.775 452.414H501.689V459.633H490.775V502H480.548V459.633H472.47V452.414H480.548V437.461H490.775V452.414ZM560.126 484.469C559.41 483.839 558.522 483.223 557.462 482.621C556.403 482.02 555.099 481.49 553.552 481.031C552.005 480.544 550.158 480.158 548.009 479.871C545.889 479.556 543.397 479.398 540.533 479.398C537.983 479.398 535.563 479.456 533.271 479.57C531.008 479.656 529.017 479.943 527.298 480.43C525.58 480.888 524.219 481.633 523.216 482.664C522.214 483.695 521.712 485.128 521.712 486.961V492.461C524.233 492.862 527.012 493.191 530.048 493.449C533.085 493.707 536.465 493.836 540.189 493.836C543.168 493.836 546.333 493.736 549.685 493.535C553.065 493.306 556.546 492.862 560.126 492.203V484.469ZM540.791 453.016C542.223 453.016 543.956 453.087 545.99 453.23C548.024 453.374 550.143 453.632 552.349 454.004C554.555 454.348 556.732 454.835 558.88 455.465C561.057 456.066 563.005 456.868 564.724 457.871C566.472 458.845 567.875 460.02 568.935 461.395C569.995 462.77 570.525 464.388 570.525 466.25V499.508C568.119 499.995 565.397 500.41 562.361 500.754C559.754 501.069 556.646 501.355 553.037 501.613C549.427 501.871 545.403 502 540.962 502C536.551 502 531.853 501.814 526.869 501.441C521.913 501.069 516.728 500.424 511.314 499.508V484.039C511.314 482.378 511.701 480.931 512.474 479.699C513.276 478.439 514.365 477.365 515.74 476.477C517.115 475.589 518.733 474.858 520.595 474.285C522.457 473.712 524.462 473.254 526.611 472.91C528.759 472.566 530.994 472.337 533.314 472.223C535.634 472.079 537.955 472.008 540.275 472.008C543.798 472.008 546.792 472.237 549.255 472.695C551.748 473.125 553.81 473.598 555.443 474.113C557.333 474.743 558.895 475.445 560.126 476.219V469.258C560.126 468.083 559.84 467.081 559.267 466.25C558.694 465.391 557.921 464.674 556.947 464.102C555.973 463.5 554.856 463.027 553.595 462.684C552.335 462.311 551.017 462.025 549.642 461.824C548.267 461.624 546.863 461.495 545.431 461.438C544.028 461.38 542.71 461.352 541.478 461.352C540.189 461.352 538.814 461.395 537.353 461.48C535.892 461.538 534.431 461.667 532.97 461.867C531.538 462.068 530.149 462.354 528.802 462.727C527.485 463.07 526.31 463.543 525.279 464.145C524.248 464.746 523.417 465.477 522.787 466.336C522.185 467.167 521.884 468.169 521.884 469.344L511.228 466.594C511.228 464.674 511.701 463.013 512.646 461.609C513.591 460.177 514.837 458.96 516.384 457.957C517.96 456.954 519.764 456.138 521.798 455.508C523.832 454.849 525.938 454.348 528.115 454.004C530.32 453.632 532.512 453.374 534.689 453.23C536.866 453.087 538.9 453.016 540.791 453.016Z" fill="white"/>
<path d="M119.409 565.888V587.128H132.405V589.72H116.709V565.888H119.409ZM145.31 587.56C147.734 587.56 149.474 586.552 150.53 584.536H153.482C152.858 586.168 151.862 587.488 150.494 588.496C149.15 589.504 147.41 590.008 145.274 590.008C142.562 590.008 140.354 589.108 138.65 587.308C136.994 585.556 136.166 583.36 136.166 580.72C136.166 578.056 136.958 575.86 138.542 574.132C140.222 572.332 142.406 571.432 145.094 571.432C147.782 571.432 149.966 572.332 151.646 574.132C153.23 575.86 154.022 578.056 154.022 580.72V581.8H138.938C139.13 583.456 139.79 584.824 140.918 585.904C142.07 587.008 143.534 587.56 145.31 587.56ZM145.094 573.88C143.438 573.88 142.046 574.396 140.918 575.428C139.862 576.412 139.214 577.696 138.974 579.28H151.214C150.974 577.696 150.326 576.412 149.27 575.428C148.142 574.396 146.75 573.88 145.094 573.88ZM173.701 586.84C172.261 588.952 170.113 590.008 167.257 590.008C164.665 590.008 162.553 589.108 160.921 587.308C159.337 585.532 158.545 583.336 158.545 580.72C158.545 578.104 159.337 575.908 160.921 574.132C162.553 572.332 164.725 571.432 167.437 571.432C170.149 571.432 172.237 572.5 173.701 574.636V571.72H176.401V589.72H173.701V586.84ZM167.617 587.56C169.561 587.56 171.097 586.888 172.225 585.544C173.305 584.272 173.845 582.664 173.845 580.72C173.845 578.776 173.305 577.168 172.225 575.896C171.097 574.552 169.561 573.88 167.617 573.88C165.697 573.88 164.137 574.552 162.937 575.896C161.809 577.168 161.245 578.776 161.245 580.72C161.245 582.664 161.809 584.272 162.937 585.544C164.137 586.888 165.697 587.56 167.617 587.56ZM192.915 571.432V574.132H192.591C190.647 574.132 189.063 574.912 187.839 576.472C186.687 577.96 186.111 579.736 186.111 581.8V589.72H183.411V571.72H186.111V576.148C186.687 574.276 187.935 572.896 189.855 572.008C190.647 571.624 191.607 571.432 192.735 571.432H192.915ZM200.861 571.72V574.528C201.509 573.664 202.301 572.932 203.237 572.332C204.173 571.732 205.241 571.432 206.441 571.432C207.641 571.432 208.673 571.6 209.537 571.936C210.401 572.272 211.157 572.776 211.805 573.448C213.293 574.912 214.037 576.844 214.037 579.244V589.72H211.337V579.316C211.337 577.66 210.869 576.34 209.933 575.356C208.997 574.372 207.785 573.88 206.297 573.88C204.785 573.88 203.501 574.384 202.445 575.392C201.389 576.424 200.861 577.744 200.861 579.352V589.72H198.161V571.72H200.861ZM233.596 564.52V574.528C234.244 573.664 235.036 572.932 235.972 572.332C236.908 571.732 237.976 571.432 239.176 571.432C240.376 571.432 241.408 571.6 242.272 571.936C243.136 572.272 243.892 572.776 244.54 573.448C246.028 574.912 246.772 576.844 246.772 579.244V589.72H244.072V579.316C244.072 577.66 243.604 576.34 242.668 575.356C241.732 574.372 240.52 573.88 239.032 573.88C237.52 573.88 236.236 574.384 235.18 575.392C234.124 576.424 233.596 577.744 233.596 579.352V589.72H230.896V564.52H233.596ZM261.438 571.432C264.126 571.432 266.31 572.332 267.99 574.132C269.574 575.86 270.367 578.056 270.367 580.72C270.367 583.384 269.574 585.58 267.99 587.308C266.31 589.108 264.126 590.008 261.438 590.008C258.75 590.008 256.566 589.108 254.886 587.308C253.302 585.58 252.51 583.384 252.51 580.72C252.51 578.056 253.302 575.86 254.886 574.132C256.566 572.332 258.75 571.432 261.438 571.432ZM261.438 587.56C263.382 587.56 264.918 586.888 266.046 585.544C267.126 584.272 267.666 582.664 267.666 580.72C267.666 578.776 267.126 577.168 266.046 575.896C264.918 574.552 263.382 573.88 261.438 573.88C259.494 573.88 257.958 574.552 256.83 575.896C255.75 577.168 255.21 578.776 255.21 580.72C255.21 582.664 255.75 584.272 256.83 585.544C257.958 586.888 259.494 587.56 261.438 587.56ZM287.378 575.356L282.878 589.72H279.782L274.13 571.72H277.01L281.33 586.372L285.902 571.72H288.854L293.426 586.372L297.746 571.72H300.626L294.974 589.72H291.878L287.378 575.356ZM317.575 589.72V574.096H313.903V571.72H317.575V565.276H320.275V571.72H324.415V574.096H320.275V589.72H317.575ZM337.173 571.432C339.862 571.432 342.046 572.332 343.726 574.132C345.31 575.86 346.102 578.056 346.102 580.72C346.102 583.384 345.31 585.58 343.726 587.308C342.046 589.108 339.862 590.008 337.173 590.008C334.485 590.008 332.301 589.108 330.621 587.308C329.037 585.58 328.245 583.384 328.245 580.72C328.245 578.056 329.037 575.86 330.621 574.132C332.301 572.332 334.485 571.432 337.173 571.432ZM337.173 587.56C339.117 587.56 340.654 586.888 341.782 585.544C342.862 584.272 343.402 582.664 343.402 580.72C343.402 578.776 342.862 577.168 341.782 575.896C340.654 574.552 339.117 573.88 337.173 573.88C335.229 573.88 333.693 574.552 332.566 575.896C331.485 577.168 330.945 578.776 330.945 580.72C330.945 582.664 331.485 584.272 332.566 585.544C333.693 586.888 335.229 587.56 337.173 587.56ZM373.258 575.356L368.758 589.72H365.662L360.01 571.72H362.89L367.21 586.372L371.782 571.72H374.734L379.306 586.372L383.626 571.72H386.506L380.854 589.72H377.758L373.258 575.356ZM399.178 571.432C401.866 571.432 404.05 572.332 405.73 574.132C407.314 575.86 408.106 578.056 408.106 580.72C408.106 583.384 407.314 585.58 405.73 587.308C404.05 589.108 401.866 590.008 399.178 590.008C396.49 590.008 394.306 589.108 392.626 587.308C391.042 585.58 390.25 583.384 390.25 580.72C390.25 578.056 391.042 575.86 392.626 574.132C394.306 572.332 396.49 571.432 399.178 571.432ZM399.178 587.56C401.122 587.56 402.658 586.888 403.786 585.544C404.866 584.272 405.406 582.664 405.406 580.72C405.406 578.776 404.866 577.168 403.786 575.896C402.658 574.552 401.122 573.88 399.178 573.88C397.234 573.88 395.698 574.552 394.57 575.896C393.49 577.168 392.95 578.776 392.95 580.72C392.95 582.664 393.49 584.272 394.57 585.544C395.698 586.888 397.234 587.56 399.178 587.56ZM423.53 571.432V574.132H423.206C421.262 574.132 419.678 574.912 418.454 576.472C417.302 577.96 416.726 579.736 416.726 581.8V589.72H414.026V571.72H416.726V576.148C417.302 574.276 418.55 572.896 420.47 572.008C421.262 571.624 422.222 571.432 423.35 571.432H423.53ZM436.696 578.812L444.472 589.72H441.16L434.86 580.684L431.476 584.032V589.72H428.776V564.52H431.476V580.648L440.152 571.72H443.932L436.696 578.812ZM470.423 575.356L465.923 589.72H462.827L457.175 571.72H460.055L464.375 586.372L468.947 571.72H471.899L476.471 586.372L480.791 571.72H483.671L478.019 589.72H474.923L470.423 575.356ZM488.671 571.72H491.371V589.72H488.671V571.72ZM491.479 565.168V568.696H488.563V565.168H491.479ZM500.338 589.72V574.096H496.666V571.72H500.338V565.276H503.038V571.72H507.178V574.096H503.038V589.72H500.338ZM515.176 564.52V574.528C515.824 573.664 516.616 572.932 517.552 572.332C518.488 571.732 519.556 571.432 520.756 571.432C521.956 571.432 522.988 571.6 523.852 571.936C524.716 572.272 525.472 572.776 526.12 573.448C527.608 574.912 528.352 576.844 528.352 579.244V589.72H525.652V579.316C525.652 577.66 525.184 576.34 524.248 575.356C523.312 574.372 522.1 573.88 520.612 573.88C519.1 573.88 517.816 574.384 516.76 575.392C515.704 576.424 515.176 577.744 515.176 579.352V589.72H512.476V564.52H515.176ZM118.833 618.636C120.297 616.5 122.445 615.432 125.277 615.432C127.869 615.432 129.969 616.332 131.577 618.132C133.185 619.908 133.989 622.104 133.989 624.72C133.989 627.336 133.185 629.532 131.577 631.308C129.969 633.108 127.797 634.008 125.061 634.008C122.349 634.008 120.273 632.952 118.833 630.84V633.72H116.133V608.52H118.833V618.636ZM124.917 631.56C126.837 631.56 128.397 630.888 129.597 629.544C130.725 628.272 131.289 626.664 131.289 624.72C131.289 622.776 130.725 621.168 129.597 619.896C128.397 618.552 126.837 617.88 124.917 617.88C122.973 617.88 121.437 618.552 120.309 619.896C119.229 621.168 118.689 622.776 118.689 624.72C118.689 626.664 119.229 628.272 120.309 629.544C121.437 630.888 122.973 631.56 124.917 631.56ZM139.848 615.72H142.548V633.72H139.848V615.72ZM142.656 609.168V612.696H139.74V609.168H142.656ZM163.611 618.6V615.72H166.311V633.18C166.311 635.772 165.567 637.74 164.079 639.084C162.615 640.452 160.635 641.136 158.139 641.136C155.643 641.136 153.687 640.656 152.271 639.696C150.879 638.736 149.931 637.464 149.427 635.88H152.415C153.183 637.752 154.935 638.688 157.671 638.688C159.759 638.688 161.271 638.208 162.207 637.248C163.143 636.288 163.611 634.872 163.611 633V630.516C162.147 632.652 159.999 633.72 157.167 633.72C154.575 633.72 152.463 632.832 150.831 631.056C149.247 629.328 148.455 627.168 148.455 624.576C148.455 621.984 149.247 619.824 150.831 618.096C152.463 616.32 154.635 615.432 157.347 615.432C160.083 615.432 162.171 616.488 163.611 618.6ZM157.527 631.272C158.511 631.272 159.387 631.104 160.155 630.768C160.923 630.408 161.583 629.928 162.135 629.328C163.215 628.08 163.755 626.496 163.755 624.576C163.755 622.656 163.215 621.072 162.135 619.824C160.959 618.528 159.423 617.88 157.527 617.88C155.583 617.88 154.023 618.528 152.847 619.824C151.719 621.096 151.155 622.68 151.155 624.576C151.155 626.472 151.719 628.056 152.847 629.328C154.023 630.624 155.583 631.272 157.527 631.272ZM197.365 630.84C195.925 632.952 193.777 634.008 190.921 634.008C188.329 634.008 186.217 633.108 184.585 631.308C183.001 629.532 182.209 627.336 182.209 624.72C182.209 622.104 183.001 619.908 184.585 618.132C186.217 616.332 188.389 615.432 191.101 615.432C193.813 615.432 195.901 616.5 197.365 618.636V608.52H200.065V633.72H197.365V630.84ZM191.281 631.56C193.225 631.56 194.761 630.888 195.889 629.544C196.969 628.272 197.509 626.664 197.509 624.72C197.509 622.776 196.969 621.168 195.889 619.896C194.761 618.552 193.225 617.88 191.281 617.88C189.361 617.88 187.801 618.552 186.601 619.896C185.473 621.168 184.909 622.776 184.909 624.72C184.909 626.664 185.473 628.272 186.601 629.544C187.801 630.888 189.361 631.56 191.281 631.56ZM221.115 630.84C219.675 632.952 217.527 634.008 214.671 634.008C212.079 634.008 209.967 633.108 208.335 631.308C206.751 629.532 205.959 627.336 205.959 624.72C205.959 622.104 206.751 619.908 208.335 618.132C209.967 616.332 212.139 615.432 214.851 615.432C217.563 615.432 219.651 616.5 221.115 618.636V615.72H223.815V633.72H221.115V630.84ZM215.031 631.56C216.975 631.56 218.511 630.888 219.639 629.544C220.719 628.272 221.259 626.664 221.259 624.72C221.259 622.776 220.719 621.168 219.639 619.896C218.511 618.552 216.975 617.88 215.031 617.88C213.111 617.88 211.551 618.552 210.351 619.896C209.223 621.168 208.659 622.776 208.659 624.72C208.659 626.664 209.223 628.272 210.351 629.544C211.551 630.888 213.111 631.56 215.031 631.56ZM232.77 633.72V618.096H229.098V615.72H232.77V609.276H235.47V615.72H239.61V618.096H235.47V633.72H232.77ZM258.596 630.84C257.156 632.952 255.008 634.008 252.152 634.008C249.56 634.008 247.448 633.108 245.816 631.308C244.232 629.532 243.44 627.336 243.44 624.72C243.44 622.104 244.232 619.908 245.816 618.132C247.448 616.332 249.62 615.432 252.332 615.432C255.044 615.432 257.132 616.5 258.596 618.636V615.72H261.296V633.72H258.596V630.84ZM252.512 631.56C254.456 631.56 255.992 630.888 257.12 629.544C258.2 628.272 258.74 626.664 258.74 624.72C258.74 622.776 258.2 621.168 257.12 619.896C255.992 618.552 254.456 617.88 252.512 617.88C250.592 617.88 249.032 618.552 247.832 619.896C246.704 621.168 246.14 622.776 246.14 624.72C246.14 626.664 246.704 628.272 247.832 629.544C249.032 630.888 250.592 631.56 252.512 631.56ZM292.35 630.84C290.91 632.952 288.762 634.008 285.906 634.008C283.314 634.008 281.202 633.108 279.57 631.308C277.986 629.532 277.194 627.336 277.194 624.72C277.194 622.104 277.986 619.908 279.57 618.132C281.202 616.332 283.374 615.432 286.086 615.432C288.798 615.432 290.886 616.5 292.35 618.636V615.72H295.05V633.72H292.35V630.84ZM286.266 631.56C288.21 631.56 289.746 630.888 290.874 629.544C291.954 628.272 292.494 626.664 292.494 624.72C292.494 622.776 291.954 621.168 290.874 619.896C289.746 618.552 288.21 617.88 286.266 617.88C284.346 617.88 282.786 618.552 281.586 619.896C280.458 621.168 279.894 622.776 279.894 624.72C279.894 626.664 280.458 628.272 281.586 629.544C282.786 630.888 284.346 631.56 286.266 631.56ZM304.761 615.72V618.528C305.409 617.664 306.201 616.932 307.137 616.332C308.073 615.732 309.141 615.432 310.341 615.432C311.541 615.432 312.573 615.6 313.437 615.936C314.301 616.272 315.057 616.776 315.705 617.448C317.193 618.912 317.937 620.844 317.937 623.244V633.72H315.237V623.316C315.237 621.66 314.769 620.34 313.833 619.356C312.897 618.372 311.685 617.88 310.197 617.88C308.685 617.88 307.401 618.384 306.345 619.392C305.289 620.424 304.761 621.744 304.761 623.352V633.72H302.061V615.72H304.761ZM338.831 630.84C337.391 632.952 335.243 634.008 332.387 634.008C329.795 634.008 327.683 633.108 326.051 631.308C324.467 629.532 323.675 627.336 323.675 624.72C323.675 622.104 324.467 619.908 326.051 618.132C327.683 616.332 329.855 615.432 332.567 615.432C335.279 615.432 337.367 616.5 338.831 618.636V608.52H341.531V633.72H338.831V630.84ZM332.747 631.56C334.691 631.56 336.227 630.888 337.355 629.544C338.435 628.272 338.975 626.664 338.975 624.72C338.975 622.776 338.435 621.168 337.355 619.896C336.227 618.552 334.691 617.88 332.747 617.88C330.827 617.88 329.267 618.552 328.067 619.896C326.939 621.168 326.375 622.776 326.375 624.72C326.375 626.664 326.939 628.272 328.067 629.544C329.267 630.888 330.827 631.56 332.747 631.56ZM361.245 618.456C362.445 616.44 364.269 615.432 366.717 615.432C367.917 615.432 369.021 615.756 370.029 616.404C371.061 617.028 371.865 617.916 372.441 619.068C373.257 617.556 374.529 616.476 376.257 615.828C376.953 615.564 377.733 615.432 378.597 615.432C379.485 615.432 380.325 615.612 381.117 615.972C381.933 616.308 382.653 616.8 383.277 617.448C384.621 618.888 385.293 620.688 385.293 622.848V633.72H382.593V622.92C382.593 621.432 382.173 620.208 381.333 619.248C380.493 618.336 379.425 617.88 378.129 617.88C376.761 617.88 375.621 618.324 374.709 619.212C373.749 620.124 373.269 621.372 373.269 622.956V633.72H370.569V622.92C370.569 621.432 370.149 620.208 369.309 619.248C368.469 618.336 367.401 617.88 366.105 617.88C364.737 617.88 363.597 618.324 362.685 619.212C361.725 620.124 361.245 621.372 361.245 622.956V633.72H358.545V615.72H361.245V618.456ZM406.179 630.84C404.739 632.952 402.591 634.008 399.735 634.008C397.143 634.008 395.031 633.108 393.399 631.308C391.815 629.532 391.023 627.336 391.023 624.72C391.023 622.104 391.815 619.908 393.399 618.132C395.031 616.332 397.203 615.432 399.915 615.432C402.627 615.432 404.715 616.5 406.179 618.636V615.72H408.879V633.72H406.179V630.84ZM400.095 631.56C402.039 631.56 403.575 630.888 404.703 629.544C405.783 628.272 406.323 626.664 406.323 624.72C406.323 622.776 405.783 621.168 404.703 619.896C403.575 618.552 402.039 617.88 400.095 617.88C398.175 617.88 396.615 618.552 395.415 619.896C394.287 621.168 393.723 622.776 393.723 624.72C393.723 626.664 394.287 628.272 395.415 629.544C396.615 630.888 398.175 631.56 400.095 631.56ZM418.589 615.72V618.528C419.237 617.664 420.029 616.932 420.965 616.332C421.901 615.732 422.969 615.432 424.169 615.432C425.369 615.432 426.401 615.6 427.265 615.936C428.129 616.272 428.885 616.776 429.533 617.448C431.021 618.912 431.765 620.844 431.765 623.244V633.72H429.065V623.316C429.065 621.66 428.597 620.34 427.661 619.356C426.725 618.372 425.513 617.88 424.025 617.88C422.513 617.88 421.229 618.384 420.173 619.392C419.117 620.424 418.589 621.744 418.589 623.352V633.72H415.889V615.72H418.589ZM452.66 630.84C451.22 632.952 449.072 634.008 446.216 634.008C443.624 634.008 441.512 633.108 439.88 631.308C438.296 629.532 437.504 627.336 437.504 624.72C437.504 622.104 438.296 619.908 439.88 618.132C441.512 616.332 443.684 615.432 446.396 615.432C449.108 615.432 451.196 616.5 452.66 618.636V615.72H455.36V633.72H452.66V630.84ZM446.576 631.56C448.52 631.56 450.056 630.888 451.184 629.544C452.264 628.272 452.804 626.664 452.804 624.72C452.804 622.776 452.264 621.168 451.184 619.896C450.056 618.552 448.52 617.88 446.576 617.88C444.656 617.88 443.096 618.552 441.896 619.896C440.768 621.168 440.204 622.776 440.204 624.72C440.204 626.664 440.768 628.272 441.896 629.544C443.096 630.888 444.656 631.56 446.576 631.56ZM476.41 618.6V615.72H479.11V633.18C479.11 635.772 478.366 637.74 476.878 639.084C475.414 640.452 473.434 641.136 470.938 641.136C468.442 641.136 466.486 640.656 465.07 639.696C463.678 638.736 462.73 637.464 462.226 635.88H465.214C465.982 637.752 467.734 638.688 470.47 638.688C472.558 638.688 474.07 638.208 475.006 637.248C475.942 636.288 476.41 634.872 476.41 633V630.516C474.946 632.652 472.798 633.72 469.966 633.72C467.374 633.72 465.262 632.832 463.63 631.056C462.046 629.328 461.254 627.168 461.254 624.576C461.254 621.984 462.046 619.824 463.63 618.096C465.262 616.32 467.434 615.432 470.146 615.432C472.882 615.432 474.97 616.488 476.41 618.6ZM470.326 631.272C471.31 631.272 472.186 631.104 472.954 630.768C473.722 630.408 474.382 629.928 474.934 629.328C476.014 628.08 476.554 626.496 476.554 624.576C476.554 622.656 476.014 621.072 474.934 619.824C473.758 618.528 472.222 617.88 470.326 617.88C468.382 617.88 466.822 618.528 465.646 619.824C464.518 621.096 463.954 622.68 463.954 624.576C463.954 626.472 464.518 628.056 465.646 629.328C466.822 630.624 468.382 631.272 470.326 631.272ZM494.148 631.56C496.572 631.56 498.312 630.552 499.368 628.536H502.32C501.696 630.168 500.7 631.488 499.332 632.496C497.988 633.504 496.248 634.008 494.112 634.008C491.4 634.008 489.192 633.108 487.488 631.308C485.832 629.556 485.004 627.36 485.004 624.72C485.004 622.056 485.796 619.86 487.38 618.132C489.06 616.332 491.244 615.432 493.932 615.432C496.62 615.432 498.804 616.332 500.484 618.132C502.068 619.86 502.86 622.056 502.86 624.72V625.8H487.776C487.968 627.456 488.628 628.824 489.756 629.904C490.908 631.008 492.372 631.56 494.148 631.56ZM493.932 617.88C492.276 617.88 490.884 618.396 489.756 619.428C488.7 620.412 488.052 621.696 487.812 623.28H500.052C499.812 621.696 499.164 620.412 498.108 619.428C496.98 618.396 495.588 617.88 493.932 617.88ZM118.833 663.6C120.273 661.488 122.421 660.432 125.277 660.432C127.869 660.432 129.969 661.332 131.577 663.132C133.185 664.908 133.989 667.104 133.989 669.72C133.989 672.336 133.185 674.532 131.577 676.308C129.969 678.108 127.809 679.008 125.097 679.008C122.385 679.008 120.297 677.94 118.833 675.804V685.848H116.133V660.72H118.833V663.6ZM124.917 662.88C122.973 662.88 121.437 663.552 120.309 664.896C119.229 666.168 118.689 667.776 118.689 669.72C118.689 671.664 119.229 673.272 120.309 674.544C121.437 675.888 122.973 676.56 124.917 676.56C126.837 676.56 128.397 675.888 129.597 674.544C130.725 673.272 131.289 671.664 131.289 669.72C131.289 667.776 130.725 666.168 129.597 664.896C128.397 663.552 126.837 662.88 124.917 662.88ZM149.352 660.432V663.132H149.028C147.084 663.132 145.5 663.912 144.276 665.472C143.124 666.96 142.548 668.736 142.548 670.8V678.72H139.848V660.72H142.548V665.148C143.124 663.276 144.372 661.896 146.292 661.008C147.084 660.624 148.044 660.432 149.172 660.432H149.352ZM161.953 660.432C164.641 660.432 166.825 661.332 168.505 663.132C170.089 664.86 170.881 667.056 170.881 669.72C170.881 672.384 170.089 674.58 168.505 676.308C166.825 678.108 164.641 679.008 161.953 679.008C159.265 679.008 157.081 678.108 155.401 676.308C153.817 674.58 153.025 672.384 153.025 669.72C153.025 667.056 153.817 664.86 155.401 663.132C157.081 661.332 159.265 660.432 161.953 660.432ZM161.953 676.56C163.897 676.56 165.433 675.888 166.561 674.544C167.641 673.272 168.181 671.664 168.181 669.72C168.181 667.776 167.641 666.168 166.561 664.896C165.433 663.552 163.897 662.88 161.953 662.88C160.009 662.88 158.473 663.552 157.345 664.896C156.265 666.168 155.725 667.776 155.725 669.72C155.725 671.664 156.265 673.272 157.345 674.544C158.473 675.888 160.009 676.56 161.953 676.56ZM185.118 676.56C186.27 676.56 187.29 676.236 188.178 675.588C189.066 674.94 189.714 674.1 190.122 673.068H193.038C192.486 674.844 191.478 676.272 190.014 677.352C188.478 678.456 186.654 679.008 184.542 679.008C181.902 679.008 179.754 678.108 178.098 676.308C176.49 674.556 175.686 672.36 175.686 669.72C175.686 667.08 176.49 664.884 178.098 663.132C179.754 661.332 181.902 660.432 184.542 660.432C186.654 660.432 188.478 660.984 190.014 662.088C191.478 663.168 192.486 664.596 193.038 666.372H190.122C189.714 665.34 189.066 664.5 188.178 663.852C187.29 663.204 186.27 662.88 185.118 662.88C183.966 662.88 182.982 663.06 182.166 663.42C181.374 663.78 180.702 664.272 180.15 664.896C178.974 666.192 178.386 667.8 178.386 669.72C178.386 671.64 178.974 673.248 180.15 674.544C181.35 675.888 183.006 676.56 185.118 676.56ZM206.752 676.56C209.176 676.56 210.916 675.552 211.972 673.536H214.924C214.3 675.168 213.304 676.488 211.936 677.496C210.592 678.504 208.852 679.008 206.716 679.008C204.004 679.008 201.796 678.108 200.092 676.308C198.436 674.556 197.608 672.36 197.608 669.72C197.608 667.056 198.4 664.86 199.984 663.132C201.664 661.332 203.848 660.432 206.536 660.432C209.224 660.432 211.408 661.332 213.088 663.132C214.672 664.86 215.464 667.056 215.464 669.72V670.8H200.38C200.572 672.456 201.232 673.824 202.36 674.904C203.512 676.008 204.976 676.56 206.752 676.56ZM206.536 662.88C204.88 662.88 203.488 663.396 202.36 664.428C201.304 665.412 200.656 666.696 200.416 668.28H212.656C212.416 666.696 211.768 665.412 210.712 664.428C209.584 663.396 208.192 662.88 206.536 662.88ZM231.687 665.544C231.447 663.672 229.935 662.736 227.151 662.736C224.391 662.736 223.011 663.6 223.011 665.328C223.011 666.048 223.299 666.6 223.875 666.984C224.475 667.344 225.219 667.644 226.107 667.884C226.995 668.124 227.955 668.352 228.987 668.568C230.043 668.76 231.015 669.048 231.903 669.432C232.791 669.792 233.523 670.296 234.099 670.944C234.699 671.592 234.999 672.48 234.999 673.608C234.999 675.36 234.339 676.704 233.019 677.64C231.699 678.552 229.911 679.008 227.655 679.008C225.255 679.008 223.347 678.408 221.931 677.208C220.635 676.152 219.939 674.772 219.843 673.068H222.651C222.819 674.724 223.755 675.84 225.459 676.416C226.083 676.608 226.695 676.704 227.295 676.704C227.919 676.704 228.495 676.668 229.023 676.596C229.551 676.524 230.067 676.392 230.571 676.2C231.723 675.744 232.299 674.964 232.299 673.86C232.299 673.116 231.999 672.552 231.399 672.168C230.823 671.76 230.091 671.436 229.203 671.196C228.315 670.932 227.343 670.704 226.287 670.512C225.255 670.296 224.295 670.008 223.407 669.648C222.519 669.288 221.775 668.796 221.175 668.172C220.599 667.548 220.311 666.684 220.311 665.58C220.311 663.948 220.899 662.688 222.075 661.8C223.275 660.888 225.039 660.432 227.367 660.432C229.575 660.432 231.315 660.96 232.587 662.016C233.643 662.904 234.255 664.08 234.423 665.544H231.687ZM251.394 665.544C251.154 663.672 249.642 662.736 246.858 662.736C244.098 662.736 242.718 663.6 242.718 665.328C242.718 666.048 243.006 666.6 243.582 666.984C244.182 667.344 244.926 667.644 245.814 667.884C246.702 668.124 247.662 668.352 248.694 668.568C249.75 668.76 250.722 669.048 251.61 669.432C252.498 669.792 253.23 670.296 253.806 670.944C254.406 671.592 254.706 672.48 254.706 673.608C254.706 675.36 254.046 676.704 252.726 677.64C251.406 678.552 249.618 679.008 247.362 679.008C244.962 679.008 243.054 678.408 241.638 677.208C240.342 676.152 239.646 674.772 239.55 673.068H242.358C242.526 674.724 243.462 675.84 245.166 676.416C245.79 676.608 246.402 676.704 247.002 676.704C247.626 676.704 248.202 676.668 248.73 676.596C249.258 676.524 249.774 676.392 250.278 676.2C251.43 675.744 252.006 674.964 252.006 673.86C252.006 673.116 251.706 672.552 251.106 672.168C250.53 671.76 249.798 671.436 248.91 671.196C248.022 670.932 247.05 670.704 245.994 670.512C244.962 670.296 244.002 670.008 243.114 669.648C242.226 669.288 241.482 668.796 240.882 668.172C240.306 667.548 240.018 666.684 240.018 665.58C240.018 663.948 240.606 662.688 241.782 661.8C242.982 660.888 244.746 660.432 247.074 660.432C249.282 660.432 251.022 660.96 252.294 662.016C253.35 662.904 253.962 664.08 254.13 665.544H251.394ZM268.545 676.56C270.969 676.56 272.709 675.552 273.765 673.536H276.717C276.093 675.168 275.097 676.488 273.729 677.496C272.385 678.504 270.645 679.008 268.509 679.008C265.797 679.008 263.589 678.108 261.885 676.308C260.229 674.556 259.401 672.36 259.401 669.72C259.401 667.056 260.193 664.86 261.777 663.132C263.457 661.332 265.641 660.432 268.329 660.432C271.017 660.432 273.201 661.332 274.881 663.132C276.465 664.86 277.257 667.056 277.257 669.72V670.8H262.173C262.365 672.456 263.025 673.824 264.153 674.904C265.305 676.008 266.769 676.56 268.545 676.56ZM268.329 662.88C266.673 662.88 265.281 663.396 264.153 664.428C263.097 665.412 262.449 666.696 262.209 668.28H274.449C274.209 666.696 273.561 665.412 272.505 664.428C271.377 663.396 269.985 662.88 268.329 662.88ZM293.48 665.544C293.24 663.672 291.728 662.736 288.944 662.736C286.184 662.736 284.804 663.6 284.804 665.328C284.804 666.048 285.092 666.6 285.668 666.984C286.268 667.344 287.012 667.644 287.9 667.884C288.788 668.124 289.748 668.352 290.78 668.568C291.836 668.76 292.808 669.048 293.696 669.432C294.584 669.792 295.316 670.296 295.892 670.944C296.492 671.592 296.792 672.48 296.792 673.608C296.792 675.36 296.132 676.704 294.812 677.64C293.492 678.552 291.704 679.008 289.448 679.008C287.048 679.008 285.14 678.408 283.724 677.208C282.428 676.152 281.732 674.772 281.636 673.068H284.444C284.612 674.724 285.548 675.84 287.252 676.416C287.876 676.608 288.488 676.704 289.088 676.704C289.712 676.704 290.288 676.668 290.816 676.596C291.344 676.524 291.86 676.392 292.364 676.2C293.516 675.744 294.092 674.964 294.092 673.86C294.092 673.116 293.792 672.552 293.192 672.168C292.616 671.76 291.884 671.436 290.996 671.196C290.108 670.932 289.136 670.704 288.08 670.512C287.048 670.296 286.088 670.008 285.2 669.648C284.312 669.288 283.568 668.796 282.968 668.172C282.392 667.548 282.104 666.684 282.104 665.58C282.104 663.948 282.692 662.688 283.868 661.8C285.068 660.888 286.832 660.432 289.16 660.432C291.368 660.432 293.108 660.96 294.38 662.016C295.436 662.904 296.048 664.08 296.216 665.544H293.48Z" fill="white"/>
<path d="M1487.23 226.471L1500.13 239.37" stroke="white" stroke-width="3" stroke-linecap="round"/>
<path d="M1500.13 226.471L1487.23 239.37" stroke="white" stroke-width="3" stroke-linecap="round"/>
<circle cx="1453.23" cy="232.921" r="7.5" stroke="white" stroke-width="3"/>
<path d="M1419.23 238.921H1402.23" stroke="white" stroke-width="3" stroke-linecap="round"/>
<path fill-rule="evenodd" clip-rule="evenodd" d="M1000.3 753.064L990.27 762.106L993.489 778.058C993.628 778.744 994.175 779.28 994.713 779.256C995.25 779.231 995.574 778.656 995.436 777.97L992.508 763.463L1000.88 755.919L1012.11 762.572L1015.04 777.08C1015.17 777.765 1015.72 778.301 1016.26 778.277C1016.8 778.252 1017.12 777.677 1016.98 776.991L1013.76 761.039L1000.3 753.064Z" fill="black"/>
<path fill-rule="evenodd" clip-rule="evenodd" d="M1006.97 764.569C1006.43 764.593 1006.11 765.169 1006.25 765.854L1009.29 780.906L1006.41 783.315L1002.61 781.209L999.576 766.157C999.437 765.472 998.89 764.936 998.352 764.96C997.815 764.985 997.491 765.56 997.629 766.246L1000.97 782.791L1006.97 786.126L1011.53 782.311L1008.19 765.766C1008.06 765.08 1007.51 764.544 1006.97 764.569Z" fill="black"/>
</g>
<defs>
<filter id="filter0_d" x="611.125" y="308.342" width="1079" height="751.78" filterUnits="userSpaceOnUse" color-interpolation-filters="sRGB">
<feFlood flood-opacity="0" result="BackgroundImageFix"/>
<feColorMatrix in="SourceAlpha" type="matrix" values="0 0 0 0 0 0 0 0 0 0 0 0 0 0 0 0 0 0 127 0"/>
<feOffset dx="70" dy="70"/>
<feGaussianBlur stdDeviation="60"/>
<feColorMatrix type="matrix" values="0 0 0 0 1 0 0 0 0 1 0 0 0 0 1 0 0 0 0.14 0"/>
<feBlend mode="normal" in2="BackgroundImageFix" result="effect1_dropShadow"/>
<feBlend mode="normal" in="SourceGraphic" in2="effect1_dropShadow" result="shape"/>
</filter>
<filter id="filter1_d" x="352.393" y="745.121" width="559" height="380" filterUnits="userSpaceOnUse" color-interpolation-filters="sRGB">
<feFlood flood-opacity="0" result="BackgroundImageFix"/>
<feColorMatrix in="SourceAlpha" type="matrix" values="0 0 0 0 0 0 0 0 0 0 0 0 0 0 0 0 0 0 127 0"/>
<feOffset dx="70" dy="70"/>
<feGaussianBlur stdDeviation="60"/>
<feColorMatrix type="matrix" values="0 0 0 0 0.9 0 0 0 0 0 0 0 0 0 0 0 0 0 0.16 0"/>
<feBlend mode="normal" in2="BackgroundImageFix" result="effect1_dropShadow"/>
<feBlend mode="normal" in="SourceGraphic" in2="effect1_dropShadow" result="shape"/>
</filter>
<clipPath id="clip0">
<rect width="1600" height="1200" fill="white" transform="translate(0.785645 0.121338)"/>
</clipPath>
<clipPath id="clip1">
<rect width="78.7829" height="45.9567" fill="white" transform="translate(845.362 544.434)"/>
</clipPath>
<clipPath id="clip2">
<rect width="78.7829" height="45.9567" fill="white" transform="translate(752.884 604.841)"/>
</clipPath>
</defs>
</svg>
