<svg width="1600" height="1201" viewBox="0 0 1600 1201" fill="none" xmlns="http://www.w3.org/2000/svg">
<g clip-path="url(#clip0)">
<rect width="1600" height="1200" transform="translate(0 0.423828)" fill="black"/>
<path fill-rule="evenodd" clip-rule="evenodd" d="M1826.89 502.424L1702.81 582.508C1578.73 662.592 1330.58 822.759 1082.42 822.759C834.262 822.759 586.104 662.591 337.946 689.286C89.7887 715.981 -158.369 929.537 -406.527 1049.66C-654.684 1169.79 -902.842 1196.48 -1026.92 1209.83L-1151 1223.18L-1026.92 1223.18C-902.842 1223.18 -654.684 1223.18 -406.527 1223.18C-158.369 1223.18 89.7886 1223.18 337.946 1223.18C586.104 1223.18 834.262 1223.18 1082.42 1223.18C1330.58 1223.18 1578.73 1223.18 1702.81 1223.18L1826.89 1223.18L1826.89 502.424Z" fill="white"/>
<g filter="url(#filter0_d)">
<rect x="97" y="318.424" width="839" height="537" rx="48" fill="white"/>
</g>
<path fill-rule="evenodd" clip-rule="evenodd" d="M933.809 627.424C932.6 627.424 931.619 626.402 931.619 625.142L931.619 316.988C931.619 285.508 906.099 259.988 874.619 259.988L158.381 259.988C126.901 259.988 101.381 285.508 101.381 316.988L101.381 409.461C101.381 410.721 100.4 411.743 99.1906 411.743C97.9808 411.743 97 410.721 97 409.461L97 312.424C97 280.944 122.52 255.424 154 255.424L879 255.424C910.48 255.424 936 280.944 936 312.424L936 625.142C936 626.402 935.019 627.424 933.809 627.424Z" fill="white"/>
<rect x="1483.8" y="744.924" width="57" height="17" rx="8.5" transform="rotate(-90 1483.8 744.924)" stroke="black" stroke-width="3"/>
<path d="M1499.3 696.424C1499.3 692.558 1496.17 689.424 1492.3 689.424C1488.44 689.424 1485.3 692.558 1485.3 696.424L1485.3 710.217L1482.3 711.333L1482.3 696.424C1482.3 690.901 1486.78 686.424 1492.3 686.424C1497.83 686.424 1502.3 690.901 1502.3 696.424L1502.3 703.745L1499.3 704.995L1499.3 696.424Z" fill="white"/>
<circle cx="1492.3" cy="816.424" r="8.5" transform="rotate(-90 1492.3 816.424)" fill="black" stroke="black" stroke-width="3"/>
<circle cx="1492.3" cy="776.424" r="8.5" transform="rotate(-90 1492.3 776.424)" fill="black" stroke="black" stroke-width="3"/>
<path d="M1054.91 424.322L1073.26 396.197C1075.25 396.314 1077.14 396.467 1078.92 396.654C1080.7 396.818 1082.26 396.994 1083.6 397.182C1085.17 397.393 1086.62 397.604 1087.96 397.814V405.9L1081.42 404.424V440.705L1087.96 439.229V447.947C1085.47 448.439 1083.02 448.803 1080.61 449.037C1078.2 449.271 1075.75 449.447 1073.26 449.564V410.963L1054.91 439.439L1036.28 410.893V449.564C1034.29 449.447 1032.4 449.307 1030.62 449.143C1028.84 448.979 1027.28 448.803 1025.94 448.615C1024.37 448.404 1022.92 448.182 1021.58 447.947V439.229L1028.12 440.705V404.354L1021.58 405.83V397.744C1022.92 397.533 1024.37 397.322 1025.94 397.111C1027.28 396.924 1028.84 396.748 1030.62 396.584C1032.4 396.396 1034.29 396.244 1036.28 396.127L1054.91 424.322ZM1123.46 408.713C1125.43 408.713 1127.39 408.807 1129.34 408.994C1131.3 409.182 1133.19 409.486 1135 409.908C1136.8 410.33 1138.49 410.857 1140.06 411.49C1141.63 412.123 1142.99 412.885 1144.14 413.775C1145.31 414.666 1146.22 415.697 1146.88 416.869C1147.54 418.018 1147.86 419.307 1147.86 420.736V438.947C1147.86 440.213 1147.54 441.373 1146.88 442.428C1146.22 443.482 1145.31 444.432 1144.14 445.275C1142.99 446.096 1141.63 446.811 1140.06 447.42C1138.49 448.029 1136.8 448.533 1135 448.932C1133.19 449.33 1131.3 449.623 1129.34 449.811C1127.37 450.021 1125.41 450.127 1123.46 450.127C1121.52 450.127 1119.56 450.021 1117.59 449.811C1115.65 449.623 1113.77 449.33 1111.97 448.932C1110.16 448.533 1108.48 448.029 1106.91 447.42C1105.36 446.811 1104 446.096 1102.83 445.275C1101.68 444.432 1100.78 443.494 1100.12 442.463C1099.46 441.408 1099.14 440.236 1099.14 438.947V420.736C1099.14 419.307 1099.46 418.018 1100.12 416.869C1100.78 415.697 1101.68 414.666 1102.83 413.775C1104 412.885 1105.36 412.123 1106.91 411.49C1108.48 410.857 1110.16 410.33 1111.97 409.908C1113.77 409.486 1115.65 409.182 1117.59 408.994C1119.56 408.807 1121.52 408.713 1123.46 408.713ZM1108.07 436.697C1108.07 437.775 1108.51 438.713 1109.4 439.51C1110.32 440.283 1111.5 440.939 1112.95 441.479C1114.41 441.994 1116.05 442.381 1117.88 442.639C1119.73 442.896 1121.59 443.025 1123.46 443.025C1125.43 443.025 1127.33 442.885 1129.16 442.604C1131.01 442.322 1132.65 441.924 1134.08 441.408C1135.51 440.869 1136.65 440.213 1137.49 439.439C1138.36 438.643 1138.79 437.729 1138.79 436.697V422.072C1138.79 421.064 1138.36 420.162 1137.49 419.365C1136.65 418.545 1135.51 417.865 1134.08 417.326C1132.65 416.764 1131.01 416.342 1129.16 416.061C1127.33 415.756 1125.43 415.604 1123.46 415.604C1121.59 415.604 1119.73 415.744 1117.88 416.025C1116.05 416.283 1114.41 416.682 1112.95 417.221C1111.5 417.76 1110.32 418.439 1109.4 419.26C1108.51 420.057 1108.07 420.994 1108.07 422.072V436.697ZM1187.66 409.346C1187.66 411.783 1187.58 414.326 1187.41 416.975C1187.25 419.6 1186.93 422.307 1186.46 425.096H1177.96C1178.17 424.299 1178.37 423.432 1178.55 422.494C1178.7 421.697 1178.82 420.771 1178.94 419.717C1179.08 418.639 1179.15 417.502 1179.15 416.307C1177.09 416.354 1175.38 416.553 1174.02 416.904C1172.68 417.232 1171.57 417.631 1170.68 418.1C1169.79 418.545 1169.06 419.002 1168.5 419.471C1167.94 419.939 1167.43 420.314 1166.99 420.596V449.424H1157.99V420.385C1157.89 419.635 1157.67 419.002 1157.32 418.486C1156.99 417.971 1156.64 417.549 1156.27 417.221C1155.84 416.822 1155.36 416.494 1154.82 416.236L1158.55 409.346C1159.42 409.65 1160.27 410.061 1161.12 410.576C1161.84 411.021 1162.61 411.596 1163.4 412.299C1164.22 412.979 1164.95 413.822 1165.58 414.83C1166.78 414.01 1167.88 413.318 1168.89 412.756C1169.89 412.17 1170.87 411.678 1171.8 411.279C1172.77 410.881 1173.75 410.576 1174.76 410.365C1175.79 410.131 1176.91 409.943 1178.13 409.803C1179.38 409.662 1180.76 409.568 1182.28 409.521C1183.83 409.451 1185.62 409.393 1187.66 409.346ZM1220.99 409.346C1222.18 409.346 1223.62 409.404 1225.31 409.521C1227 409.639 1228.75 409.85 1230.55 410.154C1232.38 410.436 1234.18 410.846 1235.96 411.385C1237.75 411.9 1239.34 412.568 1240.75 413.389C1242.18 414.209 1243.32 415.205 1244.19 416.377C1245.08 417.525 1245.53 418.885 1245.53 420.455V432.338H1205.24V441.338C1208.07 441.736 1210.8 442.018 1213.43 442.182C1216.05 442.322 1218.57 442.393 1220.99 442.393C1224.67 442.393 1228 442.252 1230.97 441.971C1233.97 441.689 1236.56 441.373 1238.74 441.021C1241.25 440.623 1243.51 440.166 1245.53 439.65V447.455C1241.07 448.158 1236.77 448.662 1232.62 448.967C1228.5 449.271 1224.62 449.424 1220.99 449.424C1217.33 449.424 1214.02 449.33 1211.04 449.143C1208.06 448.932 1205.51 448.697 1203.38 448.439C1200.89 448.158 1198.65 447.83 1196.66 447.455V420.455C1196.66 418.885 1197.05 417.525 1197.82 416.377C1198.59 415.205 1199.62 414.209 1200.91 413.389C1202.2 412.568 1203.68 411.9 1205.34 411.385C1207.03 410.846 1208.78 410.436 1210.58 410.154C1212.39 409.85 1214.18 409.639 1215.96 409.521C1217.77 409.404 1219.44 409.346 1220.99 409.346ZM1205.24 426.713H1236.81V422.635C1236.81 421.674 1236.57 420.854 1236.11 420.174C1235.64 419.471 1235 418.885 1234.21 418.416C1233.43 417.947 1232.52 417.572 1231.46 417.291C1230.43 416.986 1229.36 416.764 1228.23 416.623C1227.11 416.459 1225.97 416.354 1224.82 416.307C1223.7 416.26 1222.63 416.236 1221.62 416.236C1220.57 416.236 1219.43 416.26 1218.21 416.307C1217.02 416.354 1215.81 416.459 1214.59 416.623C1213.37 416.787 1212.2 417.021 1211.07 417.326C1209.95 417.607 1208.95 417.994 1208.09 418.486C1207.22 418.955 1206.53 419.541 1206.01 420.244C1205.5 420.924 1205.24 421.744 1205.24 422.705V426.713ZM1045.63 467.51C1047.08 467.51 1048.56 467.662 1050.06 467.967C1051.56 468.248 1052.89 468.635 1054.07 469.127C1056.13 472.736 1058 476.416 1059.69 480.166C1061.4 483.893 1062.93 487.736 1064.26 491.697C1065.18 491.814 1066.1 491.943 1067.04 492.084C1067.98 492.201 1068.93 492.33 1069.89 492.471V501.471L1066.86 500.627C1067.71 504.119 1068.42 507.682 1069.01 511.314C1069.59 514.947 1070.03 518.65 1070.31 522.424H1061.94C1061.59 518.393 1061 514.408 1060.18 510.471C1059.36 506.533 1058.43 502.76 1057.37 499.15C1055.1 498.963 1052.93 498.822 1050.87 498.729C1048.83 498.635 1047.08 498.588 1045.63 498.588C1043.68 498.588 1041.75 498.623 1039.83 498.693C1037.91 498.764 1035.97 498.893 1034.03 499.08C1032.97 502.689 1032.02 506.463 1031.18 510.4C1030.36 514.338 1029.79 518.346 1029.46 522.424H1021.09C1021.35 518.65 1021.76 514.959 1022.32 511.35C1022.91 507.74 1023.62 504.189 1024.46 500.697L1021.72 501.471V492.471L1027.14 491.697C1028.45 487.736 1029.95 483.893 1031.64 480.166C1033.35 476.416 1035.25 472.736 1037.33 469.127C1038.5 468.635 1039.83 468.248 1041.3 467.967C1042.78 467.662 1044.22 467.51 1045.63 467.51ZM1045.63 490.643C1047.04 490.643 1048.49 490.666 1049.99 490.713C1051.49 490.736 1053.04 490.807 1054.63 490.924C1053.43 487.666 1052.25 484.842 1051.08 482.451C1049.93 480.037 1048.93 478.174 1048.09 476.861C1047.67 476.674 1047.27 476.545 1046.89 476.475C1046.52 476.404 1046.1 476.369 1045.63 476.369C1044.88 476.369 1044.11 476.533 1043.31 476.861C1042.46 478.174 1041.46 480.037 1040.29 482.451C1039.11 484.842 1037.94 487.666 1036.77 490.924C1038.32 490.807 1039.83 490.736 1041.3 490.713C1042.8 490.666 1044.25 490.643 1045.63 490.643ZM1103.57 482.346C1107.18 482.346 1110.4 482.604 1113.23 483.119C1116.09 483.611 1118.5 484.385 1120.44 485.439C1122.41 486.494 1123.91 487.83 1124.94 489.447C1125.97 491.064 1126.49 492.986 1126.49 495.213V509.557C1126.49 511.783 1125.97 513.705 1124.94 515.322C1123.91 516.939 1122.41 518.275 1120.44 519.33C1118.5 520.385 1116.09 521.17 1113.23 521.686C1110.4 522.178 1107.18 522.424 1103.57 522.424C1101.55 522.424 1099.49 522.354 1097.38 522.213C1095.27 522.049 1093.23 521.85 1091.26 521.615C1089.29 521.357 1087.44 521.064 1085.71 520.736C1083.97 520.408 1082.5 520.057 1081.28 519.682V468.916H1090.49V484.877C1092.57 484.127 1094.75 483.518 1097.03 483.049C1099.32 482.58 1101.5 482.346 1103.57 482.346ZM1101.04 488.885C1099.82 488.885 1098.7 488.967 1097.7 489.131C1096.69 489.295 1095.75 489.506 1094.88 489.764C1094.04 490.021 1093.25 490.314 1092.53 490.643C1091.8 490.947 1091.12 491.252 1090.49 491.557V513.705C1091.12 513.916 1091.85 514.127 1092.67 514.338C1093.49 514.525 1094.36 514.701 1095.27 514.865C1096.21 515.029 1097.16 515.158 1098.12 515.252C1099.1 515.346 1100.07 515.393 1101.04 515.393C1102.49 515.393 1103.91 515.381 1105.29 515.357C1106.67 515.311 1107.96 515.205 1109.16 515.041C1110.35 514.877 1111.44 514.631 1112.43 514.303C1113.43 513.975 1114.29 513.518 1114.99 512.932C1115.72 512.322 1116.28 511.584 1116.68 510.717C1117.08 509.826 1117.28 508.736 1117.28 507.447V497.111C1117.28 495.26 1116.84 493.795 1115.98 492.717C1115.11 491.615 1113.94 490.783 1112.46 490.221C1110.98 489.658 1109.26 489.295 1107.29 489.131C1105.32 488.967 1103.24 488.885 1101.04 488.885ZM1160.38 481.713C1162.35 481.713 1164.3 481.807 1166.25 481.994C1168.22 482.182 1170.11 482.486 1171.91 482.908C1173.71 483.33 1175.4 483.857 1176.97 484.49C1178.54 485.123 1179.9 485.885 1181.05 486.775C1182.22 487.666 1183.14 488.697 1183.79 489.869C1184.45 491.018 1184.78 492.307 1184.78 493.736V511.947C1184.78 513.213 1184.45 514.373 1183.79 515.428C1183.14 516.482 1182.22 517.432 1181.05 518.275C1179.9 519.096 1178.54 519.811 1176.97 520.42C1175.4 521.029 1173.71 521.533 1171.91 521.932C1170.11 522.33 1168.22 522.623 1166.25 522.811C1164.28 523.021 1162.32 523.127 1160.38 523.127C1158.43 523.127 1156.48 523.021 1154.51 522.811C1152.56 522.623 1150.69 522.33 1148.88 521.932C1147.08 521.533 1145.39 521.029 1143.82 520.42C1142.27 519.811 1140.91 519.096 1139.74 518.275C1138.59 517.432 1137.69 516.494 1137.04 515.463C1136.38 514.408 1136.05 513.236 1136.05 511.947V493.736C1136.05 492.307 1136.38 491.018 1137.04 489.869C1137.69 488.697 1138.59 487.666 1139.74 486.775C1140.91 485.885 1142.27 485.123 1143.82 484.49C1145.39 483.857 1147.08 483.33 1148.88 482.908C1150.69 482.486 1152.56 482.182 1154.51 481.994C1156.48 481.807 1158.43 481.713 1160.38 481.713ZM1144.98 509.697C1144.98 510.775 1145.43 511.713 1146.32 512.51C1147.23 513.283 1148.41 513.939 1149.87 514.479C1151.32 514.994 1152.96 515.381 1154.79 515.639C1156.64 515.896 1158.5 516.025 1160.38 516.025C1162.35 516.025 1164.25 515.885 1166.07 515.604C1167.93 515.322 1169.57 514.924 1171 514.408C1172.43 513.869 1173.56 513.213 1174.41 512.439C1175.27 511.643 1175.71 510.729 1175.71 509.697V495.072C1175.71 494.064 1175.27 493.162 1174.41 492.365C1173.56 491.545 1172.43 490.865 1171 490.326C1169.57 489.764 1167.93 489.342 1166.07 489.061C1164.25 488.756 1162.35 488.604 1160.38 488.604C1158.5 488.604 1156.64 488.744 1154.79 489.025C1152.96 489.283 1151.32 489.682 1149.87 490.221C1148.41 490.76 1147.23 491.439 1146.32 492.26C1145.43 493.057 1144.98 493.994 1144.98 495.072V509.697ZM1201.51 509.697C1201.51 510.775 1201.9 511.678 1202.67 512.404C1203.47 513.131 1204.52 513.729 1205.84 514.197C1207.17 514.643 1208.71 514.971 1210.44 515.182C1212.18 515.369 1213.98 515.463 1215.86 515.463C1217.82 515.463 1219.68 515.357 1221.41 515.146C1223.14 514.912 1224.66 514.572 1225.95 514.127C1227.23 513.658 1228.25 513.061 1229 512.334C1229.75 511.607 1230.13 510.729 1230.13 509.697V482.346L1239.48 483.049V511.947C1239.48 513.213 1239.16 514.373 1238.53 515.428C1237.92 516.482 1237.07 517.432 1235.96 518.275C1234.86 519.096 1233.56 519.811 1232.06 520.42C1230.56 521.029 1228.93 521.533 1227.18 521.932C1225.44 522.33 1223.6 522.623 1221.66 522.811C1219.73 523.021 1217.8 523.127 1215.86 523.127C1213.89 523.127 1211.94 523.021 1210.02 522.811C1208.1 522.623 1206.26 522.33 1204.5 521.932C1202.77 521.533 1201.15 521.029 1199.65 520.42C1198.15 519.811 1196.85 519.096 1195.75 518.275C1194.64 517.432 1193.78 516.494 1193.14 515.463C1192.54 514.408 1192.23 513.236 1192.23 511.947V483.049L1201.51 482.346V509.697ZM1261.91 481.854H1270.84V487.76H1261.91V522.424H1253.54V487.76H1246.93V481.854H1253.54V469.619H1261.91V481.854ZM1324.07 508.08C1324.07 509.111 1324.45 510.072 1325.23 510.963C1326.02 511.854 1327.14 512.639 1328.57 513.318C1330.02 513.975 1331.75 514.502 1333.77 514.9C1335.81 515.275 1338.08 515.463 1340.59 515.463C1343.14 515.463 1345.44 515.264 1347.48 514.865C1349.52 514.443 1351.24 513.893 1352.65 513.213C1354.08 512.533 1355.17 511.748 1355.92 510.857C1356.67 509.967 1357.04 509.041 1357.04 508.08V469.689C1359.06 469.783 1360.96 469.924 1362.74 470.111C1364.52 470.275 1366.1 470.451 1367.48 470.639C1369.08 470.85 1370.57 471.072 1371.95 471.307V480.307C1371.39 480.119 1370.58 479.896 1369.52 479.639C1368.47 479.357 1367.31 479.111 1366.04 478.9V510.682C1366.04 512.533 1365.36 514.221 1364 515.744C1362.67 517.268 1360.84 518.58 1358.52 519.682C1356.22 520.76 1353.53 521.604 1350.43 522.213C1347.34 522.822 1344.06 523.127 1340.59 523.127C1337.1 523.127 1333.8 522.822 1330.71 522.213C1327.62 521.604 1324.91 520.76 1322.59 519.682C1320.27 518.58 1318.43 517.268 1317.07 515.744C1315.73 514.221 1315.07 512.533 1315.07 510.682V478.9C1313.8 479.158 1312.63 479.416 1311.55 479.674C1310.5 479.908 1309.7 480.119 1309.16 480.307V471.307C1310.5 471.072 1311.97 470.85 1313.59 470.639C1314.95 470.451 1316.53 470.275 1318.34 470.111C1320.14 469.924 1322.05 469.783 1324.07 469.689V508.08ZM1404.15 482.346C1406.94 482.346 1409.66 482.521 1412.31 482.873C1414.96 483.201 1417.34 483.775 1419.45 484.596C1421.55 485.393 1423.29 486.482 1424.65 487.865C1426.01 489.248 1426.82 490.971 1427.07 493.033L1418.92 495.283C1418.92 494.064 1418.5 493.057 1417.65 492.26C1416.83 491.439 1415.73 490.807 1414.35 490.361C1412.99 489.893 1411.42 489.564 1409.64 489.377C1407.86 489.189 1406.03 489.096 1404.15 489.096C1402.35 489.096 1400.55 489.189 1398.77 489.377C1397.02 489.541 1395.43 489.857 1394.03 490.326C1392.64 490.771 1391.52 491.393 1390.65 492.189C1389.81 492.986 1389.39 494.018 1389.39 495.283V499.572H1427.07V511.736C1427.07 513.119 1426.77 514.35 1426.16 515.428C1425.55 516.482 1424.71 517.408 1423.63 518.205C1422.55 518.979 1421.27 519.646 1419.8 520.209C1418.34 520.748 1416.76 521.182 1415.05 521.51C1413.36 521.838 1411.58 522.072 1409.71 522.213C1407.86 522.354 1406 522.424 1404.15 522.424C1401.32 522.424 1398.57 522.26 1395.93 521.932C1393.28 521.58 1390.9 521.006 1388.79 520.209C1386.68 519.389 1384.95 518.299 1383.59 516.939C1382.25 515.557 1381.46 513.822 1381.23 511.736L1389.39 509.486C1389.39 510.775 1389.81 511.818 1390.65 512.615C1391.52 513.412 1392.64 514.033 1394.03 514.479C1395.43 514.924 1397.02 515.229 1398.77 515.393C1400.55 515.533 1402.35 515.604 1404.15 515.604C1406.03 515.604 1407.86 515.521 1409.64 515.357C1411.42 515.17 1412.99 514.854 1414.35 514.408C1415.73 513.939 1416.83 513.318 1417.65 512.545C1418.5 511.748 1418.92 510.729 1418.92 509.486V505.197H1381.23V493.033C1381.23 491.65 1381.54 490.432 1382.14 489.377C1382.75 488.299 1383.59 487.373 1384.64 486.6C1385.72 485.803 1386.98 485.135 1388.44 484.596C1389.89 484.033 1391.46 483.588 1393.15 483.26C1394.86 482.932 1396.64 482.697 1398.49 482.557C1400.37 482.416 1402.25 482.346 1404.15 482.346Z" fill="white"/>
<path d="M1018.22 609.424V585.592H1020.92V606.832H1033.91V609.424H1018.22ZM1046.78 609.712C1044.96 609.712 1043.36 609.304 1042 608.488C1040.63 607.648 1039.56 606.52 1038.79 605.104C1038.05 603.688 1037.68 602.128 1037.68 600.424C1037.68 598.696 1038.04 597.136 1038.76 595.744C1039.48 594.328 1040.51 593.212 1041.85 592.396C1043.2 591.556 1044.78 591.136 1046.6 591.136C1048.45 591.136 1050.04 591.556 1051.36 592.396C1052.7 593.212 1053.73 594.328 1054.45 595.744C1055.17 597.136 1055.53 598.696 1055.53 600.424V601.504H1040.45C1040.59 602.56 1040.93 603.532 1041.46 604.42C1042.01 605.284 1042.74 605.98 1043.65 606.508C1044.56 607.012 1045.62 607.264 1046.82 607.264C1048.09 607.264 1049.16 606.988 1050.02 606.436C1050.89 605.86 1051.56 605.128 1052.04 604.24H1054.99C1054.37 605.848 1053.37 607.168 1052 608.2C1050.66 609.208 1048.92 609.712 1046.78 609.712ZM1040.48 598.984H1052.72C1052.48 597.448 1051.84 596.164 1050.78 595.132C1049.72 594.1 1048.33 593.584 1046.6 593.584C1044.88 593.584 1043.48 594.1 1042.43 595.132C1041.4 596.164 1040.75 597.448 1040.48 598.984ZM1068.77 609.712C1067.01 609.712 1065.48 609.304 1064.16 608.488C1062.86 607.648 1061.85 606.52 1061.13 605.104C1060.41 603.688 1060.05 602.128 1060.05 600.424C1060.05 598.696 1060.41 597.136 1061.13 595.744C1061.85 594.328 1062.86 593.212 1064.16 592.396C1065.48 591.556 1067.01 591.136 1068.77 591.136C1070.25 591.136 1071.53 591.424 1072.58 592C1073.66 592.576 1074.54 593.356 1075.21 594.34V591.424H1077.91V609.424H1075.21V606.544C1074.54 607.504 1073.66 608.272 1072.58 608.848C1071.53 609.424 1070.25 609.712 1068.77 609.712ZM1069.13 607.264C1070.47 607.264 1071.6 606.952 1072.51 606.328C1073.45 605.704 1074.15 604.876 1074.63 603.844C1075.11 602.788 1075.35 601.648 1075.35 600.424C1075.35 599.176 1075.11 598.036 1074.63 597.004C1074.15 595.972 1073.45 595.144 1072.51 594.52C1071.6 593.896 1070.47 593.584 1069.13 593.584C1067.81 593.584 1066.67 593.896 1065.71 594.52C1064.75 595.144 1064.01 595.972 1063.51 597.004C1063.01 598.036 1062.75 599.176 1062.75 600.424C1062.75 601.648 1063.01 602.788 1063.51 603.844C1064.01 604.876 1064.75 605.704 1065.71 606.328C1066.67 606.952 1067.81 607.264 1069.13 607.264ZM1084.92 609.424V591.424H1087.62V595.852C1087.72 595.54 1087.9 595.132 1088.16 594.628C1088.45 594.1 1088.86 593.572 1089.38 593.044C1089.91 592.516 1090.57 592.072 1091.36 591.712C1092.18 591.328 1093.14 591.136 1094.24 591.136H1094.42V593.836H1094.1C1092.76 593.836 1091.59 594.208 1090.61 594.952C1089.65 595.672 1088.9 596.62 1088.38 597.796C1087.87 598.948 1087.62 600.184 1087.62 601.504V609.424H1084.92ZM1099.67 609.424V591.424H1102.37V594.232C1103.02 593.368 1103.81 592.636 1104.75 592.036C1105.68 591.436 1106.88 591.136 1108.35 591.136C1109.59 591.136 1110.76 591.436 1111.84 592.036C1112.94 592.612 1113.83 593.488 1114.5 594.664C1115.2 595.816 1115.55 597.244 1115.55 598.948V609.424H1112.85V599.02C1112.85 597.388 1112.38 596.08 1111.44 595.096C1110.51 594.088 1109.29 593.584 1107.81 593.584C1106.8 593.584 1105.89 593.812 1105.07 594.268C1104.25 594.724 1103.59 595.372 1103.09 596.212C1102.61 597.028 1102.37 597.976 1102.37 599.056V609.424H1099.67ZM1132.41 609.424V591.424H1135.11V594.16C1135.51 593.44 1136.16 592.756 1137.05 592.108C1137.94 591.46 1139.11 591.136 1140.58 591.136C1141.78 591.136 1142.88 591.46 1143.89 592.108C1144.92 592.732 1145.73 593.62 1146.3 594.772C1146.54 594.364 1146.91 593.872 1147.42 593.296C1147.95 592.72 1148.63 592.216 1149.47 591.784C1150.31 591.352 1151.32 591.136 1152.49 591.136C1153.65 591.136 1154.73 591.436 1155.73 592.036C1156.74 592.636 1157.56 593.5 1158.18 594.628C1158.83 595.732 1159.15 597.04 1159.15 598.552V609.424H1156.45V598.624C1156.45 597.112 1156.02 595.9 1155.16 594.988C1154.32 594.052 1153.26 593.584 1151.99 593.584C1150.67 593.584 1149.53 594.028 1148.57 594.916C1147.61 595.804 1147.13 597.052 1147.13 598.66V609.424H1144.43V598.624C1144.43 597.112 1144 595.9 1143.13 594.988C1142.29 594.052 1141.24 593.584 1139.97 593.584C1138.65 593.584 1137.51 594.028 1136.55 594.916C1135.59 595.804 1135.11 597.052 1135.11 598.66V609.424H1132.41ZM1173.81 609.712C1171.99 609.712 1170.4 609.304 1169.06 608.488C1167.72 607.648 1166.68 606.52 1165.96 605.104C1165.24 603.688 1164.88 602.128 1164.88 600.424C1164.88 598.696 1165.24 597.136 1165.96 595.744C1166.68 594.328 1167.72 593.212 1169.06 592.396C1170.4 591.556 1171.99 591.136 1173.81 591.136C1175.66 591.136 1177.24 591.556 1178.56 592.396C1179.91 593.212 1180.94 594.328 1181.66 595.744C1182.38 597.136 1182.74 598.696 1182.74 600.424C1182.74 602.128 1182.38 603.688 1181.66 605.104C1180.94 606.52 1179.91 607.648 1178.56 608.488C1177.24 609.304 1175.66 609.712 1173.81 609.712ZM1173.81 607.264C1175.16 607.264 1176.28 606.952 1177.2 606.328C1178.13 605.704 1178.84 604.876 1179.32 603.844C1179.8 602.788 1180.04 601.648 1180.04 600.424C1180.04 599.176 1179.8 598.036 1179.32 597.004C1178.84 595.972 1178.13 595.144 1177.2 594.52C1176.28 593.896 1175.16 593.584 1173.81 593.584C1172.49 593.584 1171.36 593.896 1170.43 594.52C1169.49 595.144 1168.78 595.972 1168.3 597.004C1167.82 598.036 1167.58 599.176 1167.58 600.424C1167.58 601.648 1167.82 602.788 1168.3 603.844C1168.78 604.876 1169.49 605.704 1170.43 606.328C1171.36 606.952 1172.49 607.264 1173.81 607.264ZM1188.66 609.424V591.424H1191.36V595.852C1191.46 595.54 1191.64 595.132 1191.9 594.628C1192.19 594.1 1192.6 593.572 1193.12 593.044C1193.65 592.516 1194.31 592.072 1195.1 591.712C1195.92 591.328 1196.88 591.136 1197.98 591.136H1198.16V593.836H1197.84C1196.5 593.836 1195.33 594.208 1194.35 594.952C1193.39 595.672 1192.64 596.62 1192.12 597.796C1191.61 598.948 1191.36 600.184 1191.36 601.504V609.424H1188.66ZM1210.94 609.712C1209.12 609.712 1207.52 609.304 1206.16 608.488C1204.79 607.648 1203.72 606.52 1202.95 605.104C1202.21 603.688 1201.84 602.128 1201.84 600.424C1201.84 598.696 1202.2 597.136 1202.92 595.744C1203.64 594.328 1204.67 593.212 1206.01 592.396C1207.36 591.556 1208.94 591.136 1210.76 591.136C1212.61 591.136 1214.2 591.556 1215.52 592.396C1216.86 593.212 1217.89 594.328 1218.61 595.744C1219.33 597.136 1219.69 598.696 1219.69 600.424V601.504H1204.61C1204.75 602.56 1205.09 603.532 1205.62 604.42C1206.17 605.284 1206.9 605.98 1207.81 606.508C1208.72 607.012 1209.78 607.264 1210.98 607.264C1212.25 607.264 1213.32 606.988 1214.18 606.436C1215.05 605.86 1215.72 605.128 1216.2 604.24H1219.15C1218.53 605.848 1217.53 607.168 1216.16 608.2C1214.82 609.208 1213.08 609.712 1210.94 609.712ZM1204.64 598.984H1216.88C1216.64 597.448 1216 596.164 1214.94 595.132C1213.88 594.1 1212.49 593.584 1210.76 593.584C1209.04 593.584 1207.64 594.1 1206.59 595.132C1205.56 596.164 1204.91 597.448 1204.64 598.984ZM1242.93 609.712C1241.18 609.712 1239.64 609.304 1238.32 608.488C1237.03 607.648 1236.02 606.52 1235.3 605.104C1234.58 603.688 1234.22 602.128 1234.22 600.424C1234.22 598.696 1234.58 597.136 1235.3 595.744C1236.02 594.328 1237.03 593.212 1238.32 592.396C1239.64 591.556 1241.18 591.136 1242.93 591.136C1244.42 591.136 1245.69 591.424 1246.75 592C1247.83 592.576 1248.7 593.356 1249.38 594.34V591.424H1252.08V609.424H1249.38V606.544C1248.7 607.504 1247.83 608.272 1246.75 608.848C1245.69 609.424 1244.42 609.712 1242.93 609.712ZM1243.29 607.264C1244.64 607.264 1245.76 606.952 1246.68 606.328C1247.61 605.704 1248.32 604.876 1248.8 603.844C1249.28 602.788 1249.52 601.648 1249.52 600.424C1249.52 599.176 1249.28 598.036 1248.8 597.004C1248.32 595.972 1247.61 595.144 1246.68 594.52C1245.76 593.896 1244.64 593.584 1243.29 593.584C1241.97 593.584 1240.83 593.896 1239.87 594.52C1238.91 595.144 1238.18 595.972 1237.68 597.004C1237.17 598.036 1236.92 599.176 1236.92 600.424C1236.92 601.648 1237.17 602.788 1237.68 603.844C1238.18 604.876 1238.91 605.704 1239.87 606.328C1240.83 606.952 1241.97 607.264 1243.29 607.264ZM1268.23 609.712C1266.74 609.712 1265.46 609.424 1264.38 608.848C1263.32 608.272 1262.46 607.504 1261.79 606.544V609.424H1259.09V584.224H1261.79V594.34C1262.46 593.356 1263.32 592.576 1264.38 592C1265.46 591.424 1266.74 591.136 1268.23 591.136C1269.98 591.136 1271.51 591.556 1272.8 592.396C1274.12 593.212 1275.14 594.328 1275.86 595.744C1276.58 597.136 1276.94 598.696 1276.94 600.424C1276.94 602.128 1276.58 603.688 1275.86 605.104C1275.14 606.52 1274.12 607.648 1272.8 608.488C1271.51 609.304 1269.98 609.712 1268.23 609.712ZM1267.87 607.264C1269.21 607.264 1270.35 606.952 1271.29 606.328C1272.25 605.704 1272.98 604.876 1273.49 603.844C1273.99 602.788 1274.24 601.648 1274.24 600.424C1274.24 599.176 1273.99 598.036 1273.49 597.004C1272.98 595.972 1272.25 595.144 1271.29 594.52C1270.35 593.896 1269.21 593.584 1267.87 593.584C1266.55 593.584 1265.42 593.896 1264.49 594.52C1263.55 595.144 1262.84 595.972 1262.36 597.004C1261.88 598.036 1261.64 599.176 1261.64 600.424C1261.64 601.648 1261.88 602.788 1262.36 603.844C1262.84 604.876 1263.55 605.704 1264.49 606.328C1265.42 606.952 1266.55 607.264 1267.87 607.264ZM1290.65 609.712C1288.82 609.712 1287.24 609.304 1285.9 608.488C1284.55 607.648 1283.52 606.52 1282.8 605.104C1282.08 603.688 1281.72 602.128 1281.72 600.424C1281.72 598.696 1282.08 597.136 1282.8 595.744C1283.52 594.328 1284.55 593.212 1285.9 592.396C1287.24 591.556 1288.82 591.136 1290.65 591.136C1292.5 591.136 1294.08 591.556 1295.4 592.396C1296.74 593.212 1297.78 594.328 1298.5 595.744C1299.22 597.136 1299.58 598.696 1299.58 600.424C1299.58 602.128 1299.22 603.688 1298.5 605.104C1297.78 606.52 1296.74 607.648 1295.4 608.488C1294.08 609.304 1292.5 609.712 1290.65 609.712ZM1290.65 607.264C1291.99 607.264 1293.12 606.952 1294.03 606.328C1294.97 605.704 1295.68 604.876 1296.16 603.844C1296.64 602.788 1296.88 601.648 1296.88 600.424C1296.88 599.176 1296.64 598.036 1296.16 597.004C1295.68 595.972 1294.97 595.144 1294.03 594.52C1293.12 593.896 1291.99 593.584 1290.65 593.584C1289.33 593.584 1288.2 593.896 1287.26 594.52C1286.33 595.144 1285.62 595.972 1285.14 597.004C1284.66 598.036 1284.42 599.176 1284.42 600.424C1284.42 601.648 1284.66 602.788 1285.14 603.844C1285.62 604.876 1286.33 605.704 1287.26 606.328C1288.2 606.952 1289.33 607.264 1290.65 607.264ZM1312.52 609.712C1311.29 609.712 1310.13 609.424 1309.02 608.848C1307.92 608.248 1307.02 607.372 1306.32 606.22C1305.65 605.044 1305.32 603.604 1305.32 601.9V591.424H1308.02V601.828C1308.02 603.46 1308.48 604.78 1309.42 605.788C1310.38 606.772 1311.59 607.264 1313.06 607.264C1314.06 607.264 1314.98 607.036 1315.79 606.58C1316.61 606.1 1317.26 605.452 1317.74 604.636C1318.24 603.82 1318.49 602.872 1318.49 601.792V591.424H1321.19V609.424H1318.49V606.616C1317.84 607.48 1317.05 608.212 1316.12 608.812C1315.18 609.412 1313.98 609.712 1312.52 609.712ZM1330.17 609.424V593.8H1326.5V591.424H1330.17V584.98H1332.87V591.424H1337.01V593.8H1332.87V609.424H1330.17ZM1025.45 653.712C1023.63 653.712 1022.05 653.304 1020.7 652.488C1019.36 651.648 1018.33 650.52 1017.61 649.104C1016.89 647.688 1016.53 646.128 1016.53 644.424C1016.53 642.696 1016.89 641.136 1017.61 639.744C1018.33 638.328 1019.36 637.212 1020.7 636.396C1022.05 635.556 1023.63 635.136 1025.45 635.136C1027.3 635.136 1028.89 635.556 1030.21 636.396C1031.55 637.212 1032.58 638.328 1033.3 639.744C1034.02 641.136 1034.38 642.696 1034.38 644.424C1034.38 646.128 1034.02 647.688 1033.3 649.104C1032.58 650.52 1031.55 651.648 1030.21 652.488C1028.89 653.304 1027.3 653.712 1025.45 653.712ZM1025.45 651.264C1026.8 651.264 1027.93 650.952 1028.84 650.328C1029.77 649.704 1030.48 648.876 1030.96 647.844C1031.44 646.788 1031.68 645.648 1031.68 644.424C1031.68 643.176 1031.44 642.036 1030.96 641.004C1030.48 639.972 1029.77 639.144 1028.84 638.52C1027.93 637.896 1026.8 637.584 1025.45 637.584C1024.13 637.584 1023.01 637.896 1022.07 638.52C1021.13 639.144 1020.43 639.972 1019.95 641.004C1019.47 642.036 1019.23 643.176 1019.23 644.424C1019.23 645.648 1019.47 646.788 1019.95 647.844C1020.43 648.876 1021.13 649.704 1022.07 650.328C1023.01 650.952 1024.13 651.264 1025.45 651.264ZM1047.32 653.712C1046.1 653.712 1044.94 653.424 1043.83 652.848C1042.73 652.248 1041.83 651.372 1041.13 650.22C1040.46 649.044 1040.12 647.604 1040.12 645.9V635.424H1042.82V645.828C1042.82 647.46 1043.29 648.78 1044.23 649.788C1045.19 650.772 1046.4 651.264 1047.86 651.264C1048.87 651.264 1049.78 651.036 1050.6 650.58C1051.42 650.1 1052.06 649.452 1052.54 648.636C1053.05 647.82 1053.3 646.872 1053.3 645.792V635.424H1056V653.424H1053.3V650.616C1052.65 651.48 1051.86 652.212 1050.92 652.812C1049.99 653.412 1048.79 653.712 1047.32 653.712ZM1063.03 653.424V635.424H1065.73V639.852C1065.83 639.54 1066.01 639.132 1066.27 638.628C1066.56 638.1 1066.97 637.572 1067.5 637.044C1068.03 636.516 1068.69 636.072 1069.48 635.712C1070.29 635.328 1071.25 635.136 1072.36 635.136H1072.54V637.836H1072.21C1070.87 637.836 1069.71 638.208 1068.72 638.952C1067.76 639.672 1067.02 640.62 1066.49 641.796C1065.99 642.948 1065.73 644.184 1065.73 645.504V653.424H1063.03ZM1098.37 653.712C1096 653.712 1093.94 653.172 1092.22 652.092C1090.49 650.988 1089.16 649.512 1088.22 647.664C1087.31 645.816 1086.85 643.764 1086.85 641.508C1086.85 639.252 1087.31 637.2 1088.22 635.352C1089.16 633.504 1090.49 632.04 1092.22 630.96C1093.94 629.856 1096 629.304 1098.37 629.304C1100.17 629.304 1101.79 629.628 1103.23 630.276C1104.67 630.9 1105.9 631.764 1106.9 632.868C1107.91 633.972 1108.67 635.256 1109.17 636.72H1106.33C1105.73 635.256 1104.78 634.092 1103.48 633.228C1102.19 632.364 1100.56 631.932 1098.59 631.932C1096.67 631.932 1095.02 632.364 1093.66 633.228C1092.31 634.068 1091.29 635.208 1090.6 636.648C1089.9 638.088 1089.55 639.708 1089.55 641.508C1089.55 643.284 1089.9 644.904 1090.6 646.368C1091.29 647.808 1092.31 648.96 1093.66 649.824C1095.02 650.664 1096.67 651.084 1098.59 651.084C1100.56 651.084 1102.19 650.652 1103.48 649.788C1104.78 648.924 1105.73 647.76 1106.33 646.296H1109.17C1108.67 647.736 1107.91 649.02 1106.9 650.148C1105.9 651.252 1104.67 652.128 1103.23 652.776C1101.79 653.4 1100.17 653.712 1098.37 653.712ZM1122.8 653.712C1120.97 653.712 1119.39 653.304 1118.04 652.488C1116.7 651.648 1115.67 650.52 1114.95 649.104C1114.23 647.688 1113.87 646.128 1113.87 644.424C1113.87 642.696 1114.23 641.136 1114.95 639.744C1115.67 638.328 1116.7 637.212 1118.04 636.396C1119.39 635.556 1120.97 635.136 1122.8 635.136C1124.64 635.136 1126.23 635.556 1127.55 636.396C1128.89 637.212 1129.92 638.328 1130.64 639.744C1131.36 641.136 1131.72 642.696 1131.72 644.424C1131.72 646.128 1131.36 647.688 1130.64 649.104C1129.92 650.52 1128.89 651.648 1127.55 652.488C1126.23 653.304 1124.64 653.712 1122.8 653.712ZM1122.8 651.264C1124.14 651.264 1125.27 650.952 1126.18 650.328C1127.12 649.704 1127.82 648.876 1128.3 647.844C1128.78 646.788 1129.02 645.648 1129.02 644.424C1129.02 643.176 1128.78 642.036 1128.3 641.004C1127.82 639.972 1127.12 639.144 1126.18 638.52C1125.27 637.896 1124.14 637.584 1122.8 637.584C1121.48 637.584 1120.35 637.896 1119.41 638.52C1118.48 639.144 1117.77 639.972 1117.29 641.004C1116.81 642.036 1116.57 643.176 1116.57 644.424C1116.57 645.648 1116.81 646.788 1117.29 647.844C1117.77 648.876 1118.48 649.704 1119.41 650.328C1120.35 650.952 1121.48 651.264 1122.8 651.264ZM1137.64 653.424V635.424H1140.34V638.16C1140.75 637.44 1141.4 636.756 1142.29 636.108C1143.18 635.46 1144.35 635.136 1145.82 635.136C1147.02 635.136 1148.12 635.46 1149.13 636.108C1150.16 636.732 1150.96 637.62 1151.54 638.772C1151.78 638.364 1152.15 637.872 1152.66 637.296C1153.18 636.72 1153.87 636.216 1154.71 635.784C1155.55 635.352 1156.56 635.136 1157.73 635.136C1158.88 635.136 1159.96 635.436 1160.97 636.036C1161.98 636.636 1162.8 637.5 1163.42 638.628C1164.07 639.732 1164.39 641.04 1164.39 642.552V653.424H1161.69V642.624C1161.69 641.112 1161.26 639.9 1160.4 638.988C1159.56 638.052 1158.5 637.584 1157.23 637.584C1155.91 637.584 1154.77 638.028 1153.81 638.916C1152.85 639.804 1152.37 641.052 1152.37 642.66V653.424H1149.67V642.624C1149.67 641.112 1149.24 639.9 1148.37 638.988C1147.53 638.052 1146.48 637.584 1145.2 637.584C1143.88 637.584 1142.74 638.028 1141.78 638.916C1140.82 639.804 1140.34 641.052 1140.34 642.66V653.424H1137.64ZM1171.24 660.552V635.424H1173.94V638.304C1174.61 637.32 1175.47 636.552 1176.53 636C1177.61 635.424 1178.89 635.136 1180.38 635.136C1182.13 635.136 1183.66 635.556 1184.95 636.396C1186.27 637.212 1187.29 638.328 1188.01 639.744C1188.73 641.136 1189.09 642.696 1189.09 644.424C1189.09 646.128 1188.73 647.688 1188.01 649.104C1187.29 650.52 1186.27 651.648 1184.95 652.488C1183.66 653.304 1182.13 653.712 1180.38 653.712C1178.89 653.712 1177.61 653.424 1176.53 652.848C1175.47 652.248 1174.61 651.468 1173.94 650.508V660.552H1171.24ZM1180.02 651.264C1181.37 651.264 1182.51 650.952 1183.44 650.328C1184.4 649.704 1185.13 648.876 1185.64 647.844C1186.14 646.788 1186.39 645.648 1186.39 644.424C1186.39 643.176 1186.14 642.036 1185.64 641.004C1185.13 639.972 1184.4 639.144 1183.44 638.52C1182.51 637.896 1181.37 637.584 1180.02 637.584C1178.7 637.584 1177.57 637.896 1176.64 638.52C1175.7 639.144 1174.99 639.972 1174.51 641.004C1174.03 642.036 1173.79 643.176 1173.79 644.424C1173.79 645.648 1174.03 646.788 1174.51 647.844C1174.99 648.876 1175.7 649.704 1176.64 650.328C1177.57 650.952 1178.7 651.264 1180.02 651.264ZM1202.58 653.712C1200.83 653.712 1199.3 653.304 1197.98 652.488C1196.68 651.648 1195.67 650.52 1194.95 649.104C1194.23 647.688 1193.87 646.128 1193.87 644.424C1193.87 642.696 1194.23 641.136 1194.95 639.744C1195.67 638.328 1196.68 637.212 1197.98 636.396C1199.3 635.556 1200.83 635.136 1202.58 635.136C1204.07 635.136 1205.34 635.424 1206.4 636C1207.48 636.576 1208.36 637.356 1209.03 638.34V635.424H1211.73V653.424H1209.03V650.544C1208.36 651.504 1207.48 652.272 1206.4 652.848C1205.34 653.424 1204.07 653.712 1202.58 653.712ZM1202.94 651.264C1204.29 651.264 1205.42 650.952 1206.33 650.328C1207.26 649.704 1207.97 648.876 1208.45 647.844C1208.93 646.788 1209.17 645.648 1209.17 644.424C1209.17 643.176 1208.93 642.036 1208.45 641.004C1207.97 639.972 1207.26 639.144 1206.33 638.52C1205.42 637.896 1204.29 637.584 1202.94 637.584C1201.62 637.584 1200.48 637.896 1199.52 638.52C1198.56 639.144 1197.83 639.972 1197.33 641.004C1196.82 642.036 1196.57 643.176 1196.57 644.424C1196.57 645.648 1196.82 646.788 1197.33 647.844C1197.83 648.876 1198.56 649.704 1199.52 650.328C1200.48 650.952 1201.62 651.264 1202.94 651.264ZM1218.74 653.424V635.424H1221.44V638.232C1222.09 637.368 1222.88 636.636 1223.81 636.036C1224.75 635.436 1225.95 635.136 1227.41 635.136C1228.66 635.136 1229.83 635.436 1230.91 636.036C1232.01 636.612 1232.9 637.488 1233.57 638.664C1234.27 639.816 1234.61 641.244 1234.61 642.948V653.424H1231.91V643.02C1231.91 641.388 1231.45 640.08 1230.51 639.096C1229.57 638.088 1228.36 637.584 1226.87 637.584C1225.87 637.584 1224.95 637.812 1224.14 638.268C1223.32 638.724 1222.66 639.372 1222.16 640.212C1221.68 641.028 1221.44 641.976 1221.44 643.056V653.424H1218.74ZM1242.88 660.552L1246.16 653.172L1238.82 635.424H1241.8L1247.6 650.184L1253.5 635.424H1256.46L1245.8 660.552H1242.88ZM1280.36 653.712C1278.01 653.712 1276.1 653.4 1274.63 652.776C1273.17 652.128 1272.07 651.24 1271.32 650.112C1270.6 648.984 1270.18 647.712 1270.06 646.296H1272.87C1272.94 647.448 1273.33 648.384 1274.02 649.104C1274.72 649.8 1275.63 650.316 1276.76 650.652C1277.91 650.988 1279.17 651.156 1280.54 651.156C1282.55 651.156 1284.15 650.808 1285.33 650.112C1286.5 649.392 1287.09 648.336 1287.09 646.944C1287.09 646.104 1286.79 645.432 1286.19 644.928C1285.61 644.4 1284.83 643.968 1283.85 643.632C1282.89 643.296 1281.83 642.996 1280.68 642.732C1279.53 642.444 1278.37 642.144 1277.19 641.832C1276.04 641.52 1274.97 641.124 1273.99 640.644C1273.03 640.164 1272.25 639.552 1271.65 638.808C1271.07 638.04 1270.78 637.068 1270.78 635.892C1270.78 633.948 1271.53 632.364 1273.01 631.14C1274.53 629.916 1276.77 629.304 1279.75 629.304C1281.86 629.304 1283.6 629.628 1284.97 630.276C1286.33 630.9 1287.35 631.728 1288.03 632.76C1288.72 633.792 1289.11 634.908 1289.18 636.108H1286.41C1286.26 634.908 1285.66 633.9 1284.61 633.084C1283.55 632.244 1281.93 631.824 1279.75 631.824C1278.4 631.824 1277.31 631.956 1276.47 632.22C1275.63 632.484 1274.98 632.832 1274.53 633.264C1274.09 633.672 1273.79 634.104 1273.63 634.56C1273.48 635.016 1273.41 635.448 1273.41 635.856C1273.41 636.648 1273.7 637.296 1274.27 637.8C1274.87 638.28 1275.65 638.688 1276.61 639.024C1277.6 639.336 1278.68 639.624 1279.85 639.888C1281.03 640.152 1282.19 640.452 1283.35 640.788C1284.52 641.1 1285.59 641.508 1286.55 642.012C1287.53 642.492 1288.31 643.116 1288.89 643.884C1289.49 644.652 1289.79 645.636 1289.79 646.836C1289.79 649.044 1288.95 650.748 1287.27 651.948C1285.59 653.124 1283.29 653.712 1280.36 653.712ZM1303.73 653.712C1301.91 653.712 1300.31 653.304 1298.94 652.488C1297.57 651.648 1296.51 650.52 1295.74 649.104C1294.99 647.688 1294.62 646.128 1294.62 644.424C1294.62 642.696 1294.98 641.136 1295.7 639.744C1296.42 638.328 1297.45 637.212 1298.8 636.396C1300.14 635.556 1301.73 635.136 1303.55 635.136C1305.4 635.136 1306.98 635.556 1308.3 636.396C1309.65 637.212 1310.68 638.328 1311.4 639.744C1312.12 641.136 1312.48 642.696 1312.48 644.424V645.504H1297.39C1297.54 646.56 1297.87 647.532 1298.4 648.42C1298.95 649.284 1299.69 649.98 1300.6 650.508C1301.51 651.012 1302.57 651.264 1303.77 651.264C1305.04 651.264 1306.11 650.988 1306.97 650.436C1307.83 649.86 1308.51 649.128 1308.99 648.24H1311.94C1311.31 649.848 1310.32 651.168 1308.95 652.2C1307.61 653.208 1305.87 653.712 1303.73 653.712ZM1297.43 642.984H1309.67C1309.43 641.448 1308.78 640.164 1307.73 639.132C1306.67 638.1 1305.28 637.584 1303.55 637.584C1301.82 637.584 1300.43 638.1 1299.37 639.132C1298.34 640.164 1297.69 641.448 1297.43 642.984ZM1318.12 653.424V635.424H1320.82V639.852C1320.91 639.54 1321.09 639.132 1321.36 638.628C1321.65 638.1 1322.05 637.572 1322.58 637.044C1323.11 636.516 1323.77 636.072 1324.56 635.712C1325.38 635.328 1326.34 635.136 1327.44 635.136H1327.62V637.836H1327.3C1325.95 637.836 1324.79 638.208 1323.81 638.952C1322.85 639.672 1322.1 640.62 1321.57 641.796C1321.07 642.948 1320.82 644.184 1320.82 645.504V653.424H1318.12ZM1337.76 653.424L1330.71 635.424H1333.66L1339.35 650.544L1345 635.424H1347.95L1340.93 653.424H1337.76ZM1352.71 632.4V628.872H1355.63V632.4H1352.71ZM1352.82 653.424V635.424H1355.52V653.424H1352.82ZM1370.28 653.712C1368.48 653.712 1366.92 653.304 1365.6 652.488C1364.28 651.648 1363.25 650.52 1362.51 649.104C1361.79 647.688 1361.43 646.128 1361.43 644.424C1361.43 642.696 1361.79 641.136 1362.51 639.744C1363.25 638.328 1364.28 637.212 1365.6 636.396C1366.92 635.556 1368.48 635.136 1370.28 635.136C1372.42 635.136 1374.23 635.688 1375.72 636.792C1377.23 637.896 1378.25 639.324 1378.78 641.076H1375.86C1375.46 640.044 1374.8 639.204 1373.88 638.556C1373 637.908 1371.92 637.584 1370.64 637.584C1369.32 637.584 1368.17 637.896 1367.19 638.52C1366.2 639.144 1365.45 639.972 1364.92 641.004C1364.39 642.036 1364.13 643.176 1364.13 644.424C1364.13 645.648 1364.39 646.788 1364.92 647.844C1365.45 648.876 1366.2 649.704 1367.19 650.328C1368.17 650.952 1369.32 651.264 1370.64 651.264C1371.92 651.264 1373 650.94 1373.88 650.292C1374.8 649.644 1375.46 648.804 1375.86 647.772H1378.78C1378.25 649.524 1377.23 650.952 1375.72 652.056C1374.23 653.16 1372.42 653.712 1370.28 653.712ZM1392.46 653.712C1390.63 653.712 1389.04 653.304 1387.67 652.488C1386.3 651.648 1385.23 650.52 1384.47 649.104C1383.72 647.688 1383.35 646.128 1383.35 644.424C1383.35 642.696 1383.71 641.136 1384.43 639.744C1385.15 638.328 1386.18 637.212 1387.53 636.396C1388.87 635.556 1390.45 635.136 1392.28 635.136C1394.13 635.136 1395.71 635.556 1397.03 636.396C1398.37 637.212 1399.41 638.328 1400.13 639.744C1400.85 641.136 1401.21 642.696 1401.21 644.424V645.504H1386.12C1386.27 646.56 1386.6 647.532 1387.13 648.42C1387.68 649.284 1388.41 649.98 1389.33 650.508C1390.24 651.012 1391.29 651.264 1392.49 651.264C1393.77 651.264 1394.83 650.988 1395.7 650.436C1396.56 649.86 1397.23 649.128 1397.71 648.24H1400.67C1400.04 649.848 1399.05 651.168 1397.68 652.2C1396.33 653.208 1394.59 653.712 1392.46 653.712ZM1386.16 642.984H1398.4C1398.16 641.448 1397.51 640.164 1396.45 639.132C1395.4 638.1 1394.01 637.584 1392.28 637.584C1390.55 637.584 1389.16 638.1 1388.1 639.132C1387.07 640.164 1386.42 641.448 1386.16 642.984ZM1413.4 653.712C1411.74 653.712 1410.34 653.436 1409.18 652.884C1408.06 652.332 1407.19 651.612 1406.59 650.724C1405.99 649.812 1405.66 648.828 1405.58 647.772H1408.39C1408.46 648.372 1408.67 648.96 1409 649.536C1409.36 650.088 1409.9 650.544 1410.62 650.904C1411.34 651.24 1412.28 651.408 1413.43 651.408C1413.79 651.408 1414.24 651.372 1414.76 651.3C1415.29 651.228 1415.8 651.096 1416.28 650.904C1416.78 650.712 1417.2 650.424 1417.54 650.04C1417.87 649.656 1418.04 649.164 1418.04 648.564C1418.04 647.82 1417.75 647.244 1417.18 646.836C1416.6 646.428 1415.86 646.116 1414.94 645.9C1414.03 645.66 1413.06 645.432 1412.03 645.216C1411.02 645 1410.06 644.724 1409.15 644.388C1408.24 644.028 1407.49 643.536 1406.92 642.912C1406.34 642.264 1406.05 641.388 1406.05 640.284C1406.05 638.652 1406.64 637.392 1407.82 636.504C1409.02 635.592 1410.78 635.136 1413.11 635.136C1414.69 635.136 1415.98 635.388 1416.96 635.892C1417.97 636.372 1418.72 636.996 1419.23 637.764C1419.76 638.532 1420.07 639.36 1420.16 640.248H1417.43C1417.33 639.48 1416.95 638.82 1416.28 638.268C1415.63 637.716 1414.55 637.44 1413.04 637.44C1410.18 637.44 1408.75 638.304 1408.75 640.032C1408.75 640.752 1409.04 641.304 1409.62 641.688C1410.19 642.072 1410.94 642.384 1411.85 642.624C1412.76 642.84 1413.72 643.056 1414.73 643.272C1415.76 643.464 1416.73 643.74 1417.64 644.1C1418.56 644.46 1419.3 644.976 1419.88 645.648C1420.45 646.296 1420.74 647.184 1420.74 648.312C1420.74 650.064 1420.07 651.408 1418.72 652.344C1417.4 653.256 1415.63 653.712 1413.4 653.712Z" fill="white"/>
<path fill-rule="evenodd" clip-rule="evenodd" d="M402.628 608.847C402.628 674.495 455.842 727.713 521.485 727.713C587.128 727.713 640.342 674.495 640.342 608.847C640.342 543.2 587.128 489.982 521.485 489.982C455.842 489.982 402.628 543.2 402.628 608.847ZM521.485 420.06C417.228 420.06 332.712 504.583 332.712 608.847C332.712 713.112 417.228 797.635 521.485 797.635C625.741 797.635 710.258 713.112 710.258 608.847C710.258 504.583 625.741 420.06 521.485 420.06Z" fill="#E4ECF4"/>
<rect x="488.797" y="535.74" width="67.0814" height="52.8265" fill="white" stroke="black" stroke-width="2"/>
<path d="M466.847 485.285C463.996 475.079 468.034 467.948 470.41 465.658C470.535 470.898 473.281 488.218 474.638 496.224C473.96 496.878 469.697 495.491 466.847 485.285Z" fill="white" stroke="black" stroke-width="2"/>
<path d="M577.827 485.285C580.678 475.079 576.64 467.948 574.264 465.658C574.264 472.644 571.445 488.946 570.035 496.224C570.714 496.878 574.977 495.491 577.827 485.285Z" fill="white" stroke="black" stroke-width="2"/>
<path d="M574 448.795C572.635 433.211 562.893 403.156 522.114 403.156C481.334 403.156 472.039 433.211 470.674 448.795C469.009 467.797 472.55 487.95 476.418 506.678C480.905 528.403 487.536 550.091 522.114 550.091C556.691 550.091 563.769 528.403 568.256 506.678C572.124 487.95 575.665 467.797 574 448.795Z" fill="white" stroke="black" stroke-width="2"/>
<path d="M465.667 460.674C467.186 440.298 478.021 401 523.379 401C568.737 401 579.075 440.298 580.594 460.674H507.106L491.082 441.753V460.674H465.667Z" fill="black"/>
<path d="M530.561 411.927C552.35 414.041 561.264 432.423 563.457 441.533" stroke="white" stroke-width="2" stroke-linecap="round"/>
<ellipse cx="500.954" cy="472.236" rx="2.19306" ry="4.38612" fill="black"/>
<ellipse cx="543.719" cy="472.236" rx="2.19306" ry="4.38612" fill="black"/>
<path d="M514.289 496.036L523.13 491.616L531.97 496.036" stroke="black" stroke-width="2" stroke-linecap="round"/>
<path d="M500.954 511.712C502.27 516.526 508.06 525.612 520.692 523.446" stroke="black" stroke-width="2" stroke-linecap="round"/>
<path d="M538.987 405.246C545.437 406.776 557.948 409.147 556.4 401.803C554.466 392.623 541.889 391.476 540.922 397.213" stroke="black" stroke-width="3" stroke-linecap="round"/>
<path d="M487.797 574.214V536.932C490.025 538.874 491.611 546.927 514.538 549.748C524.72 551 544.622 548.583 553.536 539.262C556.878 535.767 556.878 541.592 556.878 541.592L487.797 574.214Z" fill="black"/>
<path d="M518.109 566.86L429.09 578.292C425.252 578.785 422.542 582.298 423.04 586.136L447.851 777.317C448.31 780.849 451.348 783.474 454.909 783.415L518.992 782.352L583.079 783.415C586.639 783.474 589.676 780.852 590.136 777.322L615.101 585.928C615.602 582.082 612.882 578.561 609.034 578.077L519.875 566.857C519.289 566.784 518.695 566.784 518.109 566.86Z" fill="black"/>
<path d="M409.669 595.946L409.673 595.938L409.676 595.93C415.76 581.146 430.92 575.238 444.26 580.887C457.59 586.532 464.116 601.602 458.072 616.374L457.973 616.545L457.587 617.216C457.248 617.805 456.75 618.67 456.113 619.778C454.839 621.992 453.01 625.174 450.79 629.044C446.35 636.785 440.345 647.278 434.086 658.29C421.578 680.295 408.024 704.421 403.942 712.742C399.987 720.802 394.181 725.147 387.814 726.046C381.558 726.929 374.531 724.517 367.889 718.594L379.276 666.215L409.669 595.946Z" fill="white" stroke="black" stroke-width="2"/>
<path d="M317.588 645.125C311.14 635.506 313.711 622.482 323.33 616.035C332.568 609.843 345.034 611.941 351.736 620.816L402.444 687.964C410.301 698.368 408.109 713.192 397.577 720.877C386.872 728.69 371.816 726.029 364.437 715.02L317.588 645.125Z" fill="white" stroke="black" stroke-width="2"/>
<path d="M297.828 620.065C294.805 617.665 290.358 618.502 288.414 621.836C286.827 624.557 287.481 628.032 289.948 629.991L299.095 637.252C300.53 638.391 302.125 639.311 303.829 639.984L313.626 643.851C316.532 644.999 319.841 643.853 321.415 641.153C323.367 637.805 321.877 633.504 318.272 632.081L309.931 628.788C308.462 628.209 307.088 627.415 305.851 626.434L297.828 620.065Z" fill="white" stroke="black" stroke-width="2"/>
<path d="M298.156 599.695C296.024 596.478 291.536 595.898 288.656 598.466C286.305 600.563 285.851 604.069 287.592 606.696L294.043 616.431C295.054 617.958 296.286 619.327 297.698 620.494L305.818 627.203C308.226 629.194 311.727 629.128 314.059 627.048C316.952 624.468 316.866 619.918 313.878 617.449L306.965 611.736C305.748 610.73 304.686 609.55 303.814 608.234L298.156 599.695Z" fill="white" stroke="black" stroke-width="2"/>
<path d="M335.676 587.335C334.871 582.822 338.473 578.733 343.051 578.962C346.368 579.128 349.132 581.562 349.715 584.831L352.592 600.964C352.981 603.147 352.903 605.387 352.364 607.538L350.664 614.32C349.83 617.646 346.761 619.919 343.336 619.748C338.813 619.521 335.626 615.218 336.727 610.825L337.879 606.23C338.328 604.438 338.393 602.572 338.069 600.754L335.676 587.335Z" fill="white" stroke="black" stroke-width="2"/>
<path d="M306.821 581.293C304.91 577.764 301.09 577.452 298.558 580.619C296.313 583.425 295.892 587.981 297.589 591.104L305.242 605.186C305.715 606.057 306.24 606.872 306.812 607.623L315.918 619.59C317.873 622.159 321.015 622.205 323.264 619.696C325.97 616.677 326.283 611.252 323.929 608.159L315.997 597.735C315.368 596.909 314.791 596.012 314.271 595.051L306.821 581.293Z" fill="white" stroke="black" stroke-width="2"/>
<path d="M331.11 593.481L331.084 593.431L331.063 593.376L324.027 575.133C322.717 571.736 319.38 570.874 316.625 573.22C313.945 575.503 312.819 579.977 314.094 583.282L321.213 601.741L332.12 622.637C333.605 625.481 336.66 626.014 339.18 623.868C342.071 621.406 343.099 616.449 341.396 613.186L331.11 593.481Z" fill="white" stroke="black" stroke-width="2"/>
<circle cx="330.809" cy="630.479" r="23.8965" fill="white" stroke="black" stroke-width="2"/>
<path d="M628.89 595.946L628.887 595.938L628.883 595.93C622.799 581.146 607.64 575.238 594.3 580.887C580.97 586.532 574.444 601.602 580.487 616.374L580.586 616.545L580.973 617.216C581.312 617.805 581.81 618.67 582.447 619.778C583.721 621.992 585.55 625.174 587.77 629.044C592.21 636.785 598.215 647.278 604.474 658.29C616.982 680.295 630.535 704.421 634.618 712.742C638.572 720.802 644.379 725.147 650.746 726.046C657.002 726.929 664.028 724.517 670.67 718.594L659.284 666.215L628.89 595.946Z" fill="white" stroke="black" stroke-width="2"/>
<path d="M720.972 645.125C727.419 635.506 724.848 622.482 715.229 616.035C705.991 609.843 693.526 611.941 686.824 620.816L636.116 687.964C628.259 698.368 630.45 713.192 640.982 720.877C651.688 728.69 666.743 726.029 674.122 715.02L720.972 645.125Z" fill="white" stroke="black" stroke-width="2"/>
<path d="M740.731 620.064C743.753 617.665 748.201 618.502 750.144 621.835C751.732 624.557 751.078 628.031 748.61 629.99L739.463 637.252C738.029 638.391 736.434 639.311 734.73 639.984L724.933 643.851C722.026 644.999 718.718 643.852 717.144 641.153C715.192 637.805 716.681 633.504 720.286 632.081L728.628 628.788C730.096 628.209 731.471 627.415 732.708 626.433L740.731 620.064Z" fill="white" stroke="black" stroke-width="2"/>
<path d="M740.402 599.695C742.534 596.478 747.022 595.897 749.902 598.466C752.254 600.563 752.707 604.069 750.967 606.695L744.516 616.431C743.504 617.958 742.272 619.327 740.86 620.494L732.741 627.203C730.332 629.193 726.831 629.127 724.5 627.048C721.607 624.468 721.693 619.917 724.68 617.448L731.593 611.736C732.81 610.73 733.872 609.55 734.744 608.234L740.402 599.695Z" fill="white" stroke="black" stroke-width="2"/>
<path d="M702.883 587.335C703.688 582.821 700.086 578.732 695.507 578.961C692.19 579.127 689.427 581.561 688.844 584.831L685.967 600.964C685.578 603.147 685.655 605.387 686.195 607.538L687.895 614.319C688.729 617.646 691.797 619.919 695.222 619.747C699.745 619.521 702.933 615.218 701.832 610.825L700.679 606.229C700.23 604.438 700.166 602.572 700.49 600.754L702.883 587.335Z" fill="white" stroke="black" stroke-width="2"/>
<path d="M731.738 581.292C733.649 577.764 737.468 577.452 740.001 580.618C742.246 583.424 742.667 587.981 740.969 591.104L733.317 605.185C732.843 606.057 732.318 606.872 731.747 607.622L722.64 619.589C720.685 622.159 717.543 622.204 715.295 619.696C712.589 616.677 712.275 611.252 714.629 608.159L722.561 597.735C723.19 596.909 723.767 596.012 724.287 595.051L731.738 581.292Z" fill="white" stroke="black" stroke-width="2"/>
<path d="M707.449 593.48L707.475 593.43L707.496 593.376L714.532 575.132C715.841 571.736 719.179 570.874 721.933 573.22C724.614 575.503 725.74 579.977 724.465 583.282L717.346 601.74L706.439 622.636C704.954 625.481 701.899 626.014 699.378 623.867C696.488 621.406 695.459 616.449 697.162 613.186L707.449 593.48Z" fill="white" stroke="black" stroke-width="2"/>
<circle r="23.8965" transform="matrix(-1 0 0 1 707.749 630.478)" fill="white" stroke="black" stroke-width="2"/>
<rect x="491.322" y="612.869" width="32.2853" height="13.8366" fill="white"/>
<rect x="477.484" y="612.869" width="13.8366" height="13.8366" fill="#FF3366"/>
<rect x="479.793" y="615.174" width="9.22437" height="9.22437" fill="white"/>
<rect x="350.429" y="819.592" width="51.0401" height="76.7637" rx="25.5201" transform="rotate(35.435 350.429 819.592)" fill="white" stroke="black" stroke-width="2"/>
<rect x="-0.366025" y="1.36603" width="57.1358" height="85.8156" rx="28" transform="matrix(-0.866025 0.5 0.5 0.866025 703.252 852.627)" fill="white" stroke="black" stroke-width="2"/>
<path d="M384.595 825.641C380.672 822.412 381.485 816.189 386.106 814.076C388.498 812.983 391.304 813.349 393.335 815.02L399.657 820.223C404.17 823.937 406.722 829.521 406.578 835.364L406.375 843.549C406.31 846.178 404.751 848.539 402.359 849.633C397.737 851.745 392.5 848.288 392.625 843.208L392.747 838.291C392.838 834.615 391.233 831.102 388.394 828.766L384.595 825.641Z" fill="white" stroke="black" stroke-width="2"/>
<path d="M665.709 856.983C670.476 853.766 670.227 846.668 665.246 843.793C662.669 842.305 659.469 842.417 657.002 844.082L648.507 849.815C643.663 853.085 640.593 858.403 640.183 864.233L639.465 874.456C639.257 877.425 640.76 880.253 643.337 881.741C648.318 884.616 654.589 881.283 654.992 875.546L655.376 870.075C655.66 866.022 657.795 862.324 661.163 860.051L665.709 856.983Z" fill="white" stroke="black" stroke-width="2"/>
<path d="M390.731 850.529C385.101 865.638 369.801 873.656 356.699 868.774C343.596 863.892 337.273 847.817 342.903 832.708C348.532 817.599 363.832 809.581 376.935 814.463C390.037 819.345 396.36 835.42 390.731 850.529Z" fill="white" stroke="black" stroke-width="2"/>
<path d="M656.101 883.893C660.766 901.305 676.955 911.874 692.087 907.819C707.219 903.765 715.955 886.518 711.289 869.106C706.624 851.693 690.435 841.125 675.303 845.18C660.171 849.234 651.435 866.481 656.101 883.893Z" fill="white" stroke="black" stroke-width="2"/>
<path d="M379.866 858.57C384.624 856.786 389.607 860.601 389.125 865.66C388.876 868.278 387.156 870.525 384.693 871.448L377.027 874.322C371.554 876.373 365.442 875.792 360.454 872.745L353.467 868.477C351.223 867.106 349.957 864.575 350.206 861.957C350.687 856.898 356.3 854.091 360.637 856.74L364.834 859.304C367.972 861.221 371.817 861.587 375.26 860.296L379.866 858.57Z" fill="white" stroke="black" stroke-width="2"/>
<path d="M668.179 894.331C663.167 891.837 657.28 895.483 657.28 901.082C657.28 903.943 658.9 906.557 661.461 907.832L669.724 911.944C675.055 914.596 681.321 914.596 686.653 911.944L694.915 907.832C697.477 906.557 699.096 903.943 699.096 901.082C699.096 895.483 693.21 891.837 688.197 894.331L683.795 896.522C680.264 898.279 676.113 898.279 672.581 896.522L668.179 894.331Z" fill="white" stroke="black" stroke-width="2"/>
<rect x="455.218" y="672.759" width="62.2645" height="131.447" rx="12" transform="rotate(35.435 455.218 672.759)" fill="black"/>
<rect width="69.4203" height="146.554" rx="28" transform="matrix(-0.866025 0.5 0.5 0.866025 603.406 679.746)" fill="black"/>
<path d="M481.186 694.739C493.638 703.6 496.55 720.878 487.689 733.33L454.837 779.719" stroke="white" stroke-width="2" stroke-linecap="round"/>
<path d="M572.262 701.397C557.505 709.917 552.449 728.787 560.969 743.544L582.18 780.284" stroke="white" stroke-width="2" stroke-linecap="round"/>
<rect x="403.889" y="770.485" width="32.5914" height="109.91" rx="11" transform="rotate(35.435 403.889 770.485)" fill="white" stroke="black" stroke-width="2"/>
<rect x="-0.366025" y="1.36603" width="36.5668" height="122.772" rx="11" transform="matrix(-0.866025 0.5 0.5 0.866025 649.104 792.476)" fill="white" stroke="black" stroke-width="2"/>
<path d="M364.167 825.822C360.741 829.547 354.627 828.577 352.523 823.974C351.339 821.385 351.823 818.338 353.75 816.243L361.888 807.393C365.351 803.627 370.186 801.417 375.3 801.262L387.318 800.899C390.163 800.813 392.784 802.441 393.967 805.03C396.071 809.633 392.804 814.892 387.745 815.044L379.744 815.286C375.871 815.403 372.208 817.077 369.586 819.93L364.167 825.822Z" fill="white" stroke="black" stroke-width="2"/>
<path d="M688.21 859.317C691.668 863.879 698.658 863.441 701.52 858.484C703.13 855.695 702.912 852.213 700.966 849.646L692.283 838.193C689.193 834.116 684.589 831.458 679.513 830.82L665.252 829.027C662.057 828.625 658.932 830.177 657.322 832.966C654.46 837.924 657.575 844.196 663.255 844.91L672.111 846.023C676.366 846.558 680.227 848.787 682.818 852.205L688.21 859.317Z" fill="white" stroke="black" stroke-width="2"/>
<path d="M380.022 831.317C376.098 828.088 376.911 821.865 381.533 819.753C383.925 818.659 386.731 819.026 388.762 820.697L395.083 825.899C399.597 829.613 402.149 835.198 402.005 841.041L401.802 849.225C401.737 851.854 400.178 854.216 397.786 855.309C393.164 857.422 387.926 853.965 388.052 848.885L388.174 843.967C388.265 840.292 386.659 836.779 383.82 834.443L380.022 831.317Z" fill="white" stroke="black" stroke-width="2"/>
<path d="M670.188 863.769C674.955 860.552 674.706 853.454 669.726 850.579C667.149 849.091 663.948 849.203 661.481 850.868L652.987 856.601C648.142 859.871 645.072 865.188 644.663 871.019L643.945 881.242C643.736 884.211 645.239 887.038 647.817 888.526C652.797 891.402 659.068 888.068 659.471 882.332L659.855 876.861C660.14 872.807 662.274 869.11 665.643 866.837L670.188 863.769Z" fill="white" stroke="black" stroke-width="2"/>
<path d="M374.636 839.157C370.713 835.928 371.526 829.705 376.147 827.592C378.539 826.499 381.345 826.865 383.376 828.536L389.698 833.739C394.211 837.453 396.763 843.037 396.619 848.88L396.416 857.065C396.351 859.694 394.792 862.055 392.4 863.149C387.778 865.261 382.541 861.804 382.667 856.724L382.788 851.807C382.879 848.131 381.274 844.618 378.435 842.282L374.636 839.157Z" fill="white" stroke="black" stroke-width="2"/>
<path d="M675.335 873.037C680.102 869.82 679.853 862.722 674.872 859.847C672.295 858.359 669.095 858.471 666.628 860.136L658.133 865.869C653.289 869.139 650.219 874.456 649.809 880.287L649.091 890.51C648.883 893.479 650.386 896.306 652.963 897.794C657.944 900.67 664.215 897.337 664.618 891.6L665.002 886.129C665.286 882.075 667.421 878.378 670.789 876.105L675.335 873.037Z" fill="white" stroke="black" stroke-width="2"/>
<path d="M369.257 846.995C365.333 843.766 366.146 837.544 370.767 835.431C373.159 834.338 375.965 834.704 377.996 836.375L384.318 841.578C388.831 845.291 391.384 850.876 391.239 856.719L391.036 864.903C390.971 867.533 389.412 869.894 387.02 870.988C382.399 873.1 377.161 869.643 377.287 864.563L377.408 859.646C377.499 855.97 375.894 852.457 373.055 850.121L369.257 846.995Z" fill="white" stroke="black" stroke-width="2"/>
<path d="M680.479 882.305C685.246 879.088 684.997 871.991 680.017 869.115C677.44 867.627 674.239 867.74 671.772 869.404L663.278 875.138C658.433 878.407 655.363 883.725 654.954 889.555L654.236 899.778C654.027 902.747 655.53 905.575 658.108 907.063C663.088 909.938 669.359 906.605 669.762 900.869L670.146 895.398C670.431 891.344 672.565 887.647 675.934 885.373L680.479 882.305Z" fill="white" stroke="black" stroke-width="2"/>
<rect x="380.444" y="805.766" width="14.1426" height="32.5914" rx="7.07132" transform="rotate(-30.4458 380.444 805.766)" fill="white" stroke="black" stroke-width="2"/>
<rect x="-1.39634" y="0.224138" width="15.9979" height="36.5668" rx="7.99893" transform="matrix(-0.810238 -0.586101 -0.586101 0.810238 671.509 834.242)" fill="white" stroke="black" stroke-width="2"/>
<path d="M692.308 392.16L641.217 511.373L771.268 480.408L692.308 392.16Z" stroke="black" stroke-width="2"/>
<rect x="506.537" y="829.791" width="61.3442" height="105.248" rx="28" transform="rotate(-22.6006 506.537 829.791)" fill="white" stroke="black" stroke-width="2"/>
<path d="M574.533 805.4C574.77 800.826 579.209 798.117 583.276 800.063C585.27 801.017 586.741 802.93 587.197 805.161L589.786 817.83C590.982 823.684 589.617 829.628 586.075 833.986L576.796 845.403C574.891 847.747 571.733 848.515 568.861 847.331C563.828 845.257 562.195 838.518 565.788 834.658L570.172 829.95C572.285 827.681 573.534 824.655 573.703 821.394L574.533 805.4Z" fill="white" stroke="black" stroke-width="2"/>
<path d="M508.038 812.457C512.882 813.693 514.718 819.103 511.562 822.845C510.237 824.417 508.242 825.381 506.116 825.476L498.783 825.803C491.311 826.136 484.392 822.532 480.914 816.495L476.872 809.479C475.497 807.092 475.729 804.151 477.47 801.897C481.001 797.325 488.459 797.904 490.845 802.936L491.601 804.531C492.878 807.223 495.383 809.227 498.453 810.01L508.038 812.457Z" fill="white" stroke="black" stroke-width="2"/>
<path d="M511.706 823.02C516.55 824.257 518.386 829.666 515.23 833.409C513.905 834.981 511.91 835.945 509.784 836.039L502.451 836.367C494.979 836.7 488.06 833.096 484.582 827.059L480.54 820.043C479.165 817.656 479.397 814.715 481.138 812.461C484.669 807.889 492.127 808.468 494.513 813.499L495.269 815.095C496.546 817.787 499.051 819.791 502.121 820.574L511.706 823.02Z" fill="white" stroke="black" stroke-width="2"/>
<path d="M517.535 836.385C522.38 837.622 524.215 843.032 521.059 846.774C519.734 848.346 517.739 849.31 515.613 849.404L508.28 849.732C500.809 850.065 493.889 846.461 490.411 840.424L486.369 833.408C484.994 831.021 485.226 828.08 486.967 825.826C490.498 821.254 497.956 821.833 500.342 826.865L501.098 828.46C502.375 831.152 504.88 833.156 507.95 833.939L517.535 836.385Z" fill="white" stroke="black" stroke-width="2"/>
<path d="M524.261 850.517C528.396 851.573 529.963 856.19 527.27 859.385C526.138 860.727 524.435 861.549 522.621 861.63L516.762 861.892C509.967 862.195 503.675 858.917 500.512 853.427L497.237 847.742C496.061 845.701 496.259 843.187 497.748 841.26C500.767 837.35 507.144 837.845 509.183 842.147L509.843 843.539C510.972 845.919 513.188 847.691 515.902 848.384L524.261 850.517Z" fill="white" stroke="black" stroke-width="2"/>
<rect x="505.315" y="823.523" width="61.3442" height="61.5015" rx="28" transform="rotate(-22.6006 505.315 823.523)" fill="white" stroke="black" stroke-width="2"/>
<rect x="482.161" y="768.68" width="64.6646" height="90.9264" transform="rotate(-22.6006 482.161 768.68)" fill="#47DB99" stroke="black" stroke-width="2"/>
<path d="M478.878 765.653L540.423 740.033" stroke="white" stroke-width="2" stroke-linecap="round"/>
<rect x="494.408" y="764.535" width="40.4028" height="50.5035" transform="rotate(-22.6006 494.408 764.535)" fill="black"/>
<circle cx="518.492" cy="769.827" r="9.1007" transform="rotate(-22.6006 518.492 769.827)" fill="black" stroke="white" stroke-width="2"/>
<circle cx="527.033" cy="790.341" r="9.1007" transform="rotate(-22.6006 527.033 790.341)" fill="black" stroke="white" stroke-width="2"/>
<circle cx="518.496" cy="769.827" r="3.04028" transform="rotate(-22.6006 518.496 769.827)" fill="black" stroke="white" stroke-width="2"/>
<circle cx="527.034" cy="790.341" r="3.04028" transform="rotate(-22.6006 527.034 790.341)" fill="black" stroke="white" stroke-width="2"/>
<rect x="556.058" y="809.521" width="12.141" height="8.1007" transform="rotate(-22.6006 556.058 809.521)" fill="white" stroke="black" stroke-width="2"/>
<rect x="562.477" y="824.837" width="12.141" height="8.1007" transform="rotate(-22.6006 562.477 824.837)" fill="white" stroke="black" stroke-width="2"/>
<rect x="559.169" y="816.982" width="12.141" height="8.1007" transform="rotate(-22.6006 559.169 816.982)" fill="white" stroke="black" stroke-width="2"/>
<rect x="565.317" y="813.338" width="6.06042" height="10.1007" transform="rotate(-22.6006 565.317 813.338)" fill="black"/>
<path d="M510.82 815.674C515.081 818.29 520.242 815.839 520.73 810.968C520.935 808.923 520.237 806.82 518.825 805.228L513.952 799.738C508.988 794.144 501.582 791.689 494.828 793.398L486.978 795.383C484.307 796.059 482.359 798.273 481.954 801.093C481.132 806.811 486.742 811.76 492.014 809.967L493.686 809.399C496.506 808.44 499.689 808.843 502.389 810.5L510.82 815.674Z" fill="white" stroke="black" stroke-width="2"/>
<path d="M514.848 828.256C519.11 830.872 524.27 828.421 524.758 823.55C524.963 821.505 524.265 819.402 522.853 817.81L517.981 812.32C513.016 806.726 505.611 804.271 498.856 805.98L491.007 807.965C488.336 808.641 486.387 810.855 485.982 813.674C485.16 819.393 490.77 824.342 496.042 822.549L497.714 821.981C500.535 821.022 503.718 821.425 506.418 823.082L514.848 828.256Z" fill="white" stroke="black" stroke-width="2"/>
<path d="M518.196 841.3C522.457 843.915 527.618 841.465 528.106 836.594C528.311 834.548 527.613 832.445 526.2 830.854L521.328 825.364C516.364 819.77 508.958 817.314 502.204 819.023L494.354 821.009C491.683 821.685 489.735 823.899 489.33 826.718C488.508 832.437 494.118 837.385 499.39 835.593L501.062 835.024C503.882 834.066 507.065 834.468 509.765 836.125L518.196 841.3Z" fill="white" stroke="black" stroke-width="2"/>
<path d="M523.63 849.973C527.591 851.562 531.581 848.758 531.292 844.59C531.17 842.839 530.281 841.17 528.864 840.034L524.288 836.365C518.982 832.111 511.968 831.044 506.174 833.609L500.175 836.266C498.022 837.22 496.698 839.367 496.762 841.801C496.893 846.739 502.333 850.102 506.518 847.833L507.872 847.099C510.188 845.843 513.022 845.72 515.623 846.763L523.63 849.973Z" fill="white" stroke="black" stroke-width="2"/>
<path d="M340.173 751.618L267.96 832.543" stroke="black" stroke-width="2" stroke-linecap="round"/>
<path d="M717.615 711.054L823.804 733.129" stroke="black" stroke-width="2" stroke-linecap="round"/>
<path d="M296.906 701.397L210.018 734.273" stroke="black" stroke-width="2" stroke-linecap="round"/>
<path d="M313.439 750.67L303.627 749.138L302.096 758.951L292.283 757.42L290.752 767.233L280.939 765.702L279.408 775.515L269.595 773.984L268.064 783.797L258.251 782.266L256.72 792.079L246.907 790.548L245.376 800.361L235.563 798.83L234.031 808.643L224.218 807.111" stroke="#2C73FB" stroke-width="2" stroke-linecap="round"/>
<path d="M709.202 740.416L710.045 750.311L719.941 749.468L720.784 759.364L730.68 758.521L731.523 768.417L741.418 767.574L742.262 777.47L752.157 776.627L753.001 786.523L762.896 785.679L763.74 795.575L773.635 794.732L774.478 804.628L784.374 803.785L785.217 813.681" stroke="#FF3366" stroke-width="2" stroke-linecap="round"/>
<circle cx="670.782" cy="439.293" r="19.7548" fill="white" stroke="black" stroke-width="2"/>
<path d="M813.125 587.842H779.541V542.736H832.55V605.95L813.125 587.842Z" fill="#FF4B78"/>
<path d="M219.876 652.117H253.46V607.011H200.451V670.225L219.876 652.117Z" fill="#2C73FB"/>
<path d="M704.828 533.165L693.258 525.593L693.218 540.028L704.691 546.008L704.828 533.165Z" fill="black"/>
<path d="M716.253 525.637L705.688 519.126L695.122 525.637L705.688 532.633M716.253 525.637L705.688 532.633M716.253 525.637V538.366L705.688 544.294V532.633" stroke="black" stroke-width="2"/>
<path d="M239.652 422.874L259.335 518.601L386.374 510.549L373.849 401.403L239.652 422.874Z" fill="black"/>
<path d="M319.829 487.581L226.949 444.55L232.488 536.578L399.076 526.778V432.62L319.829 487.581Z" fill="white" stroke="black" stroke-width="2" stroke-linecap="round"/>
<path d="M268.285 433.869L353.671 420.853" stroke="white" stroke-width="2" stroke-linecap="round"/>
<path d="M270.321 445.636L355.707 432.62" stroke="white" stroke-width="2" stroke-linecap="round"/>
<path d="M270.321 458.652L355.707 445.635" stroke="white" stroke-width="2" stroke-linecap="round"/>
<circle cx="275.354" cy="471.202" r="20.8942" fill="white" stroke="black" stroke-width="2"/>
<path d="M269.483 464.507L282.004 477.028" stroke="black" stroke-width="2" stroke-linecap="round"/>
<path d="M282.006 464.506L269.485 477.027" stroke="black" stroke-width="2" stroke-linecap="round"/>
<g filter="url(#filter1_d)">
<rect x="1015.61" y="732.438" width="319" height="140" rx="70" fill="#FF4B78"/>
<path d="M1135.66 789.044C1137.25 789.044 1138.79 789.143 1140.28 789.343C1141.78 789.53 1143.12 789.858 1144.31 790.327C1145.5 790.784 1146.48 791.405 1147.24 792.19C1148.02 792.976 1148.47 793.954 1148.6 795.126L1144.03 796.392C1144.03 795.688 1143.79 795.114 1143.31 794.669C1142.84 794.212 1142.21 793.854 1141.43 793.597C1140.65 793.327 1139.76 793.14 1138.75 793.034C1137.76 792.929 1136.73 792.876 1135.66 792.876C1134.62 792.876 1133.59 792.923 1132.58 793.017C1131.58 793.11 1130.67 793.286 1129.86 793.544C1129.06 793.802 1128.42 794.159 1127.93 794.616C1127.43 795.073 1127.19 795.665 1127.19 796.392V800.575H1148.6V809.681C1148.6 810.466 1148.42 811.169 1148.07 811.79C1147.73 812.399 1147.26 812.933 1146.65 813.39C1146.05 813.835 1145.33 814.216 1144.5 814.532C1143.68 814.837 1142.79 815.083 1141.83 815.27C1140.88 815.458 1139.88 815.593 1138.82 815.675C1137.77 815.757 1136.71 815.798 1135.66 815.798C1134.58 815.798 1133.52 815.757 1132.48 815.675C1131.44 815.593 1130.45 815.458 1129.51 815.27C1128.57 815.083 1127.7 814.837 1126.89 814.532C1126.09 814.216 1125.39 813.835 1124.78 813.39C1124.17 812.933 1123.68 812.399 1123.3 811.79C1122.93 811.181 1122.7 810.477 1122.62 809.681L1127.19 808.415C1127.19 809.142 1127.43 809.733 1127.93 810.19C1128.42 810.647 1129.06 811.005 1129.86 811.263C1130.67 811.52 1131.58 811.696 1132.58 811.79C1133.59 811.884 1134.62 811.931 1135.66 811.931C1136.73 811.931 1137.76 811.884 1138.75 811.79C1139.76 811.685 1140.65 811.503 1141.43 811.245C1142.21 810.976 1142.84 810.612 1143.31 810.155C1143.79 809.698 1144.03 809.118 1144.03 808.415V804.126H1122.62V795.126C1122.62 794.341 1122.79 793.649 1123.13 793.052C1123.48 792.442 1123.95 791.915 1124.55 791.47C1125.16 791.013 1125.88 790.632 1126.71 790.327C1127.54 790.011 1128.44 789.759 1129.4 789.571C1130.38 789.384 1131.39 789.249 1132.44 789.167C1133.51 789.085 1134.58 789.044 1135.66 789.044Z" fill="white"/>
<path d="M1159.04 795.548H1163.5V798.501H1159.04V815.833H1154.86V798.501H1151.55V795.548H1154.86V789.431H1159.04V795.548Z" fill="white"/>
<path d="M1187.41 808.661C1187.12 808.403 1186.75 808.151 1186.32 807.905C1185.89 807.659 1185.35 807.442 1184.72 807.255C1184.09 807.056 1183.33 806.897 1182.45 806.78C1181.59 806.651 1180.57 806.587 1179.39 806.587C1178.35 806.587 1177.36 806.61 1176.42 806.657C1175.5 806.692 1174.68 806.81 1173.98 807.009C1173.28 807.196 1172.72 807.501 1172.31 807.923C1171.9 808.345 1171.7 808.931 1171.7 809.681V811.931C1172.73 812.095 1173.86 812.229 1175.11 812.335C1176.35 812.44 1177.73 812.493 1179.25 812.493C1180.47 812.493 1181.77 812.452 1183.14 812.37C1184.52 812.276 1185.95 812.095 1187.41 811.825V808.661ZM1179.5 795.794C1180.09 795.794 1180.79 795.823 1181.63 795.882C1182.46 795.94 1183.33 796.046 1184.23 796.198C1185.13 796.339 1186.02 796.538 1186.9 796.796C1187.79 797.042 1188.59 797.37 1189.29 797.78C1190.01 798.179 1190.58 798.659 1191.01 799.222C1191.45 799.784 1191.66 800.446 1191.66 801.208V814.813C1190.68 815.013 1189.57 815.183 1188.32 815.323C1187.26 815.452 1185.99 815.569 1184.51 815.675C1183.03 815.78 1181.39 815.833 1179.57 815.833C1177.77 815.833 1175.84 815.757 1173.8 815.604C1171.78 815.452 1169.66 815.188 1167.44 814.813V808.485C1167.44 807.806 1167.6 807.214 1167.92 806.71C1168.24 806.194 1168.69 805.755 1169.25 805.392C1169.81 805.028 1170.48 804.729 1171.24 804.495C1172 804.261 1172.82 804.073 1173.7 803.933C1174.58 803.792 1175.49 803.698 1176.44 803.651C1177.39 803.593 1178.34 803.563 1179.29 803.563C1180.73 803.563 1181.96 803.657 1182.96 803.845C1183.98 804.02 1184.83 804.214 1185.49 804.425C1186.27 804.683 1186.91 804.97 1187.41 805.286V802.438C1187.41 801.958 1187.29 801.548 1187.06 801.208C1186.82 800.856 1186.51 800.563 1186.11 800.329C1185.71 800.083 1185.25 799.89 1184.74 799.749C1184.22 799.597 1183.68 799.479 1183.12 799.397C1182.56 799.315 1181.98 799.263 1181.4 799.239C1180.82 799.216 1180.29 799.204 1179.78 799.204C1179.25 799.204 1178.69 799.222 1178.09 799.257C1177.5 799.28 1176.9 799.333 1176.3 799.415C1175.71 799.497 1175.15 799.614 1174.6 799.767C1174.06 799.907 1173.58 800.101 1173.15 800.347C1172.73 800.593 1172.39 800.892 1172.13 801.243C1171.89 801.583 1171.77 801.993 1171.77 802.474L1167.41 801.349C1167.41 800.563 1167.6 799.884 1167.99 799.31C1168.37 798.724 1168.88 798.226 1169.52 797.815C1170.16 797.405 1170.9 797.071 1171.73 796.813C1172.56 796.544 1173.42 796.339 1174.31 796.198C1175.22 796.046 1176.11 795.94 1177 795.882C1177.89 795.823 1178.73 795.794 1179.5 795.794Z" fill="white"/>
<path d="M1212.79 795.794C1212.79 797.013 1212.75 798.284 1212.67 799.608C1212.59 800.921 1212.43 802.274 1212.2 803.669H1207.94C1208.05 803.27 1208.15 802.837 1208.24 802.368C1208.31 801.97 1208.38 801.507 1208.43 800.979C1208.5 800.44 1208.54 799.872 1208.54 799.274C1207.51 799.298 1206.65 799.397 1205.97 799.573C1205.3 799.737 1204.75 799.936 1204.3 800.171C1203.86 800.393 1203.49 800.622 1203.21 800.856C1202.93 801.091 1202.68 801.278 1202.46 801.419V815.833H1197.96V801.313C1197.91 800.938 1197.8 800.622 1197.62 800.364C1197.46 800.106 1197.28 799.895 1197.1 799.731C1196.88 799.532 1196.64 799.368 1196.38 799.239L1198.24 795.794C1198.67 795.946 1199.1 796.151 1199.52 796.409C1199.88 796.632 1200.27 796.919 1200.66 797.27C1201.07 797.61 1201.44 798.032 1201.75 798.536C1202.35 798.126 1202.9 797.78 1203.41 797.499C1203.91 797.206 1204.4 796.96 1204.87 796.761C1205.35 796.561 1205.84 796.409 1206.34 796.304C1206.86 796.186 1207.42 796.093 1208.03 796.022C1208.65 795.952 1209.34 795.905 1210.1 795.882C1210.88 795.847 1211.77 795.817 1212.79 795.794Z" fill="white"/>
<path d="M1223.13 795.548H1227.59V798.501H1223.13V815.833H1218.95V798.501H1215.64V795.548H1218.95V789.431H1223.13V795.548Z" fill="white"/>
</g>
</g>
<defs>
<filter id="filter0_d" x="47" y="268.424" width="1079" height="777" filterUnits="userSpaceOnUse" color-interpolation-filters="sRGB">
<feFlood flood-opacity="0" result="BackgroundImageFix"/>
<feColorMatrix in="SourceAlpha" type="matrix" values="0 0 0 0 0 0 0 0 0 0 0 0 0 0 0 0 0 0 127 0"/>
<feOffset dx="70" dy="70"/>
<feGaussianBlur stdDeviation="60"/>
<feColorMatrix type="matrix" values="0 0 0 0 1 0 0 0 0 1 0 0 0 0 1 0 0 0 0.14 0"/>
<feBlend mode="normal" in2="BackgroundImageFix" result="effect1_dropShadow"/>
<feBlend mode="normal" in="SourceGraphic" in2="effect1_dropShadow" result="shape"/>
</filter>
<filter id="filter1_d" x="965.605" y="682.438" width="559" height="380" filterUnits="userSpaceOnUse" color-interpolation-filters="sRGB">
<feFlood flood-opacity="0" result="BackgroundImageFix"/>
<feColorMatrix in="SourceAlpha" type="matrix" values="0 0 0 0 0 0 0 0 0 0 0 0 0 0 0 0 0 0 127 0"/>
<feOffset dx="70" dy="70"/>
<feGaussianBlur stdDeviation="60"/>
<feColorMatrix type="matrix" values="0 0 0 0 0.9 0 0 0 0 0 0 0 0 0 0 0 0 0 0.16 0"/>
<feBlend mode="normal" in2="BackgroundImageFix" result="effect1_dropShadow"/>
<feBlend mode="normal" in="SourceGraphic" in2="effect1_dropShadow" result="shape"/>
</filter>
<clipPath id="clip0">
<rect width="1600" height="1200" fill="white" transform="translate(0 0.423828)"/>
</clipPath>
</defs>
</svg>
