<svg width="1601" height="1201" viewBox="0 0 1601 1201" fill="none" xmlns="http://www.w3.org/2000/svg">
<g clip-path="url(#clip0)">
<rect width="1600" height="1200" transform="translate(0.785645 0.121338)" fill="black"/>
<path fill-rule="evenodd" clip-rule="evenodd" d="M2480.03 827.01L2431.19 807.25C2382.36 787.49 2282.6 748.21 2180.61 671.119C2076.53 594.268 1970.22 479.606 1874.79 477.898C1781.44 475.949 1698.98 586.952 1612.84 647.622C1526.7 708.291 1432.71 719.105 1336.48 692.109C1238.16 665.353 1137.61 600.786 1043.62 611.601C951.718 622.175 866.372 708.132 781.673 781.324C696.974 854.517 608.746 915.427 513.96 900.954C417.086 886.721 313.654 797.107 216.78 782.874C121.994 768.402 33.7659 829.311 -9.30384 859.646L-52.3738 889.98L-0.498504 1340.83L45.4534 1335.54C91.4051 1330.26 185.398 1319.44 277.301 1308.87C371.294 1298.05 463.198 1287.48 557.19 1276.66C649.093 1266.09 743.086 1255.27 834.989 1244.7C926.893 1234.12 1065.48 1346.12 1157.39 1335.54C1251.38 1324.73 1343.28 1314.15 1437.28 1303.34C1529.18 1292.77 1623.17 1281.95 1715.08 1271.38C1806.98 1260.8 1900.97 1249.99 1992.88 1239.41C2086.87 1228.6 2178.77 1218.02 2272.76 1207.21C2364.67 1196.63 2458.66 1185.82 2504.61 1180.53L2550.56 1175.24L2480.03 827.01Z" fill="white"/>
<rect x="51.2856" y="187.621" width="1498" height="826" rx="38.5" stroke="white" stroke-width="3"/>
<path d="M921.276 788.529L963.393 788.029L963.893 805.029L928.023 805.223L921.276 788.529Z" fill="white"/>
<rect x="1242.08" y="800.196" width="88.6699" height="4.86515" fill="white"/>
<g filter="url(#filter0_d)">
<rect x="665.393" y="358.342" width="839" height="511.78" rx="48" fill="white"/>
<rect x="666.393" y="359.342" width="837" height="509.78" rx="47" stroke="white" stroke-width="2"/>
</g>
<path d="M789.173 749.404C786.751 732.827 799.604 717.96 816.358 717.96C832.964 717.96 845.774 732.579 843.593 749.042L839.094 783.004C837.599 794.291 827.974 802.725 816.588 802.725C805.317 802.725 795.753 794.456 794.124 783.303L789.173 749.404Z" fill="#47DB99" stroke="black" stroke-width="2"/>
<path d="M843.376 790.502L835.629 831.173L796.645 831.173L788.898 790.502L843.376 790.502Z" fill="white" stroke="black" stroke-width="2"/>
<path d="M815.426 717.671C799.069 726.917 798.357 736.162 798.357 746.83C798.357 755.383 801.439 773.855 802.625 783.1" stroke="black" stroke-width="2"/>
<path d="M817.56 717.671C833.917 726.917 834.628 736.162 834.628 746.83C834.628 755.383 831.547 773.855 830.361 783.1" stroke="black" stroke-width="2"/>
<path d="M834.628 747.541L837.472 746.83M831.783 731.895H828.938M816.848 736.162L818.982 734.74M814.003 751.808L816.848 753.231M817.559 771.722L819.693 771.01M800.491 769.588L802.624 768.166M798.357 753.231L795.512 751.808M800.491 732.607L802.624 733.318" stroke="black" stroke-width="2"/>
<path d="M816.136 717.671L816.848 783.1" stroke="black" stroke-width="2"/>
<path d="M790.534 775.989H792.668M786.267 744.697H788.401M797.646 721.939L799.068 723.362M835.339 724.784L837.472 723.362M843.162 754.654L846.007 755.365M843.162 774.567L840.317 775.989M833.205 764.61L829.649 766.033" stroke="black" stroke-width="2"/>
<rect x="849.274" y="794.073" width="66.2737" height="10.6818" transform="rotate(180 849.274 794.073)" fill="white" stroke="black" stroke-width="2"/>
<path d="M1451.57 500.731L1451.57 503.884L1430.55 503.884L1430.55 500.731L1451.57 500.731Z" fill="#E4ECF4"/>
<path d="M1451.57 509.139L1451.57 512.292L1430.55 512.292L1430.55 509.139L1451.57 509.139Z" fill="#E4ECF4"/>
<path d="M1451.57 517.517L1451.57 520.67L1430.55 520.67L1430.55 517.517L1451.57 517.517Z" fill="#E4ECF4"/>
<path d="M1451.57 525.467L1451.57 528.62L1430.55 528.62L1430.55 525.467L1451.57 525.467Z" fill="#E4ECF4"/>
<path d="M1430.55 550.105H1451.57V571.125H1430.55V550.105Z" fill="#E4ECF4"/>
<path d="M1420.04 560.616H1441.06V581.636H1420.04V560.616Z" fill="#47DB99"/>
<path d="M1387.43 499.154L1387.43 502.307L1366.42 502.307L1366.42 499.154L1387.43 499.154Z" fill="#E4ECF4"/>
<path d="M1387.43 507.563L1387.43 510.716L1366.42 510.716L1366.42 507.563L1387.43 507.563Z" fill="#E4ECF4"/>
<path d="M1387.43 515.941L1387.43 519.094L1366.42 519.094L1366.42 515.941L1387.43 515.941Z" fill="#E4ECF4"/>
<path d="M1387.43 523.891L1387.43 527.044L1366.42 527.044L1366.42 523.891L1387.43 523.891Z" fill="#E4ECF4"/>
<path d="M1387.43 532.726L1387.43 535.879L1366.42 535.879L1366.42 532.726L1387.43 532.726Z" fill="#E4ECF4"/>
<path d="M1387.43 540.677L1387.43 543.83L1366.42 543.83L1366.42 540.677L1387.43 540.677Z" fill="#E4ECF4"/>
<path d="M1387.43 548.627L1387.43 551.78L1366.42 551.78L1366.42 548.627L1387.43 548.627Z" fill="#E4ECF4"/>
<path d="M1387.43 557.462L1387.43 560.615L1366.42 560.615L1366.42 557.462L1387.43 557.462Z" fill="#E4ECF4"/>
<path d="M964 653.407C964 565.606 1035.15 494.456 1122.89 494.456C1210.62 494.456 1281.77 565.606 1281.77 653.407C1281.77 705.167 1257.07 751.182 1218.65 780.261H1027.13C988.7 751.182 964 705.167 964 653.407Z" stroke="#E4ECF4" stroke-width="100"/>
<path d="M1277.99 705.289L1231.08 830.669H1122.09L1191.26 687.298C1210.06 687.256 1249.5 687.197 1256.9 687.298C1266.13 687.424 1270 686.544 1275.79 691.954C1280.42 696.282 1279.19 702.647 1277.99 705.289Z" fill="black"/>
<path fill-rule="evenodd" clip-rule="evenodd" d="M1192.17 688.752C1211.32 688.711 1249.62 688.655 1256.88 688.754C1258.24 688.773 1259.47 688.771 1260.58 688.769C1263.37 688.765 1265.47 688.761 1267.4 689.081C1269.92 689.5 1272.08 690.484 1274.79 693.018C1276.77 694.868 1277.51 697.151 1277.62 699.326C1277.73 701.532 1277.18 703.554 1276.67 704.689L1276.65 704.734L1230.07 829.213H1124.41L1192.17 688.752ZM1256.92 685.842C1249.51 685.741 1210.05 685.8 1191.25 685.842L1190.34 685.844L1119.77 832.126H1232.09L1279.34 705.844C1280.02 704.333 1280.66 701.874 1280.53 699.182C1280.39 696.432 1279.43 693.368 1276.78 690.89C1273.7 688.014 1271.03 686.732 1267.87 686.208C1265.69 685.846 1263.23 685.85 1260.33 685.855C1259.25 685.856 1258.12 685.858 1256.92 685.842Z" fill="black"/>
<path d="M1170.12 687.152C1170.12 691.003 1160.13 694.124 1147.82 694.124C1135.5 694.124 1125.52 691.003 1125.52 687.152C1125.52 683.302 1135.5 680.18 1147.82 680.18C1160.13 680.18 1170.12 683.302 1170.12 687.152Z" fill="white"/>
<path fill-rule="evenodd" clip-rule="evenodd" d="M1167.24 686.936C1167.24 686.936 1167.24 686.941 1167.23 686.952C1167.24 686.941 1167.24 686.936 1167.24 686.936ZM1167.07 687.152C1166.98 687.058 1166.84 686.933 1166.63 686.78C1165.87 686.215 1164.58 685.583 1162.72 685.002C1159.03 683.85 1153.76 683.093 1147.82 683.093C1141.87 683.093 1136.6 683.85 1132.92 685.002C1131.06 685.583 1129.77 686.215 1129 686.78C1128.8 686.933 1128.66 687.058 1128.56 687.152C1128.66 687.247 1128.8 687.371 1129 687.524C1129.77 688.089 1131.06 688.721 1132.92 689.302C1136.6 690.454 1141.87 691.212 1147.82 691.212C1153.76 691.212 1159.03 690.454 1162.72 689.302C1164.58 688.721 1165.87 688.089 1166.63 687.524C1166.84 687.371 1166.98 687.247 1167.07 687.152ZM1128.4 686.936C1128.4 686.936 1128.4 686.941 1128.4 686.952C1128.4 686.941 1128.39 686.936 1128.4 686.936ZM1128.4 687.368C1128.39 687.368 1128.4 687.363 1128.4 687.353C1128.4 687.363 1128.4 687.368 1128.4 687.368ZM1167.23 687.353C1167.24 687.363 1167.24 687.368 1167.24 687.368C1167.24 687.368 1167.24 687.363 1167.23 687.353ZM1147.82 694.124C1160.13 694.124 1170.12 691.003 1170.12 687.152C1170.12 683.302 1160.13 680.18 1147.82 680.18C1135.5 680.18 1125.52 683.302 1125.52 687.152C1125.52 691.003 1135.5 694.124 1147.82 694.124Z" fill="black"/>
<path d="M1117.3 676.262C1134.34 678.001 1146.75 692.539 1145.19 708.687L1095.06 822.479L1045.36 818.152L1045.4 818.027C1045.7 817.156 1046.14 815.877 1046.69 814.246C1047.81 810.984 1049.41 806.311 1051.34 800.67C1055.2 789.389 1060.4 774.233 1065.73 758.74C1076.4 727.732 1087.58 695.424 1089.71 690.035C1093.78 679.766 1105.02 675.008 1117.3 676.262Z" fill="white" stroke="black" stroke-width="2"/>
<path d="M1159.86 687V646L1122.86 649.844V687H1159.86Z" fill="white" stroke="black" stroke-width="2"/>
<path fill-rule="evenodd" clip-rule="evenodd" d="M1101.37 564.89C1106.94 556.791 1115.81 552.027 1125.96 550.145C1141.32 547.296 1152.31 549.363 1160.08 554.554C1167.86 559.753 1172.22 567.955 1174.53 576.943C1178.67 593.032 1176.36 612.069 1175.13 622.168C1173.64 634.484 1168.38 644.192 1157.79 649.896C1148.95 654.655 1138.02 656.074 1128.23 654.349C1123.31 653.484 1119.3 651.877 1115.93 649.323C1112.57 646.768 1109.93 643.318 1107.7 638.875C1103.28 630.06 1100.39 617.135 1096.67 599.072C1093.63 584.334 1095.78 573.011 1101.37 564.89Z" fill="white" stroke="black" stroke-width="2" stroke-linecap="round"/>
<path d="M1139.01 548.814C1188.16 550.43 1184.35 603.891 1179.33 620.557C1176.6 633.147 1169.27 640.98 1167.42 643.549C1159.36 642.538 1163.26 619.851 1168.26 620.539C1173.49 620.547 1175.82 608.614 1173.47 604.175C1171.59 600.624 1166.28 603.648 1164.65 605.432C1160.8 553.978 1092.91 556.948 1094.48 589.778C1094.48 589.778 1090.32 547.213 1139.01 548.814Z" fill="black"/>
<path d="M1133.11 555.345C1133.79 553.41 1135.77 552.422 1139 551.175C1142.23 549.931 1150.34 549.651 1157.24 553.346C1164.39 557.173 1167.98 560.046 1173.19 561.609C1178.41 563.172 1182.03 561.87 1180.98 556.88C1179.66 550.57 1170.99 550.012 1173.24 556.361" stroke="black" stroke-width="3" stroke-linecap="round"/>
<path d="M1123.86 646H1158.86V674H1123.86V646Z" fill="white"/>
<path d="M1132.83 583.973L1094.86 591.367L1095.8 577.936L1102.32 563.613L1163.86 562L1162.42 594C1162.42 594 1159.22 584.974 1153.54 583.151C1147.86 581.328 1139.08 583.151 1139.08 583.151V574.691L1132.83 583.973Z" fill="black"/>
<path d="M1156.86 558.667C1156.65 558.938 1156.55 559.262 1156.59 559.634C1156.63 560.012 1156.81 560.467 1157.22 560.972C1158.04 561.988 1159.73 563.137 1162.68 564.15C1165.74 565.198 1167.31 566.657 1167.97 568.137C1168.63 569.615 1168.34 571.029 1167.86 571.893" stroke="white" stroke-width="2" stroke-linecap="round"/>
<path d="M1107.52 604.426C1107.77 605.859 1107.28 607.138 1106.43 607.284C1105.58 607.431 1104.69 606.388 1104.45 604.955C1104.2 603.522 1104.69 602.243 1105.54 602.097C1106.39 601.95 1107.27 602.993 1107.52 604.426Z" fill="black"/>
<path d="M1135.43 600.594C1135.67 602.027 1135.19 603.306 1134.34 603.452C1133.49 603.598 1132.6 602.555 1132.35 601.123C1132.11 599.69 1132.6 598.41 1133.44 598.264C1134.29 598.118 1135.18 599.161 1135.43 600.594Z" fill="black"/>
<path d="M1127.5 634.473C1133.66 634.473 1138.66 631.159 1138.66 627.069" stroke="black" stroke-width="2" stroke-linecap="round"/>
<path d="M1118.62 608.809L1114.24 618.193L1123.94 620.382" stroke="black" stroke-width="2" stroke-linecap="round"/>
<path d="M1178.39 659.245C1178.39 659.245 1125.54 670.781 1119.84 672.119C1114.14 673.457 1108.9 676.703 1104.74 681.225C1100.58 685.746 1097.15 694.116 1096.08 698.808C1095 703.5 1075 831 1075 831L1196.46 831C1198.11 787.669 1201.51 698.997 1201.91 690.959C1202.4 680.911 1200.92 676.515 1196.46 666.781C1192.9 658.994 1182.93 658.513 1178.39 659.245Z" fill="black"/>
<path d="M1105.49 698.335L1121.27 696.509L1120.24 706.053L1104.46 707.88L1105.49 698.335Z" fill="#C4C4C4"/>
<path d="M1105.49 698.335L1121.27 696.509L1120.24 706.053L1104.46 707.88L1105.49 698.335Z" fill="white"/>
<path d="M1099.99 698.976L1105.49 698.339L1104.46 707.883L1098.95 708.52L1099.99 698.976Z" fill="#FF4B78"/>
<path d="M1101.18 701.349L1103.75 701.052L1103.26 705.506L1100.7 705.803L1101.18 701.349Z" fill="white"/>
<path d="M1160.33 792.138L1161.13 791.978V791.157V687.477C1161.32 673.323 1169.64 661.06 1181.18 658.486C1194.24 655.576 1207.06 666.109 1209.53 682.573C1210.13 686.559 1210.13 690.235 1209.67 693.579L1209.67 693.6L1209.67 693.621L1196.56 830.996L1092.69 830.505L1083.86 807.251L1160.33 792.138Z" fill="white" stroke="black" stroke-width="2"/>
<path d="M1132 817H947L950.666 831H1132V817Z" fill="white" stroke="black" stroke-width="2"/>
<path d="M961.775 830.67L921 708.52H1068.18L1102.35 830.67H961.775Z" fill="white" stroke="black" stroke-width="2"/>
<path d="M720.979 518.333C720.979 509.268 728.328 501.92 737.392 501.92H947.48C956.545 501.92 963.893 509.268 963.893 518.333V524.898H720.979V518.333Z" fill="#2C73FB"/>
<path d="M962.892 668.333L721.978 668.333L721.978 525.898L962.892 525.898L962.892 668.333Z" fill="#E4ECF4" stroke="#2C73FB" stroke-width="2"/>
<rect width="78" height="46" transform="translate(757.63 544.841)" fill="white"/>
<path fill-rule="evenodd" clip-rule="evenodd" d="M796.63 557.841C797.419 557.841 798.059 558.48 798.059 559.269V576.412C798.059 577.201 797.419 577.841 796.63 577.841C795.841 577.841 795.201 577.201 795.201 576.412V559.269C795.201 558.48 795.841 557.841 796.63 557.841Z" fill="#2C73FB"/>
<path fill-rule="evenodd" clip-rule="evenodd" d="M806.63 567.84C806.63 568.629 805.99 569.269 805.201 569.269H788.059C787.27 569.269 786.63 568.629 786.63 567.84C786.63 567.052 787.27 566.412 788.059 566.412H805.201C805.99 566.412 806.63 567.052 806.63 567.84Z" fill="#2C73FB"/>
<path d="M743.957 514.812C743.957 516.625 742.487 518.094 740.674 518.094C738.861 518.094 737.391 516.625 737.391 514.812C737.391 512.999 738.861 511.529 740.674 511.529C742.487 511.529 743.957 512.999 743.957 514.812Z" fill="white"/>
<path d="M758.522 514.812C758.522 516.625 757.052 518.094 755.239 518.094C753.426 518.094 751.956 516.625 751.956 514.812C751.956 512.999 753.426 511.529 755.239 511.529C757.052 511.529 758.522 512.999 758.522 514.812Z" fill="white"/>
<path d="M773.087 514.812C773.087 516.625 771.617 518.094 769.804 518.094C767.991 518.094 766.522 516.625 766.522 514.812C766.522 512.999 767.991 511.529 769.804 511.529C771.617 511.529 773.087 512.999 773.087 514.812Z" fill="white"/>
<g clip-path="url(#clip1)">
<rect width="78.7829" height="45.9567" transform="translate(849.63 544.434)" fill="white"/>
<path d="M866.784 569.502L843.065 590.391H934.978V581.438L908.294 557.565L881.609 584.423L866.784 569.502Z" fill="#2C73FB"/>
<path d="M872.19 557.565C872.19 559.378 870.72 560.847 868.907 560.847C867.094 560.847 865.625 559.378 865.625 557.565C865.625 555.752 867.094 554.282 868.907 554.282C870.72 554.282 872.19 555.752 872.19 557.565Z" fill="#2C73FB"/>
</g>
<g clip-path="url(#clip2)">
<rect width="78.7829" height="45.9567" transform="translate(757.152 604.841)" fill="white"/>
<path fill-rule="evenodd" clip-rule="evenodd" d="M767 644.555L778.514 636.006C780.122 634.856 783.397 632.554 786.671 633.129C790.003 633.705 793.277 637.157 796.552 639.171C799.826 641.185 803.101 641.76 806.375 640.322C809.65 638.883 812.981 635.431 816.256 634.568C819.53 633.705 822.805 635.431 826.079 637.445C829.353 639.459 832.628 641.76 835.96 640.897C839.234 640.034 842.509 636.006 844.117 633.993L845.783 631.979V647.514H844.117C842.509 647.514 839.234 647.514 835.96 647.514C832.628 647.514 829.353 647.514 826.079 647.514C822.805 647.514 819.53 647.514 816.256 647.514C812.981 647.514 809.65 647.514 806.375 647.514C803.101 647.514 799.826 647.514 796.552 647.514C793.277 647.514 790.003 647.514 786.671 647.514C783.397 647.514 780.122 647.514 778.514 647.514H776.848L767 644.555Z" fill="#E4ECF4"/>
<path d="M767.776 639.815C760.136 639.815 753.133 647.137 750.587 650.797C790.535 650.638 855.631 650.797 855.631 650.797C855.631 650.797 850.856 644.113 846.559 639.338C843.365 635.789 834.622 624.536 820.298 624.536C805.974 624.536 794.514 645.545 785.442 645.545C776.37 645.545 777.325 639.815 767.776 639.815Z" fill="#0099FF"/>
</g>
<rect width="78.7829" height="45.9567" transform="translate(849.935 604.841)" fill="white"/>
<path d="M872.913 616.33C872.913 618.143 871.444 619.612 869.631 619.612C867.818 619.612 866.348 618.143 866.348 616.33C866.348 614.517 867.818 613.047 869.631 613.047C871.444 613.047 872.913 614.517 872.913 616.33Z" fill="#2C73FB"/>
<path fill-rule="evenodd" clip-rule="evenodd" d="M910.663 616.33C910.663 617.236 909.929 617.971 909.022 617.971H879.479C878.572 617.971 877.837 617.236 877.837 616.33C877.837 615.423 878.572 614.688 879.479 614.688H909.022C909.929 614.688 910.663 615.423 910.663 616.33Z" fill="#E4ECF4"/>
<path d="M872.913 627.819C872.913 629.632 871.444 631.102 869.631 631.102C867.818 631.102 866.348 629.632 866.348 627.819C866.348 626.006 867.818 624.536 869.631 624.536C871.444 624.536 872.913 626.006 872.913 627.819Z" fill="#47DB99"/>
<path fill-rule="evenodd" clip-rule="evenodd" d="M910.663 627.819C910.663 628.725 909.929 629.46 909.022 629.46H879.479C878.572 629.46 877.837 628.725 877.837 627.819C877.837 626.912 878.572 626.178 879.479 626.178H909.022C909.929 626.178 910.663 626.912 910.663 627.819Z" fill="#E4ECF4"/>
<path d="M872.913 639.308C872.913 641.121 871.444 642.591 869.631 642.591C867.818 642.591 866.348 641.121 866.348 639.308C866.348 637.495 867.818 636.025 869.631 636.025C871.444 636.025 872.913 637.495 872.913 639.308Z" fill="#FF3366"/>
<path fill-rule="evenodd" clip-rule="evenodd" d="M910.663 639.308C910.663 640.214 909.929 640.949 909.022 640.949H879.479C878.572 640.949 877.837 640.214 877.837 639.308C877.837 638.402 878.572 637.667 879.479 637.667H909.022C909.929 637.667 910.663 638.402 910.663 639.308Z" fill="#E4ECF4"/>
<path d="M1348 404C1348 402.895 1348.9 402 1350 402H1447.94C1449.04 402 1449.94 402.895 1449.94 404V461.164C1449.94 462.269 1449.04 463.164 1447.94 463.164H1350C1348.9 463.164 1348 462.269 1348 461.164V404Z" fill="#E4ECF4"/>
<path fill-rule="evenodd" clip-rule="evenodd" d="M1348 446.479L1349.19 448.643C1350.46 450.807 1352.84 455.134 1355.3 455.134C1357.68 455.134 1360.14 450.807 1362.52 450.266C1364.98 449.725 1367.44 452.97 1369.82 452.429C1372.28 451.888 1374.65 447.561 1377.12 448.102C1379.49 448.643 1381.95 454.052 1384.42 452.429C1386.79 450.807 1389.25 442.152 1391.63 438.907C1394.09 435.662 1396.47 437.825 1398.93 442.152C1401.39 446.479 1403.77 452.97 1406.23 456.216C1408.61 459.461 1411.07 459.461 1413.45 458.379C1415.91 457.297 1418.37 455.134 1420.75 450.807C1423.21 446.479 1425.59 439.989 1428.05 436.202C1430.42 432.416 1432.89 431.334 1435.35 434.58C1437.72 437.825 1440.19 445.398 1442.56 448.643C1445.02 451.888 1447.4 450.807 1448.67 450.266L1449.86 449.725V462.706H1448.67C1447.4 462.706 1445.02 462.706 1442.56 462.706C1440.19 462.706 1437.72 462.706 1435.35 462.706C1432.89 462.706 1430.42 462.706 1428.05 462.706C1425.59 462.706 1423.21 462.706 1420.75 462.706C1418.37 462.706 1415.91 462.706 1413.45 462.706C1411.07 462.706 1408.61 462.706 1406.23 462.706C1403.77 462.706 1401.39 462.706 1398.93 462.706C1396.47 462.706 1394.09 462.706 1391.63 462.706C1389.25 462.706 1386.79 462.706 1384.42 462.706C1381.95 462.706 1379.49 462.706 1377.12 462.706C1374.65 462.706 1372.28 462.706 1369.82 462.706C1367.44 462.706 1364.98 462.706 1362.52 462.706C1360.14 462.706 1357.68 462.706 1355.3 462.706C1352.84 462.706 1350.46 462.706 1349.19 462.706H1348V446.479Z" fill="#0099FF"/>
<path d="M808.001 433.577C808.001 430.689 810.715 428.348 814.063 428.348C817.412 428.348 820.126 430.689 820.126 433.577V463.904C820.126 466.792 817.412 469.133 814.063 469.133C810.715 469.133 808.001 466.792 808.001 463.904V433.577Z" fill="#47DB99"/>
<path d="M860.911 425.999C860.911 422.426 863.625 419.529 866.974 419.529C870.322 419.529 873.036 422.426 873.036 425.999V462.663C873.036 466.236 870.322 469.133 866.974 469.133C863.625 469.133 860.911 466.236 860.911 462.663V425.999Z" fill="#E4ECF4"/>
<path d="M825.637 448.74C825.637 445.392 828.352 442.678 831.7 442.678C835.048 442.678 837.763 445.392 837.763 448.74V463.07C837.763 466.419 835.048 469.133 831.7 469.133C828.352 469.133 825.637 466.419 825.637 463.07V448.74Z" fill="#FF4B78"/>
<path d="M843.274 438.079C843.274 434.531 845.989 431.655 849.337 431.655C852.685 431.655 855.4 434.531 855.4 438.079V462.708C855.4 466.256 852.685 469.133 849.337 469.133C845.989 469.133 843.274 466.256 843.274 462.708V438.079Z" fill="#2C73FB"/>
<path d="M878.548 461.417C878.548 457.764 881.262 454.803 884.611 454.803C887.959 454.803 890.673 457.764 890.673 461.417V462.519C890.673 466.172 887.959 469.133 884.611 469.133C881.262 469.133 878.548 466.172 878.548 462.519V461.417Z" fill="#47DB99"/>
<path d="M1212.96 488.832C1196.41 484.398 1186.59 467.388 1191.03 450.839C1195.46 434.29 1212.47 424.469 1229.02 428.903C1245.57 433.337 1255.39 450.348 1250.95 466.897C1246.52 483.446 1229.51 493.267 1212.96 488.832Z" fill="#E4F4E6"/>
<path d="M1252.01 458.867C1252.01 465.002 1250.19 471 1246.78 476.102C1243.37 481.203 1238.53 485.179 1232.86 487.527C1227.19 489.875 1220.96 490.489 1214.94 489.292C1208.92 488.095 1203.4 485.141 1199.06 480.802C1194.72 476.464 1191.76 470.936 1190.57 464.919C1189.37 458.901 1189.98 452.664 1192.33 446.995C1194.68 441.327 1198.66 436.482 1203.76 433.073C1208.86 429.664 1214.86 427.845 1220.99 427.845V458.867H1252.01Z" fill="#47DB99"/>
<path d="M751.711 831.266C1012.06 831.266 1158.03 831.266 1418.39 831.266" stroke="black" stroke-width="2" stroke-linecap="round"/>
<path d="M1246.77 544.08C1276.35 548.306 1336.94 570.535 1342.67 625.651C1348.4 680.766 1332.2 766.561 1323.38 802.57" stroke="black" stroke-width="2"/>
<path d="M1422.49 651.786C1405.57 649.849 1368.3 654.772 1354.65 689.96C1340.99 725.147 1333.41 783.918 1331.33 808.905" stroke="black" stroke-width="2"/>
<rect x="1380.25" y="769.603" width="97.2072" height="11.2276" transform="rotate(180 1380.25 769.603)" fill="white" stroke="black" stroke-width="2"/>
<path d="M1371.19 769.585L1359.85 831.121L1302.94 831.121L1291.59 769.585L1371.19 769.585Z" fill="white" stroke="black" stroke-width="2"/>
<path d="M1330.87 546.923C1328.09 556.657 1321.64 561.416 1315.86 563.767C1312.96 564.946 1310.22 565.516 1308.21 565.791C1307.21 565.928 1306.39 565.99 1305.83 566.019C1305.59 566.031 1305.39 566.037 1305.25 566.04C1305.13 565.963 1304.96 565.854 1304.76 565.715C1304.3 565.394 1303.64 564.908 1302.86 564.263C1301.3 562.97 1299.28 561.043 1297.43 558.51C1293.76 553.461 1290.79 546.015 1293.57 536.281C1296.37 526.483 1303.68 518.903 1310.4 513.738C1313.75 511.165 1316.92 509.212 1319.26 507.904C1320.43 507.25 1321.38 506.758 1322.04 506.431C1322.13 506.388 1322.21 506.347 1322.29 506.31C1322.33 506.382 1322.38 506.46 1322.43 506.543C1322.82 507.17 1323.38 508.092 1324.02 509.263C1325.32 511.607 1326.98 514.939 1328.47 518.893C1331.45 526.825 1333.66 537.124 1330.87 546.923Z" fill="#47DB99" stroke="black" stroke-width="2"/>
<path d="M1306.82 577.733C1313.99 576.262 1319.18 578.799 1322.62 581.72C1324.35 583.188 1325.63 584.752 1326.48 585.951C1326.9 586.549 1327.22 587.053 1327.42 587.403C1327.49 587.518 1327.54 587.615 1327.59 587.695C1327.58 587.785 1327.57 587.897 1327.55 588.028C1327.5 588.432 1327.41 589.019 1327.26 589.735C1326.95 591.171 1326.39 593.114 1325.38 595.144C1323.37 599.185 1319.6 603.564 1312.43 605.036C1305.21 606.521 1297.87 604.362 1292.26 601.757C1289.47 600.46 1287.14 599.067 1285.51 597.999C1284.71 597.479 1284.08 597.037 1283.65 596.722C1283.93 596.262 1284.33 595.608 1284.85 594.817C1285.93 593.192 1287.52 590.993 1289.58 588.701C1293.7 584.096 1299.6 579.219 1306.82 577.733Z" fill="#47DB99" stroke="black" stroke-width="2"/>
<path d="M1230.53 550.036C1235.35 544.533 1241.02 543.415 1245.52 543.664C1247.79 543.789 1249.75 544.261 1251.15 544.702C1251.85 544.923 1252.41 545.134 1252.78 545.289C1252.91 545.34 1253.01 545.384 1253.09 545.421C1253.14 545.498 1253.2 545.595 1253.26 545.71C1253.47 546.062 1253.75 546.584 1254.06 547.247C1254.68 548.577 1255.41 550.464 1255.84 552.691C1256.68 557.124 1256.32 562.892 1251.5 568.395C1246.64 573.948 1239.49 576.663 1233.45 577.977C1230.44 578.631 1227.74 578.93 1225.8 579.066C1224.85 579.132 1224.08 579.159 1223.55 579.17C1223.49 578.638 1223.41 577.874 1223.35 576.926C1223.23 574.979 1223.17 572.264 1223.42 569.197C1223.93 563.035 1225.67 555.588 1230.53 550.036Z" fill="#47DB99" stroke="black" stroke-width="2"/>
<path d="M1368.13 638.593C1362.42 643.166 1356.65 643.273 1352.25 642.238C1350.05 641.718 1348.19 640.909 1346.89 640.229C1346.24 639.889 1345.73 639.584 1345.39 639.366C1345.28 639.294 1345.18 639.233 1345.11 639.182C1345.08 639.097 1345.04 638.992 1344.99 638.867C1344.85 638.485 1344.67 637.922 1344.48 637.214C1344.1 635.795 1343.71 633.811 1343.68 631.544C1343.63 627.032 1344.99 621.415 1350.7 616.842C1356.46 612.227 1363.98 610.807 1370.15 610.573C1373.23 610.456 1375.94 610.634 1377.88 610.842C1378.82 610.943 1379.58 611.051 1380.11 611.134C1380.08 611.668 1380.02 612.433 1379.91 613.377C1379.69 615.315 1379.27 617.999 1378.49 620.975C1376.91 626.953 1373.89 633.979 1368.13 638.593Z" fill="#47DB99" stroke="black" stroke-width="2"/>
<path d="M1320.36 728.982C1326.07 733.555 1331.85 733.662 1336.24 732.627C1338.45 732.107 1340.3 731.298 1341.6 730.618C1342.25 730.278 1342.76 729.973 1343.1 729.754C1343.21 729.683 1343.31 729.621 1343.38 729.571C1343.42 729.486 1343.46 729.381 1343.5 729.256C1343.64 728.874 1343.83 728.311 1344.02 727.603C1344.4 726.184 1344.78 724.199 1344.81 721.933C1344.86 717.42 1343.5 711.804 1337.79 707.231C1332.03 702.616 1324.52 701.196 1318.34 700.962C1315.26 700.845 1312.55 701.023 1310.61 701.231C1309.67 701.332 1308.91 701.439 1308.38 701.523C1308.41 702.057 1308.48 702.822 1308.58 703.766C1308.8 705.704 1309.22 708.387 1310 711.363C1311.58 717.342 1314.6 724.367 1320.36 728.982Z" fill="#47DB99" stroke="black" stroke-width="2"/>
<path d="M1371.27 699.542C1364.75 696.232 1362.27 691.013 1361.39 686.586C1360.96 684.361 1360.93 682.34 1361.01 680.873C1361.05 680.142 1361.12 679.552 1361.18 679.149C1361.2 679.018 1361.21 678.907 1361.23 678.817C1361.29 678.752 1361.37 678.673 1361.47 678.58C1361.76 678.296 1362.19 677.893 1362.76 677.428C1363.89 676.496 1365.54 675.325 1367.6 674.365C1371.68 672.454 1377.36 671.378 1383.88 674.687C1390.46 678.027 1394.86 684.286 1397.63 689.816C1399 692.569 1399.96 695.11 1400.57 696.963C1400.87 697.864 1401.08 698.601 1401.23 699.117C1400.73 699.307 1400 699.568 1399.1 699.86C1397.24 700.459 1394.63 701.188 1391.59 701.702C1385.5 702.735 1377.85 702.882 1371.27 699.542Z" fill="#47DB99" stroke="black" stroke-width="2"/>
<path d="M1411.32 674.73C1407.69 668.385 1408.47 662.659 1410.18 658.479C1411.03 656.38 1412.12 654.674 1412.99 653.493C1413.42 652.904 1413.8 652.448 1414.07 652.143C1414.16 652.044 1414.24 651.96 1414.3 651.893C1414.39 651.874 1414.5 651.851 1414.63 651.826C1415.03 651.748 1415.61 651.65 1416.34 651.572C1417.8 651.416 1419.82 651.341 1422.07 651.665C1426.53 652.31 1431.87 654.526 1435.51 660.87C1439.18 667.273 1439.42 674.918 1438.69 681.058C1438.33 684.115 1437.74 686.764 1437.23 688.648C1436.99 689.566 1436.77 690.3 1436.6 690.809C1436.08 690.694 1435.33 690.516 1434.42 690.264C1432.54 689.747 1429.95 688.921 1427.13 687.686C1421.47 685.206 1414.99 681.132 1411.32 674.73Z" fill="#47DB99" stroke="black" stroke-width="2"/>
<path d="M928.7 830.371L928.799 831.261H929.694H963.818H964.714L964.812 830.371L971.017 774.378L971.14 773.268H970.023H923.49H922.373L922.496 774.378L928.7 830.371Z" fill="#E4ECF4" stroke="black" stroke-width="2"/>
<path d="M920.293 765.593L920 765.886V766.3V773.065V774.065H921H972.512H973.512V773.065V766.3V765.886L973.219 765.593L965.544 757.918L965.251 757.625H964.837H928.675H928.261L927.968 757.918L920.293 765.593Z" fill="white" stroke="black" stroke-width="2"/>
<path d="M925.045 788.154L968.522 788.154L964.146 830.261H929.713L925.045 788.154Z" fill="#2C73FB"/>
<path d="M1019.65 490.592L1049.25 490.592L1079.67 509.201L1079.67 490.592L1094 490.592L1094 421L1019.65 421L1019.65 490.592Z" fill="white" stroke="black" stroke-width="2"/>
<path d="M1038.65 451.707C1038.65 454.958 1040.03 456.909 1040.72 457.56C1041.42 458.21 1056.46 473.329 1056.46 473.329C1056.46 473.329 1071.5 458.21 1072.19 457.56C1072.88 456.909 1074.27 454.958 1074.27 451.707C1074.27 446.14 1069.47 441.627 1063.55 441.627C1060.83 441.627 1058.35 442.578 1056.46 444.146C1054.57 442.578 1052.09 441.627 1049.37 441.627C1043.45 441.627 1038.65 446.14 1038.65 451.707Z" fill="#FF4B78"/>
<g filter="url(#filter1_d)">
<rect x="402.393" y="795.121" width="319" height="140" rx="70" fill="#FF4B78"/>
<path d="M522.318 857.211C523.912 857.211 525.453 857.311 526.941 857.51C528.441 857.697 529.783 858.025 530.967 858.494C532.162 858.951 533.141 859.572 533.902 860.357C534.676 861.143 535.127 862.121 535.256 863.293L530.686 864.559C530.686 863.855 530.445 863.281 529.965 862.836C529.496 862.379 528.869 862.021 528.084 861.764C527.311 861.494 526.42 861.307 525.412 861.201C524.416 861.096 523.385 861.043 522.318 861.043C521.275 861.043 520.25 861.09 519.242 861.184C518.234 861.277 517.326 861.453 516.518 861.711C515.721 861.969 515.076 862.326 514.584 862.783C514.092 863.24 513.846 863.832 513.846 864.559V868.742H535.256V877.848C535.256 878.633 535.08 879.336 534.729 879.957C534.389 880.566 533.914 881.1 533.305 881.557C532.707 882.002 531.992 882.383 531.16 882.699C530.34 883.004 529.449 883.25 528.488 883.438C527.539 883.625 526.537 883.76 525.482 883.842C524.428 883.924 523.373 883.965 522.318 883.965C521.24 883.965 520.18 883.924 519.137 883.842C518.094 883.76 517.104 883.625 516.166 883.438C515.229 883.25 514.355 883.004 513.547 882.699C512.75 882.383 512.047 882.002 511.438 881.557C510.828 881.1 510.336 880.566 509.961 879.957C509.586 879.348 509.357 878.645 509.275 877.848L513.846 876.582C513.846 877.309 514.092 877.9 514.584 878.357C515.076 878.814 515.721 879.172 516.518 879.43C517.326 879.688 518.234 879.863 519.242 879.957C520.25 880.051 521.275 880.098 522.318 880.098C523.385 880.098 524.416 880.051 525.412 879.957C526.42 879.852 527.311 879.67 528.084 879.412C528.869 879.143 529.496 878.779 529.965 878.322C530.445 877.865 530.686 877.285 530.686 876.582V872.293H509.275V863.293C509.275 862.508 509.445 861.816 509.785 861.219C510.137 860.609 510.611 860.082 511.209 859.637C511.818 859.18 512.539 858.799 513.371 858.494C514.203 858.178 515.1 857.926 516.061 857.738C517.033 857.551 518.047 857.416 519.102 857.334C520.168 857.252 521.24 857.211 522.318 857.211ZM545.697 863.715H550.162V866.668H545.697V884H541.514V866.668H538.209V863.715H541.514V857.598H545.697V863.715ZM574.068 876.828C573.775 876.57 573.412 876.318 572.979 876.072C572.545 875.826 572.012 875.609 571.379 875.422C570.746 875.223 569.99 875.064 569.111 874.947C568.244 874.818 567.225 874.754 566.053 874.754C565.01 874.754 564.02 874.777 563.082 874.824C562.156 874.859 561.342 874.977 560.639 875.176C559.936 875.363 559.379 875.668 558.969 876.09C558.559 876.512 558.354 877.098 558.354 877.848V880.098C559.385 880.262 560.521 880.396 561.764 880.502C563.006 880.607 564.389 880.66 565.912 880.66C567.131 880.66 568.426 880.619 569.797 880.537C571.18 880.443 572.604 880.262 574.068 879.992V876.828ZM566.158 863.961C566.744 863.961 567.453 863.99 568.285 864.049C569.117 864.107 569.984 864.213 570.887 864.365C571.789 864.506 572.68 864.705 573.559 864.963C574.449 865.209 575.246 865.537 575.949 865.947C576.664 866.346 577.238 866.826 577.672 867.389C578.105 867.951 578.322 868.613 578.322 869.375V882.98C577.338 883.18 576.225 883.35 574.982 883.49C573.916 883.619 572.645 883.736 571.168 883.842C569.691 883.947 568.045 884 566.229 884C564.424 884 562.502 883.924 560.463 883.771C558.436 883.619 556.314 883.355 554.1 882.98V876.652C554.1 875.973 554.258 875.381 554.574 874.877C554.902 874.361 555.348 873.922 555.91 873.559C556.473 873.195 557.135 872.896 557.896 872.662C558.658 872.428 559.479 872.24 560.357 872.1C561.236 871.959 562.15 871.865 563.1 871.818C564.049 871.76 564.998 871.73 565.947 871.73C567.389 871.73 568.613 871.824 569.621 872.012C570.641 872.188 571.484 872.381 572.152 872.592C572.926 872.85 573.564 873.137 574.068 873.453V870.605C574.068 870.125 573.951 869.715 573.717 869.375C573.482 869.023 573.166 868.73 572.768 868.496C572.369 868.25 571.912 868.057 571.396 867.916C570.881 867.764 570.342 867.646 569.779 867.564C569.217 867.482 568.643 867.43 568.057 867.406C567.482 867.383 566.943 867.371 566.439 867.371C565.912 867.371 565.35 867.389 564.752 867.424C564.154 867.447 563.557 867.5 562.959 867.582C562.373 867.664 561.805 867.781 561.254 867.934C560.715 868.074 560.234 868.268 559.812 868.514C559.391 868.76 559.051 869.059 558.793 869.41C558.547 869.75 558.424 870.16 558.424 870.641L554.064 869.516C554.064 868.73 554.258 868.051 554.645 867.477C555.031 866.891 555.541 866.393 556.174 865.982C556.818 865.572 557.557 865.238 558.389 864.98C559.221 864.711 560.082 864.506 560.973 864.365C561.875 864.213 562.771 864.107 563.662 864.049C564.553 863.99 565.385 863.961 566.158 863.961ZM599.451 863.961C599.451 865.18 599.41 866.451 599.328 867.775C599.246 869.088 599.088 870.441 598.854 871.836H594.6C594.705 871.438 594.805 871.004 594.898 870.535C594.969 870.137 595.033 869.674 595.092 869.146C595.162 868.607 595.197 868.039 595.197 867.441C594.166 867.465 593.311 867.564 592.631 867.74C591.963 867.904 591.406 868.104 590.961 868.338C590.516 868.561 590.152 868.789 589.871 869.023C589.59 869.258 589.338 869.445 589.115 869.586V884H584.615V869.48C584.568 869.105 584.457 868.789 584.281 868.531C584.117 868.273 583.941 868.062 583.754 867.898C583.543 867.699 583.303 867.535 583.033 867.406L584.896 863.961C585.33 864.113 585.758 864.318 586.18 864.576C586.543 864.799 586.924 865.086 587.322 865.438C587.732 865.777 588.096 866.199 588.412 866.703C589.01 866.293 589.561 865.947 590.064 865.666C590.568 865.373 591.055 865.127 591.523 864.928C592.004 864.729 592.496 864.576 593 864.471C593.516 864.354 594.078 864.26 594.688 864.189C595.309 864.119 596 864.072 596.762 864.049C597.535 864.014 598.432 863.984 599.451 863.961ZM609.787 863.715H614.252V866.668H609.787V884H605.604V866.668H602.299V863.715H605.604V857.598H609.787V863.715Z" fill="white"/>
</g>
<rect x="171.542" y="873.621" width="57" height="17" rx="8.5" transform="rotate(-180 171.542 873.621)" stroke="black" stroke-width="3"/>
<circle cx="243.042" cy="865.121" r="10" transform="rotate(-180 243.042 865.121)" fill="black"/>
<circle cx="203.042" cy="865.121" r="10" transform="rotate(-180 203.042 865.121)" fill="black"/>
<path d="M149.345 344.883C151.121 344.883 152.926 345.069 154.759 345.441C156.593 345.785 158.225 346.258 159.658 346.859C162.179 351.271 164.47 355.768 166.533 360.352C168.624 364.906 170.486 369.604 172.119 374.445C173.236 374.589 174.367 374.746 175.513 374.918C176.659 375.061 177.819 375.219 178.994 375.391V386.391L175.298 385.359C176.33 389.628 177.203 393.982 177.919 398.422C178.636 402.862 179.166 407.388 179.509 412H169.283C168.853 407.073 168.137 402.203 167.134 397.391C166.132 392.578 164.986 387.966 163.697 383.555C160.918 383.326 158.268 383.154 155.748 383.039C153.255 382.924 151.121 382.867 149.345 382.867C146.968 382.867 144.604 382.91 142.255 382.996C139.906 383.082 137.543 383.24 135.166 383.469C133.876 387.88 132.716 392.492 131.685 397.305C130.682 402.117 129.981 407.016 129.58 412H119.353C119.668 407.388 120.169 402.876 120.857 398.465C121.573 394.053 122.447 389.714 123.478 385.445L120.126 386.391V375.391L126.744 374.445C128.348 369.604 130.181 364.906 132.244 360.352C134.335 355.768 136.655 351.271 139.205 346.859C140.637 346.258 142.255 345.785 144.06 345.441C145.865 345.069 147.626 344.883 149.345 344.883ZM149.345 373.156C151.064 373.156 152.84 373.185 154.673 373.242C156.507 373.271 158.397 373.357 160.345 373.5C158.884 369.518 157.438 366.066 156.005 363.145C154.602 360.194 153.384 357.917 152.353 356.312C151.837 356.083 151.35 355.926 150.892 355.84C150.434 355.754 149.918 355.711 149.345 355.711C148.429 355.711 147.483 355.911 146.509 356.312C145.478 357.917 144.246 360.194 142.814 363.145C141.382 366.066 139.949 369.518 138.517 373.5C140.408 373.357 142.255 373.271 144.06 373.242C145.893 373.185 147.655 373.156 149.345 373.156ZM194.033 376.508C193.918 375.591 193.646 374.818 193.216 374.188C192.815 373.557 192.371 373.042 191.884 372.641C191.34 372.154 190.738 371.753 190.08 371.438L194.892 363.016C195.952 363.388 197.012 363.889 198.072 364.52C198.96 365.064 199.891 365.766 200.865 366.625C201.867 367.456 202.741 368.487 203.486 369.719C204.918 368.802 206.379 367.943 207.869 367.141C209.387 366.31 210.962 365.594 212.595 364.992C214.257 364.391 215.99 363.918 217.794 363.574C219.628 363.202 221.59 363.016 223.681 363.016C228.093 363.016 231.874 363.388 235.025 364.133C238.205 364.849 240.797 365.938 242.802 367.398C244.836 368.831 246.326 370.621 247.271 372.77C248.216 374.918 248.689 377.424 248.689 380.289V412H237.431V382.953C237.431 381.349 237.216 379.974 236.787 378.828C236.357 377.654 235.77 376.665 235.025 375.863C234.309 375.033 233.464 374.359 232.49 373.844C231.516 373.328 230.499 372.941 229.439 372.684C228.408 372.397 227.348 372.211 226.259 372.125C225.171 372.01 224.139 371.953 223.166 371.953C221.332 371.953 219.585 372.082 217.923 372.34C216.262 372.598 214.686 372.956 213.197 373.414C211.707 373.844 210.304 374.359 208.986 374.961C207.668 375.562 206.436 376.193 205.291 376.852V412H194.033V376.508ZM310.564 394.469C309.848 393.839 308.96 393.223 307.9 392.621C306.84 392.02 305.537 391.49 303.99 391.031C302.443 390.544 300.595 390.158 298.447 389.871C296.327 389.556 293.835 389.398 290.97 389.398C288.421 389.398 286 389.456 283.708 389.57C281.445 389.656 279.455 389.943 277.736 390.43C276.017 390.888 274.656 391.633 273.654 392.664C272.651 393.695 272.15 395.128 272.15 396.961V402.461C274.671 402.862 277.449 403.191 280.486 403.449C283.522 403.707 286.903 403.836 290.626 403.836C293.606 403.836 296.771 403.736 300.123 403.535C303.503 403.306 306.983 402.862 310.564 402.203V394.469ZM291.228 363.016C292.66 363.016 294.393 363.087 296.427 363.23C298.461 363.374 300.581 363.632 302.787 364.004C304.992 364.348 307.169 364.835 309.318 365.465C311.495 366.066 313.443 366.868 315.162 367.871C316.909 368.845 318.313 370.02 319.373 371.395C320.432 372.77 320.962 374.388 320.962 376.25V409.508C318.556 409.995 315.835 410.41 312.798 410.754C310.192 411.069 307.083 411.355 303.474 411.613C299.865 411.871 295.84 412 291.4 412C286.988 412 282.291 411.814 277.306 411.441C272.35 411.069 267.166 410.424 261.751 409.508V394.039C261.751 392.378 262.138 390.931 262.912 389.699C263.714 388.439 264.802 387.365 266.177 386.477C267.552 385.589 269.171 384.858 271.033 384.285C272.895 383.712 274.9 383.254 277.048 382.91C279.197 382.566 281.431 382.337 283.751 382.223C286.072 382.079 288.392 382.008 290.712 382.008C294.236 382.008 297.229 382.237 299.693 382.695C302.185 383.125 304.248 383.598 305.88 384.113C307.771 384.743 309.332 385.445 310.564 386.219V379.258C310.564 378.083 310.278 377.081 309.705 376.25C309.132 375.391 308.358 374.674 307.384 374.102C306.41 373.5 305.293 373.027 304.033 372.684C302.772 372.311 301.455 372.025 300.08 371.824C298.705 371.624 297.301 371.495 295.869 371.438C294.465 371.38 293.147 371.352 291.916 371.352C290.626 371.352 289.251 371.395 287.791 371.48C286.33 371.538 284.869 371.667 283.408 371.867C281.975 372.068 280.586 372.354 279.24 372.727C277.922 373.07 276.748 373.543 275.716 374.145C274.685 374.746 273.854 375.477 273.224 376.336C272.623 377.167 272.322 378.169 272.322 379.344L261.666 376.594C261.666 374.674 262.138 373.013 263.083 371.609C264.029 370.177 265.275 368.96 266.822 367.957C268.397 366.954 270.202 366.138 272.236 365.508C274.27 364.849 276.375 364.348 278.552 364.004C280.758 363.632 282.949 363.374 285.126 363.23C287.304 363.087 289.337 363.016 291.228 363.016ZM345.712 412H335.916V347.461H345.712V412ZM371.494 392.062C371.494 393.667 371.708 395.056 372.138 396.23C372.568 397.376 373.155 398.365 373.9 399.195C374.645 399.997 375.49 400.656 376.435 401.172C377.409 401.688 378.426 402.089 379.486 402.375C380.546 402.633 381.62 402.819 382.708 402.934C383.797 403.02 384.843 403.062 385.845 403.062C389.483 403.062 392.792 402.59 395.771 401.645C398.75 400.699 401.4 399.539 403.72 398.164V363.016L414.806 363.875V414.148C414.806 416.182 414.376 418.073 413.517 419.82C412.658 421.568 411.412 423.072 409.779 424.332C408.146 425.621 406.141 426.624 403.763 427.34C401.386 428.056 398.679 428.414 395.642 428.414V420.938C396.788 420.938 397.848 420.823 398.822 420.594C399.796 420.365 400.641 420.007 401.357 419.52C402.102 419.061 402.675 418.474 403.076 417.758C403.505 417.07 403.72 416.268 403.72 415.352V406.328C402.374 407.159 400.999 407.918 399.595 408.605C398.22 409.293 396.774 409.895 395.255 410.41C393.737 410.897 392.147 411.284 390.486 411.57C388.824 411.857 387.077 412 385.244 412C380.804 412 377.008 411.642 373.857 410.926C370.706 410.181 368.113 409.092 366.08 407.66C364.074 406.199 362.599 404.395 361.654 402.246C360.708 400.098 360.236 397.591 360.236 394.727V363.875L371.494 363.016V392.062ZM455.369 363.016C459.007 363.016 462.401 363.13 465.552 363.359C468.703 363.56 471.482 363.775 473.888 364.004C476.667 364.319 479.231 364.648 481.58 364.992V372.383C480.462 373.729 479.016 375.247 477.24 376.938C475.492 378.599 473.53 380.361 471.353 382.223C469.205 384.085 466.899 386.004 464.435 387.98C461.972 389.928 459.436 391.848 456.83 393.738C454.251 395.629 451.659 397.462 449.052 399.238C446.474 401.014 443.996 402.633 441.619 404.094C442.535 404.18 443.567 404.251 444.712 404.309C445.887 404.337 446.975 404.352 447.978 404.352C450.012 404.352 452.117 404.309 454.294 404.223C456.472 404.137 458.62 404.022 460.74 403.879C462.86 403.707 464.922 403.521 466.927 403.32C468.932 403.091 470.78 402.862 472.47 402.633C472.585 401.831 472.699 401.014 472.814 400.184C472.929 399.353 473.029 398.579 473.115 397.863C473.201 397.118 473.272 396.445 473.33 395.844C473.387 395.214 473.416 394.698 473.416 394.297H483.298C483.298 394.641 483.27 395.171 483.212 395.887C483.184 396.603 483.126 397.434 483.041 398.379C482.955 399.324 482.854 400.341 482.74 401.43C482.654 402.518 482.539 403.592 482.396 404.652C482.281 405.712 482.153 406.729 482.009 407.703C481.866 408.648 481.723 409.451 481.58 410.109C479.374 410.453 477.097 410.754 474.748 411.012C472.427 411.241 470.121 411.427 467.83 411.57C465.538 411.714 463.318 411.828 461.169 411.914C459.021 411.971 457.059 412 455.283 412C451.673 412 448.293 411.9 445.142 411.699C441.991 411.499 439.212 411.284 436.806 411.055C433.999 410.768 431.421 410.453 429.072 410.109V401.773C432.738 399.654 436.491 397.362 440.33 394.898C444.168 392.435 447.935 389.9 451.63 387.293C455.326 384.658 458.863 381.979 462.244 379.258C465.624 376.536 468.689 373.844 471.439 371.18C468.431 370.836 465.223 370.664 461.814 370.664C459.866 370.664 457.875 370.707 455.841 370.793C453.836 370.879 451.845 370.993 449.869 371.137C447.892 371.28 445.973 371.452 444.111 371.652C442.278 371.853 440.559 372.068 438.955 372.297C438.811 373.128 438.682 373.973 438.568 374.832C438.453 375.663 438.339 376.465 438.224 377.238C438.138 378.012 438.067 378.728 438.009 379.387C437.952 380.017 437.923 380.547 437.923 380.977H428.126C428.126 380.461 428.169 379.53 428.255 378.184C428.37 376.837 428.513 375.362 428.685 373.758C428.857 372.125 429.029 370.507 429.201 368.902C429.401 367.298 429.587 365.995 429.759 364.992C431.965 364.62 434.214 364.319 436.505 364.09C438.797 363.832 441.046 363.632 443.251 363.488C445.457 363.316 447.577 363.202 449.611 363.145C451.673 363.059 453.593 363.016 455.369 363.016ZM525.15 363.016C526.611 363.016 528.373 363.087 530.435 363.23C532.498 363.374 534.632 363.632 536.837 364.004C539.072 364.348 541.278 364.849 543.455 365.508C545.632 366.138 547.58 366.954 549.298 367.957C551.046 368.96 552.449 370.177 553.509 371.609C554.598 373.013 555.142 374.674 555.142 376.594V391.117H505.9V402.117C509.366 402.604 512.703 402.948 515.912 403.148C519.12 403.32 522.199 403.406 525.15 403.406C529.647 403.406 533.715 403.234 537.353 402.891C541.02 402.547 544.185 402.16 546.849 401.73C549.914 401.243 552.679 400.685 555.142 400.055V409.594C549.699 410.453 544.443 411.069 539.373 411.441C534.331 411.814 529.59 412 525.15 412C520.681 412 516.628 411.885 512.99 411.656C509.352 411.398 506.229 411.112 503.623 410.797C500.586 410.453 497.85 410.052 495.416 409.594V376.594C495.416 374.674 495.888 373.013 496.833 371.609C497.779 370.177 499.039 368.96 500.615 367.957C502.19 366.954 503.995 366.138 506.029 365.508C508.091 364.849 510.225 364.348 512.431 364.004C514.637 363.632 516.828 363.374 519.005 363.23C521.211 363.087 523.259 363.016 525.15 363.016ZM505.9 384.242H544.486V379.258C544.486 378.083 544.199 377.081 543.626 376.25C543.054 375.391 542.28 374.674 541.306 374.102C540.361 373.529 539.244 373.07 537.955 372.727C536.694 372.354 535.376 372.082 534.001 371.91C532.626 371.71 531.237 371.581 529.833 371.523C528.458 371.466 527.155 371.438 525.923 371.438C524.634 371.438 523.245 371.466 521.755 371.523C520.294 371.581 518.819 371.71 517.33 371.91C515.84 372.111 514.408 372.397 513.033 372.77C511.658 373.113 510.44 373.586 509.38 374.188C508.32 374.76 507.475 375.477 506.845 376.336C506.215 377.167 505.9 378.169 505.9 379.344V384.242ZM134.22 452.414H145.134V459.633H134.22V502H123.994V459.633H115.916V452.414H123.994V437.461H134.22V452.414ZM185.697 453.016C190.108 453.016 193.889 453.388 197.041 454.133C200.192 454.849 202.77 455.938 204.775 457.398C206.809 458.831 208.284 460.621 209.201 462.77C210.146 464.918 210.619 467.424 210.619 470.289V502H199.361V472.953C199.361 471.349 199.146 469.974 198.716 468.828C198.287 467.654 197.699 466.665 196.955 465.863C196.238 465.033 195.393 464.359 194.419 463.844C193.445 463.328 192.429 462.941 191.369 462.684C190.337 462.397 189.278 462.211 188.189 462.125C187.1 462.01 186.069 461.953 185.095 461.953C183.262 461.953 181.514 462.082 179.853 462.34C178.192 462.598 176.616 462.956 175.126 463.414C173.637 463.844 172.233 464.359 170.916 464.961C169.598 465.562 168.366 466.193 167.22 466.852V502H155.962V436.602H167.22V458.688C168.538 457.885 169.884 457.141 171.259 456.453C172.634 455.766 174.067 455.164 175.556 454.648C177.074 454.133 178.664 453.732 180.326 453.445C182.016 453.159 183.806 453.016 185.697 453.016ZM253.587 453.016C255.048 453.016 256.81 453.087 258.873 453.23C260.935 453.374 263.069 453.632 265.275 454.004C267.509 454.348 269.715 454.849 271.892 455.508C274.069 456.138 276.017 456.954 277.736 457.957C279.483 458.96 280.887 460.177 281.947 461.609C283.035 463.013 283.58 464.674 283.58 466.594V481.117H234.337V492.117C237.804 492.604 241.141 492.948 244.349 493.148C247.557 493.32 250.637 493.406 253.587 493.406C258.085 493.406 262.153 493.234 265.791 492.891C269.457 492.547 272.623 492.16 275.287 491.73C278.352 491.243 281.116 490.685 283.58 490.055V499.594C278.137 500.453 272.88 501.069 267.81 501.441C262.768 501.814 258.028 502 253.587 502C249.119 502 245.065 501.885 241.427 501.656C237.789 501.398 234.667 501.112 232.06 500.797C229.024 500.453 226.288 500.052 223.853 499.594V466.594C223.853 464.674 224.326 463.013 225.271 461.609C226.216 460.177 227.477 458.96 229.052 457.957C230.628 456.954 232.432 456.138 234.466 455.508C236.529 454.849 238.663 454.348 240.869 454.004C243.074 453.632 245.266 453.374 247.443 453.23C249.649 453.087 251.697 453.016 253.587 453.016ZM234.337 474.242H272.923V469.258C272.923 468.083 272.637 467.081 272.064 466.25C271.491 465.391 270.718 464.674 269.744 464.102C268.798 463.529 267.681 463.07 266.392 462.727C265.132 462.354 263.814 462.082 262.439 461.91C261.064 461.71 259.675 461.581 258.271 461.523C256.896 461.466 255.593 461.438 254.361 461.438C253.072 461.438 251.682 461.466 250.193 461.523C248.732 461.581 247.257 461.71 245.767 461.91C244.278 462.111 242.845 462.397 241.47 462.77C240.095 463.113 238.878 463.586 237.818 464.188C236.758 464.76 235.913 465.477 235.283 466.336C234.653 467.167 234.337 468.169 234.337 469.344V474.242ZM363.158 453.016C365.679 453.016 368.314 453.302 371.064 453.875C373.843 454.448 376.535 455.193 379.142 456.109V436.602H390.4V498.648C388.882 499.107 387.063 499.536 384.943 499.938C382.852 500.339 380.603 500.697 378.197 501.012C375.791 501.298 373.284 501.542 370.677 501.742C368.099 501.914 365.593 502 363.158 502C358.746 502 354.807 501.699 351.341 501.098C347.875 500.467 344.939 499.508 342.533 498.219C340.126 496.93 338.293 495.297 337.033 493.32C335.772 491.344 335.142 488.995 335.142 486.273V468.742C335.142 466.021 335.772 463.672 337.033 461.695C338.293 459.719 340.126 458.086 342.533 456.797C344.939 455.508 347.875 454.562 351.341 453.961C354.807 453.331 358.746 453.016 363.158 453.016ZM366.251 494.008C367.397 494.008 368.557 493.951 369.732 493.836C370.935 493.721 372.095 493.564 373.212 493.363C374.358 493.163 375.432 492.934 376.435 492.676C377.466 492.418 378.369 492.146 379.142 491.859V464.875C377.166 463.93 375.132 463.156 373.041 462.555C370.978 461.924 368.715 461.609 366.251 461.609C364.475 461.609 362.742 461.652 361.052 461.738C359.391 461.796 357.83 461.953 356.369 462.211C354.908 462.44 353.561 462.784 352.33 463.242C351.098 463.672 350.038 464.259 349.15 465.004C348.291 465.749 347.617 466.665 347.13 467.754C346.643 468.842 346.4 470.146 346.4 471.664V484.297C346.4 486.617 346.93 488.436 347.99 489.754C349.078 491.043 350.525 492.003 352.33 492.633C354.134 493.263 356.24 493.65 358.646 493.793C361.052 493.936 363.587 494.008 366.251 494.008ZM452.791 484.469C452.074 483.839 451.186 483.223 450.126 482.621C449.067 482.02 447.763 481.49 446.216 481.031C444.669 480.544 442.822 480.158 440.673 479.871C438.554 479.556 436.061 479.398 433.197 479.398C430.647 479.398 428.227 479.456 425.935 479.57C423.672 479.656 421.681 479.943 419.962 480.43C418.244 480.888 416.883 481.633 415.88 482.664C414.878 483.695 414.376 485.128 414.376 486.961V492.461C416.897 492.862 419.676 493.191 422.712 493.449C425.749 493.707 429.129 493.836 432.853 493.836C435.832 493.836 438.998 493.736 442.349 493.535C445.729 493.306 449.21 492.862 452.791 492.203V484.469ZM433.455 453.016C434.887 453.016 436.62 453.087 438.654 453.23C440.688 453.374 442.807 453.632 445.013 454.004C447.219 454.348 449.396 454.835 451.544 455.465C453.722 456.066 455.669 456.868 457.388 457.871C459.136 458.845 460.539 460.02 461.599 461.395C462.659 462.77 463.189 464.388 463.189 466.25V499.508C460.783 499.995 458.061 500.41 455.025 500.754C452.418 501.069 449.31 501.355 445.701 501.613C442.091 501.871 438.067 502 433.626 502C429.215 502 424.517 501.814 419.533 501.441C414.577 501.069 409.392 500.424 403.978 499.508V484.039C403.978 482.378 404.365 480.931 405.138 479.699C405.94 478.439 407.029 477.365 408.404 476.477C409.779 475.589 411.397 474.858 413.259 474.285C415.121 473.712 417.126 473.254 419.275 472.91C421.423 472.566 423.658 472.337 425.978 472.223C428.298 472.079 430.619 472.008 432.939 472.008C436.462 472.008 439.456 472.237 441.919 472.695C444.412 473.125 446.474 473.598 448.107 474.113C449.998 474.743 451.559 475.445 452.791 476.219V469.258C452.791 468.083 452.504 467.081 451.931 466.25C451.358 465.391 450.585 464.674 449.611 464.102C448.637 463.5 447.52 463.027 446.259 462.684C444.999 462.311 443.681 462.025 442.306 461.824C440.931 461.624 439.528 461.495 438.095 461.438C436.692 461.38 435.374 461.352 434.142 461.352C432.853 461.352 431.478 461.395 430.017 461.48C428.556 461.538 427.095 461.667 425.634 461.867C424.202 462.068 422.813 462.354 421.466 462.727C420.149 463.07 418.974 463.543 417.943 464.145C416.912 464.746 416.081 465.477 415.451 466.336C414.849 467.167 414.548 468.169 414.548 469.344L403.892 466.594C403.892 464.674 404.365 463.013 405.31 461.609C406.255 460.177 407.501 458.96 409.048 457.957C410.624 456.954 412.429 456.138 414.462 455.508C416.496 454.849 418.602 454.348 420.779 454.004C422.985 453.632 425.176 453.374 427.353 453.23C429.53 453.087 431.564 453.016 433.455 453.016ZM490.775 452.414H501.689V459.633H490.775V502H480.548V459.633H472.47V452.414H480.548V437.461H490.775V452.414ZM560.126 484.469C559.41 483.839 558.522 483.223 557.462 482.621C556.403 482.02 555.099 481.49 553.552 481.031C552.005 480.544 550.158 480.158 548.009 479.871C545.889 479.556 543.397 479.398 540.533 479.398C537.983 479.398 535.563 479.456 533.271 479.57C531.008 479.656 529.017 479.943 527.298 480.43C525.58 480.888 524.219 481.633 523.216 482.664C522.214 483.695 521.712 485.128 521.712 486.961V492.461C524.233 492.862 527.012 493.191 530.048 493.449C533.085 493.707 536.465 493.836 540.189 493.836C543.168 493.836 546.333 493.736 549.685 493.535C553.065 493.306 556.546 492.862 560.126 492.203V484.469ZM540.791 453.016C542.223 453.016 543.956 453.087 545.99 453.23C548.024 453.374 550.143 453.632 552.349 454.004C554.555 454.348 556.732 454.835 558.88 455.465C561.057 456.066 563.005 456.868 564.724 457.871C566.472 458.845 567.875 460.02 568.935 461.395C569.995 462.77 570.525 464.388 570.525 466.25V499.508C568.119 499.995 565.397 500.41 562.361 500.754C559.754 501.069 556.646 501.355 553.037 501.613C549.427 501.871 545.403 502 540.962 502C536.551 502 531.853 501.814 526.869 501.441C521.913 501.069 516.728 500.424 511.314 499.508V484.039C511.314 482.378 511.701 480.931 512.474 479.699C513.276 478.439 514.365 477.365 515.74 476.477C517.115 475.589 518.733 474.858 520.595 474.285C522.457 473.712 524.462 473.254 526.611 472.91C528.759 472.566 530.994 472.337 533.314 472.223C535.634 472.079 537.955 472.008 540.275 472.008C543.798 472.008 546.792 472.237 549.255 472.695C551.748 473.125 553.81 473.598 555.443 474.113C557.333 474.743 558.895 475.445 560.126 476.219V469.258C560.126 468.083 559.84 467.081 559.267 466.25C558.694 465.391 557.921 464.674 556.947 464.102C555.973 463.5 554.856 463.027 553.595 462.684C552.335 462.311 551.017 462.025 549.642 461.824C548.267 461.624 546.863 461.495 545.431 461.438C544.028 461.38 542.71 461.352 541.478 461.352C540.189 461.352 538.814 461.395 537.353 461.48C535.892 461.538 534.431 461.667 532.97 461.867C531.538 462.068 530.149 462.354 528.802 462.727C527.485 463.07 526.31 463.543 525.279 464.145C524.248 464.746 523.417 465.477 522.787 466.336C522.185 467.167 521.884 468.169 521.884 469.344L511.228 466.594C511.228 464.674 511.701 463.013 512.646 461.609C513.591 460.177 514.837 458.96 516.384 457.957C517.96 456.954 519.764 456.138 521.798 455.508C523.832 454.849 525.938 454.348 528.115 454.004C530.32 453.632 532.512 453.374 534.689 453.23C536.866 453.087 538.9 453.016 540.791 453.016Z" fill="white"/>
<path d="M118.266 565.888V587.128H131.262V589.72H115.566V565.888H118.266ZM144.166 587.56C146.59 587.56 148.33 586.552 149.386 584.536H152.338C151.714 586.168 150.718 587.488 149.35 588.496C148.006 589.504 146.266 590.008 144.13 590.008C141.418 590.008 139.21 589.108 137.506 587.308C135.85 585.556 135.022 583.36 135.022 580.72C135.022 578.056 135.814 575.86 137.398 574.132C139.078 572.332 141.262 571.432 143.95 571.432C146.638 571.432 148.822 572.332 150.502 574.132C152.086 575.86 152.878 578.056 152.878 580.72V581.8H137.794C137.986 583.456 138.646 584.824 139.774 585.904C140.926 587.008 142.39 587.56 144.166 587.56ZM143.95 573.88C142.294 573.88 140.902 574.396 139.774 575.428C138.718 576.412 138.07 577.696 137.83 579.28H150.07C149.83 577.696 149.182 576.412 148.126 575.428C146.998 574.396 145.606 573.88 143.95 573.88ZM172.558 586.84C171.118 588.952 168.97 590.008 166.114 590.008C163.522 590.008 161.41 589.108 159.778 587.308C158.194 585.532 157.402 583.336 157.402 580.72C157.402 578.104 158.194 575.908 159.778 574.132C161.41 572.332 163.582 571.432 166.294 571.432C169.006 571.432 171.094 572.5 172.558 574.636V571.72H175.258V589.72H172.558V586.84ZM166.474 587.56C168.418 587.56 169.954 586.888 171.082 585.544C172.162 584.272 172.702 582.664 172.702 580.72C172.702 578.776 172.162 577.168 171.082 575.896C169.954 574.552 168.418 573.88 166.474 573.88C164.554 573.88 162.994 574.552 161.794 575.896C160.666 577.168 160.102 578.776 160.102 580.72C160.102 582.664 160.666 584.272 161.794 585.544C162.994 586.888 164.554 587.56 166.474 587.56ZM191.772 571.432V574.132H191.448C189.504 574.132 187.92 574.912 186.696 576.472C185.544 577.96 184.968 579.736 184.968 581.8V589.72H182.268V571.72H184.968V576.148C185.544 574.276 186.792 572.896 188.712 572.008C189.504 571.624 190.464 571.432 191.592 571.432H191.772ZM199.718 571.72V574.528C200.366 573.664 201.158 572.932 202.094 572.332C203.03 571.732 204.098 571.432 205.298 571.432C206.498 571.432 207.53 571.6 208.394 571.936C209.258 572.272 210.014 572.776 210.662 573.448C212.15 574.912 212.894 576.844 212.894 579.244V589.72H210.194V579.316C210.194 577.66 209.726 576.34 208.79 575.356C207.854 574.372 206.642 573.88 205.154 573.88C203.642 573.88 202.358 574.384 201.302 575.392C200.246 576.424 199.718 577.744 199.718 579.352V589.72H197.018V571.72H199.718ZM232.453 564.52V574.528C233.101 573.664 233.893 572.932 234.829 572.332C235.765 571.732 236.833 571.432 238.033 571.432C239.233 571.432 240.265 571.6 241.129 571.936C241.993 572.272 242.749 572.776 243.397 573.448C244.885 574.912 245.629 576.844 245.629 579.244V589.72H242.929V579.316C242.929 577.66 242.461 576.34 241.525 575.356C240.589 574.372 239.377 573.88 237.889 573.88C236.377 573.88 235.093 574.384 234.037 575.392C232.981 576.424 232.453 577.744 232.453 579.352V589.72H229.753V564.52H232.453ZM260.295 571.432C262.983 571.432 265.167 572.332 266.847 574.132C268.431 575.86 269.223 578.056 269.223 580.72C269.223 583.384 268.431 585.58 266.847 587.308C265.167 589.108 262.983 590.008 260.295 590.008C257.607 590.008 255.423 589.108 253.743 587.308C252.159 585.58 251.367 583.384 251.367 580.72C251.367 578.056 252.159 575.86 253.743 574.132C255.423 572.332 257.607 571.432 260.295 571.432ZM260.295 587.56C262.239 587.56 263.775 586.888 264.903 585.544C265.983 584.272 266.523 582.664 266.523 580.72C266.523 578.776 265.983 577.168 264.903 575.896C263.775 574.552 262.239 573.88 260.295 573.88C258.351 573.88 256.815 574.552 255.687 575.896C254.607 577.168 254.067 578.776 254.067 580.72C254.067 582.664 254.607 584.272 255.687 585.544C256.815 586.888 258.351 587.56 260.295 587.56ZM286.235 575.356L281.735 589.72H278.639L272.987 571.72H275.867L280.187 586.372L284.759 571.72H287.711L292.283 586.372L296.603 571.72H299.483L293.831 589.72H290.735L286.235 575.356ZM316.432 589.72V574.096H312.76V571.72H316.432V565.276H319.132V571.72H323.272V574.096H319.132V589.72H316.432ZM336.03 571.432C338.718 571.432 340.902 572.332 342.582 574.132C344.166 575.86 344.958 578.056 344.958 580.72C344.958 583.384 344.166 585.58 342.582 587.308C340.902 589.108 338.718 590.008 336.03 590.008C333.342 590.008 331.158 589.108 329.478 587.308C327.894 585.58 327.102 583.384 327.102 580.72C327.102 578.056 327.894 575.86 329.478 574.132C331.158 572.332 333.342 571.432 336.03 571.432ZM336.03 587.56C337.974 587.56 339.51 586.888 340.638 585.544C341.718 584.272 342.258 582.664 342.258 580.72C342.258 578.776 341.718 577.168 340.638 575.896C339.51 574.552 337.974 573.88 336.03 573.88C334.086 573.88 332.55 574.552 331.422 575.896C330.342 577.168 329.802 578.776 329.802 580.72C329.802 582.664 330.342 584.272 331.422 585.544C332.55 586.888 334.086 587.56 336.03 587.56ZM372.115 575.356L367.615 589.72H364.519L358.867 571.72H361.747L366.067 586.372L370.639 571.72H373.591L378.163 586.372L382.483 571.72H385.363L379.711 589.72H376.615L372.115 575.356ZM398.035 571.432C400.723 571.432 402.907 572.332 404.587 574.132C406.171 575.86 406.963 578.056 406.963 580.72C406.963 583.384 406.171 585.58 404.587 587.308C402.907 589.108 400.723 590.008 398.035 590.008C395.347 590.008 393.163 589.108 391.483 587.308C389.899 585.58 389.107 583.384 389.107 580.72C389.107 578.056 389.899 575.86 391.483 574.132C393.163 572.332 395.347 571.432 398.035 571.432ZM398.035 587.56C399.979 587.56 401.515 586.888 402.643 585.544C403.723 584.272 404.263 582.664 404.263 580.72C404.263 578.776 403.723 577.168 402.643 575.896C401.515 574.552 399.979 573.88 398.035 573.88C396.091 573.88 394.555 574.552 393.427 575.896C392.347 577.168 391.807 578.776 391.807 580.72C391.807 582.664 392.347 584.272 393.427 585.544C394.555 586.888 396.091 587.56 398.035 587.56ZM422.387 571.432V574.132H422.063C420.119 574.132 418.535 574.912 417.311 576.472C416.159 577.96 415.583 579.736 415.583 581.8V589.72H412.883V571.72H415.583V576.148C416.159 574.276 417.407 572.896 419.327 572.008C420.119 571.624 421.079 571.432 422.207 571.432H422.387ZM435.553 578.812L443.329 589.72H440.017L433.717 580.684L430.333 584.032V589.72H427.633V564.52H430.333V580.648L439.009 571.72H442.789L435.553 578.812ZM469.279 575.356L464.779 589.72H461.683L456.031 571.72H458.911L463.231 586.372L467.803 571.72H470.755L475.327 586.372L479.647 571.72H482.527L476.875 589.72H473.779L469.279 575.356ZM487.528 571.72H490.228V589.72H487.528V571.72ZM490.336 565.168V568.696H487.42V565.168H490.336ZM499.195 589.72V574.096H495.523V571.72H499.195V565.276H501.895V571.72H506.035V574.096H501.895V589.72H499.195ZM514.033 564.52V574.528C514.681 573.664 515.473 572.932 516.409 572.332C517.345 571.732 518.413 571.432 519.613 571.432C520.813 571.432 521.845 571.6 522.709 571.936C523.573 572.272 524.329 572.776 524.977 573.448C526.465 574.912 527.209 576.844 527.209 579.244V589.72H524.509V579.316C524.509 577.66 524.041 576.34 523.105 575.356C522.169 574.372 520.957 573.88 519.469 573.88C517.957 573.88 516.673 574.384 515.617 575.392C514.561 576.424 514.033 577.744 514.033 579.352V589.72H511.333V564.52H514.033ZM117.69 618.636C119.154 616.5 121.302 615.432 124.134 615.432C126.726 615.432 128.826 616.332 130.434 618.132C132.042 619.908 132.846 622.104 132.846 624.72C132.846 627.336 132.042 629.532 130.434 631.308C128.826 633.108 126.654 634.008 123.918 634.008C121.206 634.008 119.13 632.952 117.69 630.84V633.72H114.99V608.52H117.69V618.636ZM123.774 631.56C125.694 631.56 127.254 630.888 128.454 629.544C129.582 628.272 130.146 626.664 130.146 624.72C130.146 622.776 129.582 621.168 128.454 619.896C127.254 618.552 125.694 617.88 123.774 617.88C121.83 617.88 120.294 618.552 119.166 619.896C118.086 621.168 117.546 622.776 117.546 624.72C117.546 626.664 118.086 628.272 119.166 629.544C120.294 630.888 121.83 631.56 123.774 631.56ZM138.705 615.72H141.405V633.72H138.705V615.72ZM141.513 609.168V612.696H138.597V609.168H141.513ZM162.468 618.6V615.72H165.168V633.18C165.168 635.772 164.424 637.74 162.936 639.084C161.472 640.452 159.492 641.136 156.996 641.136C154.5 641.136 152.544 640.656 151.128 639.696C149.736 638.736 148.788 637.464 148.284 635.88H151.272C152.04 637.752 153.792 638.688 156.528 638.688C158.616 638.688 160.128 638.208 161.064 637.248C162 636.288 162.468 634.872 162.468 633V630.516C161.004 632.652 158.856 633.72 156.024 633.72C153.432 633.72 151.32 632.832 149.688 631.056C148.104 629.328 147.312 627.168 147.312 624.576C147.312 621.984 148.104 619.824 149.688 618.096C151.32 616.32 153.492 615.432 156.204 615.432C158.94 615.432 161.028 616.488 162.468 618.6ZM156.384 631.272C157.368 631.272 158.244 631.104 159.012 630.768C159.78 630.408 160.44 629.928 160.992 629.328C162.072 628.08 162.612 626.496 162.612 624.576C162.612 622.656 162.072 621.072 160.992 619.824C159.816 618.528 158.28 617.88 156.384 617.88C154.44 617.88 152.88 618.528 151.704 619.824C150.576 621.096 150.012 622.68 150.012 624.576C150.012 626.472 150.576 628.056 151.704 629.328C152.88 630.624 154.44 631.272 156.384 631.272ZM196.222 630.84C194.782 632.952 192.634 634.008 189.778 634.008C187.186 634.008 185.074 633.108 183.442 631.308C181.858 629.532 181.066 627.336 181.066 624.72C181.066 622.104 181.858 619.908 183.442 618.132C185.074 616.332 187.246 615.432 189.958 615.432C192.67 615.432 194.758 616.5 196.222 618.636V608.52H198.922V633.72H196.222V630.84ZM190.138 631.56C192.082 631.56 193.618 630.888 194.746 629.544C195.826 628.272 196.366 626.664 196.366 624.72C196.366 622.776 195.826 621.168 194.746 619.896C193.618 618.552 192.082 617.88 190.138 617.88C188.218 617.88 186.658 618.552 185.458 619.896C184.33 621.168 183.766 622.776 183.766 624.72C183.766 626.664 184.33 628.272 185.458 629.544C186.658 630.888 188.218 631.56 190.138 631.56ZM219.972 630.84C218.532 632.952 216.384 634.008 213.528 634.008C210.936 634.008 208.824 633.108 207.192 631.308C205.608 629.532 204.816 627.336 204.816 624.72C204.816 622.104 205.608 619.908 207.192 618.132C208.824 616.332 210.996 615.432 213.708 615.432C216.42 615.432 218.508 616.5 219.972 618.636V615.72H222.672V633.72H219.972V630.84ZM213.888 631.56C215.832 631.56 217.368 630.888 218.496 629.544C219.576 628.272 220.116 626.664 220.116 624.72C220.116 622.776 219.576 621.168 218.496 619.896C217.368 618.552 215.832 617.88 213.888 617.88C211.968 617.88 210.408 618.552 209.208 619.896C208.08 621.168 207.516 622.776 207.516 624.72C207.516 626.664 208.08 628.272 209.208 629.544C210.408 630.888 211.968 631.56 213.888 631.56ZM231.626 633.72V618.096H227.954V615.72H231.626V609.276H234.326V615.72H238.466V618.096H234.326V633.72H231.626ZM257.453 630.84C256.013 632.952 253.865 634.008 251.009 634.008C248.417 634.008 246.305 633.108 244.673 631.308C243.089 629.532 242.297 627.336 242.297 624.72C242.297 622.104 243.089 619.908 244.673 618.132C246.305 616.332 248.477 615.432 251.189 615.432C253.901 615.432 255.989 616.5 257.453 618.636V615.72H260.153V633.72H257.453V630.84ZM251.369 631.56C253.313 631.56 254.849 630.888 255.977 629.544C257.057 628.272 257.597 626.664 257.597 624.72C257.597 622.776 257.057 621.168 255.977 619.896C254.849 618.552 253.313 617.88 251.369 617.88C249.449 617.88 247.889 618.552 246.689 619.896C245.561 621.168 244.997 622.776 244.997 624.72C244.997 626.664 245.561 628.272 246.689 629.544C247.889 630.888 249.449 631.56 251.369 631.56ZM291.207 630.84C289.767 632.952 287.619 634.008 284.763 634.008C282.171 634.008 280.059 633.108 278.427 631.308C276.843 629.532 276.051 627.336 276.051 624.72C276.051 622.104 276.843 619.908 278.427 618.132C280.059 616.332 282.231 615.432 284.943 615.432C287.655 615.432 289.743 616.5 291.207 618.636V615.72H293.907V633.72H291.207V630.84ZM285.123 631.56C287.067 631.56 288.603 630.888 289.731 629.544C290.811 628.272 291.351 626.664 291.351 624.72C291.351 622.776 290.811 621.168 289.731 619.896C288.603 618.552 287.067 617.88 285.123 617.88C283.203 617.88 281.643 618.552 280.443 619.896C279.315 621.168 278.751 622.776 278.751 624.72C278.751 626.664 279.315 628.272 280.443 629.544C281.643 630.888 283.203 631.56 285.123 631.56ZM303.617 615.72V618.528C304.265 617.664 305.057 616.932 305.993 616.332C306.929 615.732 307.997 615.432 309.197 615.432C310.397 615.432 311.429 615.6 312.293 615.936C313.157 616.272 313.913 616.776 314.561 617.448C316.049 618.912 316.793 620.844 316.793 623.244V633.72H314.093V623.316C314.093 621.66 313.625 620.34 312.689 619.356C311.753 618.372 310.541 617.88 309.053 617.88C307.541 617.88 306.257 618.384 305.201 619.392C304.145 620.424 303.617 621.744 303.617 623.352V633.72H300.917V615.72H303.617ZM337.688 630.84C336.248 632.952 334.1 634.008 331.244 634.008C328.652 634.008 326.54 633.108 324.908 631.308C323.324 629.532 322.532 627.336 322.532 624.72C322.532 622.104 323.324 619.908 324.908 618.132C326.54 616.332 328.712 615.432 331.424 615.432C334.136 615.432 336.224 616.5 337.688 618.636V608.52H340.388V633.72H337.688V630.84ZM331.604 631.56C333.548 631.56 335.084 630.888 336.212 629.544C337.292 628.272 337.832 626.664 337.832 624.72C337.832 622.776 337.292 621.168 336.212 619.896C335.084 618.552 333.548 617.88 331.604 617.88C329.684 617.88 328.124 618.552 326.924 619.896C325.796 621.168 325.232 622.776 325.232 624.72C325.232 626.664 325.796 628.272 326.924 629.544C328.124 630.888 329.684 631.56 331.604 631.56ZM360.102 618.456C361.302 616.44 363.126 615.432 365.574 615.432C366.774 615.432 367.878 615.756 368.886 616.404C369.918 617.028 370.722 617.916 371.298 619.068C372.114 617.556 373.386 616.476 375.114 615.828C375.81 615.564 376.59 615.432 377.454 615.432C378.342 615.432 379.182 615.612 379.974 615.972C380.79 616.308 381.51 616.8 382.134 617.448C383.478 618.888 384.15 620.688 384.15 622.848V633.72H381.45V622.92C381.45 621.432 381.03 620.208 380.19 619.248C379.35 618.336 378.282 617.88 376.986 617.88C375.618 617.88 374.478 618.324 373.566 619.212C372.606 620.124 372.126 621.372 372.126 622.956V633.72H369.426V622.92C369.426 621.432 369.006 620.208 368.166 619.248C367.326 618.336 366.258 617.88 364.962 617.88C363.594 617.88 362.454 618.324 361.542 619.212C360.582 620.124 360.102 621.372 360.102 622.956V633.72H357.402V615.72H360.102V618.456ZM405.036 630.84C403.596 632.952 401.448 634.008 398.592 634.008C396 634.008 393.888 633.108 392.256 631.308C390.672 629.532 389.88 627.336 389.88 624.72C389.88 622.104 390.672 619.908 392.256 618.132C393.888 616.332 396.06 615.432 398.772 615.432C401.484 615.432 403.572 616.5 405.036 618.636V615.72H407.736V633.72H405.036V630.84ZM398.952 631.56C400.896 631.56 402.432 630.888 403.56 629.544C404.64 628.272 405.18 626.664 405.18 624.72C405.18 622.776 404.64 621.168 403.56 619.896C402.432 618.552 400.896 617.88 398.952 617.88C397.032 617.88 395.472 618.552 394.272 619.896C393.144 621.168 392.58 622.776 392.58 624.72C392.58 626.664 393.144 628.272 394.272 629.544C395.472 630.888 397.032 631.56 398.952 631.56ZM417.446 615.72V618.528C418.094 617.664 418.886 616.932 419.822 616.332C420.758 615.732 421.826 615.432 423.026 615.432C424.226 615.432 425.258 615.6 426.122 615.936C426.986 616.272 427.742 616.776 428.39 617.448C429.878 618.912 430.622 620.844 430.622 623.244V633.72H427.922V623.316C427.922 621.66 427.454 620.34 426.518 619.356C425.582 618.372 424.37 617.88 422.882 617.88C421.37 617.88 420.086 618.384 419.03 619.392C417.974 620.424 417.446 621.744 417.446 623.352V633.72H414.746V615.72H417.446ZM451.517 630.84C450.077 632.952 447.929 634.008 445.073 634.008C442.481 634.008 440.369 633.108 438.737 631.308C437.153 629.532 436.361 627.336 436.361 624.72C436.361 622.104 437.153 619.908 438.737 618.132C440.369 616.332 442.541 615.432 445.253 615.432C447.965 615.432 450.053 616.5 451.517 618.636V615.72H454.217V633.72H451.517V630.84ZM445.433 631.56C447.377 631.56 448.913 630.888 450.041 629.544C451.121 628.272 451.661 626.664 451.661 624.72C451.661 622.776 451.121 621.168 450.041 619.896C448.913 618.552 447.377 617.88 445.433 617.88C443.513 617.88 441.953 618.552 440.753 619.896C439.625 621.168 439.061 622.776 439.061 624.72C439.061 626.664 439.625 628.272 440.753 629.544C441.953 630.888 443.513 631.56 445.433 631.56ZM475.267 618.6V615.72H477.967V633.18C477.967 635.772 477.223 637.74 475.735 639.084C474.271 640.452 472.291 641.136 469.795 641.136C467.299 641.136 465.343 640.656 463.927 639.696C462.535 638.736 461.587 637.464 461.083 635.88H464.071C464.839 637.752 466.591 638.688 469.327 638.688C471.415 638.688 472.927 638.208 473.863 637.248C474.799 636.288 475.267 634.872 475.267 633V630.516C473.803 632.652 471.655 633.72 468.823 633.72C466.231 633.72 464.119 632.832 462.487 631.056C460.903 629.328 460.111 627.168 460.111 624.576C460.111 621.984 460.903 619.824 462.487 618.096C464.119 616.32 466.291 615.432 469.003 615.432C471.739 615.432 473.827 616.488 475.267 618.6ZM469.183 631.272C470.167 631.272 471.043 631.104 471.811 630.768C472.579 630.408 473.239 629.928 473.791 629.328C474.871 628.08 475.411 626.496 475.411 624.576C475.411 622.656 474.871 621.072 473.791 619.824C472.615 618.528 471.079 617.88 469.183 617.88C467.239 617.88 465.679 618.528 464.503 619.824C463.375 621.096 462.811 622.68 462.811 624.576C462.811 626.472 463.375 628.056 464.503 629.328C465.679 630.624 467.239 631.272 469.183 631.272ZM493.005 631.56C495.429 631.56 497.169 630.552 498.225 628.536H501.177C500.553 630.168 499.557 631.488 498.189 632.496C496.845 633.504 495.105 634.008 492.969 634.008C490.257 634.008 488.049 633.108 486.345 631.308C484.689 629.556 483.861 627.36 483.861 624.72C483.861 622.056 484.653 619.86 486.237 618.132C487.917 616.332 490.101 615.432 492.789 615.432C495.477 615.432 497.661 616.332 499.341 618.132C500.925 619.86 501.717 622.056 501.717 624.72V625.8H486.633C486.825 627.456 487.485 628.824 488.613 629.904C489.765 631.008 491.229 631.56 493.005 631.56ZM492.789 617.88C491.133 617.88 489.741 618.396 488.613 619.428C487.557 620.412 486.909 621.696 486.669 623.28H498.909C498.669 621.696 498.021 620.412 496.965 619.428C495.837 618.396 494.445 617.88 492.789 617.88ZM117.69 663.6C119.13 661.488 121.278 660.432 124.134 660.432C126.726 660.432 128.826 661.332 130.434 663.132C132.042 664.908 132.846 667.104 132.846 669.72C132.846 672.336 132.042 674.532 130.434 676.308C128.826 678.108 126.666 679.008 123.954 679.008C121.242 679.008 119.154 677.94 117.69 675.804V685.848H114.99V660.72H117.69V663.6ZM123.774 662.88C121.83 662.88 120.294 663.552 119.166 664.896C118.086 666.168 117.546 667.776 117.546 669.72C117.546 671.664 118.086 673.272 119.166 674.544C120.294 675.888 121.83 676.56 123.774 676.56C125.694 676.56 127.254 675.888 128.454 674.544C129.582 673.272 130.146 671.664 130.146 669.72C130.146 667.776 129.582 666.168 128.454 664.896C127.254 663.552 125.694 662.88 123.774 662.88ZM148.209 660.432V663.132H147.885C145.941 663.132 144.357 663.912 143.133 665.472C141.981 666.96 141.405 668.736 141.405 670.8V678.72H138.705V660.72H141.405V665.148C141.981 663.276 143.229 661.896 145.149 661.008C145.941 660.624 146.901 660.432 148.029 660.432H148.209ZM160.81 660.432C163.498 660.432 165.682 661.332 167.362 663.132C168.946 664.86 169.738 667.056 169.738 669.72C169.738 672.384 168.946 674.58 167.362 676.308C165.682 678.108 163.498 679.008 160.81 679.008C158.122 679.008 155.938 678.108 154.258 676.308C152.674 674.58 151.882 672.384 151.882 669.72C151.882 667.056 152.674 664.86 154.258 663.132C155.938 661.332 158.122 660.432 160.81 660.432ZM160.81 676.56C162.754 676.56 164.29 675.888 165.418 674.544C166.498 673.272 167.038 671.664 167.038 669.72C167.038 667.776 166.498 666.168 165.418 664.896C164.29 663.552 162.754 662.88 160.81 662.88C158.866 662.88 157.33 663.552 156.202 664.896C155.122 666.168 154.582 667.776 154.582 669.72C154.582 671.664 155.122 673.272 156.202 674.544C157.33 675.888 158.866 676.56 160.81 676.56ZM183.974 676.56C185.126 676.56 186.146 676.236 187.034 675.588C187.922 674.94 188.57 674.1 188.978 673.068H191.894C191.342 674.844 190.334 676.272 188.87 677.352C187.334 678.456 185.51 679.008 183.398 679.008C180.758 679.008 178.61 678.108 176.954 676.308C175.346 674.556 174.542 672.36 174.542 669.72C174.542 667.08 175.346 664.884 176.954 663.132C178.61 661.332 180.758 660.432 183.398 660.432C185.51 660.432 187.334 660.984 188.87 662.088C190.334 663.168 191.342 664.596 191.894 666.372H188.978C188.57 665.34 187.922 664.5 187.034 663.852C186.146 663.204 185.126 662.88 183.974 662.88C182.822 662.88 181.838 663.06 181.022 663.42C180.23 663.78 179.558 664.272 179.006 664.896C177.83 666.192 177.242 667.8 177.242 669.72C177.242 671.64 177.83 673.248 179.006 674.544C180.206 675.888 181.862 676.56 183.974 676.56ZM205.608 676.56C208.032 676.56 209.772 675.552 210.828 673.536H213.78C213.156 675.168 212.16 676.488 210.792 677.496C209.448 678.504 207.708 679.008 205.572 679.008C202.86 679.008 200.652 678.108 198.948 676.308C197.292 674.556 196.464 672.36 196.464 669.72C196.464 667.056 197.256 664.86 198.84 663.132C200.52 661.332 202.704 660.432 205.392 660.432C208.08 660.432 210.264 661.332 211.944 663.132C213.528 664.86 214.32 667.056 214.32 669.72V670.8H199.236C199.428 672.456 200.088 673.824 201.216 674.904C202.368 676.008 203.832 676.56 205.608 676.56ZM205.392 662.88C203.736 662.88 202.344 663.396 201.216 664.428C200.16 665.412 199.512 666.696 199.272 668.28H211.512C211.272 666.696 210.624 665.412 209.568 664.428C208.44 663.396 207.048 662.88 205.392 662.88ZM230.543 665.544C230.303 663.672 228.791 662.736 226.007 662.736C223.247 662.736 221.867 663.6 221.867 665.328C221.867 666.048 222.155 666.6 222.731 666.984C223.331 667.344 224.075 667.644 224.963 667.884C225.851 668.124 226.811 668.352 227.843 668.568C228.899 668.76 229.871 669.048 230.759 669.432C231.647 669.792 232.379 670.296 232.955 670.944C233.555 671.592 233.855 672.48 233.855 673.608C233.855 675.36 233.195 676.704 231.875 677.64C230.555 678.552 228.767 679.008 226.511 679.008C224.111 679.008 222.203 678.408 220.787 677.208C219.491 676.152 218.795 674.772 218.699 673.068H221.507C221.675 674.724 222.611 675.84 224.315 676.416C224.939 676.608 225.551 676.704 226.151 676.704C226.775 676.704 227.351 676.668 227.879 676.596C228.407 676.524 228.923 676.392 229.427 676.2C230.579 675.744 231.155 674.964 231.155 673.86C231.155 673.116 230.855 672.552 230.255 672.168C229.679 671.76 228.947 671.436 228.059 671.196C227.171 670.932 226.199 670.704 225.143 670.512C224.111 670.296 223.151 670.008 222.263 669.648C221.375 669.288 220.631 668.796 220.031 668.172C219.455 667.548 219.167 666.684 219.167 665.58C219.167 663.948 219.755 662.688 220.931 661.8C222.131 660.888 223.895 660.432 226.223 660.432C228.431 660.432 230.171 660.96 231.443 662.016C232.499 662.904 233.111 664.08 233.279 665.544H230.543ZM250.251 665.544C250.011 663.672 248.499 662.736 245.715 662.736C242.955 662.736 241.575 663.6 241.575 665.328C241.575 666.048 241.863 666.6 242.439 666.984C243.039 667.344 243.783 667.644 244.671 667.884C245.559 668.124 246.519 668.352 247.551 668.568C248.607 668.76 249.579 669.048 250.467 669.432C251.355 669.792 252.087 670.296 252.663 670.944C253.263 671.592 253.563 672.48 253.563 673.608C253.563 675.36 252.903 676.704 251.583 677.64C250.263 678.552 248.475 679.008 246.219 679.008C243.819 679.008 241.911 678.408 240.495 677.208C239.199 676.152 238.503 674.772 238.407 673.068H241.215C241.383 674.724 242.319 675.84 244.023 676.416C244.647 676.608 245.259 676.704 245.859 676.704C246.483 676.704 247.059 676.668 247.587 676.596C248.115 676.524 248.631 676.392 249.135 676.2C250.287 675.744 250.863 674.964 250.863 673.86C250.863 673.116 250.563 672.552 249.963 672.168C249.387 671.76 248.655 671.436 247.767 671.196C246.879 670.932 245.907 670.704 244.851 670.512C243.819 670.296 242.859 670.008 241.971 669.648C241.083 669.288 240.339 668.796 239.739 668.172C239.163 667.548 238.875 666.684 238.875 665.58C238.875 663.948 239.463 662.688 240.639 661.8C241.839 660.888 243.603 660.432 245.931 660.432C248.139 660.432 249.879 660.96 251.151 662.016C252.207 662.904 252.819 664.08 252.987 665.544H250.251ZM267.402 676.56C269.826 676.56 271.566 675.552 272.622 673.536H275.574C274.95 675.168 273.954 676.488 272.586 677.496C271.242 678.504 269.502 679.008 267.366 679.008C264.654 679.008 262.446 678.108 260.742 676.308C259.086 674.556 258.258 672.36 258.258 669.72C258.258 667.056 259.05 664.86 260.634 663.132C262.314 661.332 264.498 660.432 267.186 660.432C269.874 660.432 272.058 661.332 273.738 663.132C275.322 664.86 276.114 667.056 276.114 669.72V670.8H261.03C261.222 672.456 261.882 673.824 263.01 674.904C264.162 676.008 265.626 676.56 267.402 676.56ZM267.186 662.88C265.53 662.88 264.138 663.396 263.01 664.428C261.954 665.412 261.306 666.696 261.066 668.28H273.306C273.066 666.696 272.418 665.412 271.362 664.428C270.234 663.396 268.842 662.88 267.186 662.88ZM292.337 665.544C292.097 663.672 290.585 662.736 287.801 662.736C285.041 662.736 283.661 663.6 283.661 665.328C283.661 666.048 283.949 666.6 284.525 666.984C285.125 667.344 285.869 667.644 286.757 667.884C287.645 668.124 288.605 668.352 289.637 668.568C290.693 668.76 291.665 669.048 292.553 669.432C293.441 669.792 294.173 670.296 294.749 670.944C295.349 671.592 295.649 672.48 295.649 673.608C295.649 675.36 294.989 676.704 293.669 677.64C292.349 678.552 290.561 679.008 288.305 679.008C285.905 679.008 283.997 678.408 282.581 677.208C281.285 676.152 280.589 674.772 280.493 673.068H283.301C283.469 674.724 284.405 675.84 286.109 676.416C286.733 676.608 287.345 676.704 287.945 676.704C288.569 676.704 289.145 676.668 289.673 676.596C290.201 676.524 290.717 676.392 291.221 676.2C292.373 675.744 292.949 674.964 292.949 673.86C292.949 673.116 292.649 672.552 292.049 672.168C291.473 671.76 290.741 671.436 289.853 671.196C288.965 670.932 287.993 670.704 286.937 670.512C285.905 670.296 284.945 670.008 284.057 669.648C283.169 669.288 282.425 668.796 281.825 668.172C281.249 667.548 280.961 666.684 280.961 665.58C280.961 663.948 281.549 662.688 282.725 661.8C283.925 660.888 285.689 660.432 288.017 660.432C290.225 660.432 291.965 660.96 293.237 662.016C294.293 662.904 294.905 664.08 295.073 665.544H292.337Z" fill="white"/>
<path d="M1491 226.471L1503.9 239.37" stroke="white" stroke-width="3" stroke-linecap="round"/>
<path d="M1503.9 226.471L1491 239.37" stroke="white" stroke-width="3" stroke-linecap="round"/>
<circle cx="1457" cy="232.921" r="7.5" stroke="white" stroke-width="3"/>
<path d="M1423 238.921H1406" stroke="white" stroke-width="3" stroke-linecap="round"/>
<path fill-rule="evenodd" clip-rule="evenodd" d="M1000.3 753.064L990.27 762.106L993.489 778.058C993.628 778.744 994.175 779.28 994.713 779.256C995.25 779.231 995.574 778.656 995.436 777.97L992.508 763.463L1000.88 755.919L1012.11 762.572L1015.04 777.08C1015.17 777.765 1015.72 778.301 1016.26 778.277C1016.8 778.252 1017.12 777.677 1016.98 776.991L1013.76 761.039L1000.3 753.064Z" fill="black"/>
<path fill-rule="evenodd" clip-rule="evenodd" d="M1006.97 764.569C1006.43 764.593 1006.11 765.169 1006.25 765.854L1009.29 780.906L1006.41 783.315L1002.61 781.209L999.576 766.157C999.437 765.472 998.89 764.936 998.352 764.96C997.815 764.985 997.491 765.56 997.629 766.246L1000.97 782.791L1006.97 786.126L1011.53 782.311L1008.19 765.766C1008.06 765.08 1007.51 764.544 1006.97 764.569Z" fill="black"/>
</g>
<defs>
<filter id="filter0_d" x="615.393" y="308.342" width="1079" height="751.78" filterUnits="userSpaceOnUse" color-interpolation-filters="sRGB">
<feFlood flood-opacity="0" result="BackgroundImageFix"/>
<feColorMatrix in="SourceAlpha" type="matrix" values="0 0 0 0 0 0 0 0 0 0 0 0 0 0 0 0 0 0 127 0"/>
<feOffset dx="70" dy="70"/>
<feGaussianBlur stdDeviation="60"/>
<feColorMatrix type="matrix" values="0 0 0 0 1 0 0 0 0 1 0 0 0 0 1 0 0 0 0.14 0"/>
<feBlend mode="normal" in2="BackgroundImageFix" result="effect1_dropShadow"/>
<feBlend mode="normal" in="SourceGraphic" in2="effect1_dropShadow" result="shape"/>
</filter>
<filter id="filter1_d" x="352.393" y="745.121" width="559" height="380" filterUnits="userSpaceOnUse" color-interpolation-filters="sRGB">
<feFlood flood-opacity="0" result="BackgroundImageFix"/>
<feColorMatrix in="SourceAlpha" type="matrix" values="0 0 0 0 0 0 0 0 0 0 0 0 0 0 0 0 0 0 127 0"/>
<feOffset dx="70" dy="70"/>
<feGaussianBlur stdDeviation="60"/>
<feColorMatrix type="matrix" values="0 0 0 0 0.9 0 0 0 0 0 0 0 0 0 0 0 0 0 0.16 0"/>
<feBlend mode="normal" in2="BackgroundImageFix" result="effect1_dropShadow"/>
<feBlend mode="normal" in="SourceGraphic" in2="effect1_dropShadow" result="shape"/>
</filter>
<clipPath id="clip0">
<rect width="1600" height="1200" fill="white" transform="translate(0.785645 0.121338)"/>
</clipPath>
<clipPath id="clip1">
<rect width="78.7829" height="45.9567" fill="white" transform="translate(849.63 544.434)"/>
</clipPath>
<clipPath id="clip2">
<rect width="78.7829" height="45.9567" fill="white" transform="translate(757.152 604.841)"/>
</clipPath>
</defs>
</svg>
