<svg width="1601" height="1201" viewBox="0 0 1601 1201" fill="none" xmlns="http://www.w3.org/2000/svg">
<g clip-path="url(#clip0)">
<rect width="1600" height="1200" transform="translate(0.785645 0.121338)" fill="black"/>
<path fill-rule="evenodd" clip-rule="evenodd" d="M1962.82 508.005L1838.74 588.088C1714.66 668.172 1466.51 828.339 1218.35 828.339C970.191 828.339 722.033 668.172 473.876 694.866C225.718 721.561 -22.4397 935.118 -270.597 1055.24C-518.755 1175.37 -766.913 1202.06 -890.992 1215.41L-1015.07 1228.76L-890.992 1228.76C-766.913 1228.76 -518.755 1228.76 -270.597 1228.76C-22.4398 1228.76 225.718 1228.76 473.876 1228.76C722.033 1228.76 970.191 1228.76 1218.35 1228.76C1466.51 1228.76 1714.66 1228.76 1838.74 1228.76L1962.82 1228.76L1962.82 508.005Z" fill="white"/>
<path d="M378.753 857.177L420.871 856.677L421.371 873.677L385.5 873.87L378.753 857.177Z" fill="white"/>
<rect x="699.556" y="868.844" width="88.6699" height="4.86515" fill="white"/>
<rect x="98.5" y="304.5" width="836" height="585" rx="46.5" stroke="white" stroke-width="3"/>
<rect x="97" y="382" width="839" height="528" fill="white"/>
<circle cx="145" cy="347" r="7.5" stroke="white" stroke-width="3"/>
<circle cx="183" cy="347" r="7.5" stroke="white" stroke-width="3"/>
<circle cx="221" cy="347" r="7.5" stroke="white" stroke-width="3"/>
<path fill-rule="evenodd" clip-rule="evenodd" d="M364.58 685.46C364.58 734.798 404.574 774.794 453.908 774.794C503.242 774.794 543.236 734.798 543.236 685.46C543.236 636.122 503.242 596.126 453.908 596.126C404.574 596.126 364.58 636.122 364.58 685.46ZM453.908 543.576C375.554 543.576 312.035 607.1 312.035 685.46C312.035 763.82 375.554 827.344 453.908 827.344C532.263 827.344 595.781 763.82 595.781 685.46C595.781 607.1 532.263 543.576 453.908 543.576Z" fill="#E4ECF4"/>
<path d="M259.285 502.38C223.125 492.69 201.666 455.519 211.355 419.356C221.044 383.193 258.212 361.732 294.373 371.422C330.533 381.111 351.993 418.283 342.303 454.446C332.614 490.609 295.446 512.07 259.285 502.38Z" fill="#E4ECF4"/>
<path d="M211.355 419.355C215.233 404.882 223.797 392.101 235.708 383.01C247.619 373.92 262.207 369.033 277.19 369.112L276.829 436.901L211.355 419.355Z" fill="#2C73FB"/>
<path d="M412.135 493.918C389.934 487.968 376.759 465.147 382.708 442.944C388.657 420.742 411.476 407.566 433.677 413.515C455.878 419.464 469.053 442.286 463.104 464.488C457.156 486.691 434.336 499.867 412.135 493.918Z" fill="#F4E4E4"/>
<path d="M434.38 413.71C444.99 416.753 453.956 423.887 459.306 433.542L422.906 453.717L434.38 413.71Z" fill="#FF4B78"/>
<path d="M786.315 827.657C750.154 817.967 728.695 780.796 738.384 744.633C748.073 708.47 785.242 687.009 821.402 696.699C857.563 706.389 879.022 743.56 869.333 779.723C859.644 815.886 822.475 837.347 786.315 827.657Z" fill="#F4E4E4"/>
<path d="M786.314 827.658C773.365 824.187 761.735 816.955 752.895 806.875C744.056 796.795 738.404 784.319 736.654 771.027C734.904 757.734 737.135 744.221 743.064 732.196C748.994 720.171 758.356 710.175 769.966 703.471L803.858 762.178L786.314 827.658Z" fill="#FF4B78"/>
<path d="M652.38 827.193C630.408 821.305 617.369 798.719 623.256 776.745C629.144 754.772 651.728 741.731 673.7 747.619C695.672 753.507 708.711 776.093 702.824 798.067C696.936 820.041 674.352 833.081 652.38 827.193Z" fill="#E4ECF4"/>
<path d="M704.227 787.406C704.227 795.553 701.811 803.516 697.285 810.29C692.76 817.064 686.327 822.343 678.801 825.461C671.275 828.578 662.994 829.394 655.004 827.805C647.015 826.215 639.676 822.292 633.916 816.532C628.155 810.771 624.233 803.432 622.643 795.442C621.054 787.452 621.87 779.17 624.987 771.643C628.105 764.117 633.384 757.684 640.157 753.157C646.93 748.631 654.893 746.216 663.039 746.216V787.406H704.227Z" fill="#47DB99"/>
<path d="M423.432 852.311C423.432 845.346 429.078 839.699 436.043 839.699H444.45C451.415 839.699 457.061 845.346 457.061 852.311V860.719H423.432V852.311Z" fill="white"/>
<path fill-rule="evenodd" clip-rule="evenodd" d="M444.45 841.801H436.043C430.239 841.801 425.534 846.507 425.534 852.311V858.617H454.96V852.311C454.96 846.507 450.254 841.801 444.45 841.801ZM436.043 839.699C429.078 839.699 423.432 845.346 423.432 852.311V860.719H457.061V852.311C457.061 845.346 451.415 839.699 444.45 839.699H436.043Z" fill="black"/>
<path fill-rule="evenodd" clip-rule="evenodd" d="M299.755 586.054C306.81 579.972 316.456 581.832 320.643 590.006C324.624 597.779 322.151 608.361 315.087 613.509L283.531 636.509L312.565 657.383C316.924 660.517 318.979 666.442 317.489 671.58C315.64 677.953 309.119 680.689 303.396 677.49L257.293 651.723C250.427 647.886 247.164 638.828 250.006 631.493C250.368 630.558 250.81 629.698 251.32 628.917C252.162 627.476 253.227 626.168 254.5 625.07L299.755 586.054Z" fill="white"/>
<path fill-rule="evenodd" clip-rule="evenodd" d="M279.946 636.52L311.338 659.09C314.978 661.707 316.711 666.716 315.47 670.994C313.988 676.102 308.934 678.177 304.422 675.655L258.319 649.888C252.366 646.562 249.502 638.611 251.966 632.252L250.006 631.493C247.164 638.828 250.427 647.886 257.293 651.723L303.396 677.49C309.119 680.689 315.64 677.953 317.489 671.58C318.979 666.442 316.924 660.517 312.565 657.383L283.531 636.509L315.087 613.509C322.151 608.361 324.624 597.779 320.643 590.006C316.456 581.832 306.81 579.972 299.755 586.054L254.5 625.07C253.227 626.168 252.162 627.476 251.32 628.917C250.81 629.698 250.368 630.558 250.006 631.493L251.966 632.252C252.276 631.45 252.652 630.722 253.08 630.065L253.109 630.022L253.135 629.977C253.867 628.725 254.786 627.599 255.873 626.662L301.128 587.646C304.201 584.997 307.734 584.15 310.881 584.749C314.027 585.348 316.958 587.423 318.772 590.964C322.286 597.825 320.07 607.277 313.849 611.811L279.946 636.52Z" fill="black"/>
<path d="M304.047 598.055C306.696 569.461 342.669 556.814 365.841 578.26C389.014 599.705 365.841 705.833 365.841 705.833C355.91 710.048 304.047 714.631 304.047 714.631C304.047 714.631 300.737 633.798 304.047 598.055Z" fill="black"/>
<path fill-rule="evenodd" clip-rule="evenodd" d="M305.094 598.152C307.649 570.568 342.487 558.078 365.127 579.031C367.84 581.542 369.939 585.356 371.493 590.219C373.045 595.072 374.031 600.892 374.57 607.328C375.648 620.201 374.931 635.405 373.485 649.985C372.04 664.556 369.872 678.465 368.065 688.733C367.161 693.866 366.348 698.088 365.761 701.025C365.467 702.493 365.231 703.64 365.067 704.42C365.014 704.674 364.968 704.889 364.931 705.063C362.422 706.001 357.696 706.99 351.827 707.949C345.59 708.967 338.194 709.933 331.097 710.769C324.002 711.604 317.216 712.308 312.203 712.803C309.696 713.051 307.634 713.246 306.198 713.379C305.755 713.42 305.372 713.456 305.054 713.485C305.031 712.894 305 712.074 304.962 711.049C304.878 708.77 304.761 705.475 304.632 701.409C304.374 693.276 304.064 682.06 303.857 669.729C303.443 645.047 303.445 615.958 305.094 598.152ZM304.047 714.631C302.997 714.674 302.997 714.674 302.997 714.673L302.997 714.67L302.988 714.44C302.982 714.286 302.973 714.056 302.961 713.755C302.937 713.154 302.903 712.267 302.861 711.126C302.777 708.845 302.661 705.546 302.531 701.476C302.273 693.335 301.962 682.109 301.755 669.764C301.341 645.094 301.34 615.895 303.001 597.958C305.743 568.355 342.85 555.55 366.555 577.488C369.635 580.339 371.882 584.532 373.495 589.579C375.112 594.634 376.117 600.624 376.664 607.153C377.758 620.21 377.028 635.559 375.577 650.192C374.125 664.833 371.948 678.797 370.135 689.097C369.228 694.249 368.412 698.486 367.822 701.437C367.527 702.912 367.289 704.066 367.124 704.851C367.042 705.244 366.978 705.545 366.934 705.748L366.885 705.978L366.868 706.055C366.868 706.056 366.868 706.057 365.841 705.833L366.868 706.057L366.752 706.588L366.252 706.8C363.632 707.912 358.398 709.005 352.166 710.023C345.884 711.049 338.453 712.019 331.343 712.856C324.231 713.694 317.431 714.399 312.409 714.895C309.898 715.143 307.832 715.339 306.392 715.472C305.673 715.539 305.11 715.59 304.727 715.625L304.142 715.678L304.14 715.678C304.14 715.678 304.14 715.678 304.047 714.631ZM304.047 714.631L304.14 715.678L303.042 715.775L302.997 714.673L304.047 714.631Z" fill="black"/>
<path d="M312.294 541.671C311.508 537.095 314.58 532.747 319.157 531.962L334.939 529.251C339.516 528.465 343.862 531.538 344.648 536.114L350.233 568.635C351.019 573.211 347.946 577.559 343.37 578.345L327.587 581.055C323.011 581.841 318.664 578.768 317.878 574.192L312.294 541.671Z" fill="white"/>
<path fill-rule="evenodd" clip-rule="evenodd" d="M335.295 531.323L319.512 534.033C316.08 534.623 313.776 537.883 314.365 541.315L319.949 573.836C320.539 577.268 323.799 579.573 327.231 578.984L343.014 576.273C346.446 575.683 348.751 572.423 348.161 568.991L342.577 536.47C341.987 533.038 338.727 530.733 335.295 531.323ZM319.157 531.962C314.58 532.747 311.508 537.095 312.294 541.671L317.878 574.192C318.664 578.768 323.011 581.841 327.587 581.055L343.37 578.345C347.946 577.559 351.019 573.211 350.233 568.635L344.648 536.114C343.862 531.538 339.516 528.465 334.939 529.251L319.157 531.962Z" fill="black"/>
<path fill-rule="evenodd" clip-rule="evenodd" d="M344.787 503.22C344.58 503.762 344.851 504.37 345.393 504.577L362.574 511.16L353.208 520.273C352.792 520.678 352.783 521.344 353.188 521.76C353.592 522.176 354.258 522.185 354.674 521.78L366.397 510.373L346.145 502.615C345.603 502.407 344.995 502.678 344.787 503.22Z" fill="black"/>
<path d="M292.122 523.393C282.659 501.823 292.151 487.285 307.852 480.519C355.728 459.889 356.577 517.326 361.009 531.092C366.355 547.7 341.957 559.014 325.757 560.079C309.557 561.144 303.951 550.355 292.122 523.393Z" fill="white"/>
<path fill-rule="evenodd" clip-rule="evenodd" d="M289.589 495.982C292.877 488.498 299.415 483.011 307.436 479.554C319.562 474.329 328.893 473.971 336.116 476.804C343.33 479.633 348.223 485.559 351.662 492.437C355.1 499.313 357.14 507.247 358.595 514.268C359.121 516.804 359.574 519.238 359.987 521.461C360.146 522.316 360.3 523.139 360.449 523.925C360.991 526.782 361.479 529.121 362.01 530.77C364.898 539.744 359.656 547.147 352.052 552.285C344.426 557.437 334.093 560.584 325.826 561.128C321.655 561.402 318.093 560.917 314.917 559.554C311.739 558.19 309.022 555.979 306.491 552.916C301.472 546.844 297.055 537.251 291.16 523.815C286.339 512.825 286.292 503.486 289.589 495.982ZM291.513 496.827C288.504 503.677 288.444 512.391 293.085 522.971C299.019 536.496 303.319 545.779 308.111 551.577C310.485 554.449 312.946 556.42 315.746 557.622C318.546 558.825 321.761 559.289 325.689 559.031C333.622 558.509 343.588 555.466 350.875 550.543C358.183 545.606 362.467 539.049 360.009 531.415C359.432 529.622 358.923 527.156 358.384 524.317C358.232 523.517 358.077 522.685 357.917 521.825C357.505 519.609 357.058 517.208 356.537 514.695C355.091 507.72 353.095 500.003 349.783 493.377C346.471 486.754 341.898 481.329 335.349 478.76C328.81 476.196 320.08 476.394 308.268 481.484C300.589 484.794 294.531 489.958 291.513 496.827Z" fill="black"/>
<path d="M351.117 495.021C345.139 495.14 340.351 505.082 338.684 505.973C337.018 506.864 335.428 504.813 332.427 505.363C328.674 506.05 328.229 516.016 335.745 519.91C337.076 520.6 335.745 535.128 335.745 535.128C333.646 543.624 305.141 548.263 305.65 549.54C305.66 549.558 305.665 549.567 305.665 549.567C305.659 549.558 305.654 549.549 305.65 549.54C305.206 548.765 295.288 531.43 293.367 527.107C286.174 510.921 288.082 491.568 300.318 484.86C312.554 478.152 322.871 475.79 334.541 477.373C342.426 478.442 351.041 492.204 351.117 495.021Z" fill="black"/>
<path fill-rule="evenodd" clip-rule="evenodd" d="M304.679 488.668C304.351 487.67 304.35 487.67 304.35 487.67L304.349 487.67L304.346 487.671L304.339 487.674L304.316 487.681C304.298 487.688 304.272 487.697 304.241 487.708C304.177 487.731 304.087 487.764 303.975 487.809C303.749 487.898 303.431 488.032 303.043 488.217C302.269 488.588 301.21 489.166 300.056 490.005C297.747 491.682 295.033 494.419 293.462 498.63C291.9 502.818 291.828 507.511 292.384 511.523C292.938 515.516 294.136 518.994 295.262 520.762C295.574 521.252 296.223 521.396 296.713 521.085C297.203 520.773 297.347 520.123 297.035 519.634C296.13 518.212 294.996 515.06 294.466 511.235C293.939 507.429 294.032 503.117 295.431 499.364C296.823 495.635 299.225 493.207 301.291 491.705C302.325 490.954 303.269 490.439 303.95 490.114C304.29 489.951 304.563 489.837 304.747 489.764C304.839 489.728 304.908 489.702 304.952 489.686C304.975 489.678 304.99 489.672 305 489.669L305.008 489.667L305.008 489.666C305.008 489.666 305.008 489.666 305.009 489.666C305.559 489.484 305.858 488.891 305.677 488.34C305.496 487.789 304.902 487.489 304.351 487.67L304.679 488.668Z" fill="white"/>
<path fill-rule="evenodd" clip-rule="evenodd" d="M359.725 527.633C360.262 527.853 360.519 528.466 360.299 529.004C359.924 529.921 358.599 531.759 356.174 531.759C354.139 531.759 352.789 531.073 352.248 530.485C351.855 530.058 351.882 529.393 352.309 529C352.736 528.607 353.401 528.635 353.794 529.062C353.794 529.062 353.795 529.062 353.796 529.063C353.812 529.077 353.985 529.224 354.384 529.372C354.784 529.522 355.376 529.657 356.174 529.657C357.417 529.657 358.156 528.691 358.354 528.208C358.574 527.671 359.187 527.413 359.725 527.633Z" fill="black"/>
<path d="M348.827 507.72C349.377 509.712 349.361 511.455 348.792 511.613C348.223 511.77 347.315 510.282 346.765 508.289C346.215 506.296 346.231 504.553 346.8 504.396C347.369 504.239 348.277 505.727 348.827 507.72Z" fill="black"/>
<path d="M302.625 713.055C302.625 702.317 311.33 693.612 322.067 693.612C332.805 693.612 341.509 702.317 341.509 713.055V784.522C341.509 795.261 332.805 803.966 322.067 803.966C311.33 803.966 302.625 795.261 302.625 784.522V713.055Z" fill="black"/>
<path d="M392.956 756.145C392.956 745.407 401.66 736.702 412.397 736.702C423.135 736.702 431.839 745.407 431.839 756.145V826.562C431.839 837.3 423.135 846.005 412.397 846.005C401.66 846.005 392.956 837.3 392.956 826.562V756.145Z" fill="black"/>
<path d="M340.721 737.136C331.399 731.754 328.205 719.833 333.587 710.511C338.969 701.188 350.889 697.994 360.21 703.376L421.395 738.704C430.717 744.086 433.911 756.007 428.529 765.329C423.147 774.652 411.227 777.846 401.905 772.464L340.721 737.136Z" fill="black"/>
<path d="M302.625 783.472C302.625 772.734 311.33 764.029 322.067 764.029C332.805 764.029 341.509 772.734 341.509 783.472V854.939C341.509 865.678 332.805 874.383 322.067 874.383C311.33 874.383 302.625 865.678 302.625 854.939V783.472Z" fill="black"/>
<path fill-rule="evenodd" clip-rule="evenodd" d="M331.945 727.113C332.504 726.954 333.085 727.279 333.243 727.837C334.535 732.39 337.812 735.542 342.706 738.291C343.212 738.575 343.392 739.216 343.108 739.722C342.823 740.228 342.183 740.407 341.677 740.123C336.546 737.241 332.728 733.72 331.221 728.411C331.063 727.853 331.387 727.271 331.945 727.113Z" fill="#E4ECF4"/>
<path d="M355.824 672.716C355.913 669.745 358.383 667.579 361.34 667.878C364.296 668.176 366.621 670.827 366.532 673.798L365.992 691.746C365.903 694.717 363.433 696.883 360.477 696.584C357.52 696.285 355.195 693.635 355.285 690.664L355.824 672.716Z" fill="white"/>
<path fill-rule="evenodd" clip-rule="evenodd" d="M363.901 691.535L364.44 673.586C364.495 671.776 363.078 670.161 361.276 669.979C359.475 669.797 357.97 671.117 357.915 672.927L357.376 690.876C357.321 692.686 358.738 694.301 360.54 694.483C362.342 694.665 363.846 693.345 363.901 691.535ZM361.34 667.878C358.383 667.579 355.913 669.745 355.824 672.716L355.285 690.664C355.195 693.635 357.52 696.285 360.477 696.584C363.433 696.883 365.903 694.717 365.992 691.746L366.532 673.798C366.621 670.827 364.296 668.176 361.34 667.878Z" fill="black"/>
<path d="M384.548 841.199C384.548 833.313 391.703 827.362 399.456 828.798L410.627 830.867C412.145 831.148 413.701 831.148 415.219 830.867L426.39 828.798C434.143 827.362 441.298 833.313 441.298 841.199V860.72H384.548V841.199Z" fill="#FF4B78"/>
<path fill-rule="evenodd" clip-rule="evenodd" d="M439.196 858.618V841.199C439.196 834.628 433.234 829.668 426.773 830.865L415.602 832.933C413.831 833.261 412.015 833.261 410.244 832.933L399.073 830.865C392.612 829.668 386.65 834.628 386.65 841.199V858.618H439.196ZM399.456 828.798C391.703 827.362 384.548 833.313 384.548 841.199V860.72H441.298V841.199C441.298 833.313 434.143 827.362 426.39 828.798L415.219 830.867C413.701 831.148 412.145 831.148 410.627 830.867L399.456 828.798Z" fill="black"/>
<path d="M330.562 882.791C330.562 875.825 336.208 870.179 343.173 870.179H351.58C358.545 870.179 364.191 875.825 364.191 882.791V891.199H330.562V882.791Z" fill="white"/>
<path fill-rule="evenodd" clip-rule="evenodd" d="M352.612 471.147C353.484 472.408 353.823 474.106 353.536 476.252C353.093 479.58 350.082 481.099 347.036 481.498C343.949 481.903 340.322 481.27 337.665 479.846C335.957 479.033 334.414 478.544 333.137 478.139C332.804 478.033 332.49 477.933 332.195 477.835C331.644 477.652 331.347 477.056 331.53 476.506C331.714 475.955 332.309 475.657 332.86 475.841C333.117 475.927 333.404 476.018 333.717 476.117C335.005 476.524 336.73 477.07 338.593 477.96L338.616 477.971L338.639 477.983C340.892 479.197 344.083 479.766 346.763 479.414C349.492 479.056 351.202 477.854 351.453 475.975C351.692 474.18 351.374 473.053 350.883 472.343C350.391 471.632 349.62 471.186 348.648 470.963C347.669 470.74 346.55 470.761 345.506 470.942C344.454 471.123 343.568 471.45 343.052 471.76C342.554 472.058 341.908 471.897 341.61 471.399C341.311 470.901 341.473 470.256 341.97 469.957C342.768 469.479 343.918 469.083 345.148 468.87C346.386 468.657 347.796 468.613 349.116 468.914C350.443 469.218 351.741 469.888 352.612 471.147Z" fill="black"/>
<path d="M307.832 710.683H323.595V718.566C323.595 722.919 320.066 726.448 315.713 726.448C311.36 726.448 307.832 722.919 307.832 718.566V710.683Z" fill="black"/>
<path fill-rule="evenodd" clip-rule="evenodd" d="M321.493 712.785H309.933V718.566C309.933 721.758 312.521 724.346 315.713 724.346C318.906 724.346 321.493 721.758 321.493 718.566V712.785ZM307.832 710.683V718.566C307.832 722.919 311.36 726.448 315.713 726.448C320.066 726.448 323.595 722.919 323.595 718.566V710.683H307.832Z" fill="white"/>
<path d="M340.41 710.428H356.173V718.31C356.173 722.663 352.645 726.192 348.292 726.192C343.938 726.192 340.41 722.663 340.41 718.31V710.428Z" fill="black"/>
<path fill-rule="evenodd" clip-rule="evenodd" d="M354.072 712.53H342.511V718.31C342.511 721.502 345.099 724.09 348.292 724.09C351.484 724.09 354.072 721.502 354.072 718.31V712.53ZM340.41 710.428V718.31C340.41 722.663 343.938 726.192 348.292 726.192C352.645 726.192 356.173 722.663 356.173 718.31V710.428H340.41Z" fill="white"/>
<path fill-rule="evenodd" clip-rule="evenodd" d="M371.814 583.178C364.384 577.844 353.989 579.934 349.196 587.724L347.032 591.242C342.45 598.69 344.805 608.444 352.28 612.981L396.058 639.547L362.088 660.14C357.149 663.135 354.99 669.186 356.918 674.631C359.317 681.407 367.03 684.645 373.547 681.612L431.185 654.79C437.799 651.712 441.254 644.605 439.989 637.748C439.431 633.867 437.349 630.222 433.936 627.772L371.814 583.178Z" fill="white"/>
<path fill-rule="evenodd" clip-rule="evenodd" d="M400.111 639.548L363.178 661.938C359.09 664.416 357.303 669.423 358.899 673.929C360.885 679.537 367.267 682.216 372.66 679.706L430.298 652.884C436.023 650.22 439.018 644.067 437.922 638.13L437.914 638.088L437.908 638.047C437.429 634.711 435.642 631.583 432.71 629.479L370.589 584.886C364.149 580.263 355.14 582.074 350.986 588.826L348.822 592.343C344.851 598.798 346.892 607.252 353.371 611.184L400.111 639.548ZM362.088 660.14C357.149 663.135 354.99 669.186 356.918 674.631C359.317 681.407 367.03 684.645 373.547 681.612L431.185 654.79C437.799 651.712 441.254 644.605 439.989 637.748C439.431 633.867 437.349 630.222 433.936 627.772L371.814 583.178C364.384 577.844 353.989 579.934 349.196 587.724L347.032 591.242C342.45 598.69 344.805 608.444 352.28 612.981L396.058 639.547L362.088 660.14Z" fill="black"/>
<path d="M372.808 684.983C375.256 683.651 378.074 685.246 378.067 687.96C378.063 689.386 377.241 690.74 375.955 691.44L372.946 693.077C370.513 694.4 367.693 694.594 365.266 693.604L362.255 692.377C360.965 691.851 360.145 690.603 360.149 689.17C360.156 686.453 362.978 684.467 365.428 685.453L367.128 686.136C368.424 686.658 369.926 686.551 371.222 685.846L372.808 684.983Z" fill="white"/>
<path fill-rule="evenodd" clip-rule="evenodd" d="M372.05 691.24L375.06 689.603C375.614 689.301 375.968 688.718 375.97 688.103C375.973 686.933 374.759 686.246 373.703 686.82L372.117 687.683C370.255 688.697 368.096 688.85 366.233 688.1L364.533 687.416C363.472 686.989 362.249 687.85 362.246 689.027C362.244 689.648 362.6 690.189 363.158 690.416L366.169 691.644C368.028 692.402 370.188 692.253 372.05 691.24ZM378.067 687.96C378.074 685.246 375.256 683.651 372.808 684.983L371.222 685.846C369.926 686.551 368.424 686.658 367.128 686.136L365.428 685.453C362.978 684.467 360.156 686.453 360.149 689.17C360.145 690.603 360.965 691.851 362.255 692.377L365.266 693.604C367.693 694.594 370.513 694.4 372.946 693.077L375.955 691.44C377.241 690.74 378.063 689.386 378.067 687.96Z" fill="black"/>
<path d="M371.812 691.03C374.26 689.698 377.078 691.293 377.071 694.007C377.067 695.433 376.245 696.787 374.959 697.487L371.949 699.124C369.517 700.447 366.697 700.641 364.27 699.651L361.259 698.424C359.969 697.898 359.149 696.649 359.153 695.217C359.16 692.5 361.982 690.513 364.432 691.499L366.132 692.183C367.428 692.705 368.93 692.598 370.226 691.893L371.812 691.03Z" fill="white"/>
<path fill-rule="evenodd" clip-rule="evenodd" d="M371.054 697.287L374.064 695.65C374.618 695.348 374.972 694.765 374.974 694.15C374.977 692.98 373.763 692.293 372.707 692.867L371.121 693.73C369.259 694.744 367.1 694.897 365.237 694.147L363.537 693.463C362.475 693.036 361.253 693.897 361.25 695.074C361.248 695.695 361.603 696.235 362.162 696.463L365.173 697.691C367.032 698.449 369.191 698.3 371.054 697.287ZM377.071 694.007C377.078 691.293 374.26 689.698 371.812 691.03L370.226 691.893C368.93 692.598 367.428 692.705 366.132 692.183L364.432 691.499C361.982 690.513 359.16 692.5 359.153 695.217C359.149 696.649 359.969 697.898 361.259 698.424L364.27 699.651C366.697 700.641 369.517 700.447 371.949 699.124L374.959 697.487C376.245 696.787 377.067 695.433 377.071 694.007Z" fill="black"/>
<path d="M373.123 679.738C375.572 678.406 378.389 680.001 378.382 682.715C378.379 684.141 377.557 685.495 376.271 686.195L373.261 687.832C370.829 689.155 368.009 689.349 365.581 688.359L362.57 687.132C361.281 686.606 360.461 685.357 360.464 683.925C360.471 681.208 363.293 679.222 365.744 680.207L367.444 680.891C368.74 681.413 370.241 681.306 371.537 680.601L373.123 679.738Z" fill="white"/>
<path fill-rule="evenodd" clip-rule="evenodd" d="M372.366 685.995L375.375 684.358C375.93 684.056 376.284 683.473 376.285 682.858C376.289 681.688 375.074 681.001 374.019 681.575L372.433 682.438C370.57 683.452 368.412 683.605 366.549 682.855L364.849 682.171C363.787 681.744 362.564 682.605 362.561 683.782C362.56 684.403 362.915 684.943 363.474 685.171L366.485 686.399C368.344 687.157 370.503 687.008 372.366 685.995ZM378.382 682.715C378.389 680.001 375.572 678.406 373.123 679.738L371.537 680.601C370.241 681.306 368.74 681.413 367.444 680.891L365.744 680.207C363.293 679.222 360.471 681.208 360.464 683.925C360.461 685.357 361.281 686.606 362.57 687.132L365.581 688.359C368.009 689.349 370.829 689.155 373.261 687.832L376.271 686.195C377.557 685.495 378.379 684.141 378.382 682.715Z" fill="black"/>
<path d="M384.548 858.617H773.386C791.379 858.617 805.965 873.204 805.965 891.198H384.548V858.617Z" fill="white"/>
<path fill-rule="evenodd" clip-rule="evenodd" d="M805.898 889.096C805.942 889.791 805.965 890.492 805.965 891.198H384.548V858.617H773.386C790.673 858.617 804.815 872.082 805.898 889.096ZM803.791 889.096C802.712 873.244 789.512 860.719 773.386 860.719H386.65V889.096H803.791Z" fill="black"/>
<path d="M157.55 520.455C157.55 515.231 161.785 510.996 167.009 510.996C172.232 510.996 176.467 515.231 176.467 520.455V573.004C176.467 578.229 172.232 582.463 167.009 582.463C161.785 582.463 157.55 578.229 157.55 573.004V520.455Z" fill="#2C73FB"/>
<path d="M184.874 555.663C184.874 550.729 188.873 546.729 193.806 546.729C198.74 546.729 202.739 550.729 202.739 555.663V573.53C202.739 578.463 198.74 582.463 193.806 582.463C188.873 582.463 184.874 578.463 184.874 573.53V555.663Z" fill="#FF4B78"/>
<path d="M212.199 536.745C212.199 531.811 216.198 527.811 221.131 527.811C226.065 527.811 230.064 531.811 230.064 536.745V573.53C230.064 578.463 226.065 582.463 221.131 582.463C216.198 582.463 212.199 578.463 212.199 573.53V536.745Z" fill="#47DB99"/>
<path d="M689.313 627.655C689.313 624.753 691.666 622.4 694.568 622.4C697.47 622.4 699.822 624.753 699.822 627.655V658.134C699.822 661.036 697.47 663.389 694.568 663.389C691.666 663.389 689.313 661.036 689.313 658.134V627.655Z" fill="#47DB99"/>
<path d="M742.91 621.35C742.91 617.867 745.733 615.044 749.215 615.044C752.698 615.044 755.521 617.867 755.521 621.35V657.083C755.521 660.566 752.698 663.389 749.215 663.389C745.733 663.389 742.91 660.566 742.91 657.083V621.35Z" fill="#E4ECF4"/>
<path d="M706.127 643.945C706.127 640.753 708.715 638.165 711.907 638.165C715.1 638.165 717.687 640.753 717.687 643.945V657.608C717.687 660.801 715.1 663.389 711.907 663.389C708.715 663.389 706.127 660.801 706.127 657.608V643.945Z" fill="#FF4B78"/>
<path d="M723.994 632.91C723.994 629.428 726.817 626.604 730.299 626.604C733.782 626.604 736.605 629.428 736.605 632.91V657.083C736.605 660.566 733.782 663.389 730.299 663.389C726.817 663.389 723.994 660.566 723.994 657.083V632.91Z" fill="#2C73FB"/>
<path d="M761.826 656.032C761.826 652.55 764.649 649.726 768.131 649.726C771.614 649.726 774.437 652.55 774.437 656.032V657.083C774.437 660.566 771.614 663.389 768.131 663.389C764.649 663.389 761.826 660.566 761.826 657.083V656.032Z" fill="#47DB99"/>
<path fill-rule="evenodd" clip-rule="evenodd" d="M819.626 628.706C819.626 628.126 820.097 627.655 820.677 627.655H886.885C887.465 627.655 887.936 628.126 887.936 628.706C887.936 629.287 887.465 629.757 886.885 629.757H820.677C820.097 629.757 819.626 629.287 819.626 628.706Z" fill="black"/>
<path fill-rule="evenodd" clip-rule="evenodd" d="M819.626 639.216C819.626 638.635 820.097 638.165 820.677 638.165H886.885C887.465 638.165 887.936 638.635 887.936 639.216C887.936 639.796 887.465 640.267 886.885 640.267H820.677C820.097 640.267 819.626 639.796 819.626 639.216Z" fill="black"/>
<path fill-rule="evenodd" clip-rule="evenodd" d="M819.626 649.726C819.626 649.145 820.097 648.675 820.677 648.675H886.885C887.465 648.675 887.936 649.145 887.936 649.726C887.936 650.306 887.465 650.777 886.885 650.777H820.677C820.097 650.777 819.626 650.306 819.626 649.726Z" fill="black"/>
<path fill-rule="evenodd" clip-rule="evenodd" d="M819.626 660.236C819.626 659.656 820.097 659.185 820.677 659.185H886.885C887.465 659.185 887.936 659.656 887.936 660.236C887.936 660.817 887.465 661.287 886.885 661.287H820.677C820.097 661.287 819.626 660.817 819.626 660.236Z" fill="black"/>
<path fill-rule="evenodd" clip-rule="evenodd" d="M819.626 718.04C819.626 717.46 820.097 716.989 820.677 716.989H886.885C887.465 716.989 887.936 717.46 887.936 718.04C887.936 718.621 887.465 719.091 886.885 719.091H820.677C820.097 719.091 819.626 718.621 819.626 718.04Z" fill="black"/>
<path fill-rule="evenodd" clip-rule="evenodd" d="M819.626 707.53C819.626 706.95 820.097 706.479 820.677 706.479H854.307C854.887 706.479 855.358 706.95 855.358 707.53C855.358 708.111 854.887 708.581 854.307 708.581H820.677C820.097 708.581 819.626 708.111 819.626 707.53Z" fill="black"/>
<path fill-rule="evenodd" clip-rule="evenodd" d="M819.626 739.061C819.626 738.48 820.097 738.01 820.677 738.01H886.885C887.465 738.01 887.936 738.48 887.936 739.061C887.936 739.641 887.465 740.112 886.885 740.112H820.677C820.097 740.112 819.626 739.641 819.626 739.061Z" fill="black"/>
<path fill-rule="evenodd" clip-rule="evenodd" d="M819.626 728.55C819.626 727.969 820.097 727.499 820.677 727.499H854.307C854.887 727.499 855.358 727.969 855.358 728.55C855.358 729.13 854.887 729.601 854.307 729.601H820.677C820.097 729.601 819.626 729.13 819.626 728.55Z" fill="black"/>
<path fill-rule="evenodd" clip-rule="evenodd" d="M819.626 549.883C819.626 549.302 820.097 548.832 820.677 548.832H886.885C887.465 548.832 887.936 549.302 887.936 549.883C887.936 550.463 887.465 550.934 886.885 550.934H820.677C820.097 550.934 819.626 550.463 819.626 549.883Z" fill="black"/>
<path fill-rule="evenodd" clip-rule="evenodd" d="M819.626 560.392C819.626 559.811 820.097 559.341 820.677 559.341H886.885C887.465 559.341 887.936 559.811 887.936 560.392C887.936 560.972 887.465 561.443 886.885 561.443H820.677C820.097 561.443 819.626 560.972 819.626 560.392Z" fill="black"/>
<path fill-rule="evenodd" clip-rule="evenodd" d="M819.626 570.901C819.626 570.321 820.097 569.85 820.677 569.85H854.307C854.887 569.85 855.358 570.321 855.358 570.901C855.358 571.482 854.887 571.952 854.307 571.952H820.677C820.097 571.952 819.626 571.482 819.626 570.901Z" fill="black"/>
<path fill-rule="evenodd" clip-rule="evenodd" d="M819.626 581.411C819.626 580.831 820.097 580.36 820.677 580.36H854.307C854.887 580.36 855.358 580.831 855.358 581.411C855.358 581.992 854.887 582.462 854.307 582.462H820.677C820.097 582.462 819.626 581.992 819.626 581.411Z" fill="black"/>
<path d="M221.656 831.548H195.383L200.112 890.404H243.725L248.454 831.548H221.656Z" fill="white"/>
<path fill-rule="evenodd" clip-rule="evenodd" d="M194.245 830.497H249.593L244.695 891.455H199.143L194.245 830.497ZM196.522 832.599L201.082 889.353H242.756L247.316 832.599H196.522Z" fill="black"/>
<path d="M195.203 796.767C195.194 796.764 195.185 796.76 195.176 796.756C192.589 795.736 174.68 810.539 166.303 816.822C157.895 823.128 148.551 820.089 145.285 816.822C141.618 813.156 139.505 802.634 158.421 792.124C173.554 783.716 189.248 791.716 195.203 796.767Z" fill="#47DB99"/>
<path fill-rule="evenodd" clip-rule="evenodd" d="M180.5 788.376C187.147 789.977 192.647 793.257 195.76 795.862C199.186 797.331 202.724 799.295 206.309 801.768C218.954 810.489 220.27 825.337 219.364 831.684L217.283 831.387C218.128 825.472 216.852 811.593 205.116 803.498C201.603 801.075 198.158 799.17 194.846 797.757C194.822 797.758 194.781 797.763 194.72 797.775C194.543 797.809 194.288 797.89 193.947 798.034C193.266 798.323 192.374 798.81 191.304 799.471C189.171 800.788 186.458 802.717 183.539 804.892C180.625 807.064 177.528 809.466 174.63 811.721C174.281 811.993 173.934 812.263 173.591 812.53C171.094 814.475 168.783 816.275 166.934 817.662C162.5 820.988 157.794 821.86 153.762 821.457C149.768 821.057 146.375 819.397 144.542 817.565C142.438 815.461 140.885 811.508 142.382 806.725C143.872 801.963 148.33 796.527 157.911 791.204C165.758 786.845 173.746 786.749 180.5 788.376ZM194.791 797.733C194.791 797.733 194.791 797.733 194.791 797.733L194.974 797.268L194.974 797.267L194.791 797.733ZM187.867 793.294C179.767 791.535 172.649 792.835 167.717 797.109L169.093 798.698C174.207 794.266 182.347 793.272 191.99 796.647C191.437 796.939 190.836 797.289 190.199 797.682C187.985 799.05 185.212 801.024 182.283 803.207C179.349 805.393 176.237 807.807 173.339 810.062C172.99 810.335 172.643 810.605 172.3 810.872C169.8 812.819 167.506 814.605 165.672 815.981C161.699 818.961 157.529 819.721 153.971 819.365C150.374 819.005 147.462 817.512 146.028 816.078C144.466 814.516 143.129 811.374 144.388 807.353C145.653 803.309 149.596 798.229 158.932 793.042C166.218 788.994 173.643 788.886 180.008 790.419C182.896 791.115 185.556 792.147 187.867 793.294Z" fill="black"/>
<path d="M197.499 751.433C195.124 764.968 204.918 782.949 210.111 790.247C205.907 787.593 194.728 779.996 183.646 770.84C169.793 759.395 163.856 742.469 163.856 728.046C163.856 716.01 174.246 691.222 192.551 690.725C210.857 690.227 210.111 710.125 205.415 721.079C202.786 727.21 200.467 734.515 197.499 751.433Z" fill="#47DB99"/>
<path fill-rule="evenodd" clip-rule="evenodd" d="M208.631 701.36C210.213 707.923 208.79 715.873 206.381 721.492C203.796 727.52 201.495 734.739 198.534 751.614C197.397 758.096 199.168 765.755 201.945 772.792C204.703 779.784 208.394 786.014 210.946 789.606C226.147 808.039 223.658 825 219.689 832.063C219.405 832.569 218.764 832.748 218.258 832.464C217.752 832.18 217.573 831.539 217.857 831.033C221.367 824.786 223.998 808.809 209.407 791.044C205.066 788.292 193.975 780.736 182.977 771.65C168.844 759.973 162.805 742.728 162.805 728.045C162.805 721.797 165.477 712.4 170.45 704.498C175.419 696.601 182.862 689.936 192.523 689.673C197.296 689.544 200.942 690.744 203.605 692.899C206.261 695.048 207.834 698.058 208.631 701.36ZM202.911 784.141C197.722 780.506 191 775.552 184.315 770.029C170.742 758.815 164.907 742.208 164.907 728.045C164.907 722.257 167.43 713.242 172.229 705.617C177.031 697.987 183.936 692.01 192.58 691.775C196.96 691.656 200.085 692.755 202.284 694.534C204.49 696.319 205.869 698.874 206.587 701.853C208.034 707.853 206.736 715.329 204.449 720.664C201.777 726.897 199.44 734.289 196.464 751.251C195.226 758.304 197.164 766.402 199.989 773.564C201.222 776.689 202.636 779.665 204.057 782.335C203.759 782.058 203.457 781.781 203.151 781.505C188.678 768.428 181.654 755.804 179.42 744.572C177.188 733.348 179.72 723.416 184.539 715.662C184.845 715.169 184.694 714.521 184.201 714.214C183.708 713.908 183.06 714.059 182.753 714.552C177.677 722.721 175.014 733.192 177.359 744.982C179.702 756.764 187.025 769.767 201.742 783.064C202.139 783.423 202.529 783.782 202.911 784.141Z" fill="black"/>
<path d="M248.832 792.281C241.685 795.193 234.153 802.964 231.28 806.485C232.738 783.364 249.151 771.042 252.836 768.952C257.97 766.04 264.113 767.727 265.408 774.246C266.95 782.005 261.116 787.277 248.832 792.281Z" fill="#47DB99"/>
<path fill-rule="evenodd" clip-rule="evenodd" d="M260.93 767.078C263.642 768.089 265.728 770.459 266.44 774.042C267.284 778.287 266.081 781.886 263.063 785.025C260.105 788.102 255.407 790.738 249.23 793.255C245.814 794.646 242.247 797.229 239.147 799.945C236.117 802.599 233.596 805.324 232.178 807.048C230.84 809.956 229.804 813.611 228.741 817.36C228.51 818.176 228.277 818.996 228.04 819.815C226.728 824.338 225.258 828.859 223.003 831.678C222.64 832.132 221.979 832.205 221.526 831.843C221.073 831.48 220.999 830.819 221.362 830.365C223.31 827.929 224.686 823.834 226.021 819.229C226.248 818.446 226.474 817.65 226.701 816.849C227.756 813.121 228.841 809.289 230.244 806.222C231.814 782.74 248.474 770.218 252.319 768.037C255.109 766.455 258.253 766.079 260.93 767.078ZM237.354 798.724C241.137 793.286 244.732 788.909 250.496 784.795C250.969 784.458 251.079 783.801 250.741 783.329C250.404 782.856 249.748 782.747 249.275 783.084C241.832 788.397 237.837 794.163 232.903 801.538C236.146 782.13 250.11 771.706 253.355 769.866C255.699 768.537 258.194 768.3 260.195 769.047C262.162 769.781 263.795 771.514 264.379 774.451C265.077 777.964 264.133 780.88 261.548 783.568C258.904 786.318 254.543 788.82 248.437 791.308C244.705 792.828 240.933 795.586 237.762 798.364C237.625 798.484 237.489 798.604 237.354 798.724Z" fill="black"/>
<path d="M689.313 529.913H774.437V581.412H689.313V529.913Z" fill="#E4ECF4"/>
<path d="M644.124 529.913H665.142V550.933H644.124V529.913Z" fill="#E4ECF4"/>
<path d="M633.615 540.424H654.633V561.443H633.615V540.424Z" fill="#47DB99"/>
<path fill-rule="evenodd" clip-rule="evenodd" d="M759.261 538.501C759.742 538.826 759.868 539.479 759.544 539.96L744.288 562.561L736.991 555.459L726.793 567.936L719.427 545.078L706.02 572.416C705.764 572.937 705.134 573.152 704.613 572.897C704.092 572.641 703.877 572.011 704.133 571.49L719.831 539.48L727.609 563.616L736.814 552.354L743.952 559.301L757.802 538.784C758.126 538.303 758.78 538.176 759.261 538.501Z" fill="black"/>
<path fill-rule="evenodd" clip-rule="evenodd" d="M244.776 891.455L142.837 891.455L142.837 889.353L244.776 889.353L244.776 891.455Z" fill="black"/>
<path d="M654.632 602.431L654.632 605.584L633.614 605.584L633.614 602.431L654.632 602.431Z" fill="#E4ECF4"/>
<path d="M654.632 610.84L654.632 613.993L633.614 613.993L633.614 610.84L654.632 610.84Z" fill="#E4ECF4"/>
<path d="M654.632 619.218L654.632 622.371L633.614 622.371L633.614 619.218L654.632 619.218Z" fill="#E4ECF4"/>
<path d="M654.632 627.168L654.632 630.321L633.614 630.321L633.614 627.168L654.632 627.168Z" fill="#E4ECF4"/>
<path d="M654.632 636.003L654.632 639.156L633.614 639.156L633.614 636.003L654.632 636.003Z" fill="#E4ECF4"/>
<path d="M654.632 643.954L654.632 647.107L633.614 647.107L633.614 643.954L654.632 643.954Z" fill="#E4ECF4"/>
<path d="M654.632 651.904L654.632 655.057L633.614 655.057L633.614 651.904L654.632 651.904Z" fill="#E4ECF4"/>
<path d="M654.632 660.739L654.632 663.892L633.614 663.892L633.614 660.739L654.632 660.739Z" fill="#E4ECF4"/>
<path d="M176.467 602.431L176.467 605.584L157.551 605.584L157.551 602.431L176.467 602.431Z" fill="#E4ECF4"/>
<path d="M176.467 610.84L176.467 613.993L157.551 613.993L157.551 610.84L176.467 610.84Z" fill="#E4ECF4"/>
<path d="M176.467 619.218L176.467 622.371L157.551 622.371L157.551 619.218L176.467 619.218Z" fill="#E4ECF4"/>
<path d="M176.467 627.168L176.467 630.321L157.551 630.321L157.551 627.168L176.467 627.168Z" fill="#E4ECF4"/>
<path d="M176.467 636.003L176.467 639.156L157.551 639.156L157.551 636.003L176.467 636.003Z" fill="#E4ECF4"/>
<path d="M176.467 643.954L176.467 647.107L157.551 647.107L157.551 643.954L176.467 643.954Z" fill="#E4ECF4"/>
<path d="M176.467 651.904L176.467 655.057L157.551 655.057L157.551 651.904L176.467 651.904Z" fill="#E4ECF4"/>
<path d="M176.467 660.739L176.467 663.892L157.551 663.892L157.551 660.739L176.467 660.739Z" fill="#E4ECF4"/>
<path d="M203.791 602.431L203.791 605.584L184.874 605.584L184.874 602.431L203.791 602.431Z" fill="#E4ECF4"/>
<path d="M203.791 610.84L203.791 613.993L184.874 613.993L184.874 610.84L203.791 610.84Z" fill="#E4ECF4"/>
<path d="M203.791 619.218L203.791 622.371L184.874 622.371L184.874 619.218L203.791 619.218Z" fill="#E4ECF4"/>
<path d="M203.791 627.168L203.791 630.321L184.874 630.321L184.874 627.168L203.791 627.168Z" fill="#E4ECF4"/>
<path d="M203.791 636.003L203.791 639.156L184.874 639.156L184.874 636.003L203.791 636.003Z" fill="#E4ECF4"/>
<path d="M203.791 643.954L203.791 647.107L184.874 647.107L184.874 643.954L203.791 643.954Z" fill="#E4ECF4"/>
<path d="M203.791 651.904L203.791 655.057L184.874 655.057L184.874 651.904L203.791 651.904Z" fill="#E4ECF4"/>
<path d="M203.791 660.739L203.791 663.892L184.874 663.892L184.874 660.739L203.791 660.739Z" fill="#E4ECF4"/>
<path fill-rule="evenodd" clip-rule="evenodd" d="M354.58 872.281H346.173C340.369 872.281 335.664 876.987 335.664 882.791V889.097H365.089V882.791C365.089 876.987 360.384 872.281 354.58 872.281ZM346.173 870.179C339.208 870.179 333.562 875.826 333.562 882.791V891.199H367.191V882.791C367.191 875.826 361.545 870.179 354.58 870.179H346.173Z" fill="black"/>
<path d="M294.678 871.678C294.678 863.792 301.833 857.841 309.586 859.277L320.757 861.345C322.275 861.627 323.831 861.627 325.349 861.345L336.52 859.277C344.273 857.841 351.428 863.792 351.428 871.678V891.198H294.678V871.678Z" fill="#FF4B78"/>
<path fill-rule="evenodd" clip-rule="evenodd" d="M349.326 889.096V871.678C349.326 865.107 343.364 860.147 336.903 861.343L325.732 863.412C323.961 863.74 322.145 863.74 320.374 863.412L309.203 861.343C302.742 860.147 296.78 865.107 296.78 871.678V889.096H349.326ZM309.586 859.277C301.833 857.841 294.678 863.792 294.678 871.678V891.198H351.428V871.678C351.428 863.792 344.273 857.841 336.52 859.277L325.349 861.345C323.831 861.627 322.275 861.627 320.757 861.345L309.586 859.277Z" fill="black"/>
<path fill-rule="evenodd" clip-rule="evenodd" d="M305.188 889.879V884.098H307.29V889.879H305.188Z" fill="black"/>
<path fill-rule="evenodd" clip-rule="evenodd" d="M316.222 889.879V884.098H318.324V889.879H316.222Z" fill="black"/>
<path fill-rule="evenodd" clip-rule="evenodd" d="M326.731 889.879V884.098H328.833V889.879H326.731Z" fill="black"/>
<path fill-rule="evenodd" clip-rule="evenodd" d="M395.057 859.4V853.619H397.159V859.4H395.057Z" fill="black"/>
<path fill-rule="evenodd" clip-rule="evenodd" d="M406.091 859.4V853.619H408.193V859.4H406.091Z" fill="black"/>
<path fill-rule="evenodd" clip-rule="evenodd" d="M416.601 859.4V853.619H418.703V859.4H416.601Z" fill="black"/>
<path fill-rule="evenodd" clip-rule="evenodd" d="M770.877 353.918C782.138 355.95 793.992 363.402 806.434 375.97C812.641 382.24 818.896 389.68 825.299 397.419C826.007 398.274 826.717 399.134 827.428 399.995C833.097 406.858 838.878 413.858 844.667 420.123C851.167 427.158 857.928 433.55 864.901 437.953C871.891 442.366 879.556 445.066 887.635 443.9C890.508 443.485 892.5 440.821 892.086 437.948C891.671 435.076 889.007 433.083 886.134 433.498C881.428 434.177 876.307 432.725 870.511 429.066C864.697 425.395 858.672 419.794 852.386 412.99C846.809 406.955 841.225 400.195 835.528 393.298C834.819 392.44 834.108 391.58 833.396 390.719C827.013 383.004 820.482 375.222 813.902 368.576C800.772 355.311 787.054 346.157 772.743 343.575C758.113 340.936 743.766 345.32 730.012 357.229C717.475 368.084 705.09 385.543 693.211 402.289C692.408 403.42 691.608 404.548 690.81 405.67C677.86 423.892 665.592 440.589 653.66 449.199C642.374 457.342 631.485 458.083 620.315 453.65C608.714 449.046 596.601 438.746 583.99 424.187C578.964 418.385 573.948 412.015 568.841 405.53C567.553 403.894 566.259 402.251 564.958 400.609C558.564 392.535 552.012 384.487 545.394 377.801C538.826 371.167 531.821 365.482 524.419 362.545C516.74 359.497 508.641 359.433 500.675 364.031C498.161 365.482 497.3 368.696 498.751 371.209C500.201 373.723 503.415 374.584 505.928 373.134C510.749 370.351 515.435 370.287 520.543 372.314C525.927 374.45 531.707 378.914 537.926 385.196C544.093 391.426 550.328 399.063 556.72 407.134C557.976 408.72 559.24 410.325 560.509 411.936C565.63 418.441 570.843 425.061 576.047 431.068C589.008 446.032 602.467 457.874 616.438 463.419C630.84 469.134 645.524 468.029 659.809 457.722C673.45 447.879 686.754 429.519 699.376 411.759C700.073 410.779 700.768 409.8 701.461 408.823C713.669 391.626 725.358 375.161 736.891 365.175C748.709 354.942 759.935 351.944 770.877 353.918Z" fill="#47DB99"/>
<path fill-rule="evenodd" clip-rule="evenodd" d="M825.806 414.686C845.852 401.736 865.597 401.691 876.337 401.691H886.886C889.788 401.691 892.14 399.339 892.14 396.436C892.14 393.534 889.788 391.182 886.886 391.182L876.238 391.182C865.206 391.181 842.823 391.181 820.104 405.858C814.451 409.51 808.9 414.02 803.565 418.497C802.416 419.461 801.279 420.422 800.152 421.374C795.959 424.918 791.894 428.353 787.812 431.452C777.198 439.512 768.316 443.793 760.13 442.03C755.927 441.125 751.342 438.524 746.239 434.553C741.492 430.859 736.722 426.327 731.716 421.572C731.371 421.244 731.024 420.915 730.676 420.585C725.396 415.572 719.839 410.36 714.188 406.268C708.57 402.2 702.345 398.85 695.656 398.13C688.853 397.397 682.403 399.457 676.485 402.821C670.59 406.172 664.903 410.996 659.458 416.312C654.102 421.541 648.772 427.457 643.57 433.231L643.272 433.561C637.926 439.495 632.711 445.268 627.507 450.311C606.553 470.615 587.71 477.936 569.311 470.012C559.608 465.833 549.577 457.248 540.395 447.583C532.01 438.756 524.706 429.437 519.326 422.574C518.872 421.995 518.432 421.433 518.006 420.891L507.481 407.086C505.721 404.778 502.424 404.334 500.116 406.093C497.808 407.853 497.364 411.15 499.124 413.458L509.695 427.324L509.719 427.354C510.153 427.907 510.606 428.485 511.075 429.084C516.434 435.922 524.029 445.614 532.776 454.822C542.215 464.758 553.441 474.62 565.154 479.665C589.589 490.188 612.94 479.062 634.82 457.859C640.324 452.525 645.778 446.481 651.079 440.596L651.261 440.395C656.549 434.526 661.687 428.824 666.799 423.833C671.983 418.772 676.924 414.661 681.678 411.958C686.408 409.269 690.627 408.159 694.531 408.579C698.551 409.012 702.995 411.139 708.025 414.781C713.023 418.4 718.094 423.131 723.442 428.208C723.817 428.564 724.195 428.922 724.573 429.282C729.476 433.941 734.61 438.82 739.785 442.847C745.33 447.163 751.413 450.904 757.918 452.304C771.15 455.154 783.525 447.904 794.167 439.823C798.49 436.54 802.83 432.872 807.049 429.306C808.149 428.377 809.24 427.455 810.32 426.548C815.633 422.089 820.751 417.952 825.806 414.686Z" fill="#2C73FB"/>
<path d="M1045.62 356.93C1049.23 356.93 1052.44 357.246 1055.25 357.879C1058.09 358.512 1060.48 359.391 1062.42 360.516C1064.39 361.641 1065.89 363 1066.92 364.594C1067.95 366.164 1068.47 367.898 1068.47 369.797V374.93C1068.47 376.945 1068.07 378.574 1067.27 379.816C1066.5 381.059 1065.42 382.055 1064.04 382.805C1065.19 383.133 1066.24 383.555 1067.2 384.07C1068.19 384.586 1069.02 385.219 1069.7 385.969C1070.4 386.695 1070.94 387.551 1071.32 388.535C1071.71 389.496 1071.91 390.609 1071.91 391.875V398.766C1071.91 400.664 1071.22 402.41 1069.84 404.004C1068.46 405.574 1066.57 406.934 1064.18 408.082C1061.79 409.23 1059 410.121 1055.81 410.754C1052.62 411.387 1049.23 411.703 1045.62 411.703C1043.6 411.703 1041.54 411.621 1039.43 411.457C1037.32 411.316 1035.27 411.117 1033.28 410.859C1031.31 410.602 1029.46 410.309 1027.72 409.98C1025.99 409.652 1024.5 409.312 1023.26 408.961V359.602C1024.5 359.25 1025.99 358.922 1027.72 358.617C1029.46 358.289 1031.31 358.008 1033.28 357.773C1035.27 357.516 1037.32 357.316 1039.43 357.176C1041.54 357.012 1043.6 356.93 1045.62 356.93ZM1045.34 387.656C1044.07 387.656 1042.8 387.668 1041.54 387.691C1040.27 387.691 1039.04 387.727 1037.85 387.797C1036.68 387.844 1035.55 387.926 1034.47 388.043C1033.39 388.16 1032.42 388.312 1031.55 388.5V401.859C1032.02 402.023 1032.62 402.211 1033.35 402.422C1034.1 402.633 1035.04 402.832 1036.16 403.02C1037.29 403.207 1038.63 403.371 1040.2 403.512C1041.77 403.629 1043.62 403.688 1045.76 403.688C1048.38 403.688 1050.74 403.477 1052.82 403.055C1054.93 402.633 1056.7 402.07 1058.13 401.367C1059.59 400.664 1060.7 399.855 1061.47 398.941C1062.25 398.004 1062.63 397.031 1062.63 396.023V393C1062.63 391.898 1062.14 390.996 1061.16 390.293C1060.17 389.59 1058.87 389.051 1057.25 388.676C1055.64 388.277 1053.79 388.008 1051.7 387.867C1049.64 387.727 1047.52 387.656 1045.34 387.656ZM1031.55 378.938C1033.01 379.219 1034.66 379.406 1036.51 379.5C1038.39 379.594 1040.51 379.641 1042.88 379.641C1044.91 379.641 1046.94 379.57 1048.96 379.43C1050.97 379.266 1052.79 379.008 1054.41 378.656C1056.02 378.281 1057.34 377.789 1058.34 377.18C1059.35 376.547 1059.87 375.75 1059.89 374.789V372.539C1059.89 371.531 1059.64 370.57 1059.15 369.656C1058.68 368.719 1057.89 367.898 1056.76 367.195C1055.66 366.492 1054.21 365.93 1052.4 365.508C1050.6 365.086 1048.38 364.875 1045.76 364.875C1043.62 364.875 1041.77 364.945 1040.2 365.086C1038.63 365.203 1037.29 365.355 1036.16 365.543C1035.04 365.73 1034.1 365.93 1033.35 366.141C1032.62 366.352 1032.02 366.539 1031.55 366.703V378.938ZM1105.95 370.922C1107.14 370.922 1108.58 370.98 1110.27 371.098C1111.96 371.215 1113.7 371.426 1115.51 371.73C1117.34 372.012 1119.14 372.422 1120.92 372.961C1122.7 373.477 1124.3 374.145 1125.7 374.965C1127.13 375.785 1128.28 376.781 1129.15 377.953C1130.04 379.102 1130.48 380.461 1130.48 382.031V393.914H1090.2V402.914C1093.03 403.312 1095.76 403.594 1098.39 403.758C1101.01 403.898 1103.53 403.969 1105.95 403.969C1109.62 403.969 1112.95 403.828 1115.93 403.547C1118.93 403.266 1121.52 402.949 1123.7 402.598C1126.21 402.199 1128.47 401.742 1130.48 401.227V409.031C1126.03 409.734 1121.73 410.238 1117.58 410.543C1113.46 410.848 1109.58 411 1105.95 411C1102.29 411 1098.97 410.906 1096 410.719C1093.02 410.508 1090.46 410.273 1088.33 410.016C1085.85 409.734 1083.61 409.406 1081.62 409.031V382.031C1081.62 380.461 1082 379.102 1082.78 377.953C1083.55 376.781 1084.58 375.785 1085.87 374.965C1087.16 374.145 1088.64 373.477 1090.3 372.961C1091.99 372.422 1093.73 372.012 1095.54 371.73C1097.34 371.426 1099.14 371.215 1100.92 371.098C1102.72 370.98 1104.4 370.922 1105.95 370.922ZM1090.2 388.289H1121.77V384.211C1121.77 383.25 1121.53 382.43 1121.06 381.75C1120.59 381.047 1119.96 380.461 1119.16 379.992C1118.39 379.523 1117.48 379.148 1116.42 378.867C1115.39 378.562 1114.31 378.34 1113.19 378.199C1112.06 378.035 1110.93 377.93 1109.78 377.883C1108.65 377.836 1107.59 377.812 1106.58 377.812C1105.52 377.812 1104.39 377.836 1103.17 377.883C1101.97 377.93 1100.77 378.035 1099.55 378.199C1098.33 378.363 1097.16 378.598 1096.03 378.902C1094.91 379.184 1093.91 379.57 1093.04 380.062C1092.18 380.531 1091.48 381.117 1090.97 381.82C1090.45 382.5 1090.2 383.32 1090.2 384.281V388.289ZM1164.38 370.289C1166.32 370.289 1168.28 370.383 1170.25 370.57C1172.21 370.758 1174.1 371.062 1175.91 371.484C1177.71 371.906 1179.4 372.434 1180.97 373.066C1182.54 373.699 1183.9 374.461 1185.05 375.352C1186.22 376.242 1187.13 377.273 1187.79 378.445C1188.45 379.594 1188.77 380.883 1188.77 382.312L1179.77 383.648C1179.77 382.641 1179.34 381.738 1178.47 380.941C1177.61 380.121 1176.46 379.441 1175.03 378.902C1173.6 378.34 1171.96 377.918 1170.11 377.637C1168.25 377.332 1166.34 377.18 1164.38 377.18C1162.5 377.18 1160.65 377.32 1158.82 377.602C1156.99 377.859 1155.35 378.258 1153.9 378.797C1152.47 379.336 1151.3 380.016 1150.38 380.836C1149.49 381.633 1149.05 382.57 1149.05 383.648V398.273C1149.05 399.352 1149.49 400.289 1150.38 401.086C1151.3 401.859 1152.47 402.516 1153.9 403.055C1155.35 403.57 1156.99 403.957 1158.82 404.215C1160.65 404.473 1162.5 404.602 1164.38 404.602C1166.34 404.602 1168.25 404.461 1170.11 404.18C1171.96 403.898 1173.6 403.5 1175.03 402.984C1176.46 402.445 1177.61 401.789 1178.47 401.016C1179.34 400.219 1179.77 399.305 1179.77 398.273L1188.77 400.523C1188.77 401.789 1188.45 402.949 1187.79 404.004C1187.13 405.059 1186.22 406.008 1185.05 406.852C1183.9 407.672 1182.54 408.387 1180.97 408.996C1179.4 409.605 1177.71 410.109 1175.91 410.508C1174.1 410.906 1172.21 411.199 1170.25 411.387C1168.28 411.598 1166.32 411.703 1164.38 411.703C1162.43 411.703 1160.47 411.598 1158.5 411.387C1156.56 411.199 1154.68 410.906 1152.88 410.508C1151.07 410.109 1149.39 409.605 1147.82 408.996C1146.27 408.387 1144.91 407.672 1143.74 406.852C1142.59 406.008 1141.69 405.07 1141.03 404.039C1140.38 402.984 1140.05 401.812 1140.05 400.523V382.312C1140.05 380.883 1140.38 379.594 1141.03 378.445C1141.69 377.273 1142.59 376.242 1143.74 375.352C1144.91 374.461 1146.27 373.699 1147.82 373.066C1149.39 372.434 1151.07 371.906 1152.88 371.484C1154.68 371.062 1156.56 370.758 1158.5 370.57C1160.47 370.383 1162.43 370.289 1164.38 370.289ZM1220.7 370.289C1222.66 370.289 1224.62 370.383 1226.57 370.57C1228.54 370.758 1230.42 371.062 1232.23 371.484C1234.03 371.906 1235.72 372.434 1237.29 373.066C1238.86 373.699 1240.22 374.461 1241.37 375.352C1242.54 376.242 1243.45 377.273 1244.11 378.445C1244.77 379.594 1245.09 380.883 1245.09 382.312V400.523C1245.09 401.789 1244.77 402.949 1244.11 404.004C1243.45 405.059 1242.54 406.008 1241.37 406.852C1240.22 407.672 1238.86 408.387 1237.29 408.996C1235.72 409.605 1234.03 410.109 1232.23 410.508C1230.42 410.906 1228.54 411.199 1226.57 411.387C1224.6 411.598 1222.64 411.703 1220.7 411.703C1218.75 411.703 1216.79 411.598 1214.82 411.387C1212.88 411.199 1211 410.906 1209.2 410.508C1207.39 410.109 1205.71 409.605 1204.14 408.996C1202.59 408.387 1201.23 407.672 1200.06 406.852C1198.91 406.008 1198.01 405.07 1197.35 404.039C1196.7 402.984 1196.37 401.812 1196.37 400.523V382.312C1196.37 380.883 1196.7 379.594 1197.35 378.445C1198.01 377.273 1198.91 376.242 1200.06 375.352C1201.23 374.461 1202.59 373.699 1204.14 373.066C1205.71 372.434 1207.39 371.906 1209.2 371.484C1211 371.062 1212.88 370.758 1214.82 370.57C1216.79 370.383 1218.75 370.289 1220.7 370.289ZM1205.3 398.273C1205.3 399.352 1205.74 400.289 1206.63 401.086C1207.55 401.859 1208.73 402.516 1210.18 403.055C1211.64 403.57 1213.28 403.957 1215.11 404.215C1216.96 404.473 1218.82 404.602 1220.7 404.602C1222.66 404.602 1224.56 404.461 1226.39 404.18C1228.24 403.898 1229.88 403.5 1231.31 402.984C1232.74 402.445 1233.88 401.789 1234.72 401.016C1235.59 400.219 1236.02 399.305 1236.02 398.273V383.648C1236.02 382.641 1235.59 381.738 1234.72 380.941C1233.88 380.121 1232.74 379.441 1231.31 378.902C1229.88 378.34 1228.24 377.918 1226.39 377.637C1224.56 377.332 1222.66 377.18 1220.7 377.18C1218.82 377.18 1216.96 377.32 1215.11 377.602C1213.28 377.859 1211.64 378.258 1210.18 378.797C1208.73 379.336 1207.55 380.016 1206.63 380.836C1205.74 381.633 1205.3 382.57 1205.3 383.648V398.273ZM1289.11 370.641C1292.72 370.641 1295.98 370.945 1298.88 371.555C1301.79 372.141 1304.26 373.031 1306.3 374.227C1308.34 375.422 1309.91 376.91 1311.01 378.691C1312.11 380.449 1312.66 382.5 1312.66 384.844V411H1303.45V386.953C1303.45 385.008 1303.03 383.426 1302.19 382.207C1301.34 380.965 1300.23 379.992 1298.85 379.289C1297.46 378.586 1295.89 378.105 1294.14 377.848C1292.38 377.59 1290.59 377.461 1288.76 377.461V411H1280.25V377.461C1278.73 377.461 1277.26 377.59 1275.86 377.848C1274.47 378.082 1273.16 378.41 1271.92 378.832C1270.68 379.254 1269.5 379.734 1268.4 380.273C1267.3 380.812 1266.28 381.375 1265.34 381.961V411H1256.13V381.961C1256.04 381.211 1255.82 380.578 1255.46 380.062C1255.14 379.547 1254.77 379.125 1254.38 378.797C1253.93 378.398 1253.44 378.07 1252.9 377.812L1256.84 370.922C1257.7 371.227 1258.56 371.625 1259.4 372.117C1260.13 372.539 1260.89 373.09 1261.69 373.77C1262.48 374.449 1263.19 375.281 1263.8 376.266C1265.7 375.117 1267.52 374.18 1269.28 373.453C1271.04 372.703 1272.89 372.129 1274.84 371.73C1276.78 371.309 1278.9 371.027 1281.2 370.887C1283.5 370.723 1286.13 370.641 1289.11 370.641ZM1349.02 370.922C1350.21 370.922 1351.65 370.98 1353.34 371.098C1355.03 371.215 1356.77 371.426 1358.58 371.73C1360.41 372.012 1362.21 372.422 1363.99 372.961C1365.77 373.477 1367.37 374.145 1368.77 374.965C1370.2 375.785 1371.35 376.781 1372.22 377.953C1373.11 379.102 1373.55 380.461 1373.55 382.031V393.914H1333.27V402.914C1336.1 403.312 1338.83 403.594 1341.46 403.758C1344.08 403.898 1346.6 403.969 1349.02 403.969C1352.7 403.969 1356.02 403.828 1359 403.547C1362 403.266 1364.59 402.949 1366.77 402.598C1369.28 402.199 1371.54 401.742 1373.55 401.227V409.031C1369.1 409.734 1364.8 410.238 1360.65 410.543C1356.53 410.848 1352.65 411 1349.02 411C1345.36 411 1342.04 410.906 1339.07 410.719C1336.09 410.508 1333.54 410.273 1331.4 410.016C1328.92 409.734 1326.68 409.406 1324.69 409.031V382.031C1324.69 380.461 1325.07 379.102 1325.85 377.953C1326.62 376.781 1327.65 375.785 1328.94 374.965C1330.23 374.145 1331.71 373.477 1333.37 372.961C1335.06 372.422 1336.8 372.012 1338.61 371.73C1340.41 371.426 1342.21 371.215 1343.99 371.098C1345.79 370.98 1347.47 370.922 1349.02 370.922ZM1333.27 388.289H1364.84V384.211C1364.84 383.25 1364.6 382.43 1364.13 381.75C1363.66 381.047 1363.03 380.461 1362.23 379.992C1361.46 379.523 1360.55 379.148 1359.49 378.867C1358.46 378.562 1357.38 378.34 1356.26 378.199C1355.13 378.035 1354 377.93 1352.85 377.883C1351.72 377.836 1350.66 377.812 1349.65 377.812C1348.59 377.812 1347.46 377.836 1346.24 377.883C1345.04 377.93 1343.84 378.035 1342.62 378.199C1341.4 378.363 1340.23 378.598 1339.1 378.902C1337.98 379.184 1336.98 379.57 1336.11 380.062C1335.25 380.531 1334.55 381.117 1334.04 381.82C1333.52 382.5 1333.27 383.32 1333.27 384.281V388.289ZM1062.7 469.656C1062.12 469.141 1061.39 468.637 1060.52 468.145C1059.66 467.652 1058.59 467.219 1057.32 466.844C1056.06 466.445 1054.55 466.129 1052.79 465.895C1051.05 465.637 1049.02 465.508 1046.67 465.508C1044.59 465.508 1042.61 465.555 1040.73 465.648C1038.88 465.719 1037.25 465.953 1035.84 466.352C1034.44 466.727 1033.32 467.336 1032.5 468.18C1031.68 469.023 1031.27 470.195 1031.27 471.695V476.195C1033.34 476.523 1035.61 476.793 1038.09 477.004C1040.58 477.215 1043.34 477.32 1046.39 477.32C1048.83 477.32 1051.42 477.238 1054.16 477.074C1056.93 476.887 1059.77 476.523 1062.7 475.984V469.656ZM1046.88 443.922C1048.05 443.922 1049.47 443.98 1051.14 444.098C1052.8 444.215 1054.54 444.426 1056.34 444.73C1058.14 445.012 1059.93 445.41 1061.68 445.926C1063.46 446.418 1065.06 447.074 1066.46 447.895C1067.89 448.691 1069.04 449.652 1069.91 450.777C1070.78 451.902 1071.21 453.227 1071.21 454.75V481.961C1069.24 482.359 1067.02 482.699 1064.53 482.98C1062.4 483.238 1059.86 483.473 1056.9 483.684C1053.95 483.895 1050.66 484 1047.02 484C1043.41 484 1039.57 483.848 1035.49 483.543C1031.44 483.238 1027.2 482.711 1022.77 481.961V469.305C1022.77 467.945 1023.08 466.762 1023.71 465.754C1024.37 464.723 1025.26 463.844 1026.39 463.117C1027.51 462.391 1028.84 461.793 1030.36 461.324C1031.88 460.855 1033.52 460.48 1035.28 460.199C1037.04 459.918 1038.87 459.73 1040.77 459.637C1042.66 459.52 1044.56 459.461 1046.46 459.461C1049.34 459.461 1051.79 459.648 1053.81 460.023C1055.85 460.375 1057.54 460.762 1058.87 461.184C1060.42 461.699 1061.7 462.273 1062.7 462.906V457.211C1062.7 456.25 1062.47 455.43 1062 454.75C1061.53 454.047 1060.9 453.461 1060.1 452.992C1059.3 452.5 1058.39 452.113 1057.36 451.832C1056.33 451.527 1055.25 451.293 1054.12 451.129C1053 450.965 1051.85 450.859 1050.68 450.812C1049.53 450.766 1048.45 450.742 1047.45 450.742C1046.39 450.742 1045.27 450.777 1044.07 450.848C1042.88 450.895 1041.68 451 1040.48 451.164C1039.31 451.328 1038.18 451.562 1037.07 451.867C1036 452.148 1035.04 452.535 1034.19 453.027C1033.35 453.52 1032.67 454.117 1032.15 454.82C1031.66 455.5 1031.41 456.32 1031.41 457.281L1022.7 455.031C1022.7 453.461 1023.08 452.102 1023.86 450.953C1024.63 449.781 1025.65 448.785 1026.91 447.965C1028.2 447.145 1029.68 446.477 1031.34 445.961C1033.01 445.422 1034.73 445.012 1036.51 444.73C1038.32 444.426 1040.11 444.215 1041.89 444.098C1043.67 443.98 1045.34 443.922 1046.88 443.922ZM1083.45 454.961C1083.35 454.211 1083.13 453.578 1082.78 453.062C1082.45 452.547 1082.09 452.125 1081.69 451.797C1081.24 451.398 1080.75 451.07 1080.21 450.812L1084.15 443.922C1085.02 444.227 1085.88 444.637 1086.75 445.152C1087.48 445.598 1088.24 446.172 1089.04 446.875C1089.86 447.555 1090.57 448.398 1091.18 449.406C1092.35 448.656 1093.55 447.953 1094.77 447.297C1096.01 446.617 1097.3 446.031 1098.63 445.539C1099.99 445.047 1101.41 444.66 1102.89 444.379C1104.39 444.074 1105.99 443.922 1107.7 443.922C1111.31 443.922 1114.41 444.227 1116.98 444.836C1119.59 445.422 1121.71 446.312 1123.35 447.508C1125.01 448.68 1126.23 450.145 1127 451.902C1127.78 453.66 1128.16 455.711 1128.16 458.055V484H1118.95V460.234C1118.95 458.922 1118.78 457.797 1118.43 456.859C1118.07 455.898 1117.59 455.09 1116.98 454.434C1116.4 453.754 1115.71 453.203 1114.91 452.781C1114.11 452.359 1113.28 452.043 1112.41 451.832C1111.57 451.598 1110.7 451.445 1109.81 451.375C1108.92 451.281 1108.08 451.234 1107.28 451.234C1105.78 451.234 1104.35 451.34 1102.99 451.551C1101.63 451.762 1100.34 452.055 1099.12 452.43C1097.91 452.781 1096.76 453.203 1095.68 453.695C1094.6 454.188 1093.59 454.703 1092.66 455.242V484H1083.45V454.961ZM1195.52 429.086C1196.98 429.086 1198.45 429.238 1199.95 429.543C1201.45 429.824 1202.79 430.211 1203.96 430.703C1206.02 434.312 1207.9 437.992 1209.59 441.742C1211.3 445.469 1212.82 449.312 1214.16 453.273C1215.07 453.391 1216 453.52 1216.93 453.66C1217.87 453.777 1218.82 453.906 1219.78 454.047V463.047L1216.76 462.203C1217.6 465.695 1218.32 469.258 1218.9 472.891C1219.49 476.523 1219.92 480.227 1220.2 484H1211.84C1211.48 479.969 1210.9 475.984 1210.08 472.047C1209.26 468.109 1208.32 464.336 1207.27 460.727C1204.99 460.539 1202.82 460.398 1200.76 460.305C1198.72 460.211 1196.98 460.164 1195.52 460.164C1193.58 460.164 1191.64 460.199 1189.72 460.27C1187.8 460.34 1185.87 460.469 1183.92 460.656C1182.87 464.266 1181.92 468.039 1181.07 471.977C1180.25 475.914 1179.68 479.922 1179.35 484H1170.98C1171.24 480.227 1171.65 476.535 1172.21 472.926C1172.8 469.316 1173.52 465.766 1174.36 462.273L1171.62 463.047V454.047L1177.03 453.273C1178.34 449.312 1179.84 445.469 1181.53 441.742C1183.24 437.992 1185.14 434.312 1187.23 430.703C1188.4 430.211 1189.72 429.824 1191.2 429.543C1192.68 429.238 1194.12 429.086 1195.52 429.086ZM1195.52 452.219C1196.93 452.219 1198.38 452.242 1199.88 452.289C1201.38 452.312 1202.93 452.383 1204.52 452.5C1203.33 449.242 1202.14 446.418 1200.97 444.027C1199.82 441.613 1198.83 439.75 1197.98 438.438C1197.56 438.25 1197.16 438.121 1196.79 438.051C1196.41 437.98 1195.99 437.945 1195.52 437.945C1194.77 437.945 1194 438.109 1193.2 438.438C1192.36 439.75 1191.35 441.613 1190.18 444.027C1189.01 446.418 1187.84 449.242 1186.66 452.5C1188.21 452.383 1189.72 452.312 1191.2 452.289C1192.7 452.242 1194.14 452.219 1195.52 452.219ZM1232.09 454.961C1231.99 454.211 1231.77 453.578 1231.42 453.062C1231.09 452.547 1230.73 452.125 1230.33 451.797C1229.88 451.398 1229.39 451.07 1228.85 450.812L1232.79 443.922C1233.66 444.227 1234.52 444.637 1235.39 445.152C1236.12 445.598 1236.88 446.172 1237.68 446.875C1238.5 447.555 1239.21 448.398 1239.82 449.406C1240.99 448.656 1242.19 447.953 1243.41 447.297C1244.65 446.617 1245.94 446.031 1247.27 445.539C1248.63 445.047 1250.05 444.66 1251.53 444.379C1253.03 444.074 1254.63 443.922 1256.34 443.922C1259.95 443.922 1263.05 444.227 1265.62 444.836C1268.23 445.422 1270.35 446.312 1271.99 447.508C1273.65 448.68 1274.87 450.145 1275.64 451.902C1276.42 453.66 1276.8 455.711 1276.8 458.055V484H1267.59V460.234C1267.59 458.922 1267.42 457.797 1267.07 456.859C1266.71 455.898 1266.23 455.09 1265.62 454.434C1265.04 453.754 1264.35 453.203 1263.55 452.781C1262.75 452.359 1261.92 452.043 1261.05 451.832C1260.21 451.598 1259.34 451.445 1258.45 451.375C1257.56 451.281 1256.72 451.234 1255.92 451.234C1254.42 451.234 1252.99 451.34 1251.63 451.551C1250.27 451.762 1248.98 452.055 1247.77 452.43C1246.55 452.781 1245.4 453.203 1244.32 453.695C1243.24 454.188 1242.23 454.703 1241.3 455.242V484H1232.09V454.961ZM1327.43 469.656C1326.84 469.141 1326.12 468.637 1325.25 468.145C1324.38 467.652 1323.32 467.219 1322.05 466.844C1320.79 466.445 1319.27 466.129 1317.52 465.895C1315.78 465.637 1313.74 465.508 1311.4 465.508C1309.31 465.508 1307.33 465.555 1305.46 465.648C1303.61 465.719 1301.98 465.953 1300.57 466.352C1299.16 466.727 1298.05 467.336 1297.23 468.18C1296.41 469.023 1296 470.195 1296 471.695V476.195C1298.06 476.523 1300.34 476.793 1302.82 477.004C1305.3 477.215 1308.07 477.32 1311.12 477.32C1313.55 477.32 1316.14 477.238 1318.89 477.074C1321.65 476.887 1324.5 476.523 1327.43 475.984V469.656ZM1311.61 443.922C1312.78 443.922 1314.2 443.98 1315.86 444.098C1317.53 444.215 1319.26 444.426 1321.07 444.73C1322.87 445.012 1324.65 445.41 1326.41 445.926C1328.19 446.418 1329.79 447.074 1331.19 447.895C1332.62 448.691 1333.77 449.652 1334.64 450.777C1335.5 451.902 1335.94 453.227 1335.94 454.75V481.961C1333.97 482.359 1331.74 482.699 1329.26 482.98C1327.12 483.238 1324.58 483.473 1321.63 483.684C1318.68 483.895 1315.38 484 1311.75 484C1308.14 484 1304.3 483.848 1300.22 483.543C1296.16 483.238 1291.92 482.711 1287.49 481.961V469.305C1287.49 467.945 1287.81 466.762 1288.44 465.754C1289.1 464.723 1289.99 463.844 1291.11 463.117C1292.24 462.391 1293.56 461.793 1295.09 461.324C1296.61 460.855 1298.25 460.48 1300.01 460.199C1301.77 459.918 1303.59 459.73 1305.49 459.637C1307.39 459.52 1309.29 459.461 1311.19 459.461C1314.07 459.461 1316.52 459.648 1318.54 460.023C1320.57 460.375 1322.26 460.762 1323.6 461.184C1325.14 461.699 1326.42 462.273 1327.43 462.906V457.211C1327.43 456.25 1327.2 455.43 1326.73 454.75C1326.26 454.047 1325.62 453.461 1324.83 452.992C1324.03 452.5 1323.12 452.113 1322.09 451.832C1321.05 451.527 1319.98 451.293 1318.85 451.129C1317.73 450.965 1316.58 450.859 1315.41 450.812C1314.26 450.766 1313.18 450.742 1312.17 450.742C1311.12 450.742 1309.99 450.777 1308.8 450.848C1307.6 450.895 1306.41 451 1305.21 451.164C1304.04 451.328 1302.9 451.562 1301.8 451.867C1300.72 452.148 1299.76 452.535 1298.92 453.027C1298.07 453.52 1297.39 454.117 1296.88 454.82C1296.39 455.5 1296.14 456.32 1296.14 457.281L1287.42 455.031C1287.42 453.461 1287.81 452.102 1288.58 450.953C1289.36 449.781 1290.38 448.785 1291.64 447.965C1292.93 447.145 1294.41 446.477 1296.07 445.961C1297.73 445.422 1299.46 445.012 1301.24 444.73C1303.04 444.426 1304.84 444.215 1306.62 444.098C1308.4 443.98 1310.06 443.922 1311.61 443.922ZM1356.19 484H1348.17V431.195H1356.19V484ZM1377.28 467.688C1377.28 469 1377.46 470.137 1377.81 471.098C1378.16 472.035 1378.64 472.844 1379.25 473.523C1379.86 474.18 1380.55 474.719 1381.32 475.141C1382.12 475.562 1382.95 475.891 1383.82 476.125C1384.69 476.336 1385.57 476.488 1386.46 476.582C1387.35 476.652 1388.2 476.688 1389.02 476.688C1392 476.688 1394.71 476.301 1397.14 475.527C1399.58 474.754 1401.75 473.805 1403.65 472.68V443.922L1412.72 444.625V485.758C1412.72 487.422 1412.37 488.969 1411.66 490.398C1410.96 491.828 1409.94 493.059 1408.61 494.09C1407.27 495.145 1405.63 495.965 1403.68 496.551C1401.74 497.137 1399.52 497.43 1397.04 497.43V491.312C1397.98 491.312 1398.84 491.219 1399.64 491.031C1400.44 490.844 1401.13 490.551 1401.71 490.152C1402.32 489.777 1402.79 489.297 1403.12 488.711C1403.47 488.148 1403.65 487.492 1403.65 486.742V479.359C1402.55 480.039 1401.42 480.66 1400.27 481.223C1399.15 481.785 1397.96 482.277 1396.72 482.699C1395.48 483.098 1394.18 483.414 1392.82 483.648C1391.46 483.883 1390.03 484 1388.53 484C1384.9 484 1381.79 483.707 1379.21 483.121C1376.64 482.512 1374.52 481.621 1372.85 480.449C1371.21 479.254 1370 477.777 1369.23 476.02C1368.46 474.262 1368.07 472.211 1368.07 469.867V444.625L1377.28 443.922V467.688ZM1446.82 443.922C1449.61 443.922 1452.33 444.098 1454.98 444.449C1457.62 444.777 1460 445.352 1462.11 446.172C1464.22 446.969 1465.96 448.059 1467.32 449.441C1468.68 450.824 1469.48 452.547 1469.74 454.609L1461.59 456.859C1461.59 455.641 1461.16 454.633 1460.32 453.836C1459.5 453.016 1458.4 452.383 1457.02 451.938C1455.66 451.469 1454.09 451.141 1452.3 450.953C1450.52 450.766 1448.7 450.672 1446.82 450.672C1445.02 450.672 1443.22 450.766 1441.44 450.953C1439.68 451.117 1438.1 451.434 1436.7 451.902C1435.31 452.348 1434.19 452.969 1433.32 453.766C1432.48 454.562 1432.05 455.594 1432.05 456.859V461.148H1469.74V473.312C1469.74 474.695 1469.44 475.926 1468.83 477.004C1468.22 478.059 1467.38 478.984 1466.3 479.781C1465.22 480.555 1463.94 481.223 1462.46 481.785C1461.01 482.324 1459.43 482.758 1457.72 483.086C1456.03 483.414 1454.25 483.648 1452.38 483.789C1450.52 483.93 1448.67 484 1446.82 484C1443.98 484 1441.24 483.836 1438.59 483.508C1435.95 483.156 1433.57 482.582 1431.46 481.785C1429.35 480.965 1427.61 479.875 1426.25 478.516C1424.92 477.133 1424.13 475.398 1423.9 473.312L1432.05 471.062C1432.05 472.352 1432.48 473.395 1433.32 474.191C1434.19 474.988 1435.31 475.609 1436.7 476.055C1438.1 476.5 1439.68 476.805 1441.44 476.969C1443.22 477.109 1445.02 477.18 1446.82 477.18C1448.7 477.18 1450.52 477.098 1452.3 476.934C1454.09 476.746 1455.66 476.43 1457.02 475.984C1458.4 475.516 1459.5 474.895 1460.32 474.121C1461.16 473.324 1461.59 472.305 1461.59 471.062V466.773H1423.9V454.609C1423.9 453.227 1424.2 452.008 1424.81 450.953C1425.42 449.875 1426.25 448.949 1427.31 448.176C1428.39 447.379 1429.65 446.711 1431.11 446.172C1432.56 445.609 1434.13 445.164 1435.82 444.836C1437.53 444.508 1439.31 444.273 1441.16 444.133C1443.04 443.992 1444.92 443.922 1446.82 443.922ZM1491.33 443.43H1500.26V449.336H1491.33V484H1482.96V449.336H1476.35V443.43H1482.96V431.195H1491.33V443.43Z" fill="white"/>
<path d="M1022.7 579.401V600.641H1035.7V603.233H1020V579.401H1022.7ZM1048.6 601.073C1051.03 601.073 1052.77 600.065 1053.82 598.049H1056.78C1056.15 599.681 1055.16 601.001 1053.79 602.009C1052.44 603.017 1050.7 603.521 1048.57 603.521C1045.86 603.521 1043.65 602.621 1041.94 600.821C1040.29 599.069 1039.46 596.873 1039.46 594.233C1039.46 591.569 1040.25 589.373 1041.84 587.645C1043.52 585.845 1045.7 584.945 1048.39 584.945C1051.08 584.945 1053.26 585.845 1054.94 587.645C1056.52 589.373 1057.32 591.569 1057.32 594.233V595.313H1042.23C1042.42 596.969 1043.08 598.337 1044.21 599.417C1045.36 600.521 1046.83 601.073 1048.6 601.073ZM1048.39 587.393C1046.73 587.393 1045.34 587.909 1044.21 588.941C1043.16 589.925 1042.51 591.209 1042.27 592.793H1054.51C1054.27 591.209 1053.62 589.925 1052.56 588.941C1051.44 587.909 1050.04 587.393 1048.39 587.393ZM1077 600.353C1075.56 602.465 1073.41 603.521 1070.55 603.521C1067.96 603.521 1065.85 602.621 1064.22 600.821C1062.63 599.045 1061.84 596.849 1061.84 594.233C1061.84 591.617 1062.63 589.421 1064.22 587.645C1065.85 585.845 1068.02 584.945 1070.73 584.945C1073.44 584.945 1075.53 586.013 1077 588.149V585.233H1079.7V603.233H1077V600.353ZM1070.91 601.073C1072.86 601.073 1074.39 600.401 1075.52 599.057C1076.6 597.785 1077.14 596.177 1077.14 594.233C1077.14 592.289 1076.6 590.681 1075.52 589.409C1074.39 588.065 1072.86 587.393 1070.91 587.393C1068.99 587.393 1067.43 588.065 1066.23 589.409C1065.1 590.681 1064.54 592.289 1064.54 594.233C1064.54 596.177 1065.1 597.785 1066.23 599.057C1067.43 600.401 1068.99 601.073 1070.91 601.073ZM1096.21 584.945V587.645H1095.89C1093.94 587.645 1092.36 588.425 1091.13 589.985C1089.98 591.473 1089.41 593.249 1089.41 595.313V603.233H1086.71V585.233H1089.41V589.661C1089.98 587.789 1091.23 586.409 1093.15 585.521C1093.94 585.137 1094.9 584.945 1096.03 584.945H1096.21ZM1104.16 585.233V588.041C1104.8 587.177 1105.6 586.445 1106.53 585.845C1107.47 585.245 1108.54 584.945 1109.74 584.945C1110.94 584.945 1111.97 585.113 1112.83 585.449C1113.7 585.785 1114.45 586.289 1115.1 586.961C1116.59 588.425 1117.33 590.357 1117.33 592.757V603.233H1114.63V592.829C1114.63 591.173 1114.16 589.853 1113.23 588.869C1112.29 587.885 1111.08 587.393 1109.59 587.393C1108.08 587.393 1106.8 587.897 1105.74 588.905C1104.68 589.937 1104.16 591.257 1104.16 592.865V603.233H1101.46V585.233H1104.16ZM1136.89 587.969C1138.09 585.953 1139.92 584.945 1142.36 584.945C1143.56 584.945 1144.67 585.269 1145.68 585.917C1146.71 586.541 1147.51 587.429 1148.09 588.581C1148.9 587.069 1150.18 585.989 1151.9 585.341C1152.6 585.077 1153.38 584.945 1154.24 584.945C1155.13 584.945 1155.97 585.125 1156.76 585.485C1157.58 585.821 1158.3 586.313 1158.92 586.961C1160.27 588.401 1160.94 590.201 1160.94 592.361V603.233H1158.24V592.433C1158.24 590.945 1157.82 589.721 1156.98 588.761C1156.14 587.849 1155.07 587.393 1153.78 587.393C1152.41 587.393 1151.27 587.837 1150.36 588.725C1149.4 589.637 1148.92 590.885 1148.92 592.469V603.233H1146.22V592.433C1146.22 590.945 1145.8 589.721 1144.96 588.761C1144.12 587.849 1143.05 587.393 1141.75 587.393C1140.38 587.393 1139.24 587.837 1138.33 588.725C1137.37 589.637 1136.89 590.885 1136.89 592.469V603.233H1134.19V585.233H1136.89V587.969ZM1175.6 584.945C1178.28 584.945 1180.47 585.845 1182.15 587.645C1183.73 589.373 1184.52 591.569 1184.52 594.233C1184.52 596.897 1183.73 599.093 1182.15 600.821C1180.47 602.621 1178.28 603.521 1175.6 603.521C1172.91 603.521 1170.72 602.621 1169.04 600.821C1167.46 599.093 1166.67 596.897 1166.67 594.233C1166.67 591.569 1167.46 589.373 1169.04 587.645C1170.72 585.845 1172.91 584.945 1175.6 584.945ZM1175.6 601.073C1177.54 601.073 1179.08 600.401 1180.2 599.057C1181.28 597.785 1181.82 596.177 1181.82 594.233C1181.82 592.289 1181.28 590.681 1180.2 589.409C1179.08 588.065 1177.54 587.393 1175.6 587.393C1173.65 587.393 1172.12 588.065 1170.99 589.409C1169.91 590.681 1169.37 592.289 1169.37 594.233C1169.37 596.177 1169.91 597.785 1170.99 599.057C1172.12 600.401 1173.65 601.073 1175.6 601.073ZM1199.95 584.945V587.645H1199.63C1197.68 587.645 1196.1 588.425 1194.87 589.985C1193.72 591.473 1193.15 593.249 1193.15 595.313V603.233H1190.45V585.233H1193.15V589.661C1193.72 587.789 1194.97 586.409 1196.89 585.521C1197.68 585.137 1198.64 584.945 1199.77 584.945H1199.95ZM1212.77 601.073C1215.19 601.073 1216.93 600.065 1217.99 598.049H1220.94C1220.31 599.681 1219.32 601.001 1217.95 602.009C1216.61 603.017 1214.87 603.521 1212.73 603.521C1210.02 603.521 1207.81 602.621 1206.11 600.821C1204.45 599.069 1203.62 596.873 1203.62 594.233C1203.62 591.569 1204.41 589.373 1206 587.645C1207.68 585.845 1209.86 584.945 1212.55 584.945C1215.24 584.945 1217.42 585.845 1219.1 587.645C1220.69 589.373 1221.48 591.569 1221.48 594.233V595.313H1206.39C1206.59 596.969 1207.25 598.337 1208.37 599.417C1209.53 600.521 1210.99 601.073 1212.77 601.073ZM1212.55 587.393C1210.89 587.393 1209.5 587.909 1208.37 588.941C1207.32 589.925 1206.67 591.209 1206.43 592.793H1218.67C1218.43 591.209 1217.78 589.925 1216.73 588.941C1215.6 587.909 1214.21 587.393 1212.55 587.393ZM1251.16 600.353C1249.72 602.465 1247.57 603.521 1244.72 603.521C1242.13 603.521 1240.01 602.621 1238.38 600.821C1236.8 599.045 1236.01 596.849 1236.01 594.233C1236.01 591.617 1236.8 589.421 1238.38 587.645C1240.01 585.845 1242.19 584.945 1244.9 584.945C1247.61 584.945 1249.7 586.013 1251.16 588.149V585.233H1253.86V603.233H1251.16V600.353ZM1245.08 601.073C1247.02 601.073 1248.56 600.401 1249.69 599.057C1250.77 597.785 1251.31 596.177 1251.31 594.233C1251.31 592.289 1250.77 590.681 1249.69 589.409C1248.56 588.065 1247.02 587.393 1245.08 587.393C1243.16 587.393 1241.6 588.065 1240.4 589.409C1239.27 590.681 1238.71 592.289 1238.71 594.233C1238.71 596.177 1239.27 597.785 1240.4 599.057C1241.6 600.401 1243.16 601.073 1245.08 601.073ZM1263.57 588.149C1265.04 586.013 1267.18 584.945 1270.02 584.945C1272.61 584.945 1274.71 585.845 1276.32 587.645C1277.92 589.421 1278.73 591.617 1278.73 594.233C1278.73 596.849 1277.92 599.045 1276.32 600.821C1274.71 602.621 1272.54 603.521 1269.8 603.521C1267.09 603.521 1265.01 602.465 1263.57 600.353V603.233H1260.87V578.033H1263.57V588.149ZM1269.66 601.073C1271.58 601.073 1273.14 600.401 1274.34 599.057C1275.46 597.785 1276.03 596.177 1276.03 594.233C1276.03 592.289 1275.46 590.681 1274.34 589.409C1273.14 588.065 1271.58 587.393 1269.66 587.393C1267.71 587.393 1266.18 588.065 1265.05 589.409C1263.97 590.681 1263.43 592.289 1263.43 594.233C1263.43 596.177 1263.97 597.785 1265.05 599.057C1266.18 600.401 1267.71 601.073 1269.66 601.073ZM1292.4 584.945C1295.09 584.945 1297.27 585.845 1298.95 587.645C1300.53 589.373 1301.33 591.569 1301.33 594.233C1301.33 596.897 1300.53 599.093 1298.95 600.821C1297.27 602.621 1295.09 603.521 1292.4 603.521C1289.71 603.521 1287.53 602.621 1285.85 600.821C1284.26 599.093 1283.47 596.897 1283.47 594.233C1283.47 591.569 1284.26 589.373 1285.85 587.645C1287.53 585.845 1289.71 584.945 1292.4 584.945ZM1292.4 601.073C1294.34 601.073 1295.88 600.401 1297.01 599.057C1298.09 597.785 1298.63 596.177 1298.63 594.233C1298.63 592.289 1298.09 590.681 1297.01 589.409C1295.88 588.065 1294.34 587.393 1292.4 587.393C1290.45 587.393 1288.92 588.065 1287.79 589.409C1286.71 590.681 1286.17 592.289 1286.17 594.233C1286.17 596.177 1286.71 597.785 1287.79 599.057C1288.92 600.401 1290.45 601.073 1292.4 601.073ZM1320.24 603.233V600.425C1319.59 601.289 1318.8 602.021 1317.87 602.621C1316.93 603.221 1315.86 603.521 1314.66 603.521C1313.46 603.521 1312.43 603.353 1311.57 603.017C1310.7 602.681 1309.95 602.177 1309.3 601.505C1307.81 600.041 1307.07 598.109 1307.07 595.709V585.233H1309.77V595.637C1309.77 597.293 1310.23 598.613 1311.17 599.597C1312.11 600.581 1313.32 601.073 1314.81 601.073C1316.32 601.073 1317.6 600.569 1318.66 599.561C1319.71 598.529 1320.24 597.209 1320.24 595.601V585.233H1322.94V603.233H1320.24ZM1331.92 603.233V587.609H1328.25V585.233H1331.92V578.789H1334.62V585.233H1338.76V587.609H1334.62V603.233H1331.92ZM1022.13 633.149C1023.59 631.013 1025.74 629.945 1028.57 629.945C1031.16 629.945 1033.26 630.845 1034.87 632.645C1036.48 634.421 1037.28 636.617 1037.28 639.233C1037.28 641.849 1036.48 644.045 1034.87 645.821C1033.26 647.621 1031.09 648.521 1028.36 648.521C1025.64 648.521 1023.57 647.465 1022.13 645.353V648.233H1019.43V623.033H1022.13V633.149ZM1028.21 646.073C1030.13 646.073 1031.69 645.401 1032.89 644.057C1034.02 642.785 1034.58 641.177 1034.58 639.233C1034.58 637.289 1034.02 635.681 1032.89 634.409C1031.69 633.065 1030.13 632.393 1028.21 632.393C1026.27 632.393 1024.73 633.065 1023.6 634.409C1022.52 635.681 1021.98 637.289 1021.98 639.233C1021.98 641.177 1022.52 642.785 1023.6 644.057C1024.73 645.401 1026.27 646.073 1028.21 646.073ZM1051.17 646.073C1053.6 646.073 1055.34 645.065 1056.39 643.049H1059.34C1058.72 644.681 1057.72 646.001 1056.36 647.009C1055.01 648.017 1053.27 648.521 1051.14 648.521C1048.42 648.521 1046.22 647.621 1044.51 645.821C1042.86 644.069 1042.03 641.873 1042.03 639.233C1042.03 636.569 1042.82 634.373 1044.4 632.645C1046.08 630.845 1048.27 629.945 1050.96 629.945C1053.64 629.945 1055.83 630.845 1057.51 632.645C1059.09 634.373 1059.88 636.569 1059.88 639.233V640.313H1044.8C1044.99 641.969 1045.65 643.337 1046.78 644.417C1047.93 645.521 1049.4 646.073 1051.17 646.073ZM1050.96 632.393C1049.3 632.393 1047.91 632.909 1046.78 633.941C1045.72 634.925 1045.08 636.209 1044.84 637.793H1057.08C1056.84 636.209 1056.19 634.925 1055.13 633.941C1054 632.909 1052.61 632.393 1050.96 632.393ZM1065.52 630.233H1068.22V648.233H1065.52V630.233ZM1068.33 623.681V627.209H1065.41V623.681H1068.33ZM1077.95 630.233V633.041C1078.59 632.177 1079.39 631.445 1080.32 630.845C1081.26 630.245 1082.33 629.945 1083.53 629.945C1084.73 629.945 1085.76 630.113 1086.62 630.449C1087.49 630.785 1088.24 631.289 1088.89 631.961C1090.38 633.425 1091.12 635.357 1091.12 637.757V648.233H1088.42V637.829C1088.42 636.173 1087.95 634.853 1087.02 633.869C1086.08 632.885 1084.87 632.393 1083.38 632.393C1081.87 632.393 1080.59 632.897 1079.53 633.905C1078.47 634.937 1077.95 636.257 1077.95 637.865V648.233H1075.25V630.233H1077.95ZM1112.02 633.113V630.233H1114.72V647.693C1114.72 650.285 1113.97 652.253 1112.48 653.597C1111.02 654.965 1109.04 655.649 1106.54 655.649C1104.05 655.649 1102.09 655.169 1100.68 654.209C1099.28 653.249 1098.34 651.977 1097.83 650.393H1100.82C1101.59 652.265 1103.34 653.201 1106.08 653.201C1108.16 653.201 1109.68 652.721 1110.61 651.761C1111.55 650.801 1112.02 649.385 1112.02 647.513V645.029C1110.55 647.165 1108.4 648.233 1105.57 648.233C1102.98 648.233 1100.87 647.345 1099.24 645.569C1097.65 643.841 1096.86 641.681 1096.86 639.089C1096.86 636.497 1097.65 634.337 1099.24 632.609C1100.87 630.833 1103.04 629.945 1105.75 629.945C1108.49 629.945 1110.58 631.001 1112.02 633.113ZM1105.93 645.785C1106.92 645.785 1107.79 645.617 1108.56 645.281C1109.33 644.921 1109.99 644.441 1110.54 643.841C1111.62 642.593 1112.16 641.009 1112.16 639.089C1112.16 637.169 1111.62 635.585 1110.54 634.337C1109.36 633.041 1107.83 632.393 1105.93 632.393C1103.99 632.393 1102.43 633.041 1101.25 634.337C1100.12 635.609 1099.56 637.193 1099.56 639.089C1099.56 640.985 1100.12 642.569 1101.25 643.841C1102.43 645.137 1103.99 645.785 1105.93 645.785ZM1145.77 645.353C1144.33 647.465 1142.18 648.521 1139.33 648.521C1136.73 648.521 1134.62 647.621 1132.99 645.821C1131.41 644.045 1130.61 641.849 1130.61 639.233C1130.61 636.617 1131.41 634.421 1132.99 632.645C1134.62 630.845 1136.79 629.945 1139.51 629.945C1142.22 629.945 1144.31 631.013 1145.77 633.149V630.233H1148.47V648.233H1145.77V645.353ZM1139.69 646.073C1141.63 646.073 1143.17 645.401 1144.29 644.057C1145.37 642.785 1145.91 641.177 1145.91 639.233C1145.91 637.289 1145.37 635.681 1144.29 634.409C1143.17 633.065 1141.63 632.393 1139.69 632.393C1137.77 632.393 1136.21 633.065 1135.01 634.409C1133.88 635.681 1133.31 637.289 1133.31 639.233C1133.31 641.177 1133.88 642.785 1135.01 644.057C1136.21 645.401 1137.77 646.073 1139.69 646.073ZM1168.18 633.149C1169.65 631.013 1171.8 629.945 1174.63 629.945C1177.22 629.945 1179.32 630.845 1180.93 632.645C1182.54 634.421 1183.34 636.617 1183.34 639.233C1183.34 641.849 1182.54 644.045 1180.93 645.821C1179.32 647.621 1177.15 648.521 1174.41 648.521C1171.7 648.521 1169.62 647.465 1168.18 645.353V648.233H1165.48V623.033H1168.18V633.149ZM1174.27 646.073C1176.19 646.073 1177.75 645.401 1178.95 644.057C1180.08 642.785 1180.64 641.177 1180.64 639.233C1180.64 637.289 1180.08 635.681 1178.95 634.409C1177.75 633.065 1176.19 632.393 1174.27 632.393C1172.32 632.393 1170.79 633.065 1169.66 634.409C1168.58 635.681 1168.04 637.289 1168.04 639.233C1168.04 641.177 1168.58 642.785 1169.66 644.057C1170.79 645.401 1172.32 646.073 1174.27 646.073ZM1202.2 648.233V645.425C1201.55 646.289 1200.76 647.021 1199.82 647.621C1198.88 648.221 1197.82 648.521 1196.62 648.521C1195.42 648.521 1194.38 648.353 1193.52 648.017C1192.66 647.681 1191.9 647.177 1191.25 646.505C1189.76 645.041 1189.02 643.109 1189.02 640.709V630.233H1191.72V640.637C1191.72 642.293 1192.19 643.613 1193.12 644.597C1194.06 645.581 1195.27 646.073 1196.76 646.073C1198.27 646.073 1199.56 645.569 1200.61 644.561C1201.67 643.529 1202.2 642.209 1202.2 640.601V630.233H1204.9V648.233H1202.2ZM1222.51 635.057C1222.27 633.185 1220.76 632.249 1217.98 632.249C1215.22 632.249 1213.84 633.113 1213.84 634.841C1213.84 635.561 1214.13 636.113 1214.7 636.497C1215.3 636.857 1216.05 637.157 1216.93 637.397C1217.82 637.637 1218.78 637.865 1219.81 638.081C1220.87 638.273 1221.84 638.561 1222.73 638.945C1223.62 639.305 1224.35 639.809 1224.93 640.457C1225.53 641.105 1225.83 641.993 1225.83 643.121C1225.83 644.873 1225.17 646.217 1223.85 647.153C1222.53 648.065 1220.74 648.521 1218.48 648.521C1216.08 648.521 1214.17 647.921 1212.76 646.721C1211.46 645.665 1210.77 644.285 1210.67 642.581H1213.48C1213.65 644.237 1214.58 645.353 1216.29 645.929C1216.91 646.121 1217.52 646.217 1218.12 646.217C1218.75 646.217 1219.32 646.181 1219.85 646.109C1220.38 646.037 1220.89 645.905 1221.4 645.713C1222.55 645.257 1223.13 644.477 1223.13 643.373C1223.13 642.629 1222.83 642.065 1222.23 641.681C1221.65 641.273 1220.92 640.949 1220.03 640.709C1219.14 640.445 1218.17 640.217 1217.11 640.025C1216.08 639.809 1215.12 639.521 1214.23 639.161C1213.35 638.801 1212.6 638.309 1212 637.685C1211.43 637.061 1211.14 636.197 1211.14 635.093C1211.14 633.461 1211.73 632.201 1212.9 631.313C1214.1 630.401 1215.87 629.945 1218.19 629.945C1220.4 629.945 1222.14 630.473 1223.41 631.529C1224.47 632.417 1225.08 633.593 1225.25 635.057H1222.51ZM1231.64 630.233H1234.34V648.233H1231.64V630.233ZM1234.45 623.681V627.209H1231.53V623.681H1234.45ZM1244.06 630.233V633.041C1244.71 632.177 1245.5 631.445 1246.44 630.845C1247.37 630.245 1248.44 629.945 1249.64 629.945C1250.84 629.945 1251.87 630.113 1252.74 630.449C1253.6 630.785 1254.36 631.289 1255 631.961C1256.49 633.425 1257.24 635.357 1257.24 637.757V648.233H1254.54V637.829C1254.54 636.173 1254.07 634.853 1253.13 633.869C1252.2 632.885 1250.98 632.393 1249.5 632.393C1247.98 632.393 1246.7 632.897 1245.64 633.905C1244.59 634.937 1244.06 636.257 1244.06 637.865V648.233H1241.36V630.233H1244.06ZM1272.12 646.073C1274.54 646.073 1276.28 645.065 1277.34 643.049H1280.29C1279.67 644.681 1278.67 646.001 1277.3 647.009C1275.96 648.017 1274.22 648.521 1272.08 648.521C1269.37 648.521 1267.16 647.621 1265.46 645.821C1263.8 644.069 1262.97 641.873 1262.97 639.233C1262.97 636.569 1263.77 634.373 1265.35 632.645C1267.03 630.845 1269.21 629.945 1271.9 629.945C1274.59 629.945 1276.77 630.845 1278.45 632.645C1280.04 634.373 1280.83 636.569 1280.83 639.233V640.313H1265.75C1265.94 641.969 1266.6 643.337 1267.73 644.417C1268.88 645.521 1270.34 646.073 1272.12 646.073ZM1271.9 632.393C1270.25 632.393 1268.85 632.909 1267.73 633.941C1266.67 634.925 1266.02 636.209 1265.78 637.793H1278.02C1277.78 636.209 1277.13 634.925 1276.08 633.941C1274.95 632.909 1273.56 632.393 1271.9 632.393ZM1297.05 635.057C1296.81 633.185 1295.3 632.249 1292.52 632.249C1289.76 632.249 1288.38 633.113 1288.38 634.841C1288.38 635.561 1288.67 636.113 1289.24 636.497C1289.84 636.857 1290.59 637.157 1291.47 637.397C1292.36 637.637 1293.32 637.865 1294.35 638.081C1295.41 638.273 1296.38 638.561 1297.27 638.945C1298.16 639.305 1298.89 639.809 1299.47 640.457C1300.07 641.105 1300.37 641.993 1300.37 643.121C1300.37 644.873 1299.71 646.217 1298.39 647.153C1297.07 648.065 1295.28 648.521 1293.02 648.521C1290.62 648.521 1288.71 647.921 1287.3 646.721C1286 645.665 1285.31 644.285 1285.21 642.581H1288.02C1288.19 644.237 1289.12 645.353 1290.83 645.929C1291.45 646.121 1292.06 646.217 1292.66 646.217C1293.29 646.217 1293.86 646.181 1294.39 646.109C1294.92 646.037 1295.43 645.905 1295.94 645.713C1297.09 645.257 1297.67 644.477 1297.67 643.373C1297.67 642.629 1297.37 642.065 1296.77 641.681C1296.19 641.273 1295.46 640.949 1294.57 640.709C1293.68 640.445 1292.71 640.217 1291.65 640.025C1290.62 639.809 1289.66 639.521 1288.77 639.161C1287.89 638.801 1287.14 638.309 1286.54 637.685C1285.97 637.061 1285.68 636.197 1285.68 635.093C1285.68 633.461 1286.27 632.201 1287.44 631.313C1288.64 630.401 1290.41 629.945 1292.73 629.945C1294.94 629.945 1296.68 630.473 1297.95 631.529C1299.01 632.417 1299.62 633.593 1299.79 635.057H1297.05ZM1316.76 635.057C1316.52 633.185 1315.01 632.249 1312.22 632.249C1309.46 632.249 1308.08 633.113 1308.08 634.841C1308.08 635.561 1308.37 636.113 1308.95 636.497C1309.55 636.857 1310.29 637.157 1311.18 637.397C1312.07 637.637 1313.03 637.865 1314.06 638.081C1315.12 638.273 1316.09 638.561 1316.98 638.945C1317.86 639.305 1318.6 639.809 1319.17 640.457C1319.77 641.105 1320.07 641.993 1320.07 643.121C1320.07 644.873 1319.41 646.217 1318.09 647.153C1316.77 648.065 1314.98 648.521 1312.73 648.521C1310.33 648.521 1308.42 647.921 1307 646.721C1305.71 645.665 1305.01 644.285 1304.92 642.581H1307.72C1307.89 644.237 1308.83 645.353 1310.53 645.929C1311.16 646.121 1311.77 646.217 1312.37 646.217C1312.99 646.217 1313.57 646.181 1314.1 646.109C1314.62 646.037 1315.14 645.905 1315.64 645.713C1316.8 645.257 1317.37 644.477 1317.37 643.373C1317.37 642.629 1317.07 642.065 1316.47 641.681C1315.9 641.273 1315.16 640.949 1314.28 640.709C1313.39 640.445 1312.42 640.217 1311.36 640.025C1310.33 639.809 1309.37 639.521 1308.48 639.161C1307.59 638.801 1306.85 638.309 1306.25 637.685C1305.67 637.061 1305.38 636.197 1305.38 635.093C1305.38 633.461 1305.97 632.201 1307.15 631.313C1308.35 630.401 1310.11 629.945 1312.44 629.945C1314.65 629.945 1316.39 630.473 1317.66 631.529C1318.72 632.417 1319.33 633.593 1319.5 635.057H1316.76ZM1349.93 645.353C1348.49 647.465 1346.34 648.521 1343.48 648.521C1340.89 648.521 1338.78 647.621 1337.15 645.821C1335.56 644.045 1334.77 641.849 1334.77 639.233C1334.77 636.617 1335.56 634.421 1337.15 632.645C1338.78 630.845 1340.95 629.945 1343.66 629.945C1346.38 629.945 1348.46 631.013 1349.93 633.149V630.233H1352.63V648.233H1349.93V645.353ZM1343.84 646.073C1345.79 646.073 1347.32 645.401 1348.45 644.057C1349.53 642.785 1350.07 641.177 1350.07 639.233C1350.07 637.289 1349.53 635.681 1348.45 634.409C1347.32 633.065 1345.79 632.393 1343.84 632.393C1341.92 632.393 1340.36 633.065 1339.16 634.409C1338.04 635.681 1337.47 637.289 1337.47 639.233C1337.47 641.177 1338.04 642.785 1339.16 644.057C1340.36 645.401 1341.92 646.073 1343.84 646.073ZM1362.34 630.233V633.041C1362.99 632.177 1363.78 631.445 1364.71 630.845C1365.65 630.245 1366.72 629.945 1367.92 629.945C1369.12 629.945 1370.15 630.113 1371.01 630.449C1371.88 630.785 1372.63 631.289 1373.28 631.961C1374.77 633.425 1375.51 635.357 1375.51 637.757V648.233H1372.81V637.829C1372.81 636.173 1372.35 634.853 1371.41 633.869C1370.47 632.885 1369.26 632.393 1367.77 632.393C1366.26 632.393 1364.98 632.897 1363.92 633.905C1362.87 634.937 1362.34 636.257 1362.34 637.865V648.233H1359.64V630.233H1362.34ZM1396.41 645.353C1394.97 647.465 1392.82 648.521 1389.96 648.521C1387.37 648.521 1385.26 647.621 1383.63 645.821C1382.04 644.045 1381.25 641.849 1381.25 639.233C1381.25 636.617 1382.04 634.421 1383.63 632.645C1385.26 630.845 1387.43 629.945 1390.14 629.945C1392.86 629.945 1394.94 631.013 1396.41 633.149V630.233H1399.11V648.233H1396.41V645.353ZM1390.32 646.073C1392.27 646.073 1393.8 645.401 1394.93 644.057C1396.01 642.785 1396.55 641.177 1396.55 639.233C1396.55 637.289 1396.01 635.681 1394.93 634.409C1393.8 633.065 1392.27 632.393 1390.32 632.393C1388.4 632.393 1386.84 633.065 1385.64 634.409C1384.52 635.681 1383.95 637.289 1383.95 639.233C1383.95 641.177 1384.52 642.785 1385.64 644.057C1386.84 645.401 1388.4 646.073 1390.32 646.073ZM1408.82 648.233H1406.12V623.033H1408.82V648.233ZM1420.63 655.361H1417.71L1420.99 647.981L1413.65 630.233H1416.63L1422.43 644.993L1428.33 630.233H1431.29L1420.63 655.361ZM1446.66 635.057C1446.42 633.185 1444.91 632.249 1442.12 632.249C1439.36 632.249 1437.98 633.113 1437.98 634.841C1437.98 635.561 1438.27 636.113 1438.85 636.497C1439.45 636.857 1440.19 637.157 1441.08 637.397C1441.97 637.637 1442.93 637.865 1443.96 638.081C1445.02 638.273 1445.99 638.561 1446.88 638.945C1447.76 639.305 1448.5 639.809 1449.07 640.457C1449.67 641.105 1449.97 641.993 1449.97 643.121C1449.97 644.873 1449.31 646.217 1447.99 647.153C1446.67 648.065 1444.88 648.521 1442.63 648.521C1440.23 648.521 1438.32 647.921 1436.9 646.721C1435.61 645.665 1434.91 644.285 1434.82 642.581H1437.62C1437.79 644.237 1438.73 645.353 1440.43 645.929C1441.06 646.121 1441.67 646.217 1442.27 646.217C1442.89 646.217 1443.47 646.181 1444 646.109C1444.52 646.037 1445.04 645.905 1445.54 645.713C1446.7 645.257 1447.27 644.477 1447.27 643.373C1447.27 642.629 1446.97 642.065 1446.37 641.681C1445.8 641.273 1445.06 640.949 1444.18 640.709C1443.29 640.445 1442.32 640.217 1441.26 640.025C1440.23 639.809 1439.27 639.521 1438.38 639.161C1437.49 638.801 1436.75 638.309 1436.15 637.685C1435.57 637.061 1435.28 636.197 1435.28 635.093C1435.28 633.461 1435.87 632.201 1437.05 631.313C1438.25 630.401 1440.01 629.945 1442.34 629.945C1444.55 629.945 1446.29 630.473 1447.56 631.529C1448.62 632.417 1449.23 633.593 1449.4 635.057H1446.66ZM1457.73 648.233V632.609H1454.06V630.233H1457.73V623.789H1460.43V630.233H1464.57V632.609H1460.43V648.233H1457.73Z" fill="white"/>
<g filter="url(#filter0_d)">
<rect x="1017.09" y="757.344" width="319" height="140" rx="70" fill="#FF4B78"/>
<path d="M1137.14 813.949C1138.74 813.949 1140.28 814.049 1141.77 814.248C1143.27 814.436 1144.61 814.764 1145.79 815.233C1146.99 815.69 1147.97 816.311 1148.73 817.096C1149.5 817.881 1149.95 818.86 1150.08 820.031L1145.51 821.297C1145.51 820.594 1145.27 820.02 1144.79 819.574C1144.32 819.117 1143.69 818.76 1142.91 818.502C1142.14 818.233 1141.24 818.045 1140.24 817.94C1139.24 817.834 1138.21 817.781 1137.14 817.781C1136.1 817.781 1135.07 817.828 1134.07 817.922C1133.06 818.016 1132.15 818.192 1131.34 818.449C1130.55 818.707 1129.9 819.065 1129.41 819.522C1128.92 819.979 1128.67 820.571 1128.67 821.297V825.481H1150.08V834.586C1150.08 835.371 1149.9 836.074 1149.55 836.696C1149.21 837.305 1148.74 837.838 1148.13 838.295C1147.53 838.74 1146.82 839.121 1145.98 839.438C1145.16 839.742 1144.27 839.989 1143.31 840.176C1142.36 840.364 1141.36 840.498 1140.31 840.58C1139.25 840.662 1138.2 840.703 1137.14 840.703C1136.06 840.703 1135 840.662 1133.96 840.58C1132.92 840.498 1131.93 840.364 1130.99 840.176C1130.05 839.989 1129.18 839.742 1128.37 839.438C1127.57 839.121 1126.87 838.74 1126.26 838.295C1125.65 837.838 1125.16 837.305 1124.79 836.696C1124.41 836.086 1124.18 835.383 1124.1 834.586L1128.67 833.321C1128.67 834.047 1128.92 834.639 1129.41 835.096C1129.9 835.553 1130.55 835.91 1131.34 836.168C1132.15 836.426 1133.06 836.602 1134.07 836.696C1135.07 836.789 1136.1 836.836 1137.14 836.836C1138.21 836.836 1139.24 836.789 1140.24 836.696C1141.24 836.59 1142.14 836.408 1142.91 836.151C1143.69 835.881 1144.32 835.518 1144.79 835.061C1145.27 834.604 1145.51 834.024 1145.51 833.321V829.031H1124.1V820.031C1124.1 819.246 1124.27 818.555 1124.61 817.957C1124.96 817.348 1125.44 816.821 1126.03 816.375C1126.64 815.918 1127.36 815.537 1128.2 815.233C1129.03 814.916 1129.92 814.664 1130.89 814.477C1131.86 814.289 1132.87 814.155 1133.93 814.073C1134.99 813.99 1136.06 813.949 1137.14 813.949Z" fill="white"/>
<path d="M1160.52 820.453H1164.99V823.406H1160.52V840.739H1156.34V823.406H1153.03V820.453H1156.34V814.336H1160.52V820.453Z" fill="white"/>
<path d="M1188.89 833.567C1188.6 833.309 1188.24 833.057 1187.8 832.811C1187.37 832.565 1186.84 832.348 1186.2 832.16C1185.57 831.961 1184.81 831.803 1183.94 831.686C1183.07 831.557 1182.05 831.492 1180.88 831.492C1179.83 831.492 1178.84 831.516 1177.91 831.563C1176.98 831.598 1176.17 831.715 1175.46 831.914C1174.76 832.102 1174.2 832.406 1173.79 832.828C1173.38 833.25 1173.18 833.836 1173.18 834.586V836.836C1174.21 837 1175.35 837.135 1176.59 837.24C1177.83 837.346 1179.21 837.399 1180.74 837.399C1181.96 837.399 1183.25 837.358 1184.62 837.276C1186 837.182 1187.43 837 1188.89 836.731V833.567ZM1180.98 820.699C1181.57 820.699 1182.28 820.729 1183.11 820.787C1183.94 820.846 1184.81 820.951 1185.71 821.104C1186.61 821.244 1187.5 821.444 1188.38 821.701C1189.27 821.948 1190.07 822.276 1190.77 822.686C1191.49 823.084 1192.06 823.565 1192.5 824.127C1192.93 824.69 1193.15 825.352 1193.15 826.114V839.719C1192.16 839.918 1191.05 840.088 1189.81 840.229C1188.74 840.358 1187.47 840.475 1185.99 840.58C1184.52 840.686 1182.87 840.739 1181.05 840.739C1179.25 840.739 1177.33 840.662 1175.29 840.51C1173.26 840.358 1171.14 840.094 1168.92 839.719V833.391C1168.92 832.711 1169.08 832.119 1169.4 831.615C1169.73 831.1 1170.17 830.66 1170.73 830.297C1171.3 829.934 1171.96 829.635 1172.72 829.401C1173.48 829.166 1174.3 828.979 1175.18 828.838C1176.06 828.698 1176.98 828.604 1177.92 828.557C1178.87 828.498 1179.82 828.469 1180.77 828.469C1182.21 828.469 1183.44 828.563 1184.45 828.75C1185.47 828.926 1186.31 829.119 1186.98 829.33C1187.75 829.588 1188.39 829.875 1188.89 830.192V827.344C1188.89 826.864 1188.78 826.453 1188.54 826.114C1188.31 825.762 1187.99 825.469 1187.59 825.235C1187.19 824.989 1186.74 824.795 1186.22 824.655C1185.71 824.502 1185.17 824.385 1184.6 824.303C1184.04 824.221 1183.47 824.168 1182.88 824.145C1182.31 824.121 1181.77 824.11 1181.26 824.11C1180.74 824.11 1180.17 824.127 1179.58 824.162C1178.98 824.186 1178.38 824.239 1177.78 824.321C1177.2 824.403 1176.63 824.52 1176.08 824.672C1175.54 824.813 1175.06 825.006 1174.64 825.252C1174.22 825.498 1173.88 825.797 1173.62 826.149C1173.37 826.489 1173.25 826.899 1173.25 827.379L1168.89 826.254C1168.89 825.469 1169.08 824.789 1169.47 824.215C1169.86 823.629 1170.37 823.131 1171 822.721C1171.64 822.311 1172.38 821.977 1173.21 821.719C1174.05 821.449 1174.91 821.244 1175.8 821.104C1176.7 820.951 1177.6 820.846 1178.49 820.787C1179.38 820.729 1180.21 820.699 1180.98 820.699Z" fill="white"/>
<path d="M1214.28 820.699C1214.28 821.918 1214.23 823.19 1214.15 824.514C1214.07 825.826 1213.91 827.18 1213.68 828.574H1209.42C1209.53 828.176 1209.63 827.742 1209.72 827.274C1209.79 826.875 1209.86 826.412 1209.92 825.885C1209.99 825.346 1210.02 824.778 1210.02 824.18C1208.99 824.203 1208.14 824.303 1207.46 824.479C1206.79 824.643 1206.23 824.842 1205.79 825.076C1205.34 825.299 1204.98 825.528 1204.7 825.762C1204.41 825.996 1204.16 826.184 1203.94 826.324V840.739H1199.44V826.219C1199.39 825.844 1199.28 825.528 1199.11 825.27C1198.94 825.012 1198.77 824.801 1198.58 824.637C1198.37 824.438 1198.13 824.274 1197.86 824.145L1199.72 820.699C1200.15 820.852 1200.58 821.057 1201 821.315C1201.37 821.537 1201.75 821.824 1202.15 822.176C1202.56 822.516 1202.92 822.938 1203.24 823.442C1203.83 823.031 1204.39 822.686 1204.89 822.405C1205.39 822.112 1205.88 821.865 1206.35 821.666C1206.83 821.467 1207.32 821.315 1207.82 821.209C1208.34 821.092 1208.9 820.998 1209.51 820.928C1210.13 820.858 1210.82 820.811 1211.59 820.787C1212.36 820.752 1213.26 820.723 1214.28 820.699Z" fill="white"/>
<path d="M1224.61 820.453H1229.08V823.406H1224.61V840.739H1220.43V823.406H1217.12V820.453H1220.43V814.336H1224.61V820.453Z" fill="white"/>
</g>
<rect x="1484.59" y="809.955" width="57" height="17" rx="8.5" transform="rotate(-90 1484.59 809.955)" stroke="black" stroke-width="3"/>
<path d="M1500.09 761.455C1500.09 757.589 1496.95 754.455 1493.09 754.455C1489.22 754.455 1486.09 757.589 1486.09 761.455L1486.09 775.248L1483.09 776.364L1483.09 761.455C1483.09 755.932 1487.57 751.455 1493.09 751.455C1498.61 751.455 1503.09 755.932 1503.09 761.455L1503.09 768.777L1500.09 770.026L1500.09 761.455Z" fill="white"/>
<circle cx="1493.09" cy="881.455" r="8.5" transform="rotate(-90 1493.09 881.455)" fill="black" stroke="black" stroke-width="3"/>
<circle cx="1493.09" cy="841.455" r="8.5" transform="rotate(-90 1493.09 841.455)" fill="black" stroke="black" stroke-width="3"/>
</g>
<defs>
<filter id="filter0_d" x="967.088" y="707.344" width="559" height="380" filterUnits="userSpaceOnUse" color-interpolation-filters="sRGB">
<feFlood flood-opacity="0" result="BackgroundImageFix"/>
<feColorMatrix in="SourceAlpha" type="matrix" values="0 0 0 0 0 0 0 0 0 0 0 0 0 0 0 0 0 0 127 0"/>
<feOffset dx="70" dy="70"/>
<feGaussianBlur stdDeviation="60"/>
<feColorMatrix type="matrix" values="0 0 0 0 0.9 0 0 0 0 0 0 0 0 0 0 0 0 0 0.16 0"/>
<feBlend mode="normal" in2="BackgroundImageFix" result="effect1_dropShadow"/>
<feBlend mode="normal" in="SourceGraphic" in2="effect1_dropShadow" result="shape"/>
</filter>
<clipPath id="clip0">
<rect width="1600" height="1200" fill="white" transform="translate(0.785645 0.121338)"/>
</clipPath>
</defs>
</svg>
