<svg width="1600" height="1201" viewBox="0 0 1600 1201" fill="none" xmlns="http://www.w3.org/2000/svg">
<g clip-path="url(#clip0)">
<rect width="1600" height="1200" transform="translate(0 0.423828)" fill="black"/>
<path fill-rule="evenodd" clip-rule="evenodd" d="M1826.89 502.424L1702.81 582.508C1578.73 662.592 1330.58 822.759 1082.42 822.759C834.262 822.759 586.104 662.591 337.946 689.286C89.7887 715.981 -158.369 929.537 -406.527 1049.66C-654.684 1169.79 -902.842 1196.48 -1026.92 1209.83L-1151 1223.18L-1026.92 1223.18C-902.842 1223.18 -654.684 1223.18 -406.527 1223.18C-158.369 1223.18 89.7886 1223.18 337.946 1223.18C586.104 1223.18 834.262 1223.18 1082.42 1223.18C1330.58 1223.18 1578.73 1223.18 1702.81 1223.18L1826.89 1223.18L1826.89 502.424Z" fill="white"/>
<g filter="url(#filter0_d)">
<rect x="97" y="318.424" width="839" height="537" rx="48" fill="white"/>
</g>
<path fill-rule="evenodd" clip-rule="evenodd" d="M933.809 627.424C932.6 627.424 931.619 626.402 931.619 625.142L931.619 316.988C931.619 285.508 906.099 259.988 874.619 259.988L158.381 259.988C126.901 259.988 101.381 285.508 101.381 316.988L101.381 409.461C101.381 410.721 100.4 411.743 99.1906 411.743C97.9808 411.743 97 410.721 97 409.461L97 312.424C97 280.944 122.52 255.424 154 255.424L879 255.424C910.48 255.424 936 280.944 936 312.424L936 625.142C936 626.402 935.019 627.424 933.809 627.424Z" fill="white"/>
<rect x="1483.8" y="744.924" width="57" height="17" rx="8.5" transform="rotate(-90 1483.8 744.924)" stroke="black" stroke-width="3"/>
<path d="M1499.3 696.424C1499.3 692.558 1496.17 689.424 1492.3 689.424C1488.44 689.424 1485.3 692.558 1485.3 696.424L1485.3 710.217L1482.3 711.333L1482.3 696.424C1482.3 690.901 1486.78 686.424 1492.3 686.424C1497.83 686.424 1502.3 690.901 1502.3 696.424L1502.3 703.745L1499.3 704.995L1499.3 696.424Z" fill="white"/>
<circle cx="1492.3" cy="816.424" r="8.5" transform="rotate(-90 1492.3 816.424)" fill="black" stroke="black" stroke-width="3"/>
<circle cx="1492.3" cy="776.424" r="8.5" transform="rotate(-90 1492.3 776.424)" fill="black" stroke="black" stroke-width="3"/>
<path d="M1026.61 424.322L1044.96 396.197C1046.95 396.314 1048.84 396.467 1050.62 396.654C1052.4 396.818 1053.96 396.994 1055.29 397.182C1056.87 397.393 1058.32 397.604 1059.65 397.814V405.9L1053.12 404.424V440.705L1059.65 439.229V447.947C1057.17 448.439 1054.72 448.803 1052.31 449.037C1049.89 449.271 1047.44 449.447 1044.96 449.564V410.963L1026.61 439.439L1007.97 410.893V449.564C1005.98 449.447 1004.1 449.307 1002.31 449.143C1000.53 448.979 998.975 448.803 997.639 448.615C996.068 448.404 994.615 448.182 993.279 447.947V439.229L999.818 440.705V404.354L993.279 405.83V397.744C994.615 397.533 996.068 397.322 997.639 397.111C998.975 396.924 1000.53 396.748 1002.31 396.584C1004.1 396.396 1005.98 396.244 1007.97 396.127L1026.61 424.322ZM1095.16 408.713C1097.13 408.713 1099.09 408.807 1101.03 408.994C1103 409.182 1104.89 409.486 1106.69 409.908C1108.5 410.33 1110.19 410.857 1111.76 411.49C1113.33 412.123 1114.69 412.885 1115.83 413.775C1117.01 414.666 1117.92 415.697 1118.58 416.869C1119.23 418.018 1119.56 419.307 1119.56 420.736V438.947C1119.56 440.213 1119.23 441.373 1118.58 442.428C1117.92 443.482 1117.01 444.432 1115.83 445.275C1114.69 446.096 1113.33 446.811 1111.76 447.42C1110.19 448.029 1108.5 448.533 1106.69 448.932C1104.89 449.33 1103 449.623 1101.03 449.811C1099.06 450.021 1097.11 450.127 1095.16 450.127C1093.22 450.127 1091.26 450.021 1089.29 449.811C1087.35 449.623 1085.47 449.33 1083.67 448.932C1081.86 448.533 1080.17 448.029 1078.6 447.42C1077.06 446.811 1075.7 446.096 1074.53 445.275C1073.38 444.432 1072.47 443.494 1071.82 442.463C1071.16 441.408 1070.83 440.236 1070.83 438.947V420.736C1070.83 419.307 1071.16 418.018 1071.82 416.869C1072.47 415.697 1073.38 414.666 1074.53 413.775C1075.7 412.885 1077.06 412.123 1078.6 411.49C1080.17 410.857 1081.86 410.33 1083.67 409.908C1085.47 409.486 1087.35 409.182 1089.29 408.994C1091.26 408.807 1093.22 408.713 1095.16 408.713ZM1079.76 436.697C1079.76 437.775 1080.21 438.713 1081.1 439.51C1082.01 440.283 1083.2 440.939 1084.65 441.479C1086.1 441.994 1087.74 442.381 1089.57 442.639C1091.42 442.896 1093.29 443.025 1095.16 443.025C1097.13 443.025 1099.03 442.885 1100.86 442.604C1102.71 442.322 1104.35 441.924 1105.78 441.408C1107.21 440.869 1108.35 440.213 1109.19 439.439C1110.06 438.643 1110.49 437.729 1110.49 436.697V422.072C1110.49 421.064 1110.06 420.162 1109.19 419.365C1108.35 418.545 1107.21 417.865 1105.78 417.326C1104.35 416.764 1102.71 416.342 1100.86 416.061C1099.03 415.756 1097.13 415.604 1095.16 415.604C1093.29 415.604 1091.42 415.744 1089.57 416.025C1087.74 416.283 1086.1 416.682 1084.65 417.221C1083.2 417.76 1082.01 418.439 1081.1 419.26C1080.21 420.057 1079.76 420.994 1079.76 422.072V436.697ZM1159.36 409.346C1159.36 411.783 1159.28 414.326 1159.11 416.975C1158.95 419.6 1158.63 422.307 1158.16 425.096H1149.65C1149.87 424.299 1150.06 423.432 1150.25 422.494C1150.39 421.697 1150.52 420.771 1150.64 419.717C1150.78 418.639 1150.85 417.502 1150.85 416.307C1148.79 416.354 1147.08 416.553 1145.72 416.904C1144.38 417.232 1143.27 417.631 1142.38 418.1C1141.49 418.545 1140.76 419.002 1140.2 419.471C1139.63 419.939 1139.13 420.314 1138.69 420.596V449.424H1129.69V420.385C1129.59 419.635 1129.37 419.002 1129.02 418.486C1128.69 417.971 1128.34 417.549 1127.96 417.221C1127.54 416.822 1127.06 416.494 1126.52 416.236L1130.25 409.346C1131.12 409.65 1131.97 410.061 1132.81 410.576C1133.54 411.021 1134.3 411.596 1135.1 412.299C1135.92 412.979 1136.65 413.822 1137.28 414.83C1138.47 414.01 1139.58 413.318 1140.58 412.756C1141.59 412.17 1142.56 411.678 1143.5 411.279C1144.46 410.881 1145.45 410.576 1146.46 410.365C1147.49 410.131 1148.61 409.943 1149.83 409.803C1151.07 409.662 1152.46 409.568 1153.98 409.521C1155.53 409.451 1157.32 409.393 1159.36 409.346ZM1192.69 409.346C1193.88 409.346 1195.32 409.404 1197.01 409.521C1198.7 409.639 1200.44 409.85 1202.25 410.154C1204.08 410.436 1205.88 410.846 1207.66 411.385C1209.44 411.9 1211.04 412.568 1212.44 413.389C1213.87 414.209 1215.02 415.205 1215.89 416.377C1216.78 417.525 1217.22 418.885 1217.22 420.455V432.338H1176.94V441.338C1179.77 441.736 1182.5 442.018 1185.13 442.182C1187.75 442.322 1190.27 442.393 1192.69 442.393C1196.37 442.393 1199.69 442.252 1202.67 441.971C1205.67 441.689 1208.26 441.373 1210.44 441.021C1212.95 440.623 1215.21 440.166 1217.22 439.65V447.455C1212.77 448.158 1208.47 448.662 1204.32 448.967C1200.2 449.271 1196.32 449.424 1192.69 449.424C1189.03 449.424 1185.71 449.33 1182.74 449.143C1179.76 448.932 1177.21 448.697 1175.07 448.439C1172.59 448.158 1170.35 447.83 1168.36 447.455V420.455C1168.36 418.885 1168.74 417.525 1169.52 416.377C1170.29 415.205 1171.32 414.209 1172.61 413.389C1173.9 412.568 1175.38 411.9 1177.04 411.385C1178.73 410.846 1180.47 410.436 1182.28 410.154C1184.08 409.85 1185.88 409.639 1187.66 409.521C1189.46 409.404 1191.14 409.346 1192.69 409.346ZM1176.94 426.713H1208.51V422.635C1208.51 421.674 1208.27 420.854 1207.8 420.174C1207.33 419.471 1206.7 418.885 1205.9 418.416C1205.13 417.947 1204.22 417.572 1203.16 417.291C1202.13 416.986 1201.05 416.764 1199.93 416.623C1198.8 416.459 1197.67 416.354 1196.52 416.307C1195.39 416.26 1194.33 416.236 1193.32 416.236C1192.26 416.236 1191.13 416.26 1189.91 416.307C1188.71 416.354 1187.51 416.459 1186.29 416.623C1185.07 416.787 1183.9 417.021 1182.77 417.326C1181.65 417.607 1180.65 417.994 1179.78 418.486C1178.92 418.955 1178.22 419.541 1177.71 420.244C1177.19 420.924 1176.94 421.744 1176.94 422.705V426.713ZM1017.33 467.51C1018.78 467.51 1020.26 467.662 1021.76 467.967C1023.26 468.248 1024.59 468.635 1025.76 469.127C1027.83 472.736 1029.7 476.416 1031.39 480.166C1033.1 483.893 1034.62 487.736 1035.96 491.697C1036.87 491.814 1037.8 491.943 1038.74 492.084C1039.67 492.201 1040.62 492.33 1041.58 492.471V501.471L1038.56 500.627C1039.4 504.119 1040.12 507.682 1040.71 511.314C1041.29 514.947 1041.72 518.65 1042.01 522.424H1033.64C1033.29 518.393 1032.7 514.408 1031.88 510.471C1031.06 506.533 1030.12 502.76 1029.07 499.15C1026.79 498.963 1024.63 498.822 1022.56 498.729C1020.53 498.635 1018.78 498.588 1017.33 498.588C1015.38 498.588 1013.45 498.623 1011.53 498.693C1009.6 498.764 1007.67 498.893 1005.72 499.08C1004.67 502.689 1003.72 506.463 1002.88 510.4C1002.06 514.338 1001.48 518.346 1001.15 522.424H992.787C993.045 518.65 993.455 514.959 994.018 511.35C994.604 507.74 995.318 504.189 996.162 500.697L993.42 501.471V492.471L998.834 491.697C1000.15 487.736 1001.65 483.893 1003.33 480.166C1005.04 476.416 1006.94 472.736 1009.03 469.127C1010.2 468.635 1011.53 468.248 1013 467.967C1014.48 467.662 1015.92 467.51 1017.33 467.51ZM1017.33 490.643C1018.73 490.643 1020.19 490.666 1021.69 490.713C1023.19 490.736 1024.73 490.807 1026.33 490.924C1025.13 487.666 1023.95 484.842 1022.78 482.451C1021.63 480.037 1020.63 478.174 1019.79 476.861C1019.37 476.674 1018.97 476.545 1018.59 476.475C1018.22 476.404 1017.79 476.369 1017.33 476.369C1016.58 476.369 1015.8 476.533 1015.01 476.861C1014.16 478.174 1013.15 480.037 1011.98 482.451C1010.81 484.842 1009.64 487.666 1008.47 490.924C1010.01 490.807 1011.53 490.736 1013 490.713C1014.5 490.666 1015.94 490.643 1017.33 490.643ZM1075.26 482.346C1078.87 482.346 1082.1 482.604 1084.93 483.119C1087.79 483.611 1090.19 484.385 1092.14 485.439C1094.11 486.494 1095.61 487.83 1096.64 489.447C1097.67 491.064 1098.19 492.986 1098.19 495.213V509.557C1098.19 511.783 1097.67 513.705 1096.64 515.322C1095.61 516.939 1094.11 518.275 1092.14 519.33C1090.19 520.385 1087.79 521.17 1084.93 521.686C1082.1 522.178 1078.87 522.424 1075.26 522.424C1073.25 522.424 1071.19 522.354 1069.08 522.213C1066.97 522.049 1064.93 521.85 1062.96 521.615C1060.99 521.357 1059.14 521.064 1057.4 520.736C1055.67 520.408 1054.19 520.057 1052.97 519.682V468.916H1062.19V484.877C1064.27 484.127 1066.45 483.518 1068.72 483.049C1071.02 482.58 1073.2 482.346 1075.26 482.346ZM1072.73 488.885C1071.51 488.885 1070.4 488.967 1069.39 489.131C1068.38 489.295 1067.45 489.506 1066.58 489.764C1065.74 490.021 1064.95 490.314 1064.22 490.643C1063.5 490.947 1062.82 491.252 1062.19 491.557V513.705C1062.82 513.916 1063.54 514.127 1064.37 514.338C1065.19 514.525 1066.05 514.701 1066.97 514.865C1067.9 515.029 1068.85 515.158 1069.81 515.252C1070.8 515.346 1071.77 515.393 1072.73 515.393C1074.19 515.393 1075.6 515.381 1076.99 515.357C1078.37 515.311 1079.66 515.205 1080.85 515.041C1082.05 514.877 1083.14 514.631 1084.12 514.303C1085.13 513.975 1085.99 513.518 1086.69 512.932C1087.42 512.322 1087.98 511.584 1088.38 510.717C1088.78 509.826 1088.97 508.736 1088.97 507.447V497.111C1088.97 495.26 1088.54 493.795 1087.67 492.717C1086.81 491.615 1085.63 490.783 1084.16 490.221C1082.68 489.658 1080.96 489.295 1078.99 489.131C1077.02 488.967 1074.94 488.885 1072.73 488.885ZM1132.08 481.713C1134.04 481.713 1136 481.807 1137.95 481.994C1139.92 482.182 1141.8 482.486 1143.61 482.908C1145.41 483.33 1147.1 483.857 1148.67 484.49C1150.24 485.123 1151.6 485.885 1152.75 486.775C1153.92 487.666 1154.83 488.697 1155.49 489.869C1156.15 491.018 1156.47 492.307 1156.47 493.736V511.947C1156.47 513.213 1156.15 514.373 1155.49 515.428C1154.83 516.482 1153.92 517.432 1152.75 518.275C1151.6 519.096 1150.24 519.811 1148.67 520.42C1147.1 521.029 1145.41 521.533 1143.61 521.932C1141.8 522.33 1139.92 522.623 1137.95 522.811C1135.98 523.021 1134.02 523.127 1132.08 523.127C1130.13 523.127 1128.17 523.021 1126.21 522.811C1124.26 522.623 1122.38 522.33 1120.58 521.932C1118.78 521.533 1117.09 521.029 1115.52 520.42C1113.97 519.811 1112.61 519.096 1111.44 518.275C1110.29 517.432 1109.39 516.494 1108.73 515.463C1108.08 514.408 1107.75 513.236 1107.75 511.947V493.736C1107.75 492.307 1108.08 491.018 1108.73 489.869C1109.39 488.697 1110.29 487.666 1111.44 486.775C1112.61 485.885 1113.97 485.123 1115.52 484.49C1117.09 483.857 1118.78 483.33 1120.58 482.908C1122.38 482.486 1124.26 482.182 1126.21 481.994C1128.17 481.807 1130.13 481.713 1132.08 481.713ZM1116.68 509.697C1116.68 510.775 1117.12 511.713 1118.01 512.51C1118.93 513.283 1120.11 513.939 1121.56 514.479C1123.02 514.994 1124.66 515.381 1126.49 515.639C1128.34 515.896 1130.2 516.025 1132.08 516.025C1134.04 516.025 1135.94 515.885 1137.77 515.604C1139.62 515.322 1141.26 514.924 1142.69 514.408C1144.12 513.869 1145.26 513.213 1146.1 512.439C1146.97 511.643 1147.4 510.729 1147.4 509.697V495.072C1147.4 494.064 1146.97 493.162 1146.1 492.365C1145.26 491.545 1144.12 490.865 1142.69 490.326C1141.26 489.764 1139.62 489.342 1137.77 489.061C1135.94 488.756 1134.04 488.604 1132.08 488.604C1130.2 488.604 1128.34 488.744 1126.49 489.025C1124.66 489.283 1123.02 489.682 1121.56 490.221C1120.11 490.76 1118.93 491.439 1118.01 492.26C1117.12 493.057 1116.68 493.994 1116.68 495.072V509.697ZM1173.21 509.697C1173.21 510.775 1173.6 511.678 1174.37 512.404C1175.17 513.131 1176.22 513.729 1177.53 514.197C1178.87 514.643 1180.4 514.971 1182.14 515.182C1183.87 515.369 1185.68 515.463 1187.55 515.463C1189.52 515.463 1191.37 515.357 1193.11 515.146C1194.84 514.912 1196.35 514.572 1197.64 514.127C1198.93 513.658 1199.95 513.061 1200.7 512.334C1201.45 511.607 1201.83 510.729 1201.83 509.697V482.346L1211.18 483.049V511.947C1211.18 513.213 1210.86 514.373 1210.23 515.428C1209.62 516.482 1208.76 517.432 1207.66 518.275C1206.56 519.096 1205.26 519.811 1203.76 520.42C1202.26 521.029 1200.63 521.533 1198.87 521.932C1197.14 522.33 1195.3 522.623 1193.35 522.811C1191.43 523.021 1189.5 523.127 1187.55 523.127C1185.58 523.127 1183.64 523.021 1181.72 522.811C1179.79 522.623 1177.96 522.33 1176.2 521.932C1174.46 521.533 1172.85 521.029 1171.35 520.42C1169.85 519.811 1168.54 519.096 1167.44 518.275C1166.34 517.432 1165.47 516.494 1164.84 515.463C1164.23 514.408 1163.93 513.236 1163.93 511.947V483.049L1173.21 482.346V509.697ZM1233.61 481.854H1242.54V487.76H1233.61V522.424H1225.24V487.76H1218.63V481.854H1225.24V469.619H1233.61V481.854ZM1295.76 508.08C1295.76 509.111 1296.15 510.072 1296.92 510.963C1297.72 511.854 1298.83 512.639 1300.26 513.318C1301.72 513.975 1303.45 514.502 1305.47 514.9C1307.51 515.275 1309.78 515.463 1312.29 515.463C1314.84 515.463 1317.14 515.264 1319.18 514.865C1321.22 514.443 1322.94 513.893 1324.35 513.213C1325.78 512.533 1326.87 511.748 1327.62 510.857C1328.37 509.967 1328.74 509.041 1328.74 508.08V469.689C1330.76 469.783 1332.65 469.924 1334.44 470.111C1336.22 470.275 1337.8 470.451 1339.18 470.639C1340.78 470.85 1342.26 471.072 1343.65 471.307V480.307C1343.08 480.119 1342.28 479.896 1341.22 479.639C1340.17 479.357 1339.01 479.111 1337.74 478.9V510.682C1337.74 512.533 1337.06 514.221 1335.7 515.744C1334.37 517.268 1332.54 518.58 1330.22 519.682C1327.92 520.76 1325.22 521.604 1322.13 522.213C1319.04 522.822 1315.76 523.127 1312.29 523.127C1308.79 523.127 1305.5 522.822 1302.41 522.213C1299.31 521.604 1296.61 520.76 1294.29 519.682C1291.97 518.58 1290.13 517.268 1288.77 515.744C1287.43 514.221 1286.76 512.533 1286.76 510.682V478.9C1285.5 479.158 1284.33 479.416 1283.25 479.674C1282.19 479.908 1281.4 480.119 1280.86 480.307V471.307C1282.19 471.072 1283.67 470.85 1285.29 470.639C1286.65 470.451 1288.23 470.275 1290.03 470.111C1291.84 469.924 1293.75 469.783 1295.76 469.689V508.08ZM1375.85 482.346C1378.64 482.346 1381.36 482.521 1384.01 482.873C1386.65 483.201 1389.03 483.775 1391.14 484.596C1393.25 485.393 1394.99 486.482 1396.35 487.865C1397.71 489.248 1398.51 490.971 1398.77 493.033L1390.62 495.283C1390.62 494.064 1390.19 493.057 1389.35 492.26C1388.53 491.439 1387.43 490.807 1386.04 490.361C1384.69 489.893 1383.12 489.564 1381.33 489.377C1379.55 489.189 1377.72 489.096 1375.85 489.096C1374.04 489.096 1372.25 489.189 1370.47 489.377C1368.71 489.541 1367.13 489.857 1365.72 490.326C1364.34 490.771 1363.22 491.393 1362.35 492.189C1361.51 492.986 1361.08 494.018 1361.08 495.283V499.572H1398.77V511.736C1398.77 513.119 1398.47 514.35 1397.86 515.428C1397.25 516.482 1396.4 517.408 1395.33 518.205C1394.25 518.979 1392.97 519.646 1391.49 520.209C1390.04 520.748 1388.46 521.182 1386.75 521.51C1385.06 521.838 1383.28 522.072 1381.4 522.213C1379.55 522.354 1377.7 522.424 1375.85 522.424C1373.01 522.424 1370.27 522.26 1367.62 521.932C1364.97 521.58 1362.6 521.006 1360.49 520.209C1358.38 519.389 1356.64 518.299 1355.28 516.939C1353.95 515.557 1353.16 513.822 1352.93 511.736L1361.08 509.486C1361.08 510.775 1361.51 511.818 1362.35 512.615C1363.22 513.412 1364.34 514.033 1365.72 514.479C1367.13 514.924 1368.71 515.229 1370.47 515.393C1372.25 515.533 1374.04 515.604 1375.85 515.604C1377.72 515.604 1379.55 515.521 1381.33 515.357C1383.12 515.17 1384.69 514.854 1386.04 514.408C1387.43 513.939 1388.53 513.318 1389.35 512.545C1390.19 511.748 1390.62 510.729 1390.62 509.486V505.197H1352.93V493.033C1352.93 491.65 1353.23 490.432 1353.84 489.377C1354.45 488.299 1355.28 487.373 1356.34 486.6C1357.42 485.803 1358.68 485.135 1360.13 484.596C1361.59 484.033 1363.16 483.588 1364.85 483.26C1366.56 482.932 1368.34 482.697 1370.19 482.557C1372.06 482.416 1373.95 482.346 1375.85 482.346Z" fill="white"/>
<path d="M989.916 609.424V585.592H992.616V606.832H1005.61V609.424H989.916ZM1018.48 609.712C1016.66 609.712 1015.06 609.304 1013.69 608.488C1012.32 607.648 1011.26 606.52 1010.49 605.104C1009.74 603.688 1009.37 602.128 1009.37 600.424C1009.37 598.696 1009.73 597.136 1010.45 595.744C1011.17 594.328 1012.2 593.212 1013.55 592.396C1014.89 591.556 1016.48 591.136 1018.3 591.136C1020.15 591.136 1021.73 591.556 1023.05 592.396C1024.4 593.212 1025.43 594.328 1026.15 595.744C1026.87 597.136 1027.23 598.696 1027.23 600.424V601.504H1012.14C1012.29 602.56 1012.62 603.532 1013.15 604.42C1013.7 605.284 1014.44 605.98 1015.35 606.508C1016.26 607.012 1017.32 607.264 1018.52 607.264C1019.79 607.264 1020.86 606.988 1021.72 606.436C1022.58 605.86 1023.26 605.128 1023.74 604.24H1026.69C1026.06 605.848 1025.07 607.168 1023.7 608.2C1022.36 609.208 1020.62 609.712 1018.48 609.712ZM1012.18 598.984H1024.42C1024.18 597.448 1023.53 596.164 1022.48 595.132C1021.42 594.1 1020.03 593.584 1018.3 593.584C1016.57 593.584 1015.18 594.1 1014.12 595.132C1013.09 596.164 1012.44 597.448 1012.18 598.984ZM1040.46 609.712C1038.71 609.712 1037.18 609.304 1035.86 608.488C1034.56 607.648 1033.55 606.52 1032.83 605.104C1032.11 603.688 1031.75 602.128 1031.75 600.424C1031.75 598.696 1032.11 597.136 1032.83 595.744C1033.55 594.328 1034.56 593.212 1035.86 592.396C1037.18 591.556 1038.71 591.136 1040.46 591.136C1041.95 591.136 1043.22 591.424 1044.28 592C1045.36 592.576 1046.24 593.356 1046.91 594.34V591.424H1049.61V609.424H1046.91V606.544C1046.24 607.504 1045.36 608.272 1044.28 608.848C1043.22 609.424 1041.95 609.712 1040.46 609.712ZM1040.82 607.264C1042.17 607.264 1043.3 606.952 1044.21 606.328C1045.14 605.704 1045.85 604.876 1046.33 603.844C1046.81 602.788 1047.05 601.648 1047.05 600.424C1047.05 599.176 1046.81 598.036 1046.33 597.004C1045.85 595.972 1045.14 595.144 1044.21 594.52C1043.3 593.896 1042.17 593.584 1040.82 593.584C1039.5 593.584 1038.36 593.896 1037.4 594.52C1036.44 595.144 1035.71 595.972 1035.21 597.004C1034.7 598.036 1034.45 599.176 1034.45 600.424C1034.45 601.648 1034.7 602.788 1035.21 603.844C1035.71 604.876 1036.44 605.704 1037.4 606.328C1038.36 606.952 1039.5 607.264 1040.82 607.264ZM1056.62 609.424V591.424H1059.32V595.852C1059.41 595.54 1059.59 595.132 1059.86 594.628C1060.15 594.1 1060.55 593.572 1061.08 593.044C1061.61 592.516 1062.27 592.072 1063.06 591.712C1063.88 591.328 1064.84 591.136 1065.94 591.136H1066.12V593.836H1065.8C1064.45 593.836 1063.29 594.208 1062.31 594.952C1061.35 595.672 1060.6 596.62 1060.07 597.796C1059.57 598.948 1059.32 600.184 1059.32 601.504V609.424H1056.62ZM1071.37 609.424V591.424H1074.07V594.232C1074.72 593.368 1075.51 592.636 1076.44 592.036C1077.38 591.436 1078.58 591.136 1080.04 591.136C1081.29 591.136 1082.46 591.436 1083.54 592.036C1084.64 592.612 1085.53 593.488 1086.2 594.664C1086.9 595.816 1087.24 597.244 1087.24 598.948V609.424H1084.54V599.02C1084.54 597.388 1084.08 596.08 1083.14 595.096C1082.2 594.088 1080.99 593.584 1079.5 593.584C1078.5 593.584 1077.58 593.812 1076.77 594.268C1075.95 594.724 1075.29 595.372 1074.79 596.212C1074.31 597.028 1074.07 597.976 1074.07 599.056V609.424H1071.37ZM1104.1 609.424V591.424H1106.8V594.16C1107.21 593.44 1107.86 592.756 1108.75 592.108C1109.63 591.46 1110.81 591.136 1112.27 591.136C1113.47 591.136 1114.58 591.46 1115.59 592.108C1116.62 592.732 1117.42 593.62 1118 594.772C1118.24 594.364 1118.61 593.872 1119.11 593.296C1119.64 592.72 1120.33 592.216 1121.17 591.784C1122.01 591.352 1123.01 591.136 1124.19 591.136C1125.34 591.136 1126.42 591.436 1127.43 592.036C1128.44 592.636 1129.25 593.5 1129.88 594.628C1130.53 595.732 1130.85 597.04 1130.85 598.552V609.424H1128.15V598.624C1128.15 597.112 1127.72 595.9 1126.85 594.988C1126.01 594.052 1124.96 593.584 1123.69 593.584C1122.37 593.584 1121.23 594.028 1120.27 594.916C1119.31 595.804 1118.83 597.052 1118.83 598.66V609.424H1116.13V598.624C1116.13 597.112 1115.69 595.9 1114.83 594.988C1113.99 594.052 1112.93 593.584 1111.66 593.584C1110.34 593.584 1109.2 594.028 1108.24 594.916C1107.28 595.804 1106.8 597.052 1106.8 598.66V609.424H1104.1ZM1145.51 609.712C1143.68 609.712 1142.1 609.304 1140.76 608.488C1139.41 607.648 1138.38 606.52 1137.66 605.104C1136.94 603.688 1136.58 602.128 1136.58 600.424C1136.58 598.696 1136.94 597.136 1137.66 595.744C1138.38 594.328 1139.41 593.212 1140.76 592.396C1142.1 591.556 1143.68 591.136 1145.51 591.136C1147.36 591.136 1148.94 591.556 1150.26 592.396C1151.6 593.212 1152.64 594.328 1153.36 595.744C1154.08 597.136 1154.44 598.696 1154.44 600.424C1154.44 602.128 1154.08 603.688 1153.36 605.104C1152.64 606.52 1151.6 607.648 1150.26 608.488C1148.94 609.304 1147.36 609.712 1145.51 609.712ZM1145.51 607.264C1146.85 607.264 1147.98 606.952 1148.89 606.328C1149.83 605.704 1150.54 604.876 1151.02 603.844C1151.5 602.788 1151.74 601.648 1151.74 600.424C1151.74 599.176 1151.5 598.036 1151.02 597.004C1150.54 595.972 1149.83 595.144 1148.89 594.52C1147.98 593.896 1146.85 593.584 1145.51 593.584C1144.19 593.584 1143.06 593.896 1142.12 594.52C1141.19 595.144 1140.48 595.972 1140 597.004C1139.52 598.036 1139.28 599.176 1139.28 600.424C1139.28 601.648 1139.52 602.788 1140 603.844C1140.48 604.876 1141.19 605.704 1142.12 606.328C1143.06 606.952 1144.19 607.264 1145.51 607.264ZM1160.36 609.424V591.424H1163.06V595.852C1163.15 595.54 1163.33 595.132 1163.6 594.628C1163.88 594.1 1164.29 593.572 1164.82 593.044C1165.35 592.516 1166.01 592.072 1166.8 591.712C1167.62 591.328 1168.58 591.136 1169.68 591.136H1169.86V593.836H1169.54C1168.19 593.836 1167.03 594.208 1166.04 594.952C1165.08 595.672 1164.34 596.62 1163.81 597.796C1163.31 598.948 1163.06 600.184 1163.06 601.504V609.424H1160.36ZM1182.64 609.712C1180.82 609.712 1179.22 609.304 1177.85 608.488C1176.49 607.648 1175.42 606.52 1174.65 605.104C1173.91 603.688 1173.53 602.128 1173.53 600.424C1173.53 598.696 1173.89 597.136 1174.61 595.744C1175.33 594.328 1176.37 593.212 1177.71 592.396C1179.05 591.556 1180.64 591.136 1182.46 591.136C1184.31 591.136 1185.89 591.556 1187.21 592.396C1188.56 593.212 1189.59 594.328 1190.31 595.744C1191.03 597.136 1191.39 598.696 1191.39 600.424V601.504H1176.31C1176.45 602.56 1176.79 603.532 1177.31 604.42C1177.87 605.284 1178.6 605.98 1179.51 606.508C1180.42 607.012 1181.48 607.264 1182.68 607.264C1183.95 607.264 1185.02 606.988 1185.88 606.436C1186.75 605.86 1187.42 605.128 1187.9 604.24H1190.85C1190.23 605.848 1189.23 607.168 1187.86 608.2C1186.52 609.208 1184.78 609.712 1182.64 609.712ZM1176.34 598.984H1188.58C1188.34 597.448 1187.69 596.164 1186.64 595.132C1185.58 594.1 1184.19 593.584 1182.46 593.584C1180.73 593.584 1179.34 594.1 1178.29 595.132C1177.25 596.164 1176.61 597.448 1176.34 598.984ZM1214.63 609.712C1212.88 609.712 1211.34 609.304 1210.02 608.488C1208.73 607.648 1207.72 606.52 1207 605.104C1206.28 603.688 1205.92 602.128 1205.92 600.424C1205.92 598.696 1206.28 597.136 1207 595.744C1207.72 594.328 1208.73 593.212 1210.02 592.396C1211.34 591.556 1212.88 591.136 1214.63 591.136C1216.12 591.136 1217.39 591.424 1218.45 592C1219.53 592.576 1220.4 593.356 1221.07 594.34V591.424H1223.77V609.424H1221.07V606.544C1220.4 607.504 1219.53 608.272 1218.45 608.848C1217.39 609.424 1216.12 609.712 1214.63 609.712ZM1214.99 607.264C1216.33 607.264 1217.46 606.952 1218.37 606.328C1219.31 605.704 1220.02 604.876 1220.5 603.844C1220.98 602.788 1221.22 601.648 1221.22 600.424C1221.22 599.176 1220.98 598.036 1220.5 597.004C1220.02 595.972 1219.31 595.144 1218.37 594.52C1217.46 593.896 1216.33 593.584 1214.99 593.584C1213.67 593.584 1212.53 593.896 1211.57 594.52C1210.61 595.144 1209.88 595.972 1209.37 597.004C1208.87 598.036 1208.62 599.176 1208.62 600.424C1208.62 601.648 1208.87 602.788 1209.37 603.844C1209.88 604.876 1210.61 605.704 1211.57 606.328C1212.53 606.952 1213.67 607.264 1214.99 607.264ZM1239.93 609.712C1238.44 609.712 1237.16 609.424 1236.08 608.848C1235.02 608.272 1234.16 607.504 1233.48 606.544V609.424H1230.78V584.224H1233.48V594.34C1234.16 593.356 1235.02 592.576 1236.08 592C1237.16 591.424 1238.44 591.136 1239.93 591.136C1241.68 591.136 1243.2 591.556 1244.5 592.396C1245.82 593.212 1246.84 594.328 1247.56 595.744C1248.28 597.136 1248.64 598.696 1248.64 600.424C1248.64 602.128 1248.28 603.688 1247.56 605.104C1246.84 606.52 1245.82 607.648 1244.5 608.488C1243.2 609.304 1241.68 609.712 1239.93 609.712ZM1239.57 607.264C1240.91 607.264 1242.05 606.952 1242.99 606.328C1243.95 605.704 1244.68 604.876 1245.18 603.844C1245.69 602.788 1245.94 601.648 1245.94 600.424C1245.94 599.176 1245.69 598.036 1245.18 597.004C1244.68 595.972 1243.95 595.144 1242.99 594.52C1242.05 593.896 1240.91 593.584 1239.57 593.584C1238.25 593.584 1237.12 593.896 1236.18 594.52C1235.25 595.144 1234.54 595.972 1234.06 597.004C1233.58 598.036 1233.34 599.176 1233.34 600.424C1233.34 601.648 1233.58 602.788 1234.06 603.844C1234.54 604.876 1235.25 605.704 1236.18 606.328C1237.12 606.952 1238.25 607.264 1239.57 607.264ZM1262.35 609.712C1260.52 609.712 1258.94 609.304 1257.59 608.488C1256.25 607.648 1255.22 606.52 1254.5 605.104C1253.78 603.688 1253.42 602.128 1253.42 600.424C1253.42 598.696 1253.78 597.136 1254.5 595.744C1255.22 594.328 1256.25 593.212 1257.59 592.396C1258.94 591.556 1260.52 591.136 1262.35 591.136C1264.19 591.136 1265.78 591.556 1267.1 592.396C1268.44 593.212 1269.47 594.328 1270.19 595.744C1270.91 597.136 1271.27 598.696 1271.27 600.424C1271.27 602.128 1270.91 603.688 1270.19 605.104C1269.47 606.52 1268.44 607.648 1267.1 608.488C1265.78 609.304 1264.19 609.712 1262.35 609.712ZM1262.35 607.264C1263.69 607.264 1264.82 606.952 1265.73 606.328C1266.67 605.704 1267.37 604.876 1267.85 603.844C1268.33 602.788 1268.57 601.648 1268.57 600.424C1268.57 599.176 1268.33 598.036 1267.85 597.004C1267.37 595.972 1266.67 595.144 1265.73 594.52C1264.82 593.896 1263.69 593.584 1262.35 593.584C1261.03 593.584 1259.9 593.896 1258.96 594.52C1258.03 595.144 1257.32 595.972 1256.84 597.004C1256.36 598.036 1256.12 599.176 1256.12 600.424C1256.12 601.648 1256.36 602.788 1256.84 603.844C1257.32 604.876 1258.03 605.704 1258.96 606.328C1259.9 606.952 1261.03 607.264 1262.35 607.264ZM1284.21 609.712C1282.99 609.712 1281.83 609.424 1280.72 608.848C1279.62 608.248 1278.72 607.372 1278.02 606.22C1277.35 605.044 1277.01 603.604 1277.01 601.9V591.424H1279.71V601.828C1279.71 603.46 1280.18 604.78 1281.12 605.788C1282.08 606.772 1283.29 607.264 1284.75 607.264C1285.76 607.264 1286.67 607.036 1287.49 606.58C1288.31 606.1 1288.95 605.452 1289.43 604.636C1289.94 603.82 1290.19 602.872 1290.19 601.792V591.424H1292.89V609.424H1290.19V606.616C1289.54 607.48 1288.75 608.212 1287.81 608.812C1286.88 609.412 1285.68 609.712 1284.21 609.712ZM1301.87 609.424V593.8H1298.2V591.424H1301.87V584.98H1304.57V591.424H1308.71V593.8H1304.57V609.424H1301.87ZM997.152 653.712C995.328 653.712 993.744 653.304 992.4 652.488C991.056 651.648 990.024 650.52 989.304 649.104C988.584 647.688 988.224 646.128 988.224 644.424C988.224 642.696 988.584 641.136 989.304 639.744C990.024 638.328 991.056 637.212 992.4 636.396C993.744 635.556 995.328 635.136 997.152 635.136C999 635.136 1000.58 635.556 1001.9 636.396C1003.25 637.212 1004.28 638.328 1005 639.744C1005.72 641.136 1006.08 642.696 1006.08 644.424C1006.08 646.128 1005.72 647.688 1005 649.104C1004.28 650.52 1003.25 651.648 1001.9 652.488C1000.58 653.304 999 653.712 997.152 653.712ZM997.152 651.264C998.496 651.264 999.624 650.952 1000.54 650.328C1001.47 649.704 1002.18 648.876 1002.66 647.844C1003.14 646.788 1003.38 645.648 1003.38 644.424C1003.38 643.176 1003.14 642.036 1002.66 641.004C1002.18 639.972 1001.47 639.144 1000.54 638.52C999.624 637.896 998.496 637.584 997.152 637.584C995.832 637.584 994.704 637.896 993.768 638.52C992.832 639.144 992.124 639.972 991.644 641.004C991.164 642.036 990.924 643.176 990.924 644.424C990.924 645.648 991.164 646.788 991.644 647.844C992.124 648.876 992.832 649.704 993.768 650.328C994.704 650.952 995.832 651.264 997.152 651.264ZM1019.02 653.712C1017.8 653.712 1016.63 653.424 1015.53 652.848C1014.42 652.248 1013.52 651.372 1012.83 650.22C1012.16 649.044 1011.82 647.604 1011.82 645.9V635.424H1014.52V645.828C1014.52 647.46 1014.99 648.78 1015.92 649.788C1016.88 650.772 1018.1 651.264 1019.56 651.264C1020.57 651.264 1021.48 651.036 1022.3 650.58C1023.11 650.1 1023.76 649.452 1024.24 648.636C1024.74 647.82 1025 646.872 1025 645.792V635.424H1027.7V653.424H1025V650.616C1024.35 651.48 1023.56 652.212 1022.62 652.812C1021.68 653.412 1020.48 653.712 1019.02 653.712ZM1034.73 653.424V635.424H1037.43V639.852C1037.53 639.54 1037.71 639.132 1037.97 638.628C1038.26 638.1 1038.67 637.572 1039.19 637.044C1039.72 636.516 1040.38 636.072 1041.17 635.712C1041.99 635.328 1042.95 635.136 1044.05 635.136H1044.23V637.836H1043.91C1042.57 637.836 1041.4 638.208 1040.42 638.952C1039.46 639.672 1038.71 640.62 1038.19 641.796C1037.68 642.948 1037.43 644.184 1037.43 645.504V653.424H1034.73ZM1070.07 653.712C1067.69 653.712 1065.64 653.172 1063.91 652.092C1062.19 650.988 1060.85 649.512 1059.92 647.664C1059.01 645.816 1058.55 643.764 1058.55 641.508C1058.55 639.252 1059.01 637.2 1059.92 635.352C1060.85 633.504 1062.19 632.04 1063.91 630.96C1065.64 629.856 1067.69 629.304 1070.07 629.304C1071.87 629.304 1073.49 629.628 1074.93 630.276C1076.37 630.9 1077.59 631.764 1078.6 632.868C1079.61 633.972 1080.37 635.256 1080.87 636.72H1078.03C1077.43 635.256 1076.48 634.092 1075.18 633.228C1073.89 632.364 1072.25 631.932 1070.29 631.932C1068.37 631.932 1066.72 632.364 1065.35 633.228C1064.01 634.068 1062.99 635.208 1062.29 636.648C1061.6 638.088 1061.25 639.708 1061.25 641.508C1061.25 643.284 1061.6 644.904 1062.29 646.368C1062.99 647.808 1064.01 648.96 1065.35 649.824C1066.72 650.664 1068.37 651.084 1070.29 651.084C1072.25 651.084 1073.89 650.652 1075.18 649.788C1076.48 648.924 1077.43 647.76 1078.03 646.296H1080.87C1080.37 647.736 1079.61 649.02 1078.6 650.148C1077.59 651.252 1076.37 652.128 1074.93 652.776C1073.49 653.4 1071.87 653.712 1070.07 653.712ZM1094.49 653.712C1092.67 653.712 1091.08 653.304 1089.74 652.488C1088.4 651.648 1087.36 650.52 1086.64 649.104C1085.92 647.688 1085.56 646.128 1085.56 644.424C1085.56 642.696 1085.92 641.136 1086.64 639.744C1087.36 638.328 1088.4 637.212 1089.74 636.396C1091.08 635.556 1092.67 635.136 1094.49 635.136C1096.34 635.136 1097.92 635.556 1099.24 636.396C1100.59 637.212 1101.62 638.328 1102.34 639.744C1103.06 641.136 1103.42 642.696 1103.42 644.424C1103.42 646.128 1103.06 647.688 1102.34 649.104C1101.62 650.52 1100.59 651.648 1099.24 652.488C1097.92 653.304 1096.34 653.712 1094.49 653.712ZM1094.49 651.264C1095.84 651.264 1096.96 650.952 1097.88 650.328C1098.81 649.704 1099.52 648.876 1100 647.844C1100.48 646.788 1100.72 645.648 1100.72 644.424C1100.72 643.176 1100.48 642.036 1100 641.004C1099.52 639.972 1098.81 639.144 1097.88 638.52C1096.96 637.896 1095.84 637.584 1094.49 637.584C1093.17 637.584 1092.04 637.896 1091.11 638.52C1090.17 639.144 1089.46 639.972 1088.98 641.004C1088.5 642.036 1088.26 643.176 1088.26 644.424C1088.26 645.648 1088.5 646.788 1088.98 647.844C1089.46 648.876 1090.17 649.704 1091.11 650.328C1092.04 650.952 1093.17 651.264 1094.49 651.264ZM1109.34 653.424V635.424H1112.04V638.16C1112.45 637.44 1113.1 636.756 1113.98 636.108C1114.87 635.46 1116.05 635.136 1117.51 635.136C1118.71 635.136 1119.82 635.46 1120.82 636.108C1121.86 636.732 1122.66 637.62 1123.24 638.772C1123.48 638.364 1123.85 637.872 1124.35 637.296C1124.88 636.72 1125.56 636.216 1126.4 635.784C1127.24 635.352 1128.25 635.136 1129.43 635.136C1130.58 635.136 1131.66 635.436 1132.67 636.036C1133.68 636.636 1134.49 637.5 1135.12 638.628C1135.76 639.732 1136.09 641.04 1136.09 642.552V653.424H1133.39V642.624C1133.39 641.112 1132.96 639.9 1132.09 638.988C1131.25 638.052 1130.2 637.584 1128.92 637.584C1127.6 637.584 1126.46 638.028 1125.5 638.916C1124.54 639.804 1124.06 641.052 1124.06 642.66V653.424H1121.36V642.624C1121.36 641.112 1120.93 639.9 1120.07 638.988C1119.23 638.052 1118.17 637.584 1116.9 637.584C1115.58 637.584 1114.44 638.028 1113.48 638.916C1112.52 639.804 1112.04 641.052 1112.04 642.66V653.424H1109.34ZM1142.93 660.552V635.424H1145.63V638.304C1146.31 637.32 1147.17 636.552 1148.23 636C1149.31 635.424 1150.59 635.136 1152.08 635.136C1153.83 635.136 1155.35 635.556 1156.65 636.396C1157.97 637.212 1158.99 638.328 1159.71 639.744C1160.43 641.136 1160.79 642.696 1160.79 644.424C1160.79 646.128 1160.43 647.688 1159.71 649.104C1158.99 650.52 1157.97 651.648 1156.65 652.488C1155.35 653.304 1153.83 653.712 1152.08 653.712C1150.59 653.712 1149.31 653.424 1148.23 652.848C1147.17 652.248 1146.31 651.468 1145.63 650.508V660.552H1142.93ZM1151.72 651.264C1153.06 651.264 1154.2 650.952 1155.14 650.328C1156.1 649.704 1156.83 648.876 1157.33 647.844C1157.84 646.788 1158.09 645.648 1158.09 644.424C1158.09 643.176 1157.84 642.036 1157.33 641.004C1156.83 639.972 1156.1 639.144 1155.14 638.52C1154.2 637.896 1153.06 637.584 1151.72 637.584C1150.4 637.584 1149.27 637.896 1148.33 638.52C1147.4 639.144 1146.69 639.972 1146.21 641.004C1145.73 642.036 1145.49 643.176 1145.49 644.424C1145.49 645.648 1145.73 646.788 1146.21 647.844C1146.69 648.876 1147.4 649.704 1148.33 650.328C1149.27 650.952 1150.4 651.264 1151.72 651.264ZM1174.28 653.712C1172.53 653.712 1170.99 653.304 1169.67 652.488C1168.38 651.648 1167.37 650.52 1166.65 649.104C1165.93 647.688 1165.57 646.128 1165.57 644.424C1165.57 642.696 1165.93 641.136 1166.65 639.744C1167.37 638.328 1168.38 637.212 1169.67 636.396C1170.99 635.556 1172.53 635.136 1174.28 635.136C1175.77 635.136 1177.04 635.424 1178.1 636C1179.18 636.576 1180.05 637.356 1180.73 638.34V635.424H1183.43V653.424H1180.73V650.544C1180.05 651.504 1179.18 652.272 1178.1 652.848C1177.04 653.424 1175.77 653.712 1174.28 653.712ZM1174.64 651.264C1175.99 651.264 1177.11 650.952 1178.03 650.328C1178.96 649.704 1179.67 648.876 1180.15 647.844C1180.63 646.788 1180.87 645.648 1180.87 644.424C1180.87 643.176 1180.63 642.036 1180.15 641.004C1179.67 639.972 1178.96 639.144 1178.03 638.52C1177.11 637.896 1175.99 637.584 1174.64 637.584C1173.32 637.584 1172.18 637.896 1171.22 638.52C1170.26 639.144 1169.53 639.972 1169.03 641.004C1168.52 642.036 1168.27 643.176 1168.27 644.424C1168.27 645.648 1168.52 646.788 1169.03 647.844C1169.53 648.876 1170.26 649.704 1171.22 650.328C1172.18 650.952 1173.32 651.264 1174.64 651.264ZM1190.44 653.424V635.424H1193.14V638.232C1193.78 637.368 1194.58 636.636 1195.51 636.036C1196.45 635.436 1197.65 635.136 1199.11 635.136C1200.36 635.136 1201.52 635.436 1202.6 636.036C1203.71 636.612 1204.6 637.488 1205.27 638.664C1205.96 639.816 1206.31 641.244 1206.31 642.948V653.424H1203.61V643.02C1203.61 641.388 1203.14 640.08 1202.21 639.096C1201.27 638.088 1200.06 637.584 1198.57 637.584C1197.56 637.584 1196.65 637.812 1195.84 638.268C1195.02 638.724 1194.36 639.372 1193.86 640.212C1193.38 641.028 1193.14 641.976 1193.14 643.056V653.424H1190.44ZM1214.58 660.552L1217.86 653.172L1210.51 635.424H1213.5L1219.3 650.184L1225.2 635.424H1228.15L1217.5 660.552H1214.58ZM1252.06 653.712C1249.7 653.712 1247.8 653.4 1246.33 652.776C1244.87 652.128 1243.76 651.24 1243.02 650.112C1242.3 648.984 1241.88 647.712 1241.76 646.296H1244.57C1244.64 647.448 1245.02 648.384 1245.72 649.104C1246.42 649.8 1247.33 650.316 1248.46 650.652C1249.61 650.988 1250.87 651.156 1252.24 651.156C1254.25 651.156 1255.85 650.808 1257.02 650.112C1258.2 649.392 1258.79 648.336 1258.79 646.944C1258.79 646.104 1258.49 645.432 1257.89 644.928C1257.31 644.4 1256.53 643.968 1255.55 643.632C1254.59 643.296 1253.53 642.996 1252.38 642.732C1251.23 642.444 1250.06 642.144 1248.89 641.832C1247.74 641.52 1246.67 641.124 1245.68 640.644C1244.72 640.164 1243.94 639.552 1243.34 638.808C1242.77 638.04 1242.48 637.068 1242.48 635.892C1242.48 633.948 1243.22 632.364 1244.71 631.14C1246.22 629.916 1248.47 629.304 1251.44 629.304C1253.56 629.304 1255.3 629.628 1256.66 630.276C1258.03 630.9 1259.05 631.728 1259.72 632.76C1260.42 633.792 1260.8 634.908 1260.88 636.108H1258.1C1257.96 634.908 1257.36 633.9 1256.3 633.084C1255.25 632.244 1253.63 631.824 1251.44 631.824C1250.1 631.824 1249.01 631.956 1248.17 632.22C1247.33 632.484 1246.68 632.832 1246.22 633.264C1245.79 633.672 1245.49 634.104 1245.32 634.56C1245.18 635.016 1245.11 635.448 1245.11 635.856C1245.11 636.648 1245.4 637.296 1245.97 637.8C1246.57 638.28 1247.35 638.688 1248.31 639.024C1249.3 639.336 1250.38 639.624 1251.55 639.888C1252.73 640.152 1253.89 640.452 1255.04 640.788C1256.22 641.1 1257.29 641.508 1258.25 642.012C1259.23 642.492 1260.01 643.116 1260.59 643.884C1261.19 644.652 1261.49 645.636 1261.49 646.836C1261.49 649.044 1260.65 650.748 1258.97 651.948C1257.29 653.124 1254.98 653.712 1252.06 653.712ZM1275.43 653.712C1273.6 653.712 1272.01 653.304 1270.64 652.488C1269.27 651.648 1268.2 650.52 1267.44 649.104C1266.69 647.688 1266.32 646.128 1266.32 644.424C1266.32 642.696 1266.68 641.136 1267.4 639.744C1268.12 638.328 1269.15 637.212 1270.5 636.396C1271.84 635.556 1273.42 635.136 1275.25 635.136C1277.1 635.136 1278.68 635.556 1280 636.396C1281.34 637.212 1282.38 638.328 1283.1 639.744C1283.82 641.136 1284.18 642.696 1284.18 644.424V645.504H1269.09C1269.24 646.56 1269.57 647.532 1270.1 648.42C1270.65 649.284 1271.38 649.98 1272.3 650.508C1273.21 651.012 1274.26 651.264 1275.46 651.264C1276.74 651.264 1277.8 650.988 1278.67 650.436C1279.53 649.86 1280.2 649.128 1280.68 648.24H1283.64C1283.01 649.848 1282.02 651.168 1280.65 652.2C1279.3 653.208 1277.56 653.712 1275.43 653.712ZM1269.13 642.984H1281.37C1281.13 641.448 1280.48 640.164 1279.42 639.132C1278.37 638.1 1276.98 637.584 1275.25 637.584C1273.52 637.584 1272.13 638.1 1271.07 639.132C1270.04 640.164 1269.39 641.448 1269.13 642.984ZM1289.81 653.424V635.424H1292.51V639.852C1292.61 639.54 1292.79 639.132 1293.05 638.628C1293.34 638.1 1293.75 637.572 1294.28 637.044C1294.81 636.516 1295.47 636.072 1296.26 635.712C1297.07 635.328 1298.03 635.136 1299.14 635.136H1299.32V637.836H1298.99C1297.65 637.836 1296.49 638.208 1295.5 638.952C1294.54 639.672 1293.8 640.62 1293.27 641.796C1292.77 642.948 1292.51 644.184 1292.51 645.504V653.424H1289.81ZM1309.46 653.424L1302.41 635.424H1305.36L1311.05 650.544L1316.7 635.424H1319.65L1312.63 653.424H1309.46ZM1324.41 632.4V628.872H1327.33V632.4H1324.41ZM1324.52 653.424V635.424H1327.22V653.424H1324.52ZM1341.98 653.712C1340.18 653.712 1338.62 653.304 1337.3 652.488C1335.98 651.648 1334.95 650.52 1334.21 649.104C1333.49 647.688 1333.13 646.128 1333.13 644.424C1333.13 642.696 1333.49 641.136 1334.21 639.744C1334.95 638.328 1335.98 637.212 1337.3 636.396C1338.62 635.556 1340.18 635.136 1341.98 635.136C1344.12 635.136 1345.93 635.688 1347.42 636.792C1348.93 637.896 1349.95 639.324 1350.48 641.076H1347.56C1347.15 640.044 1346.49 639.204 1345.58 638.556C1344.69 637.908 1343.61 637.584 1342.34 637.584C1341.02 637.584 1339.87 637.896 1338.89 638.52C1337.9 639.144 1337.15 639.972 1336.62 641.004C1336.09 642.036 1335.83 643.176 1335.83 644.424C1335.83 645.648 1336.09 646.788 1336.62 647.844C1337.15 648.876 1337.9 649.704 1338.89 650.328C1339.87 650.952 1341.02 651.264 1342.34 651.264C1343.61 651.264 1344.69 650.94 1345.58 650.292C1346.49 649.644 1347.15 648.804 1347.56 647.772H1350.48C1349.95 649.524 1348.93 650.952 1347.42 652.056C1345.93 653.16 1344.12 653.712 1341.98 653.712ZM1364.16 653.712C1362.33 653.712 1360.74 653.304 1359.37 652.488C1358 651.648 1356.93 650.52 1356.16 649.104C1355.42 647.688 1355.05 646.128 1355.05 644.424C1355.05 642.696 1355.41 641.136 1356.13 639.744C1356.85 638.328 1357.88 637.212 1359.22 636.396C1360.57 635.556 1362.15 635.136 1363.98 635.136C1365.82 635.136 1367.41 635.556 1368.73 636.396C1370.07 637.212 1371.1 638.328 1371.82 639.744C1372.54 641.136 1372.9 642.696 1372.9 644.424V645.504H1357.82C1357.96 646.56 1358.3 647.532 1358.83 648.42C1359.38 649.284 1360.11 649.98 1361.02 650.508C1361.94 651.012 1362.99 651.264 1364.19 651.264C1365.46 651.264 1366.53 650.988 1367.4 650.436C1368.26 649.86 1368.93 649.128 1369.41 648.24H1372.36C1371.74 649.848 1370.74 651.168 1369.38 652.2C1368.03 653.208 1366.29 653.712 1364.16 653.712ZM1357.86 642.984H1370.1C1369.86 641.448 1369.21 640.164 1368.15 639.132C1367.1 638.1 1365.7 637.584 1363.98 637.584C1362.25 637.584 1360.86 638.1 1359.8 639.132C1358.77 640.164 1358.12 641.448 1357.86 642.984ZM1385.09 653.712C1383.44 653.712 1382.03 653.436 1380.88 652.884C1379.75 652.332 1378.89 651.612 1378.29 650.724C1377.69 649.812 1377.35 648.828 1377.28 647.772H1380.09C1380.16 648.372 1380.37 648.96 1380.7 649.536C1381.06 650.088 1381.6 650.544 1382.32 650.904C1383.04 651.24 1383.98 651.408 1385.13 651.408C1385.49 651.408 1385.93 651.372 1386.46 651.3C1386.99 651.228 1387.49 651.096 1387.97 650.904C1388.48 650.712 1388.9 650.424 1389.23 650.04C1389.57 649.656 1389.74 649.164 1389.74 648.564C1389.74 647.82 1389.45 647.244 1388.87 646.836C1388.3 646.428 1387.55 646.116 1386.64 645.9C1385.73 645.66 1384.76 645.432 1383.73 645.216C1382.72 645 1381.76 644.724 1380.85 644.388C1379.93 644.028 1379.19 643.536 1378.61 642.912C1378.04 642.264 1377.75 641.388 1377.75 640.284C1377.75 638.652 1378.34 637.392 1379.51 636.504C1380.71 635.592 1382.48 635.136 1384.81 635.136C1386.39 635.136 1387.67 635.388 1388.66 635.892C1389.67 636.372 1390.42 636.996 1390.93 637.764C1391.45 638.532 1391.77 639.36 1391.86 640.248H1389.13C1389.03 639.48 1388.65 638.82 1387.97 638.268C1387.33 637.716 1386.25 637.44 1384.73 637.44C1381.88 637.44 1380.45 638.304 1380.45 640.032C1380.45 640.752 1380.74 641.304 1381.31 641.688C1381.89 642.072 1382.63 642.384 1383.55 642.624C1384.46 642.84 1385.42 643.056 1386.43 643.272C1387.46 643.464 1388.43 643.74 1389.34 644.1C1390.25 644.46 1391 644.976 1391.57 645.648C1392.15 646.296 1392.44 647.184 1392.44 648.312C1392.44 650.064 1391.77 651.408 1390.42 652.344C1389.1 653.256 1387.33 653.712 1385.09 653.712Z" fill="white"/>
<path fill-rule="evenodd" clip-rule="evenodd" d="M402.628 608.847C402.628 674.495 455.842 727.713 521.485 727.713C587.128 727.713 640.342 674.495 640.342 608.847C640.342 543.2 587.128 489.982 521.485 489.982C455.842 489.982 402.628 543.2 402.628 608.847ZM521.485 420.06C417.228 420.06 332.712 504.583 332.712 608.847C332.712 713.112 417.228 797.635 521.485 797.635C625.741 797.635 710.258 713.112 710.258 608.847C710.258 504.583 625.741 420.06 521.485 420.06Z" fill="#E4ECF4"/>
<rect x="488.797" y="535.74" width="67.0814" height="52.8265" fill="white" stroke="black" stroke-width="2"/>
<path d="M466.847 485.285C463.996 475.079 468.034 467.948 470.41 465.658C470.535 470.898 473.281 488.218 474.638 496.224C473.96 496.878 469.697 495.491 466.847 485.285Z" fill="white" stroke="black" stroke-width="2"/>
<path d="M577.827 485.285C580.678 475.079 576.64 467.948 574.264 465.658C574.264 472.644 571.445 488.946 570.035 496.224C570.714 496.878 574.977 495.491 577.827 485.285Z" fill="white" stroke="black" stroke-width="2"/>
<path d="M574 448.795C572.635 433.211 562.893 403.156 522.114 403.156C481.334 403.156 472.039 433.211 470.674 448.795C469.009 467.797 472.55 487.95 476.418 506.678C480.905 528.403 487.536 550.091 522.114 550.091C556.691 550.091 563.769 528.403 568.256 506.678C572.124 487.95 575.665 467.797 574 448.795Z" fill="white" stroke="black" stroke-width="2"/>
<path d="M465.667 460.674C467.186 440.298 478.021 401 523.379 401C568.737 401 579.075 440.298 580.594 460.674H507.106L491.082 441.753V460.674H465.667Z" fill="black"/>
<path d="M530.561 411.927C552.35 414.041 561.264 432.423 563.457 441.533" stroke="white" stroke-width="2" stroke-linecap="round"/>
<ellipse cx="500.954" cy="472.236" rx="2.19306" ry="4.38612" fill="black"/>
<ellipse cx="543.719" cy="472.236" rx="2.19306" ry="4.38612" fill="black"/>
<path d="M514.289 496.036L523.13 491.616L531.97 496.036" stroke="black" stroke-width="2" stroke-linecap="round"/>
<path d="M500.954 511.712C502.27 516.526 508.06 525.612 520.692 523.446" stroke="black" stroke-width="2" stroke-linecap="round"/>
<path d="M538.987 405.246C545.437 406.776 557.948 409.147 556.4 401.803C554.466 392.623 541.889 391.476 540.922 397.213" stroke="black" stroke-width="3" stroke-linecap="round"/>
<path d="M487.797 574.214V536.932C490.025 538.874 491.611 546.927 514.538 549.748C524.72 551 544.622 548.583 553.536 539.262C556.878 535.767 556.878 541.592 556.878 541.592L487.797 574.214Z" fill="black"/>
<path d="M518.109 566.86L429.09 578.292C425.252 578.785 422.542 582.298 423.04 586.136L447.851 777.317C448.31 780.849 451.348 783.474 454.909 783.415L518.992 782.352L583.079 783.415C586.639 783.474 589.676 780.852 590.136 777.322L615.101 585.928C615.602 582.082 612.882 578.561 609.034 578.077L519.875 566.857C519.289 566.784 518.695 566.784 518.109 566.86Z" fill="black"/>
<path d="M409.669 595.946L409.673 595.938L409.676 595.93C415.76 581.146 430.92 575.238 444.26 580.887C457.59 586.532 464.116 601.602 458.072 616.374L457.973 616.545L457.587 617.216C457.248 617.805 456.75 618.67 456.113 619.778C454.839 621.992 453.01 625.174 450.79 629.044C446.35 636.785 440.345 647.278 434.086 658.29C421.578 680.295 408.024 704.421 403.942 712.742C399.987 720.802 394.181 725.147 387.814 726.046C381.558 726.929 374.531 724.517 367.889 718.594L379.276 666.215L409.669 595.946Z" fill="white" stroke="black" stroke-width="2"/>
<path d="M317.588 645.125C311.14 635.506 313.711 622.482 323.33 616.035C332.568 609.843 345.034 611.941 351.736 620.816L402.444 687.964C410.301 698.368 408.109 713.192 397.577 720.877C386.872 728.69 371.816 726.029 364.437 715.02L317.588 645.125Z" fill="white" stroke="black" stroke-width="2"/>
<path d="M297.828 620.065C294.805 617.665 290.358 618.502 288.414 621.836C286.827 624.557 287.481 628.032 289.948 629.991L299.095 637.252C300.53 638.391 302.125 639.311 303.829 639.984L313.626 643.851C316.532 644.999 319.841 643.853 321.415 641.153C323.367 637.805 321.877 633.504 318.272 632.081L309.931 628.788C308.462 628.209 307.088 627.415 305.851 626.434L297.828 620.065Z" fill="white" stroke="black" stroke-width="2"/>
<path d="M298.156 599.695C296.024 596.478 291.536 595.898 288.656 598.466C286.305 600.563 285.851 604.069 287.592 606.696L294.043 616.431C295.054 617.958 296.286 619.327 297.698 620.494L305.818 627.203C308.226 629.194 311.727 629.128 314.059 627.048C316.952 624.468 316.866 619.918 313.878 617.449L306.965 611.736C305.748 610.73 304.686 609.55 303.814 608.234L298.156 599.695Z" fill="white" stroke="black" stroke-width="2"/>
<path d="M335.676 587.335C334.871 582.822 338.473 578.733 343.051 578.962C346.368 579.128 349.132 581.562 349.715 584.831L352.592 600.964C352.981 603.147 352.903 605.387 352.364 607.538L350.664 614.32C349.83 617.646 346.761 619.919 343.336 619.748C338.813 619.521 335.626 615.218 336.727 610.825L337.879 606.23C338.328 604.438 338.393 602.572 338.069 600.754L335.676 587.335Z" fill="white" stroke="black" stroke-width="2"/>
<path d="M306.821 581.293C304.91 577.764 301.09 577.452 298.558 580.619C296.313 583.425 295.892 587.981 297.589 591.104L305.242 605.186C305.715 606.057 306.24 606.872 306.812 607.623L315.918 619.59C317.873 622.159 321.015 622.205 323.264 619.696C325.97 616.677 326.283 611.252 323.929 608.159L315.997 597.735C315.368 596.909 314.791 596.012 314.271 595.051L306.821 581.293Z" fill="white" stroke="black" stroke-width="2"/>
<path d="M331.11 593.481L331.084 593.431L331.063 593.376L324.027 575.133C322.717 571.736 319.38 570.874 316.625 573.22C313.945 575.503 312.819 579.977 314.094 583.282L321.213 601.741L332.12 622.637C333.605 625.481 336.66 626.014 339.18 623.868C342.071 621.406 343.099 616.449 341.396 613.186L331.11 593.481Z" fill="white" stroke="black" stroke-width="2"/>
<circle cx="330.809" cy="630.479" r="23.8965" fill="white" stroke="black" stroke-width="2"/>
<path d="M628.89 595.946L628.887 595.938L628.883 595.93C622.799 581.146 607.64 575.238 594.3 580.887C580.97 586.532 574.444 601.602 580.487 616.374L580.586 616.545L580.973 617.216C581.312 617.805 581.81 618.67 582.447 619.778C583.721 621.992 585.55 625.174 587.77 629.044C592.21 636.785 598.215 647.278 604.474 658.29C616.982 680.295 630.535 704.421 634.618 712.742C638.572 720.802 644.379 725.147 650.746 726.046C657.002 726.929 664.028 724.517 670.67 718.594L659.284 666.215L628.89 595.946Z" fill="white" stroke="black" stroke-width="2"/>
<path d="M720.972 645.125C727.419 635.506 724.848 622.482 715.229 616.035C705.991 609.843 693.526 611.941 686.824 620.816L636.116 687.964C628.259 698.368 630.45 713.192 640.982 720.877C651.688 728.69 666.743 726.029 674.122 715.02L720.972 645.125Z" fill="white" stroke="black" stroke-width="2"/>
<path d="M740.731 620.064C743.753 617.665 748.201 618.502 750.144 621.835C751.732 624.557 751.078 628.031 748.61 629.99L739.463 637.252C738.029 638.391 736.434 639.311 734.73 639.984L724.933 643.851C722.026 644.999 718.718 643.852 717.144 641.153C715.192 637.805 716.681 633.504 720.286 632.081L728.628 628.788C730.096 628.209 731.471 627.415 732.708 626.433L740.731 620.064Z" fill="white" stroke="black" stroke-width="2"/>
<path d="M740.402 599.695C742.534 596.478 747.022 595.897 749.902 598.466C752.254 600.563 752.707 604.069 750.967 606.695L744.516 616.431C743.504 617.958 742.272 619.327 740.86 620.494L732.741 627.203C730.332 629.193 726.831 629.127 724.5 627.048C721.607 624.468 721.693 619.917 724.68 617.448L731.593 611.736C732.81 610.73 733.872 609.55 734.744 608.234L740.402 599.695Z" fill="white" stroke="black" stroke-width="2"/>
<path d="M702.883 587.335C703.688 582.821 700.086 578.732 695.507 578.961C692.19 579.127 689.427 581.561 688.844 584.831L685.967 600.964C685.578 603.147 685.655 605.387 686.195 607.538L687.895 614.319C688.729 617.646 691.797 619.919 695.222 619.747C699.745 619.521 702.933 615.218 701.832 610.825L700.679 606.229C700.23 604.438 700.166 602.572 700.49 600.754L702.883 587.335Z" fill="white" stroke="black" stroke-width="2"/>
<path d="M731.738 581.292C733.649 577.764 737.468 577.452 740.001 580.618C742.246 583.424 742.667 587.981 740.969 591.104L733.317 605.185C732.843 606.057 732.318 606.872 731.747 607.622L722.64 619.589C720.685 622.159 717.543 622.204 715.295 619.696C712.589 616.677 712.275 611.252 714.629 608.159L722.561 597.735C723.19 596.909 723.767 596.012 724.287 595.051L731.738 581.292Z" fill="white" stroke="black" stroke-width="2"/>
<path d="M707.449 593.48L707.475 593.43L707.496 593.376L714.532 575.132C715.841 571.736 719.179 570.874 721.933 573.22C724.614 575.503 725.74 579.977 724.465 583.282L717.346 601.74L706.439 622.636C704.954 625.481 701.899 626.014 699.378 623.867C696.488 621.406 695.459 616.449 697.162 613.186L707.449 593.48Z" fill="white" stroke="black" stroke-width="2"/>
<circle r="23.8965" transform="matrix(-1 0 0 1 707.749 630.478)" fill="white" stroke="black" stroke-width="2"/>
<rect x="491.322" y="612.869" width="32.2853" height="13.8366" fill="white"/>
<rect x="477.484" y="612.869" width="13.8366" height="13.8366" fill="#FF3366"/>
<rect x="479.793" y="615.174" width="9.22437" height="9.22437" fill="white"/>
<rect x="350.429" y="819.592" width="51.0401" height="76.7637" rx="25.5201" transform="rotate(35.435 350.429 819.592)" fill="white" stroke="black" stroke-width="2"/>
<rect x="-0.366025" y="1.36603" width="57.1358" height="85.8156" rx="28" transform="matrix(-0.866025 0.5 0.5 0.866025 703.252 852.627)" fill="white" stroke="black" stroke-width="2"/>
<path d="M384.595 825.641C380.672 822.412 381.485 816.189 386.106 814.076C388.498 812.983 391.304 813.349 393.335 815.02L399.657 820.223C404.17 823.937 406.722 829.521 406.578 835.364L406.375 843.549C406.31 846.178 404.751 848.539 402.359 849.633C397.737 851.745 392.5 848.288 392.625 843.208L392.747 838.291C392.838 834.615 391.233 831.102 388.394 828.766L384.595 825.641Z" fill="white" stroke="black" stroke-width="2"/>
<path d="M665.709 856.983C670.476 853.766 670.227 846.668 665.246 843.793C662.669 842.305 659.469 842.417 657.002 844.082L648.507 849.815C643.663 853.085 640.593 858.403 640.183 864.233L639.465 874.456C639.257 877.425 640.76 880.253 643.337 881.741C648.318 884.616 654.589 881.283 654.992 875.546L655.376 870.075C655.66 866.022 657.795 862.324 661.163 860.051L665.709 856.983Z" fill="white" stroke="black" stroke-width="2"/>
<path d="M390.731 850.529C385.101 865.638 369.801 873.656 356.699 868.774C343.596 863.892 337.273 847.817 342.903 832.708C348.532 817.599 363.832 809.581 376.935 814.463C390.037 819.345 396.36 835.42 390.731 850.529Z" fill="white" stroke="black" stroke-width="2"/>
<path d="M656.101 883.893C660.766 901.305 676.955 911.874 692.087 907.819C707.219 903.765 715.955 886.518 711.289 869.106C706.624 851.693 690.435 841.125 675.303 845.18C660.171 849.234 651.435 866.481 656.101 883.893Z" fill="white" stroke="black" stroke-width="2"/>
<path d="M379.866 858.57C384.624 856.786 389.607 860.601 389.125 865.66C388.876 868.278 387.156 870.525 384.693 871.448L377.027 874.322C371.554 876.373 365.442 875.792 360.454 872.745L353.467 868.477C351.223 867.106 349.957 864.575 350.206 861.957C350.687 856.898 356.3 854.091 360.637 856.74L364.834 859.304C367.972 861.221 371.817 861.587 375.26 860.296L379.866 858.57Z" fill="white" stroke="black" stroke-width="2"/>
<path d="M668.179 894.331C663.167 891.837 657.28 895.483 657.28 901.082C657.28 903.943 658.9 906.557 661.461 907.832L669.724 911.944C675.055 914.596 681.321 914.596 686.653 911.944L694.915 907.832C697.477 906.557 699.096 903.943 699.096 901.082C699.096 895.483 693.21 891.837 688.197 894.331L683.795 896.522C680.264 898.279 676.113 898.279 672.581 896.522L668.179 894.331Z" fill="white" stroke="black" stroke-width="2"/>
<rect x="455.218" y="672.759" width="62.2645" height="131.447" rx="12" transform="rotate(35.435 455.218 672.759)" fill="black"/>
<rect width="69.4203" height="146.554" rx="28" transform="matrix(-0.866025 0.5 0.5 0.866025 603.406 679.746)" fill="black"/>
<path d="M481.186 694.739C493.638 703.6 496.55 720.878 487.689 733.33L454.837 779.719" stroke="white" stroke-width="2" stroke-linecap="round"/>
<path d="M572.262 701.397C557.505 709.917 552.449 728.787 560.969 743.544L582.18 780.284" stroke="white" stroke-width="2" stroke-linecap="round"/>
<rect x="403.889" y="770.485" width="32.5914" height="109.91" rx="11" transform="rotate(35.435 403.889 770.485)" fill="white" stroke="black" stroke-width="2"/>
<rect x="-0.366025" y="1.36603" width="36.5668" height="122.772" rx="11" transform="matrix(-0.866025 0.5 0.5 0.866025 649.104 792.476)" fill="white" stroke="black" stroke-width="2"/>
<path d="M364.167 825.822C360.741 829.547 354.627 828.577 352.523 823.974C351.339 821.385 351.823 818.338 353.75 816.243L361.888 807.393C365.351 803.627 370.186 801.417 375.3 801.262L387.318 800.899C390.163 800.813 392.784 802.441 393.967 805.03C396.071 809.633 392.804 814.892 387.745 815.044L379.744 815.286C375.871 815.403 372.208 817.077 369.586 819.93L364.167 825.822Z" fill="white" stroke="black" stroke-width="2"/>
<path d="M688.21 859.317C691.668 863.879 698.658 863.441 701.52 858.484C703.13 855.695 702.912 852.213 700.966 849.646L692.283 838.193C689.193 834.116 684.589 831.458 679.513 830.82L665.252 829.027C662.057 828.625 658.932 830.177 657.322 832.966C654.46 837.924 657.575 844.196 663.255 844.91L672.111 846.023C676.366 846.558 680.227 848.787 682.818 852.205L688.21 859.317Z" fill="white" stroke="black" stroke-width="2"/>
<path d="M380.022 831.317C376.098 828.088 376.911 821.865 381.533 819.753C383.925 818.659 386.731 819.026 388.762 820.697L395.083 825.899C399.597 829.613 402.149 835.198 402.005 841.041L401.802 849.225C401.737 851.854 400.178 854.216 397.786 855.309C393.164 857.422 387.926 853.965 388.052 848.885L388.174 843.967C388.265 840.292 386.659 836.779 383.82 834.443L380.022 831.317Z" fill="white" stroke="black" stroke-width="2"/>
<path d="M670.188 863.769C674.955 860.552 674.706 853.454 669.726 850.579C667.149 849.091 663.948 849.203 661.481 850.868L652.987 856.601C648.142 859.871 645.072 865.188 644.663 871.019L643.945 881.242C643.736 884.211 645.239 887.038 647.817 888.526C652.797 891.402 659.068 888.068 659.471 882.332L659.855 876.861C660.14 872.807 662.274 869.11 665.643 866.837L670.188 863.769Z" fill="white" stroke="black" stroke-width="2"/>
<path d="M374.636 839.157C370.713 835.928 371.526 829.705 376.147 827.592C378.539 826.499 381.345 826.865 383.376 828.536L389.698 833.739C394.211 837.453 396.763 843.037 396.619 848.88L396.416 857.065C396.351 859.694 394.792 862.055 392.4 863.149C387.778 865.261 382.541 861.804 382.667 856.724L382.788 851.807C382.879 848.131 381.274 844.618 378.435 842.282L374.636 839.157Z" fill="white" stroke="black" stroke-width="2"/>
<path d="M675.335 873.037C680.102 869.82 679.853 862.722 674.872 859.847C672.295 858.359 669.095 858.471 666.628 860.136L658.133 865.869C653.289 869.139 650.219 874.456 649.809 880.287L649.091 890.51C648.883 893.479 650.386 896.306 652.963 897.794C657.944 900.67 664.215 897.337 664.618 891.6L665.002 886.129C665.286 882.075 667.421 878.378 670.789 876.105L675.335 873.037Z" fill="white" stroke="black" stroke-width="2"/>
<path d="M369.257 846.995C365.333 843.766 366.146 837.544 370.767 835.431C373.159 834.338 375.965 834.704 377.996 836.375L384.318 841.578C388.831 845.291 391.384 850.876 391.239 856.719L391.036 864.903C390.971 867.533 389.412 869.894 387.02 870.988C382.399 873.1 377.161 869.643 377.287 864.563L377.408 859.646C377.499 855.97 375.894 852.457 373.055 850.121L369.257 846.995Z" fill="white" stroke="black" stroke-width="2"/>
<path d="M680.479 882.305C685.246 879.088 684.997 871.991 680.017 869.115C677.44 867.627 674.239 867.74 671.772 869.404L663.278 875.138C658.433 878.407 655.363 883.725 654.954 889.555L654.236 899.778C654.027 902.747 655.53 905.575 658.108 907.063C663.088 909.938 669.359 906.605 669.762 900.869L670.146 895.398C670.431 891.344 672.565 887.647 675.934 885.373L680.479 882.305Z" fill="white" stroke="black" stroke-width="2"/>
<rect x="380.444" y="805.766" width="14.1426" height="32.5914" rx="7.07132" transform="rotate(-30.4458 380.444 805.766)" fill="white" stroke="black" stroke-width="2"/>
<rect x="-1.39634" y="0.224138" width="15.9979" height="36.5668" rx="7.99893" transform="matrix(-0.810238 -0.586101 -0.586101 0.810238 671.509 834.242)" fill="white" stroke="black" stroke-width="2"/>
<path d="M692.308 392.16L641.217 511.373L771.268 480.408L692.308 392.16Z" stroke="black" stroke-width="2"/>
<rect x="506.537" y="829.791" width="61.3442" height="105.248" rx="28" transform="rotate(-22.6006 506.537 829.791)" fill="white" stroke="black" stroke-width="2"/>
<path d="M574.533 805.4C574.77 800.826 579.209 798.117 583.276 800.063C585.27 801.017 586.741 802.93 587.197 805.161L589.786 817.83C590.982 823.684 589.617 829.628 586.075 833.986L576.796 845.403C574.891 847.747 571.733 848.515 568.861 847.331C563.828 845.257 562.195 838.518 565.788 834.658L570.172 829.95C572.285 827.681 573.534 824.655 573.703 821.394L574.533 805.4Z" fill="white" stroke="black" stroke-width="2"/>
<path d="M508.038 812.457C512.882 813.693 514.718 819.103 511.562 822.845C510.237 824.417 508.242 825.381 506.116 825.476L498.783 825.803C491.311 826.136 484.392 822.532 480.914 816.495L476.872 809.479C475.497 807.092 475.729 804.151 477.47 801.897C481.001 797.325 488.459 797.904 490.845 802.936L491.601 804.531C492.878 807.223 495.383 809.227 498.453 810.01L508.038 812.457Z" fill="white" stroke="black" stroke-width="2"/>
<path d="M511.706 823.02C516.55 824.257 518.386 829.666 515.23 833.409C513.905 834.981 511.91 835.945 509.784 836.039L502.451 836.367C494.979 836.7 488.06 833.096 484.582 827.059L480.54 820.043C479.165 817.656 479.397 814.715 481.138 812.461C484.669 807.889 492.127 808.468 494.513 813.499L495.269 815.095C496.546 817.787 499.051 819.791 502.121 820.574L511.706 823.02Z" fill="white" stroke="black" stroke-width="2"/>
<path d="M517.535 836.385C522.38 837.622 524.215 843.032 521.059 846.774C519.734 848.346 517.739 849.31 515.613 849.404L508.28 849.732C500.809 850.065 493.889 846.461 490.411 840.424L486.369 833.408C484.994 831.021 485.226 828.08 486.967 825.826C490.498 821.254 497.956 821.833 500.342 826.865L501.098 828.46C502.375 831.152 504.88 833.156 507.95 833.939L517.535 836.385Z" fill="white" stroke="black" stroke-width="2"/>
<path d="M524.261 850.517C528.396 851.573 529.963 856.19 527.27 859.385C526.138 860.727 524.435 861.549 522.621 861.63L516.762 861.892C509.967 862.195 503.675 858.917 500.512 853.427L497.237 847.742C496.061 845.701 496.259 843.187 497.748 841.26C500.767 837.35 507.144 837.845 509.183 842.147L509.843 843.539C510.972 845.919 513.188 847.691 515.902 848.384L524.261 850.517Z" fill="white" stroke="black" stroke-width="2"/>
<rect x="505.315" y="823.523" width="61.3442" height="61.5015" rx="28" transform="rotate(-22.6006 505.315 823.523)" fill="white" stroke="black" stroke-width="2"/>
<rect x="482.161" y="768.68" width="64.6646" height="90.9264" transform="rotate(-22.6006 482.161 768.68)" fill="#47DB99" stroke="black" stroke-width="2"/>
<path d="M478.878 765.653L540.423 740.033" stroke="white" stroke-width="2" stroke-linecap="round"/>
<rect x="494.408" y="764.535" width="40.4028" height="50.5035" transform="rotate(-22.6006 494.408 764.535)" fill="black"/>
<circle cx="518.492" cy="769.827" r="9.1007" transform="rotate(-22.6006 518.492 769.827)" fill="black" stroke="white" stroke-width="2"/>
<circle cx="527.033" cy="790.341" r="9.1007" transform="rotate(-22.6006 527.033 790.341)" fill="black" stroke="white" stroke-width="2"/>
<circle cx="518.496" cy="769.827" r="3.04028" transform="rotate(-22.6006 518.496 769.827)" fill="black" stroke="white" stroke-width="2"/>
<circle cx="527.034" cy="790.341" r="3.04028" transform="rotate(-22.6006 527.034 790.341)" fill="black" stroke="white" stroke-width="2"/>
<rect x="556.058" y="809.521" width="12.141" height="8.1007" transform="rotate(-22.6006 556.058 809.521)" fill="white" stroke="black" stroke-width="2"/>
<rect x="562.477" y="824.837" width="12.141" height="8.1007" transform="rotate(-22.6006 562.477 824.837)" fill="white" stroke="black" stroke-width="2"/>
<rect x="559.169" y="816.982" width="12.141" height="8.1007" transform="rotate(-22.6006 559.169 816.982)" fill="white" stroke="black" stroke-width="2"/>
<rect x="565.317" y="813.338" width="6.06042" height="10.1007" transform="rotate(-22.6006 565.317 813.338)" fill="black"/>
<path d="M510.82 815.674C515.081 818.29 520.242 815.839 520.73 810.968C520.935 808.923 520.237 806.82 518.825 805.228L513.952 799.738C508.988 794.144 501.582 791.689 494.828 793.398L486.978 795.383C484.307 796.059 482.359 798.273 481.954 801.093C481.132 806.811 486.742 811.76 492.014 809.967L493.686 809.399C496.506 808.44 499.689 808.843 502.389 810.5L510.82 815.674Z" fill="white" stroke="black" stroke-width="2"/>
<path d="M514.848 828.256C519.11 830.872 524.27 828.421 524.758 823.55C524.963 821.505 524.265 819.402 522.853 817.81L517.981 812.32C513.016 806.726 505.611 804.271 498.856 805.98L491.007 807.965C488.336 808.641 486.387 810.855 485.982 813.674C485.16 819.393 490.77 824.342 496.042 822.549L497.714 821.981C500.535 821.022 503.718 821.425 506.418 823.082L514.848 828.256Z" fill="white" stroke="black" stroke-width="2"/>
<path d="M518.196 841.3C522.457 843.915 527.618 841.465 528.106 836.594C528.311 834.548 527.613 832.445 526.2 830.854L521.328 825.364C516.364 819.77 508.958 817.314 502.204 819.023L494.354 821.009C491.683 821.685 489.735 823.899 489.33 826.718C488.508 832.437 494.118 837.385 499.39 835.593L501.062 835.024C503.882 834.066 507.065 834.468 509.765 836.125L518.196 841.3Z" fill="white" stroke="black" stroke-width="2"/>
<path d="M523.63 849.973C527.591 851.562 531.581 848.758 531.292 844.59C531.17 842.839 530.281 841.17 528.864 840.034L524.288 836.365C518.982 832.111 511.968 831.044 506.174 833.609L500.175 836.266C498.022 837.22 496.698 839.367 496.762 841.801C496.893 846.739 502.333 850.102 506.518 847.833L507.872 847.099C510.188 845.843 513.022 845.72 515.623 846.763L523.63 849.973Z" fill="white" stroke="black" stroke-width="2"/>
<path d="M340.173 751.618L267.96 832.543" stroke="black" stroke-width="2" stroke-linecap="round"/>
<path d="M717.615 711.054L823.804 733.129" stroke="black" stroke-width="2" stroke-linecap="round"/>
<path d="M296.906 701.397L210.018 734.273" stroke="black" stroke-width="2" stroke-linecap="round"/>
<path d="M313.439 750.67L303.627 749.138L302.096 758.951L292.283 757.42L290.752 767.233L280.939 765.702L279.408 775.515L269.595 773.984L268.064 783.797L258.251 782.266L256.72 792.079L246.907 790.548L245.376 800.361L235.563 798.83L234.031 808.643L224.218 807.111" stroke="#2C73FB" stroke-width="2" stroke-linecap="round"/>
<path d="M709.202 740.416L710.045 750.311L719.941 749.468L720.784 759.364L730.68 758.521L731.523 768.417L741.418 767.574L742.262 777.47L752.157 776.627L753.001 786.523L762.896 785.679L763.74 795.575L773.635 794.732L774.478 804.628L784.374 803.785L785.217 813.681" stroke="#FF3366" stroke-width="2" stroke-linecap="round"/>
<circle cx="670.782" cy="439.293" r="19.7548" fill="white" stroke="black" stroke-width="2"/>
<path d="M813.125 587.842H779.541V542.736H832.55V605.95L813.125 587.842Z" fill="#FF4B78"/>
<path d="M219.876 652.117H253.46V607.011H200.451V670.225L219.876 652.117Z" fill="#2C73FB"/>
<path d="M796.974 569.281V574.571H793.216V558.98H799.437C800.63 558.98 801.683 559.201 802.596 559.644C803.517 560.079 804.228 560.704 804.727 561.518C805.234 562.325 805.488 563.242 805.488 564.27C805.488 565.79 804.941 567.008 803.849 567.921C802.764 568.828 801.272 569.281 799.373 569.281H796.974ZM796.974 566.379H799.437C800.166 566.379 800.719 566.197 801.097 565.833C801.483 565.469 801.675 564.955 801.675 564.291C801.675 563.563 801.479 562.981 801.086 562.546C800.694 562.11 800.158 561.889 799.48 561.882H796.974V566.379Z" fill="white"/>
<path d="M815.543 570.427C815.543 569.877 815.346 569.449 814.954 569.142C814.568 568.835 813.886 568.518 812.908 568.189C811.93 567.861 811.131 567.543 810.51 567.236C808.489 566.244 807.479 564.88 807.479 563.146C807.479 562.282 807.729 561.521 808.229 560.865C808.736 560.201 809.45 559.687 810.371 559.323C811.291 558.951 812.327 558.766 813.476 558.766C814.597 558.766 815.6 558.966 816.485 559.365C817.377 559.765 818.07 560.336 818.562 561.079C819.055 561.814 819.301 562.656 819.301 563.606H815.553C815.553 562.971 815.357 562.478 814.964 562.128C814.579 561.778 814.054 561.604 813.39 561.604C812.719 561.604 812.187 561.753 811.795 562.053C811.409 562.346 811.216 562.721 811.216 563.178C811.216 563.577 811.431 563.941 811.859 564.27C812.287 564.591 813.04 564.927 814.118 565.276C815.196 565.619 816.082 565.99 816.774 566.39C818.459 567.361 819.301 568.7 819.301 570.406C819.301 571.769 818.787 572.84 817.759 573.618C816.731 574.396 815.321 574.785 813.529 574.785C812.266 574.785 811.12 574.561 810.092 574.111C809.071 573.654 808.3 573.033 807.779 572.248C807.265 571.455 807.008 570.545 807.008 569.517H810.777C810.777 570.352 810.992 570.97 811.42 571.369C811.855 571.762 812.559 571.958 813.529 571.958C814.151 571.958 814.64 571.826 814.997 571.562C815.361 571.291 815.543 570.913 815.543 570.427Z" fill="white"/>
<path d="M226.207 635.933H221.057L220.157 638.846H216.142L221.86 623.255H225.394L231.155 638.846H227.118L226.207 635.933ZM221.956 633.031H225.308L223.627 627.624L221.956 633.031Z" fill="white"/>
<path d="M236.305 638.846H232.557V623.255H236.305V638.846Z" fill="white"/>
<path d="M704.828 533.165L693.258 525.593L693.218 540.028L704.691 546.008L704.828 533.165Z" fill="black"/>
<path d="M716.253 525.637L705.688 519.126L695.122 525.637L705.688 532.633M716.253 525.637L705.688 532.633M716.253 525.637V538.366L705.688 544.294V532.633" stroke="black" stroke-width="2"/>
<path d="M239.652 422.874L259.335 518.601L386.374 510.549L373.849 401.403L239.652 422.874Z" fill="black"/>
<path d="M319.829 487.581L226.949 444.55L232.488 536.578L399.076 526.778V432.62L319.829 487.581Z" fill="white" stroke="black" stroke-width="2" stroke-linecap="round"/>
<path d="M268.285 433.869L353.671 420.853" stroke="white" stroke-width="2" stroke-linecap="round"/>
<path d="M270.321 445.636L355.707 432.62" stroke="white" stroke-width="2" stroke-linecap="round"/>
<path d="M270.321 458.652L355.707 445.635" stroke="white" stroke-width="2" stroke-linecap="round"/>
<circle cx="275.354" cy="471.202" r="20.8942" fill="white" stroke="black" stroke-width="2"/>
<path d="M269.483 464.507L282.004 477.028" stroke="black" stroke-width="2" stroke-linecap="round"/>
<path d="M282.006 464.506L269.485 477.027" stroke="black" stroke-width="2" stroke-linecap="round"/>
<g filter="url(#filter1_d)">
<rect x="987.303" y="732.438" width="319" height="140" rx="70" fill="#FF4B78"/>
<path d="M1107.36 789.044C1108.95 789.044 1110.49 789.143 1111.98 789.343C1113.48 789.53 1114.82 789.858 1116.01 790.327C1117.2 790.784 1118.18 791.405 1118.94 792.19C1119.71 792.976 1120.17 793.954 1120.29 795.126L1115.72 796.392C1115.72 795.688 1115.48 795.114 1115 794.669C1114.54 794.212 1113.91 793.854 1113.12 793.597C1112.35 793.327 1111.46 793.14 1110.45 793.034C1109.46 792.929 1108.42 792.876 1107.36 792.876C1106.31 792.876 1105.29 792.923 1104.28 793.017C1103.27 793.11 1102.37 793.286 1101.56 793.544C1100.76 793.802 1100.12 794.159 1099.62 794.616C1099.13 795.073 1098.88 795.665 1098.88 796.392V800.575H1120.29V809.681C1120.29 810.466 1120.12 811.169 1119.77 811.79C1119.43 812.399 1118.95 812.933 1118.34 813.39C1117.75 813.835 1117.03 814.216 1116.2 814.532C1115.38 814.837 1114.49 815.083 1113.53 815.27C1112.58 815.458 1111.58 815.593 1110.52 815.675C1109.47 815.757 1108.41 815.798 1107.36 815.798C1106.28 815.798 1105.22 815.757 1104.18 815.675C1103.13 815.593 1102.14 815.458 1101.21 815.27C1100.27 815.083 1099.39 814.837 1098.59 814.532C1097.79 814.216 1097.09 813.835 1096.48 813.39C1095.87 812.933 1095.38 812.399 1095 811.79C1094.62 811.181 1094.4 810.477 1094.31 809.681L1098.88 808.415C1098.88 809.142 1099.13 809.733 1099.62 810.19C1100.12 810.647 1100.76 811.005 1101.56 811.263C1102.37 811.52 1103.27 811.696 1104.28 811.79C1105.29 811.884 1106.31 811.931 1107.36 811.931C1108.42 811.931 1109.46 811.884 1110.45 811.79C1111.46 811.685 1112.35 811.503 1113.12 811.245C1113.91 810.976 1114.54 810.612 1115 810.155C1115.48 809.698 1115.72 809.118 1115.72 808.415V804.126H1094.31V795.126C1094.31 794.341 1094.48 793.649 1094.82 793.052C1095.18 792.442 1095.65 791.915 1096.25 791.47C1096.86 791.013 1097.58 790.632 1098.41 790.327C1099.24 790.011 1100.14 789.759 1101.1 789.571C1102.07 789.384 1103.09 789.249 1104.14 789.167C1105.21 789.085 1106.28 789.044 1107.36 789.044Z" fill="white"/>
<path d="M1130.74 795.548H1135.2V798.501H1130.74V815.833H1126.55V798.501H1123.25V795.548H1126.55V789.431H1130.74V795.548Z" fill="white"/>
<path d="M1159.11 808.661C1158.81 808.403 1158.45 808.151 1158.02 807.905C1157.58 807.659 1157.05 807.442 1156.42 807.255C1155.79 807.056 1155.03 806.897 1154.15 806.78C1153.28 806.651 1152.26 806.587 1151.09 806.587C1150.05 806.587 1149.06 806.61 1148.12 806.657C1147.2 806.692 1146.38 806.81 1145.68 807.009C1144.97 807.196 1144.42 807.501 1144.01 807.923C1143.6 808.345 1143.39 808.931 1143.39 809.681V811.931C1144.42 812.095 1145.56 812.229 1146.8 812.335C1148.04 812.44 1149.43 812.493 1150.95 812.493C1152.17 812.493 1153.46 812.452 1154.84 812.37C1156.22 812.276 1157.64 812.095 1159.11 811.825V808.661ZM1151.2 795.794C1151.78 795.794 1152.49 795.823 1153.32 795.882C1154.16 795.94 1155.02 796.046 1155.93 796.198C1156.83 796.339 1157.72 796.538 1158.6 796.796C1159.49 797.042 1160.29 797.37 1160.99 797.78C1161.7 798.179 1162.28 798.659 1162.71 799.222C1163.14 799.784 1163.36 800.446 1163.36 801.208V814.813C1162.38 815.013 1161.26 815.183 1160.02 815.323C1158.96 815.452 1157.68 815.569 1156.21 815.675C1154.73 815.78 1153.08 815.833 1151.27 815.833C1149.46 815.833 1147.54 815.757 1145.5 815.604C1143.47 815.452 1141.35 815.188 1139.14 814.813V808.485C1139.14 807.806 1139.3 807.214 1139.61 806.71C1139.94 806.194 1140.39 805.755 1140.95 805.392C1141.51 805.028 1142.17 804.729 1142.94 804.495C1143.7 804.261 1144.52 804.073 1145.4 803.933C1146.28 803.792 1147.19 803.698 1148.14 803.651C1149.09 803.593 1150.04 803.563 1150.99 803.563C1152.43 803.563 1153.65 803.657 1154.66 803.845C1155.68 804.02 1156.52 804.214 1157.19 804.425C1157.96 804.683 1158.6 804.97 1159.11 805.286V802.438C1159.11 801.958 1158.99 801.548 1158.76 801.208C1158.52 800.856 1158.21 800.563 1157.81 800.329C1157.41 800.083 1156.95 799.89 1156.44 799.749C1155.92 799.597 1155.38 799.479 1154.82 799.397C1154.26 799.315 1153.68 799.263 1153.1 799.239C1152.52 799.216 1151.98 799.204 1151.48 799.204C1150.95 799.204 1150.39 799.222 1149.79 799.257C1149.19 799.28 1148.6 799.333 1148 799.415C1147.41 799.497 1146.84 799.614 1146.29 799.767C1145.75 799.907 1145.27 800.101 1144.85 800.347C1144.43 800.593 1144.09 800.892 1143.83 801.243C1143.59 801.583 1143.46 801.993 1143.46 802.474L1139.1 801.349C1139.1 800.563 1139.3 799.884 1139.68 799.31C1140.07 798.724 1140.58 798.226 1141.21 797.815C1141.86 797.405 1142.6 797.071 1143.43 796.813C1144.26 796.544 1145.12 796.339 1146.01 796.198C1146.91 796.046 1147.81 795.94 1148.7 795.882C1149.59 795.823 1150.42 795.794 1151.2 795.794Z" fill="white"/>
<path d="M1184.49 795.794C1184.49 797.013 1184.45 798.284 1184.37 799.608C1184.29 800.921 1184.13 802.274 1183.89 803.669H1179.64C1179.74 803.27 1179.84 802.837 1179.94 802.368C1180.01 801.97 1180.07 801.507 1180.13 800.979C1180.2 800.44 1180.24 799.872 1180.24 799.274C1179.21 799.298 1178.35 799.397 1177.67 799.573C1177 799.737 1176.45 799.936 1176 800.171C1175.55 800.393 1175.19 800.622 1174.91 800.856C1174.63 801.091 1174.38 801.278 1174.15 801.419V815.833H1169.65V801.313C1169.61 800.938 1169.5 800.622 1169.32 800.364C1169.16 800.106 1168.98 799.895 1168.79 799.731C1168.58 799.532 1168.34 799.368 1168.07 799.239L1169.94 795.794C1170.37 795.946 1170.8 796.151 1171.22 796.409C1171.58 796.632 1171.96 796.919 1172.36 797.27C1172.77 797.61 1173.13 798.032 1173.45 798.536C1174.05 798.126 1174.6 797.78 1175.1 797.499C1175.61 797.206 1176.09 796.96 1176.56 796.761C1177.04 796.561 1177.54 796.409 1178.04 796.304C1178.55 796.186 1179.12 796.093 1179.73 796.022C1180.35 795.952 1181.04 795.905 1181.8 795.882C1182.57 795.847 1183.47 795.817 1184.49 795.794Z" fill="white"/>
<path d="M1194.83 795.548H1199.29V798.501H1194.83V815.833H1190.64V798.501H1187.34V795.548H1190.64V789.431H1194.83V795.548Z" fill="white"/>
</g>
</g>
<defs>
<filter id="filter0_d" x="47" y="268.424" width="1079" height="777" filterUnits="userSpaceOnUse" color-interpolation-filters="sRGB">
<feFlood flood-opacity="0" result="BackgroundImageFix"/>
<feColorMatrix in="SourceAlpha" type="matrix" values="0 0 0 0 0 0 0 0 0 0 0 0 0 0 0 0 0 0 127 0"/>
<feOffset dx="70" dy="70"/>
<feGaussianBlur stdDeviation="60"/>
<feColorMatrix type="matrix" values="0 0 0 0 1 0 0 0 0 1 0 0 0 0 1 0 0 0 0.14 0"/>
<feBlend mode="normal" in2="BackgroundImageFix" result="effect1_dropShadow"/>
<feBlend mode="normal" in="SourceGraphic" in2="effect1_dropShadow" result="shape"/>
</filter>
<filter id="filter1_d" x="937.303" y="682.438" width="559" height="380" filterUnits="userSpaceOnUse" color-interpolation-filters="sRGB">
<feFlood flood-opacity="0" result="BackgroundImageFix"/>
<feColorMatrix in="SourceAlpha" type="matrix" values="0 0 0 0 0 0 0 0 0 0 0 0 0 0 0 0 0 0 127 0"/>
<feOffset dx="70" dy="70"/>
<feGaussianBlur stdDeviation="60"/>
<feColorMatrix type="matrix" values="0 0 0 0 0.9 0 0 0 0 0 0 0 0 0 0 0 0 0 0.16 0"/>
<feBlend mode="normal" in2="BackgroundImageFix" result="effect1_dropShadow"/>
<feBlend mode="normal" in="SourceGraphic" in2="effect1_dropShadow" result="shape"/>
</filter>
<clipPath id="clip0">
<rect width="1600" height="1200" fill="white" transform="translate(0 0.423828)"/>
</clipPath>
</defs>
</svg>
