<svg id="Слой_1" data-name="Слой 1" xmlns="http://www.w3.org/2000/svg" xmlns:xlink="http://www.w3.org/1999/xlink" viewBox="0 0 449.86 287.71"><defs><style>.cls-1,.cls-13,.cls-29,.cls-30,.cls-46,.cls-49,.cls-55,.cls-9{fill:none;}.cls-2,.cls-42,.cls-57{fill:#fa7880;}.cls-3,.cls-43,.cls-44,.cls-45,.cls-7{fill:#fadd7d;}.cls-12,.cls-4,.cls-5{fill:#acd171;}.cls-10,.cls-11,.cls-13,.cls-14,.cls-15,.cls-18,.cls-19,.cls-4,.cls-5,.cls-7,.cls-8,.cls-9{stroke:#492d30;}.cls-18,.cls-4,.cls-7,.cls-8{stroke-linecap:square;}.cls-10,.cls-11,.cls-13,.cls-14,.cls-15,.cls-18,.cls-19,.cls-21,.cls-22,.cls-23,.cls-24,.cls-25,.cls-26,.cls-27,.cls-28,.cls-29,.cls-30,.cls-34,.cls-35,.cls-36,.cls-37,.cls-4,.cls-41,.cls-42,.cls-43,.cls-44,.cls-45,.cls-46,.cls-47,.cls-48,.cls-49,.cls-5,.cls-50,.cls-51,.cls-55,.cls-56,.cls-57,.cls-7,.cls-8,.cls-9{stroke-miterlimit:10;}.cls-15,.cls-19,.cls-23,.cls-30,.cls-36,.cls-5,.cls-55,.cls-57,.cls-9{stroke-linecap:round;}.cls-11,.cls-15,.cls-6{fill:#492d30;}.cls-8{fill:#f5f3e3;}.cls-10{fill:#add170;}.cls-11,.cls-27,.cls-30{stroke-width:0.5px;}.cls-14{fill:#c66c5d;}.cls-15{stroke-width:2px;}.cls-16,.cls-22,.cls-36{fill:#f5f3e2;}.cls-17{fill:#482d30;}.cls-18,.cls-19{fill:#f6f2e2;}.cls-20{clip-path:url(#clip-path);}.cls-21{fill:#b5434f;}.cls-21,.cls-22,.cls-23,.cls-24,.cls-25,.cls-34,.cls-35,.cls-36,.cls-37{stroke:#69363b;}.cls-23{fill:#b34351;}.cls-24,.cls-26,.cls-31{fill:#fff;}.cls-25,.cls-38{fill:#69363b;}.cls-26,.cls-27,.cls-28,.cls-29,.cls-30{stroke:#492d2f;}.cls-27{fill:#fadd7e;}.cls-28,.cls-33{fill:#492d2f;}.cls-32{fill:#fefffe;}.cls-34{fill:#f97980;}.cls-35{fill:#abd26f;}.cls-37{fill:#abd36c;}.cls-39{clip-path:url(#clip-path-2);}.cls-40,.cls-51{fill:#b3adf8;}.cls-41,.cls-47,.cls-48,.cls-52{fill:#472d32;}.cls-41,.cls-42,.cls-44,.cls-51{stroke:#472d32;}.cls-43,.cls-49{stroke:#000;}.cls-45,.cls-48,.cls-50,.cls-55,.cls-56{stroke:#4a2e32;}.cls-46,.cls-47{stroke:#fa7880;}.cls-50{fill:#f9dd7b;}.cls-53{fill:#4a2e32;}.cls-54{fill:#492d31;}.cls-56{fill:#feb57f;}.cls-57{stroke:#492d31;}</style><clipPath id="clip-path"><path class="cls-1" d="M277.59,116.87v63.69a21.35,21.35,0,0,1-21.38,21.38H192.52a21.35,21.35,0,0,1-21.38-21.38V116.87a21.38,21.38,0,0,1,21.38-21.38h63.69A21.38,21.38,0,0,1,277.59,116.87Z"/></clipPath><clipPath id="clip-path-2"><path class="cls-1" d="M400.21,116.87v63.69a21.35,21.35,0,0,1-21.38,21.38H315.14a21.35,21.35,0,0,1-21.38-21.38V116.87a21.38,21.38,0,0,1,21.38-21.38h63.69A21.38,21.38,0,0,1,400.21,116.87Z"/></clipPath></defs><path class="cls-2" d="M156.1,116.87v63.69a21.35,21.35,0,0,1-21.38,21.38H71a21.35,21.35,0,0,1-21.38-21.38V116.87A21.38,21.38,0,0,1,71,95.49h63.69A21.38,21.38,0,0,1,156.1,116.87Z"/><path class="cls-3" d="M140.75,201.08a21.38,21.38,0,0,1-6,.86H71a21.43,21.43,0,0,1-6-.86l1-7.64a3.61,3.61,0,0,1,3.58-3.12h66.49a3.61,3.61,0,0,1,3.58,3.12Z"/><path class="cls-4" d="M73.36,158.82s-10.25,1.82-15.46-3.39S54.51,140,54.51,140s10.25-1.81,15.46,3.39S73.36,158.82,73.36,158.82Z"/><path class="cls-5" d="M56.24,142.18s12.19-.65,12.8,12"/><path class="cls-5" d="M59.12,142.81a10.41,10.41,0,0,0,3.11,6.72"/><path class="cls-6" d="M65,158.4a8.56,8.56,0,0,0,3.23-.22c1.32-.45,1.65-2.42,1.72-3.59v4.22l-4.49.32Z"/><path class="cls-4" d="M133.14,158.82s10.26,1.82,15.46-3.39S152,140,152,140s-10.25-1.81-15.46,3.39S133.14,158.82,133.14,158.82Z"/><path class="cls-5" d="M150.26,142.18s-12.19-.65-12.8,12"/><path class="cls-5" d="M147.38,142.81a10.34,10.34,0,0,1-3.11,6.72"/><path class="cls-6" d="M141.55,158.4a8.56,8.56,0,0,1-3.23-.22c-1.32-.45-1.64-2.42-1.72-3.59v4.22l4.5.32Z"/><path class="cls-7" d="M65.08,200.49l1-7.05a3.61,3.61,0,0,1,3.58-3.12h66.49a3.61,3.61,0,0,1,3.58,3.12l1,7.1"/><path class="cls-6" d="M73.78,190.81s2.28.18,3.27,1.27,2,2.79,3.58,2.61-1.12-3.88-1.12-3.88Z"/><path class="cls-6" d="M133,190.81s-2.27.18-3.27,1.27-2,2.79-3.57,2.61,1.12-3.88,1.12-3.88Z"/><ellipse class="cls-8" cx="103.4" cy="190.33" rx="25.96" ry="9.33"/><path class="cls-4" d="M124.65,190.82c-4.59,2.79-12.12,4.61-20.62,4.61-9.33,0-17.49-2.19-21.89-5.46v-7.62h42.51Z"/><path class="cls-9" d="M125.3,190.53c-4.73,2.87-12.49,4.75-21.25,4.75-9.61,0-18-2.26-22.56-5.63"/><path class="cls-10" d="M117.83,115.67a2.17,2.17,0,0,1,.72,1.61v8.21h6.91a10.64,10.64,0,0,1,10.64,10.65v37.13a10.64,10.64,0,0,1-10.64,10.64H81a10.64,10.64,0,0,1-10.64-10.64V136.14A10.64,10.64,0,0,1,81,125.49h7.46v-8.21a2.16,2.16,0,0,1,.71-1.61"/><path class="cls-11" d="M70.35,153.82h1a3.7,3.7,0,0,1,3.29,2L80,166a6.4,6.4,0,0,0,5.68,3.45h0a5.16,5.16,0,0,0,4.48-2.6h0a12.13,12.13,0,0,1,10.53-6.12h5a12.13,12.13,0,0,1,10.53,6.12h0a5.16,5.16,0,0,0,4.48,2.6h0a6.4,6.4,0,0,0,5.68-3.45l5.34-10.22a3.7,3.7,0,0,1,3.29-2h1v19.45a10.64,10.64,0,0,1-10.64,10.64H81a10.64,10.64,0,0,1-10.64-10.64Z"/><ellipse class="cls-2" cx="103.22" cy="114.91" rx="14.48" ry="6.88"/><path class="cls-12" d="M108.1,179.46H97.64c-4,0-7.06-3.21-6.54-6.81v0c.78-5.38,5.82-9.41,11.77-9.41h0c6,0,11,4,11.77,9.41v0C115.17,176.25,112.09,179.46,108.1,179.46Z"/><path class="cls-13" d="M74.58,158s28.85-30.31,58.93-28.73"/><path class="cls-14" d="M90.75,160.39h0A11.36,11.36,0,0,1,79.4,149v-.45A8.62,8.62,0,0,1,88,140h5.46a8.58,8.58,0,0,1,5.77,2.22c.39.35-1.1,3.18-1.39,3.73,0,0,0,0,0,0,.51-.31,3-1.77,3.18-1.44a8.63,8.63,0,0,1,1,4.08V149A11.36,11.36,0,0,1,90.75,160.39Z"/><line class="cls-15" x1="96.47" y1="171.28" x2="109.27" y2="171.28"/><path class="cls-16" d="M76.09,141.36h-.63a1.59,1.59,0,0,1-1.5-1.78l.32-4a1.55,1.55,0,0,1,1.5-1.5h0a1.55,1.55,0,0,1,1.49,1.5l.32,4A1.59,1.59,0,0,1,76.09,141.36Z"/><path class="cls-9" d="M100.49,104.26a2.91,2.91,0,1,1,2.91-2.91"/><path class="cls-9" d="M96.13,116.16a4,4,0,1,1,0-4.49"/><path class="cls-9" d="M88.72,112.67a3,3,0,0,1-.9-2.15,3,3,0,0,1,5.1-2.16"/><path class="cls-9" d="M90,107.62a2.52,2.52,0,0,1-.34-1.37,2.9,2.9,0,0,1,2.91-2.9,2.36,2.36,0,0,1,.38,0"/><path class="cls-9" d="M99.42,111.19c-2.19,0-4,.33-4,2.52a4,4,0,1,0,8,0v-4.86a4,4,0,0,0-7.92-.55"/><path class="cls-9" d="M95.78,107.25a3.49,3.49,0,0,1,.87-6.87,3.6,3.6,0,0,1,1,.16"/><path class="cls-9" d="M106.31,104.26a2.91,2.91,0,1,0-2.91-2.91"/><path class="cls-9" d="M110.66,116.16a4,4,0,1,0,0-4.49"/><path class="cls-9" d="M118.07,112.67a3,3,0,0,0-4.2-4.31"/><path class="cls-9" d="M116.82,107.63a2.56,2.56,0,0,0,.35-1.38,2.91,2.91,0,0,0-2.91-2.9,2.55,2.55,0,0,0-.39,0"/><path class="cls-9" d="M107.37,111.19c2.2,0,4,.33,4,2.52a4,4,0,1,1-7.95,0v-4.86a4,4,0,0,1,7.91-.57"/><path class="cls-9" d="M111,107.25a3.49,3.49,0,0,0-.87-6.87,3.59,3.59,0,0,0-1,.16"/><path class="cls-9" d="M117.58,115.87c0,3.09-6.35,5.6-14.18,5.6s-14.19-2.51-14.19-5.6"/><line class="cls-9" x1="103.4" y1="121.47" x2="103.4" y2="113.71"/><path class="cls-17" d="M126.93,144.63a1.6,1.6,0,0,0-.46-.51,17.31,17.31,0,0,0-6.65-3.26l-.45-.11.06-.05a.51.51,0,0,0-.49-.87c-.61.19-1.2.36-1.8.5q-.4.1-.81.18a19.13,19.13,0,0,1-2.56.34,15.55,15.55,0,0,1-2.47,0,16.13,16.13,0,0,1-1.62-.34l-.35-.07a2.74,2.74,0,0,0-1.62.17,2.83,2.83,0,0,0-.56,4.77,3.57,3.57,0,0,0,3.23.36,12.62,12.62,0,0,0,1.55-.44l.13,0h0c.57-.14,1.14-.33,1.62-.46a18.46,18.46,0,0,1,10-.19,17.19,17.19,0,0,1,1.92.73,3.36,3.36,0,0,0,.42.16c.33.11.69.15.9-.16A.63.63,0,0,0,126.93,144.63Z"/><line class="cls-9" x1="79.85" y1="148.72" x2="97.38" y2="148.72"/><line class="cls-9" x1="79.85" y1="149.4" x2="83.57" y2="149.4"/><path class="cls-9" d="M87,155.28h8.59a6.39,6.39,0,0,0,2.63-3.43l.54-1.74a1.07,1.07,0,0,0-1-1.39H84.81a1.07,1.07,0,0,0-1,1.39l.55,1.74A6.42,6.42,0,0,0,87,155.28Z"/><line class="cls-18" x1="125.3" y1="148.72" x2="108.48" y2="148.72"/><line class="cls-18" x1="125.3" y1="149.4" x2="122.28" y2="149.4"/><path class="cls-19" d="M118.9,155.28h-8.58a6.39,6.39,0,0,1-2.63-3.43l-.54-1.74a1.06,1.06,0,0,1,1-1.39h12.88a1.06,1.06,0,0,1,1,1.39l-.54,1.74A6.39,6.39,0,0,1,118.9,155.28Z"/><circle class="cls-6" cx="114.69" cy="150.47" r="3.68"/><circle class="cls-16" cx="114.85" cy="148.72" r="1.59"/><path class="cls-13" d="M102.1,148.58s5.05-1,5.05,1.53"/><g class="cls-20"><path class="cls-3" d="M277.59,116.87v63.69a21.35,21.35,0,0,1-21.38,21.38H192.52a21.35,21.35,0,0,1-21.38-21.38V116.87a21.38,21.38,0,0,1,21.38-21.38h63.69A21.38,21.38,0,0,1,277.59,116.87Z"/><polygon class="cls-16" points="198.76 172.33 203.24 173.79 203.78 171.24 200.7 170.29 198.76 172.33"/><polygon class="cls-16" points="244.89 172.06 249.37 173.52 249.92 170.97 246.84 170.01 244.89 172.06"/><path class="cls-21" d="M222.48,105.36c6.55-3.47,15.07-5.79,20.09-7a3.46,3.46,0,0,1,4.25,3.37v99H201.88V127.08c0-5.16,1-7.2,5.39-11.6S217.64,107.93,222.48,105.36Z"/><path class="cls-22" d="M249.37,204.67a4.53,4.53,0,0,0,.08-.74,4.61,4.61,0,0,0-2.27-3.94V180.28l-22.83,4.61-22.74-4.61v19.66a4.62,4.62,0,0,0-2.37,4,4.53,4.53,0,0,0,.08.74Z"/><path class="cls-23" d="M207.27,169.05a36.75,36.75,0,0,1-8-6.64,11.34,11.34,0,0,1,0-14.95,9.14,9.14,0,0,1,6.78-3.09"/><path class="cls-23" d="M242.24,169.05a37,37,0,0,0,8-6.64,11.34,11.34,0,0,0,0-14.95,9.14,9.14,0,0,0-6.78-3.09"/><path class="cls-24" d="M224.85,169.88a29.94,29.94,0,0,1-21.26-8.8,8,8,0,0,1,11.28-11.28,14.13,14.13,0,0,0,20,0,8,8,0,1,1,11.28,11.28A29.94,29.94,0,0,1,224.85,169.88Z"/><path class="cls-25" d="M224.85,169.88a29.94,29.94,0,0,1-21.26-8.8,8,8,0,0,1,11.28-11.28,14.13,14.13,0,0,0,20,0,8,8,0,1,1,11.28,11.28A29.94,29.94,0,0,1,224.85,169.88Z"/><path class="cls-24" d="M213.33,148.6a8,8,0,0,0-10.27,1.78,8.24,8.24,0,0,0,.94,11.11c.61.59,1.25,1.15,1.9,1.68a1.48,1.48,0,0,0,2.38-1c.84-6.93,3-9.11,5.28-11.22A1.48,1.48,0,0,0,213.33,148.6Z"/><path class="cls-24" d="M222.31,153.7a14.07,14.07,0,0,1-5.71-2.43,3,3,0,0,0-3.82.27c-3,3-4.28,7-4.57,11.45a3,3,0,0,0,1.52,2.82,30.06,30.06,0,0,0,12.68,4,2.28,2.28,0,0,0,2.44-2.28V156.67A3,3,0,0,0,222.31,153.7Z"/><path class="cls-24" d="M236.45,148.65a8,8,0,0,1,10.27,1.78,8.24,8.24,0,0,1-.94,11.1c-.62.59-1.25,1.15-1.91,1.68a1.47,1.47,0,0,1-2.37-1c-.84-6.94-3-9.11-5.29-11.23A1.48,1.48,0,0,1,236.45,148.65Z"/><path class="cls-24" d="M227.46,153.74a14,14,0,0,0,5.72-2.42,3,3,0,0,1,3.81.26c3,3,4.28,7,4.58,11.46a3,3,0,0,1-1.53,2.82,30,30,0,0,1-12.68,4,2.26,2.26,0,0,1-2.43-2.27V156.71A3,3,0,0,1,227.46,153.74Z"/><circle class="cls-26" cx="233.72" cy="139.07" r="6.45"/><path class="cls-27" d="M231.53,133.27l.68-.48,2.54-.1,5.12,4.62v4.3A8.34,8.34,0,0,1,231.53,133.27Z"/><path class="cls-28" d="M234.28,133.47h2.42l1.83,1.24,1.21,2v2.17A5.45,5.45,0,0,1,234.28,133.47Z"/><circle class="cls-29" cx="233.72" cy="139.07" r="6.45"/><line class="cls-30" x1="238.54" y1="134.28" x2="240.55" y2="132.26"/><line class="cls-30" x1="236.23" y1="132.61" x2="237.5" y2="130.11"/><line class="cls-30" x1="233.52" y1="132.26" x2="233.52" y2="129.39"/><path class="cls-30" d="M227.58,137.09c-1.1,3.39.56,8.35,3.95,9.45"/><circle class="cls-31" cx="214.97" cy="139.07" r="6.45"/><circle class="cls-32" cx="214.97" cy="139.07" r="6.45"/><path class="cls-27" d="M208.83,136.94l-.31,3.53,1.63,3.16,2.72,1.65h4.29A8.34,8.34,0,0,0,208.83,136.94Z"/><path class="cls-33" d="M209,139.69v2.42l1.23,1.83,2.05,1.21h2.18A5.47,5.47,0,0,0,209,139.69Z"/><circle class="cls-29" cx="214.97" cy="139.07" r="6.45"/><line class="cls-30" x1="210.15" y1="134.28" x2="208.14" y2="132.26"/><line class="cls-30" x1="212.46" y1="132.61" x2="211.19" y2="130.11"/><line class="cls-30" x1="215.18" y1="132.26" x2="215.18" y2="129.39"/><path class="cls-30" d="M221.11,137.09c1.11,3.39-.56,8.35-4,9.45"/><ellipse class="cls-34" cx="224.76" cy="112.59" rx="22.12" ry="4.93" transform="translate(-26.56 118.29) rotate(-27.91)"/><ellipse class="cls-31" cx="212.81" cy="119.67" rx="3.78" ry="0.84" transform="translate(-31.26 113.52) rotate(-27.91)"/><ellipse class="cls-31" cx="217.02" cy="113.85" rx="3.41" ry="0.76" transform="translate(-28.05 114.81) rotate(-27.91)"/><ellipse class="cls-31" cx="225.63" cy="108.5" rx="2.6" ry="0.58" transform="translate(-24.54 118.22) rotate(-27.91)"/><ellipse class="cls-31" cx="235.33" cy="105.1" rx="4.83" ry="1.08" transform="translate(-21.82 122.37) rotate(-27.91)"/><ellipse class="cls-31" cx="236.42" cy="108.56" rx="2.59" ry="0.58" transform="translate(-23.32 123.28) rotate(-27.91)"/><ellipse class="cls-31" cx="225.17" cy="113.35" rx="8.07" ry="1.8" transform="translate(-26.87 118.57) rotate(-27.91)"/><path class="cls-35" d="M224.31,190.92h2.54a.35.35,0,0,0,.36-.33,7.39,7.39,0,0,1,3.18-5.65.32.32,0,0,0-.17-.59l-2.09-.33a24.47,24.47,0,0,0-7.64,0l-2.05.33a.33.33,0,0,0-.16.6,7.37,7.37,0,0,1,3.17,5.64.35.35,0,0,0,.36.33h2.5Z"/><path class="cls-22" d="M229.62,181.35s-2.34,1.05-2.53,2.45a11.08,11.08,0,0,1,2.48.92,1.1,1.1,0,0,0,1.23,0,13,13,0,0,1,2.32-1.59"/><path class="cls-36" d="M247,170.27s5.18-3.13,7.45,11.35c-4.5,2.86-13.76,8.28-16.23,9.72a.58.58,0,0,1-.84-.32c-.8-2.34-3.72-9.94-7.74-9.67h0c5.15-3.05,19.51-8.66,19.51-8.66"/><path class="cls-22" d="M219.11,181.35s2.35,1.05,2.53,2.45a11.08,11.08,0,0,0-2.48.92,1.1,1.1,0,0,1-1.23,0,13,13,0,0,0-2.31-1.59"/><path class="cls-36" d="M201.75,170.27s-5.18-3.13-7.45,11.35c4.5,2.86,13.76,8.28,16.23,9.72a.58.58,0,0,0,.84-.32c.8-2.34,3.72-9.94,7.75-9.67,0,0,0,0,0,0-5.15-3.05-19.5-8.66-19.5-8.66"/><path class="cls-37" d="M222.23,190.06h0a9.06,9.06,0,0,1,9.06,9.06v3.53a0,0,0,0,1,0,0H217.4a0,0,0,0,1,0,0v-7.76A4.84,4.84,0,0,1,222.23,190.06Z"/><path class="cls-38" d="M202.1,186.94v3.43l.05-.15a2.28,2.28,0,0,1,2.7-1.49l.43.1Z"/><path class="cls-38" d="M246.68,186.92v3.43l-.05-.15a2.28,2.28,0,0,0-2.7-1.49l-.43.1Z"/><path class="cls-38" d="M202.38,166.09v2.09l.12-.4a.84.84,0,0,1,1.08-.55l.31.11Z"/><path class="cls-38" d="M246.37,166.66v2.09l-.13-.41a.85.85,0,0,0-1.08-.55l-.31.11Z"/></g><g class="cls-39"><path class="cls-40" d="M400.21,116.87v63.69a21.35,21.35,0,0,1-21.38,21.38H315.14a21.35,21.35,0,0,1-21.38-21.38V116.87a21.38,21.38,0,0,1,21.38-21.38h63.69A21.38,21.38,0,0,1,400.21,116.87Z"/><rect class="cls-41" x="349.72" y="187.98" width="7.02" height="16.41"/><path class="cls-42" d="M349.72,204.4v-11a4.47,4.47,0,0,1,7,0v11Z"/><path class="cls-41" d="M378.62,137.29l2.48,4a.27.27,0,0,1-.23.42l-2.94-.21a.28.28,0,0,1-.27-.31l.47-3.75A.27.27,0,0,1,378.62,137.29Z"/><path class="cls-43" d="M378,137.93a2.85,2.85,0,0,0-4.23-2.34L370,137.1a62.42,62.42,0,0,0-6.86,3.83l-5.39,4s-9.27-1.86-14.82-.8c-.49.09-1,.2-1.46.31h0c-11.26,2.61-19.43,10.45-19.43,19.71s8.14,17.06,19.36,19.67a15.65,15.65,0,0,0,1.53.41h0a18.53,18.53,0,0,0,3.69.45h.77a26.63,26.63,0,0,0,10.63-2.46,34.3,34.3,0,0,0,10.1-7.05,33.65,33.65,0,0,0,7.72-11.73A30.13,30.13,0,0,0,377.65,153Z"/><path class="cls-44" d="M381.67,142.86a2.85,2.85,0,0,0-4.23-2.34L373.69,142a62.42,62.42,0,0,0-6.86,3.83l-5.39,4s-9.27-1.86-14.82-.8c-.49.09-1,.2-1.46.31h0c-11.26,2.61-19.43,10.45-19.43,19.71s8.14,17.06,19.36,19.67a15.65,15.65,0,0,0,1.53.41h0a18.53,18.53,0,0,0,3.69.45h.77a26.63,26.63,0,0,0,10.63-2.46,34.3,34.3,0,0,0,10.1-7.05,33.65,33.65,0,0,0,7.72-11.73A30,30,0,0,0,381.32,158Z"/><path class="cls-45" d="M358.38,146a3,3,0,0,0-2-1.3c-2.79-.46-9.19-1.35-13.42-.54-.49.09-1,.2-1.46.31h0c-11.26,2.61-19.43,10.45-19.43,19.71a17.44,17.44,0,0,0,5.55,12.39,15.89,15.89,0,0,1-1.88-7.47c0-9.26,8.17-17.1,19.43-19.71h0c.48-.11,1-.22,1.46-.31,3.66-.7,8.94-.13,12.11.34a1,1,0,0,0,.93-1.49C359.23,147.25,358.75,146.54,358.38,146Z"/><path class="cls-44" d="M373.78,135.6h0a53,53,0,0,0-15.56,9l-.41.34c.16.31,1.56,2.47,2.48,3.9a1.42,1.42,0,0,0,2,.37l4.53-3.31A62.42,62.42,0,0,1,373.7,142l3.75-1.51.07,0a2.07,2.07,0,0,0,1.24-3C377.86,135.93,376.28,134.4,373.78,135.6Z"/><circle class="cls-46" cx="353.46" cy="168.23" r="6.23"/><line class="cls-47" x1="353.46" y1="159.06" x2="353.46" y2="177.4"/><line class="cls-47" x1="344.29" y1="168.23" x2="362.63" y2="168.23"/><path class="cls-48" d="M333.88,144a1,1,0,0,1,1,1v6c0,1.59-1.65,2.88-3.68,2.88a4.4,4.4,0,0,1-2.09-.52,1,1,0,0,1-.52-.86v-7.51a1,1,0,0,1,1-1Z"/><path class="cls-49" d="M334.64,147a.76.76,0,0,1,.21.54v3.37c0,1.49-1.44,2.71-3.29,2.87h-.39a4.39,4.39,0,0,1-2.27-.62.76.76,0,0,1-.34-.64v-4.72a.84.84,0,0,1,.16-.48,4,4,0,0,1,5.92-.33Z"/><path class="cls-50" d="M334.58,152a2.46,2.46,0,0,0,.14-.38.94.94,0,0,0,.06-.15,2.1,2.1,0,0,0,.07-.56v-3.68a4,4,0,0,0-6.29.32v5a.67.67,0,0,0,.3.57,4.37,4.37,0,0,0,2.31.65,2.77,2.77,0,0,0,.3,0l.07,0h0l.26-.05a.63.63,0,0,0,.19,0,3.57,3.57,0,0,0,.47-.11l.21-.07.41-.17.2-.1.34-.22.18-.13a3.84,3.84,0,0,0,.29-.27l.14-.15a2.27,2.27,0,0,0,.22-.32Z"/><circle class="cls-51" cx="343.66" cy="158.27" r="2.59"/><circle class="cls-51" cx="365.99" cy="170.51" r="2.59"/><polygon class="cls-52" points="366.82 167.92 367.74 165.66 367.54 168.23 366.82 167.92"/><polygon class="cls-52" points="364.35 168.51 363.48 166.48 365.25 167.92 364.35 168.51"/><polygon class="cls-52" points="364.56 172.83 364.56 175.03 365.46 173.21 364.56 172.83"/><polygon class="cls-52" points="366.65 173.1 368.3 174.63 368.05 172.29 366.65 173.1"/><polygon class="cls-52" points="340.89 157.97 338.81 159.18 341.07 158.97 340.89 157.97"/><polygon class="cls-52" points="344.29 155.55 345.84 154.13 345.67 156.48 344.29 155.55"/><polygon class="cls-52" points="346.37 157.46 350.61 156.66 346.37 158.48 346.37 157.46"/><polygon class="cls-52" points="341.5 159.96 341.21 162.21 343.08 160.85 341.5 159.96"/><polygon class="cls-52" points="325.96 175.03 340.59 176.61 327.51 177.4 325.96 175.03"/><polygon class="cls-52" points="381.38 155.31 368.57 155.31 381.38 156.66 381.38 155.31"/><path class="cls-53" d="M349.81,120.42a7.47,7.47,0,1,1-7.26-9.24,6.85,6.85,0,0,1,1.37.13,6.79,6.79,0,0,0-.22,1.76A7.46,7.46,0,0,0,349.81,120.42Z"/><path class="cls-45" d="M350,125.78a18.63,18.63,0,1,1-6.74-14.33,6.73,6.73,0,0,0,6,9.7h.1A18.21,18.21,0,0,1,350,125.78Z"/><path class="cls-54" d="M328.74,123.49h0a1.92,1.92,0,0,1-1.91-1.92v-5.84a1.91,1.91,0,0,1,1.91-1.91h0a1.91,1.91,0,0,1,1.92,1.91v.36l-1.61.91,1.61,1.08v3.49A1.92,1.92,0,0,1,328.74,123.49Z"/><path class="cls-54" d="M319.32,123.49h0a1.92,1.92,0,0,1-1.92-1.92v-5.84a1.91,1.91,0,0,1,1.92-1.91h0a1.91,1.91,0,0,1,1.91,1.91v.36l-1.61.91,1.61,1.08v3.49A1.92,1.92,0,0,1,319.32,123.49Z"/><path class="cls-55" d="M329.92,126.73a3.55,3.55,0,0,0,0,5.27"/><path class="cls-56" d="M328,128.61l-5.84-7a8.3,8.3,0,0,0-6.38-3,5.37,5.37,0,0,0-4.12,8.81l.42.5a2.41,2.41,0,0,1,.35,2.5,5.4,5.4,0,0,0,2.76,6.91l.22.1a5.45,5.45,0,0,0,2,.38,8.35,8.35,0,0,0,6.39-3l4.19-5A1,1,0,0,0,328,128.61Z"/><path class="cls-54" d="M318.08,122c-1.15-1.28-3.94-.37-4.46,1.85a3,3,0,0,0,.66,2.73l1.61,1.82a1.4,1.4,0,0,1,0,1.89l-.49.56a2.54,2.54,0,0,0-.61,2.2,2.81,2.81,0,0,0,4.86,1.61l5-5.31Z"/><path class="cls-2" d="M322.3,128.91h-2.82a2.5,2.5,0,0,0-1.86.84l-1.39,1.55a1.87,1.87,0,0,0,1.4,3.12h0a2.35,2.35,0,0,0,1.76-.8l3.34-3.74A.58.58,0,0,0,322.3,128.91Z"/><line class="cls-57" x1="321.66" y1="127.95" x2="320.04" y2="129.57"/></g></svg>